<?xml version="1.0" encoding="UTF-8" standalone="no"?>
<!-- Created with Inkscape (http://www.inkscape.org/) -->

<svg
   width="115.59376"
   height="18.388691"
   viewBox="0 0 30.584182 4.8653412"
   version="1.1"
   id="svg1"
   inkscape:version="1.4.2 (ebf0e940d0, 2025-05-08)"
   sodipodi:docname="bar_ornament_dots.svg"
   xmlns:inkscape="http://www.inkscape.org/namespaces/inkscape"
   xmlns:sodipodi="http://sodipodi.sourceforge.net/DTD/sodipodi-0.dtd"
   xmlns:xlink="http://www.w3.org/1999/xlink"
   xmlns="http://www.w3.org/2000/svg"
   xmlns:svg="http://www.w3.org/2000/svg">
  <sodipodi:namedview
     id="namedview1"
     pagecolor="#ffffff"
     bordercolor="#d82222"
     borderopacity="1"
     inkscape:showpageshadow="0"
     inkscape:pageopacity="0"
     inkscape:pagecheckerboard="0"
     inkscape:deskcolor="#505050"
     inkscape:document-units="px"
     inkscape:zoom="3.7581077"
     inkscape:cx="60.801876"
     inkscape:cy="18.759441"
     inkscape:window-width="1900"
     inkscape:window-height="995"
     inkscape:window-x="10"
     inkscape:window-y="75"
     inkscape:window-maximized="1"
     inkscape:current-layer="layer1" />
  <defs
     id="defs1">
    <linearGradient
       inkscape:collect="always"
       xlink:href="#linearGradient4813"
       id="linearGradient4814"
       x1="222.85864"
       y1="263.88882"
       x2="258.81625"
       y2="263.88882"
       gradientUnits="userSpaceOnUse"
       gradientTransform="matrix(-0.92681044,0,0,0.92681044,472.9715,-79.42361)" />
    <linearGradient
       id="linearGradient4813"
       inkscape:collect="always">
      <stop
         style="stop-color:#ffffff;stop-opacity:0;"
         offset="0"
         id="stop4814" />
      <stop
         style="stop-color:#a79eff;stop-opacity:1;"
         offset="0.64846504"
         id="stop4813" />
    </linearGradient>
  </defs>
  <g
     inkscape:label="Layer 1"
     inkscape:groupmode="layer"
     id="layer1"
     transform="translate(-233.09791,-162.71875)">
    <path
       id="path4672-3"
       style="fill:url(#linearGradient4814);stroke:#646464;stroke-width:0;paint-order:markers fill stroke"
       d="m 233.3842,162.71875 a 0.28618539,0.28618539 0 0 0 -0.28629,0.28629 0.28618539,0.28618539 0 0 0 0.28629,0.28628 0.28618539,0.28618539 0 0 0 0.28628,-0.28628 0.28618539,0.28618539 0 0 0 -0.28628,-0.28629 z m 0.85834,0 a 0.28618539,0.28618539 0 0 0 -0.28577,0.28629 0.28618539,0.28618539 0 0 0 0.28577,0.28628 0.28618539,0.28618539 0 0 0 0.28629,-0.28628 0.28618539,0.28618539 0 0 0 -0.28629,-0.28629 z m 0.85887,0 a 0.28618539,0.28618539 0 0 0 -0.28629,0.28629 0.28618539,0.28618539 0 0 0 0.28629,0.28628 0.28618539,0.28618539 0 0 0 0.28577,-0.28628 0.28618539,0.28618539 0 0 0 -0.28577,-0.28629 z m 0.85886,0 a 0.28618539,0.28618539 0 0 0 -0.28681,0.28629 0.28618539,0.28618539 0 0 0 0.28681,0.28628 0.28618539,0.28618539 0 0 0 0.28577,-0.28628 0.28618539,0.28618539 0 0 0 -0.28577,-0.28629 z m 0.85783,0 a 0.28618539,0.28618539 0 0 0 -0.28577,0.28629 0.28618539,0.28618539 0 0 0 0.28577,0.28628 0.28618539,0.28618539 0 0 0 0.2868,-0.28628 0.28618539,0.28618539 0 0 0 -0.2868,-0.28629 z m 0.85886,0 a 0.28618539,0.28618539 0 0 0 -0.28629,0.28629 0.28618539,0.28618539 0 0 0 0.28629,0.28628 0.28618539,0.28618539 0 0 0 0.28629,-0.28628 0.28618539,0.28618539 0 0 0 -0.28629,-0.28629 z m 0.85834,0 a 0.28618539,0.28618539 0 0 0 -0.28577,0.28629 0.28618539,0.28618539 0 0 0 0.28577,0.28628 0.28618539,0.28618539 0 0 0 0.28629,-0.28628 0.28618539,0.28618539 0 0 0 -0.28629,-0.28629 z m 0.85887,0 a 0.28618539,0.28618539 0 0 0 -0.28629,0.28629 0.28618539,0.28618539 0 0 0 0.28629,0.28628 0.28618539,0.28618539 0 0 0 0.28628,-0.28628 0.28618539,0.28618539 0 0 0 -0.28628,-0.28629 z m 0.85886,0 a 0.28618539,0.28618539 0 0 0 -0.28681,0.28629 0.28618539,0.28618539 0 0 0 0.28681,0.28628 0.28618539,0.28618539 0 0 0 0.28577,-0.28628 0.28618539,0.28618539 0 0 0 -0.28577,-0.28629 z m 0.85783,0 a 0.28618539,0.28618539 0 0 0 -0.28577,0.28629 0.28618539,0.28618539 0 0 0 0.28577,0.28628 0.28618539,0.28618539 0 0 0 0.2868,-0.28628 0.28618539,0.28618539 0 0 0 -0.2868,-0.28629 z m 0.85886,0 a 0.28618539,0.28618539 0 0 0 -0.28629,0.28629 0.28618539,0.28618539 0 0 0 0.28629,0.28628 0.28618539,0.28618539 0 0 0 0.28629,-0.28628 0.28618539,0.28618539 0 0 0 -0.28629,-0.28629 z m 0.85835,0 a 0.28618539,0.28618539 0 0 0 -0.28578,0.28629 0.28618539,0.28618539 0 0 0 0.28578,0.28628 0.28618539,0.28618539 0 0 0 0.28628,-0.28628 0.28618539,0.28618539 0 0 0 -0.28628,-0.28629 z m 0.85886,0 a 0.28618539,0.28618539 0 0 0 -0.28629,0.28629 0.28618539,0.28618539 0 0 0 0.28629,0.28628 0.28618539,0.28618539 0 0 0 0.28629,-0.28628 0.28618539,0.28618539 0 0 0 -0.28629,-0.28629 z m 0.85886,0 a 0.28618539,0.28618539 0 0 0 -0.2868,0.28629 0.28618539,0.28618539 0 0 0 0.2868,0.28628 0.28618539,0.28618539 0 0 0 0.28577,-0.28628 0.28618539,0.28618539 0 0 0 -0.28577,-0.28629 z m 0.85783,0 a 0.28618539,0.28618539 0 0 0 -0.28577,0.28629 0.28618539,0.28618539 0 0 0 0.28577,0.28628 0.28618539,0.28618539 0 0 0 0.2868,-0.28628 0.28618539,0.28618539 0 0 0 -0.2868,-0.28629 z m 0.85886,0 a 0.28618539,0.28618539 0 0 0 -0.28629,0.28629 0.28618539,0.28618539 0 0 0 0.28629,0.28628 0.28618539,0.28618539 0 0 0 0.28629,-0.28628 0.28618539,0.28618539 0 0 0 -0.28629,-0.28629 z m 0.85835,0 a 0.28618539,0.28618539 0 0 0 -0.28577,0.28629 0.28618539,0.28618539 0 0 0 0.28577,0.28628 0.28618539,0.28618539 0 0 0 0.28628,-0.28628 0.28618539,0.28618539 0 0 0 -0.28628,-0.28629 z m 0.85886,0 a 0.28618539,0.28618539 0 0 0 -0.28577,0.28629 0.28618539,0.28618539 0 0 0 0.28577,0.28628 0.28618539,0.28618539 0 0 0 0.28629,-0.28628 0.28618539,0.28618539 0 0 0 -0.28629,-0.28629 z m 0.85886,0 a 0.28618539,0.28618539 0 0 0 -0.2868,0.28629 0.28618539,0.28618539 0 0 0 0.2868,0.28628 0.28618539,0.28618539 0 0 0 0.28577,-0.28628 0.28618539,0.28618539 0 0 0 -0.28577,-0.28629 z m 0.85835,0 a 0.28618539,0.28618539 0 0 0 -0.28629,0.28629 0.28618539,0.28618539 0 0 0 0.28629,0.28628 0.28618539,0.28618539 0 0 0 0.28628,-0.28628 0.28618539,0.28618539 0 0 0 -0.28628,-0.28629 z m 0.85834,0 a 0.28618539,0.28618539 0 0 0 -0.28628,0.28629 0.28618539,0.28618539 0 0 0 0.28628,0.28628 0.28618539,0.28618539 0 0 0 0.28629,-0.28628 0.28618539,0.28618539 0 0 0 -0.28629,-0.28629 z m 0.85835,0 a 0.28618539,0.28618539 0 0 0 -0.28577,0.28629 0.28618539,0.28618539 0 0 0 0.28577,0.28628 0.28618539,0.28618539 0 0 0 0.28629,-0.28628 0.28618539,0.28618539 0 0 0 -0.28629,-0.28629 z m 0.85886,0 a 0.28618539,0.28618539 0 0 0 -0.28577,0.28629 0.28618539,0.28618539 0 0 0 0.28577,0.28628 0.28618539,0.28618539 0 0 0 0.28629,-0.28628 0.28618539,0.28618539 0 0 0 -0.28629,-0.28629 z m 0.82062,0 a 0.28617967,0.28618539 0 0 0 -0.28577,0.28629 0.28617967,0.28618539 0 0 0 0.28577,0.28628 0.28617967,0.28618539 0 0 0 0.28681,-0.28628 0.28617967,0.28618539 0 0 0 -0.28681,-0.28629 z m 0.85886,0 a 0.28617967,0.28618539 0 0 0 -0.28628,0.28629 0.28617967,0.28618539 0 0 0 0.28628,0.28628 0.28617967,0.28618539 0 0 0 0.28629,-0.28628 0.28617967,0.28618539 0 0 0 -0.28629,-0.28629 z m 0.85835,0 a 0.28617967,0.28618539 0 0 0 -0.28577,0.28629 0.28617967,0.28618539 0 0 0 0.28577,0.28628 0.28617967,0.28618539 0 0 0 0.28629,-0.28628 0.28617967,0.28618539 0 0 0 -0.28629,-0.28629 z m 0.85886,0 a 0.28617967,0.28618539 0 0 0 -0.28629,0.28629 0.28617967,0.28618539 0 0 0 0.28629,0.28628 0.28617967,0.28618539 0 0 0 0.28577,-0.28628 0.28617967,0.28618539 0 0 0 -0.28577,-0.28629 z m 0.85835,0 a 0.28617967,0.28618539 0 0 0 -0.28629,0.28629 0.28617967,0.28618539 0 0 0 0.28629,0.28628 0.28617967,0.28618539 0 0 0 0.28629,-0.28628 0.28617967,0.28618539 0 0 0 -0.28629,-0.28629 z m 0.85834,0 a 0.28617967,0.28618539 0 0 0 -0.28628,0.28629 0.28617967,0.28618539 0 0 0 0.28628,0.28628 0.28617967,0.28618539 0 0 0 0.28681,-0.28628 0.28617967,0.28618539 0 0 0 -0.28681,-0.28629 z m 0.85887,0 a 0.28617967,0.28618539 0 0 0 -0.28629,0.28629 0.28617967,0.28618539 0 0 0 0.28629,0.28628 0.28617967,0.28618539 0 0 0 0.28628,-0.28628 0.28617967,0.28618539 0 0 0 -0.28628,-0.28629 z m 0.85834,0 a 0.28617967,0.28618539 0 0 0 -0.28577,0.28629 0.28617967,0.28618539 0 0 0 0.28577,0.28628 0.28617967,0.28618539 0 0 0 0.28629,-0.28628 0.28617967,0.28618539 0 0 0 -0.28629,-0.28629 z m 0.85886,0 a 0.28617967,0.28618539 0 0 0 -0.28628,0.28629 0.28617967,0.28618539 0 0 0 0.28628,0.28628 0.28617967,0.28618539 0 0 0 0.28577,-0.28628 0.28617967,0.28618539 0 0 0 -0.28577,-0.28629 z m 0.85835,0 a 0.28617967,0.28618539 0 0 0 -0.28629,0.28629 0.28617967,0.28618539 0 0 0 0.28629,0.28628 0.28617967,0.28618539 0 0 0 0.28629,-0.28628 0.28617967,0.28618539 0 0 0 -0.28629,-0.28629 z m 0.85834,0 a 0.28617967,0.28618539 0 0 0 -0.28628,0.28629 0.28617967,0.28618539 0 0 0 0.28628,0.28628 0.28617967,0.28618539 0 0 0 0.28629,-0.28628 0.28617967,0.28618539 0 0 0 -0.28629,-0.28629 z m 0.85835,0 a 0.28617967,0.28618539 0 0 0 -0.28577,0.28629 0.28617967,0.28618539 0 0 0 0.28577,0.28628 0.28617967,0.28618539 0 0 0 0.2868,-0.28628 0.28617967,0.28618539 0 0 0 -0.2868,-0.28629 z m 0.85886,0 a 0.28617967,0.28618539 0 0 0 -0.28628,0.28629 0.28617967,0.28618539 0 0 0 0.28628,0.28628 0.28617967,0.28618539 0 0 0 0.28629,-0.28628 0.28617967,0.28618539 0 0 0 -0.28629,-0.28629 z m -30.0116,0.85886 a 0.28618539,0.28618539 0 0 0 -0.28629,0.28629 0.28618539,0.28618539 0 0 0 0.28629,0.28577 0.28618539,0.28618539 0 0 0 0.28628,-0.28577 0.28618539,0.28618539 0 0 0 -0.28628,-0.28629 z m 0.85834,0 a 0.28618539,0.28618539 0 0 0 -0.28577,0.28629 0.28618539,0.28618539 0 0 0 0.28577,0.28577 0.28618539,0.28618539 0 0 0 0.28629,-0.28577 0.28618539,0.28618539 0 0 0 -0.28629,-0.28629 z m 0.85887,0 a 0.28618539,0.28618539 0 0 0 -0.28629,0.28629 0.28618539,0.28618539 0 0 0 0.28629,0.28577 0.28618539,0.28618539 0 0 0 0.28577,-0.28577 0.28618539,0.28618539 0 0 0 -0.28577,-0.28629 z m 0.85886,0 a 0.28618539,0.28618539 0 0 0 -0.28681,0.28629 0.28618539,0.28618539 0 0 0 0.28681,0.28577 0.28618539,0.28618539 0 0 0 0.28577,-0.28577 0.28618539,0.28618539 0 0 0 -0.28577,-0.28629 z m 0.85783,0 a 0.28618539,0.28618539 0 0 0 -0.28577,0.28629 0.28618539,0.28618539 0 0 0 0.28577,0.28577 0.28618539,0.28618539 0 0 0 0.2868,-0.28577 0.28618539,0.28618539 0 0 0 -0.2868,-0.28629 z m 0.85886,0 a 0.28618539,0.28618539 0 0 0 -0.28629,0.28629 0.28618539,0.28618539 0 0 0 0.28629,0.28577 0.28618539,0.28618539 0 0 0 0.28629,-0.28577 0.28618539,0.28618539 0 0 0 -0.28629,-0.28629 z m 0.85834,0 a 0.28618539,0.28618539 0 0 0 -0.28577,0.28629 0.28618539,0.28618539 0 0 0 0.28577,0.28577 0.28618539,0.28618539 0 0 0 0.28629,-0.28577 0.28618539,0.28618539 0 0 0 -0.28629,-0.28629 z m 0.85887,0 a 0.28618539,0.28618539 0 0 0 -0.28629,0.28629 0.28618539,0.28618539 0 0 0 0.28629,0.28577 0.28618539,0.28618539 0 0 0 0.28628,-0.28577 0.28618539,0.28618539 0 0 0 -0.28628,-0.28629 z m 0.85886,0 a 0.28618539,0.28618539 0 0 0 -0.28681,0.28629 0.28618539,0.28618539 0 0 0 0.28681,0.28577 0.28618539,0.28618539 0 0 0 0.28577,-0.28577 0.28618539,0.28618539 0 0 0 -0.28577,-0.28629 z m 0.85783,0 a 0.28618539,0.28618539 0 0 0 -0.28577,0.28629 0.28618539,0.28618539 0 0 0 0.28577,0.28577 0.28618539,0.28618539 0 0 0 0.2868,-0.28577 0.28618539,0.28618539 0 0 0 -0.2868,-0.28629 z m 0.85886,0 a 0.28618539,0.28618539 0 0 0 -0.28629,0.28629 0.28618539,0.28618539 0 0 0 0.28629,0.28577 0.28618539,0.28618539 0 0 0 0.28629,-0.28577 0.28618539,0.28618539 0 0 0 -0.28629,-0.28629 z m 0.85835,0 a 0.28618539,0.28618539 0 0 0 -0.28578,0.28629 0.28618539,0.28618539 0 0 0 0.28578,0.28577 0.28618539,0.28618539 0 0 0 0.28628,-0.28577 0.28618539,0.28618539 0 0 0 -0.28628,-0.28629 z m 0.85886,0 a 0.28618539,0.28618539 0 0 0 -0.28629,0.28629 0.28618539,0.28618539 0 0 0 0.28629,0.28577 0.28618539,0.28618539 0 0 0 0.28629,-0.28577 0.28618539,0.28618539 0 0 0 -0.28629,-0.28629 z m 0.85886,0 a 0.28618539,0.28618539 0 0 0 -0.2868,0.28629 0.28618539,0.28618539 0 0 0 0.2868,0.28577 0.28618539,0.28618539 0 0 0 0.28577,-0.28577 0.28618539,0.28618539 0 0 0 -0.28577,-0.28629 z m 0.85783,0 a 0.28618539,0.28618539 0 0 0 -0.28577,0.28629 0.28618539,0.28618539 0 0 0 0.28577,0.28577 0.28618539,0.28618539 0 0 0 0.2868,-0.28577 0.28618539,0.28618539 0 0 0 -0.2868,-0.28629 z m 0.85886,0 a 0.28618539,0.28618539 0 0 0 -0.28629,0.28629 0.28618539,0.28618539 0 0 0 0.28629,0.28577 0.28618539,0.28618539 0 0 0 0.28629,-0.28577 0.28618539,0.28618539 0 0 0 -0.28629,-0.28629 z m 0.85835,0 a 0.28618539,0.28618539 0 0 0 -0.28577,0.28629 0.28618539,0.28618539 0 0 0 0.28577,0.28577 0.28618539,0.28618539 0 0 0 0.28628,-0.28577 0.28618539,0.28618539 0 0 0 -0.28628,-0.28629 z m 0.85886,0 a 0.28618539,0.28618539 0 0 0 -0.28577,0.28629 0.28618539,0.28618539 0 0 0 0.28577,0.28577 0.28618539,0.28618539 0 0 0 0.28629,-0.28577 0.28618539,0.28618539 0 0 0 -0.28629,-0.28629 z m 0.85886,0 a 0.28618539,0.28618539 0 0 0 -0.2868,0.28629 0.28618539,0.28618539 0 0 0 0.2868,0.28577 0.28618539,0.28618539 0 0 0 0.28577,-0.28577 0.28618539,0.28618539 0 0 0 -0.28577,-0.28629 z m 0.85835,0 a 0.28618539,0.28618539 0 0 0 -0.28629,0.28629 0.28618539,0.28618539 0 0 0 0.28629,0.28577 0.28618539,0.28618539 0 0 0 0.28628,-0.28577 0.28618539,0.28618539 0 0 0 -0.28628,-0.28629 z m 0.85834,0 a 0.28618539,0.28618539 0 0 0 -0.28628,0.28629 0.28618539,0.28618539 0 0 0 0.28628,0.28577 0.28618539,0.28618539 0 0 0 0.28629,-0.28577 0.28618539,0.28618539 0 0 0 -0.28629,-0.28629 z m 0.85835,0 a 0.28618539,0.28618539 0 0 0 -0.28577,0.28629 0.28618539,0.28618539 0 0 0 0.28577,0.28577 0.28618539,0.28618539 0 0 0 0.28629,-0.28577 0.28618539,0.28618539 0 0 0 -0.28629,-0.28629 z m 0.85886,0 a 0.28618539,0.28618539 0 0 0 -0.28577,0.28629 0.28618539,0.28618539 0 0 0 0.28577,0.28577 0.28618539,0.28618539 0 0 0 0.28629,-0.28577 0.28618539,0.28618539 0 0 0 -0.28629,-0.28629 z m 0.82062,0 a 0.28617967,0.28618539 0 0 0 -0.28577,0.28629 0.28617967,0.28618539 0 0 0 0.28577,0.28577 0.28617967,0.28618539 0 0 0 0.28681,-0.28577 0.28617967,0.28618539 0 0 0 -0.28681,-0.28629 z m 0.85886,0 a 0.28617967,0.28618539 0 0 0 -0.28628,0.28629 0.28617967,0.28618539 0 0 0 0.28628,0.28577 0.28617967,0.28618539 0 0 0 0.28629,-0.28577 0.28617967,0.28618539 0 0 0 -0.28629,-0.28629 z m 0.85835,0 a 0.28617967,0.28618539 0 0 0 -0.28577,0.28629 0.28617967,0.28618539 0 0 0 0.28577,0.28577 0.28617967,0.28618539 0 0 0 0.28629,-0.28577 0.28617967,0.28618539 0 0 0 -0.28629,-0.28629 z m 0.85886,0 a 0.28617967,0.28618539 0 0 0 -0.28629,0.28629 0.28617967,0.28618539 0 0 0 0.28629,0.28577 0.28617967,0.28618539 0 0 0 0.28577,-0.28577 0.28617967,0.28618539 0 0 0 -0.28577,-0.28629 z m 0.85835,0 a 0.28617967,0.28618539 0 0 0 -0.28629,0.28629 0.28617967,0.28618539 0 0 0 0.28629,0.28577 0.28617967,0.28618539 0 0 0 0.28629,-0.28577 0.28617967,0.28618539 0 0 0 -0.28629,-0.28629 z m 0.85834,0 a 0.28617967,0.28618539 0 0 0 -0.28628,0.28629 0.28617967,0.28618539 0 0 0 0.28628,0.28577 0.28617967,0.28618539 0 0 0 0.28681,-0.28577 0.28617967,0.28618539 0 0 0 -0.28681,-0.28629 z m 0.85887,0 a 0.28617967,0.28618539 0 0 0 -0.28629,0.28629 0.28617967,0.28618539 0 0 0 0.28629,0.28577 0.28617967,0.28618539 0 0 0 0.28628,-0.28577 0.28617967,0.28618539 0 0 0 -0.28628,-0.28629 z m 0.85834,0 a 0.28617967,0.28618539 0 0 0 -0.28577,0.28629 0.28617967,0.28618539 0 0 0 0.28577,0.28577 0.28617967,0.28618539 0 0 0 0.28629,-0.28577 0.28617967,0.28618539 0 0 0 -0.28629,-0.28629 z m 0.85886,0 a 0.28617967,0.28618539 0 0 0 -0.28628,0.28629 0.28617967,0.28618539 0 0 0 0.28628,0.28577 0.28617967,0.28618539 0 0 0 0.28577,-0.28577 0.28617967,0.28618539 0 0 0 -0.28577,-0.28629 z m 0.85835,0 a 0.28617967,0.28618539 0 0 0 -0.28629,0.28629 0.28617967,0.28618539 0 0 0 0.28629,0.28577 0.28617967,0.28618539 0 0 0 0.28629,-0.28577 0.28617967,0.28618539 0 0 0 -0.28629,-0.28629 z m 0.85834,0 a 0.28617967,0.28618539 0 0 0 -0.28628,0.28629 0.28617967,0.28618539 0 0 0 0.28628,0.28577 0.28617967,0.28618539 0 0 0 0.28629,-0.28577 0.28617967,0.28618539 0 0 0 -0.28629,-0.28629 z m 0.85835,0 a 0.28617967,0.28618539 0 0 0 -0.28577,0.28629 0.28617967,0.28618539 0 0 0 0.28577,0.28577 0.28617967,0.28618539 0 0 0 0.2868,-0.28577 0.28617967,0.28618539 0 0 0 -0.2868,-0.28629 z m 0.85886,0 a 0.28617967,0.28618539 0 0 0 -0.28628,0.28629 0.28617967,0.28618539 0 0 0 0.28628,0.28577 0.28617967,0.28618539 0 0 0 0.28629,-0.28577 0.28617967,0.28618539 0 0 0 -0.28629,-0.28629 z m -30.0116,0.85886 a 0.28618539,0.28618539 0 0 0 -0.28629,0.28578 0.28618539,0.28618539 0 0 0 0.28629,0.28628 0.28618539,0.28618539 0 0 0 0.28628,-0.28628 0.28618539,0.28618539 0 0 0 -0.28628,-0.28578 z m 0.85834,0 a 0.28618539,0.28618539 0 0 0 -0.28577,0.28578 0.28618539,0.28618539 0 0 0 0.28577,0.28628 0.28618539,0.28618539 0 0 0 0.28629,-0.28628 0.28618539,0.28618539 0 0 0 -0.28629,-0.28578 z m 0.85887,0 a 0.28618539,0.28618539 0 0 0 -0.28629,0.28578 0.28618539,0.28618539 0 0 0 0.28629,0.28628 0.28618539,0.28618539 0 0 0 0.28577,-0.28628 0.28618539,0.28618539 0 0 0 -0.28577,-0.28578 z m 0.85886,0 a 0.28618539,0.28618539 0 0 0 -0.28681,0.28578 0.28618539,0.28618539 0 0 0 0.28681,0.28628 0.28618539,0.28618539 0 0 0 0.28577,-0.28628 0.28618539,0.28618539 0 0 0 -0.28577,-0.28578 z m 0.85783,0 a 0.28618539,0.28618539 0 0 0 -0.28577,0.28578 0.28618539,0.28618539 0 0 0 0.28577,0.28628 0.28618539,0.28618539 0 0 0 0.2868,-0.28628 0.28618539,0.28618539 0 0 0 -0.2868,-0.28578 z m 0.85886,0 a 0.28618539,0.28618539 0 0 0 -0.28629,0.28578 0.28618539,0.28618539 0 0 0 0.28629,0.28628 0.28618539,0.28618539 0 0 0 0.28629,-0.28628 0.28618539,0.28618539 0 0 0 -0.28629,-0.28578 z m 0.85834,0 a 0.28618539,0.28618539 0 0 0 -0.28577,0.28578 0.28618539,0.28618539 0 0 0 0.28577,0.28628 0.28618539,0.28618539 0 0 0 0.28629,-0.28628 0.28618539,0.28618539 0 0 0 -0.28629,-0.28578 z m 0.85887,0 a 0.28618539,0.28618539 0 0 0 -0.28629,0.28578 0.28618539,0.28618539 0 0 0 0.28629,0.28628 0.28618539,0.28618539 0 0 0 0.28628,-0.28628 0.28618539,0.28618539 0 0 0 -0.28628,-0.28578 z m 0.85886,0 a 0.28618539,0.28618539 0 0 0 -0.28681,0.28578 0.28618539,0.28618539 0 0 0 0.28681,0.28628 0.28618539,0.28618539 0 0 0 0.28577,-0.28628 0.28618539,0.28618539 0 0 0 -0.28577,-0.28578 z m 0.85783,0 a 0.28618539,0.28618539 0 0 0 -0.28577,0.28578 0.28618539,0.28618539 0 0 0 0.28577,0.28628 0.28618539,0.28618539 0 0 0 0.2868,-0.28628 0.28618539,0.28618539 0 0 0 -0.2868,-0.28578 z m 0.85886,0 a 0.28618539,0.28618539 0 0 0 -0.28629,0.28578 0.28618539,0.28618539 0 0 0 0.28629,0.28628 0.28618539,0.28618539 0 0 0 0.28629,-0.28628 0.28618539,0.28618539 0 0 0 -0.28629,-0.28578 z m 0.85835,0 a 0.28618539,0.28618539 0 0 0 -0.28578,0.28578 0.28618539,0.28618539 0 0 0 0.28578,0.28628 0.28618539,0.28618539 0 0 0 0.28628,-0.28628 0.28618539,0.28618539 0 0 0 -0.28628,-0.28578 z m 0.85886,0 a 0.28618539,0.28618539 0 0 0 -0.28629,0.28578 0.28618539,0.28618539 0 0 0 0.28629,0.28628 0.28618539,0.28618539 0 0 0 0.28629,-0.28628 0.28618539,0.28618539 0 0 0 -0.28629,-0.28578 z m 0.85886,0 a 0.28618539,0.28618539 0 0 0 -0.2868,0.28578 0.28618539,0.28618539 0 0 0 0.2868,0.28628 0.28618539,0.28618539 0 0 0 0.28577,-0.28628 0.28618539,0.28618539 0 0 0 -0.28577,-0.28578 z m 0.85783,0 a 0.28618539,0.28618539 0 0 0 -0.28577,0.28578 0.28618539,0.28618539 0 0 0 0.28577,0.28628 0.28618539,0.28618539 0 0 0 0.2868,-0.28628 0.28618539,0.28618539 0 0 0 -0.2868,-0.28578 z m 0.85886,0 a 0.28618539,0.28618539 0 0 0 -0.28629,0.28578 0.28618539,0.28618539 0 0 0 0.28629,0.28628 0.28618539,0.28618539 0 0 0 0.28629,-0.28628 0.28618539,0.28618539 0 0 0 -0.28629,-0.28578 z m 0.85835,0 a 0.28618539,0.28618539 0 0 0 -0.28577,0.28578 0.28618539,0.28618539 0 0 0 0.28577,0.28628 0.28618539,0.28618539 0 0 0 0.28628,-0.28628 0.28618539,0.28618539 0 0 0 -0.28628,-0.28578 z m 0.85886,0 a 0.28618539,0.28618539 0 0 0 -0.28577,0.28578 0.28618539,0.28618539 0 0 0 0.28577,0.28628 0.28618539,0.28618539 0 0 0 0.28629,-0.28628 0.28618539,0.28618539 0 0 0 -0.28629,-0.28578 z m 0.85886,0 a 0.28618539,0.28618539 0 0 0 -0.2868,0.28578 0.28618539,0.28618539 0 0 0 0.2868,0.28628 0.28618539,0.28618539 0 0 0 0.28577,-0.28628 0.28618539,0.28618539 0 0 0 -0.28577,-0.28578 z m 0.85835,0 a 0.28618539,0.28618539 0 0 0 -0.28629,0.28578 0.28618539,0.28618539 0 0 0 0.28629,0.28628 0.28618539,0.28618539 0 0 0 0.28628,-0.28628 0.28618539,0.28618539 0 0 0 -0.28628,-0.28578 z m 0.85834,0 a 0.28618539,0.28618539 0 0 0 -0.28628,0.28578 0.28618539,0.28618539 0 0 0 0.28628,0.28628 0.28618539,0.28618539 0 0 0 0.28629,-0.28628 0.28618539,0.28618539 0 0 0 -0.28629,-0.28578 z m 0.85835,0 a 0.28618539,0.28618539 0 0 0 -0.28577,0.28578 0.28618539,0.28618539 0 0 0 0.28577,0.28628 0.28618539,0.28618539 0 0 0 0.28629,-0.28628 0.28618539,0.28618539 0 0 0 -0.28629,-0.28578 z m 0.85886,0 a 0.28618539,0.28618539 0 0 0 -0.28577,0.28578 0.28618539,0.28618539 0 0 0 0.28577,0.28628 0.28618539,0.28618539 0 0 0 0.28629,-0.28628 0.28618539,0.28618539 0 0 0 -0.28629,-0.28578 z m 0.82062,0 a 0.28617967,0.28618539 0 0 0 -0.28577,0.28578 0.28617967,0.28618539 0 0 0 0.28577,0.28628 0.28617967,0.28618539 0 0 0 0.28681,-0.28628 0.28617967,0.28618539 0 0 0 -0.28681,-0.28578 z m 0.85886,0 a 0.28617967,0.28618539 0 0 0 -0.28628,0.28578 0.28617967,0.28618539 0 0 0 0.28628,0.28628 0.28617967,0.28618539 0 0 0 0.28629,-0.28628 0.28617967,0.28618539 0 0 0 -0.28629,-0.28578 z m 0.85835,0 a 0.28617967,0.28618539 0 0 0 -0.28577,0.28578 0.28617967,0.28618539 0 0 0 0.28577,0.28628 0.28617967,0.28618539 0 0 0 0.28629,-0.28628 0.28617967,0.28618539 0 0 0 -0.28629,-0.28578 z m 0.85886,0 a 0.28617967,0.28618539 0 0 0 -0.28629,0.28578 0.28617967,0.28618539 0 0 0 0.28629,0.28628 0.28617967,0.28618539 0 0 0 0.28577,-0.28628 0.28617967,0.28618539 0 0 0 -0.28577,-0.28578 z m 0.85835,0 a 0.28617967,0.28618539 0 0 0 -0.28629,0.28578 0.28617967,0.28618539 0 0 0 0.28629,0.28628 0.28617967,0.28618539 0 0 0 0.28629,-0.28628 0.28617967,0.28618539 0 0 0 -0.28629,-0.28578 z m 0.85834,0 a 0.28617967,0.28618539 0 0 0 -0.28628,0.28578 0.28617967,0.28618539 0 0 0 0.28628,0.28628 0.28617967,0.28618539 0 0 0 0.28681,-0.28628 0.28617967,0.28618539 0 0 0 -0.28681,-0.28578 z m 0.85887,0 a 0.28617967,0.28618539 0 0 0 -0.28629,0.28578 0.28617967,0.28618539 0 0 0 0.28629,0.28628 0.28617967,0.28618539 0 0 0 0.28628,-0.28628 0.28617967,0.28618539 0 0 0 -0.28628,-0.28578 z m 0.85834,0 a 0.28617967,0.28618539 0 0 0 -0.28577,0.28578 0.28617967,0.28618539 0 0 0 0.28577,0.28628 0.28617967,0.28618539 0 0 0 0.28629,-0.28628 0.28617967,0.28618539 0 0 0 -0.28629,-0.28578 z m 0.85886,0 a 0.28617967,0.28618539 0 0 0 -0.28628,0.28578 0.28617967,0.28618539 0 0 0 0.28628,0.28628 0.28617967,0.28618539 0 0 0 0.28577,-0.28628 0.28617967,0.28618539 0 0 0 -0.28577,-0.28578 z m 0.85835,0 a 0.28617967,0.28618539 0 0 0 -0.28629,0.28578 0.28617967,0.28618539 0 0 0 0.28629,0.28628 0.28617967,0.28618539 0 0 0 0.28629,-0.28628 0.28617967,0.28618539 0 0 0 -0.28629,-0.28578 z m 0.85834,0 a 0.28617967,0.28618539 0 0 0 -0.28628,0.28578 0.28617967,0.28618539 0 0 0 0.28628,0.28628 0.28617967,0.28618539 0 0 0 0.28629,-0.28628 0.28617967,0.28618539 0 0 0 -0.28629,-0.28578 z m 0.85835,0 a 0.28617967,0.28618539 0 0 0 -0.28577,0.28578 0.28617967,0.28618539 0 0 0 0.28577,0.28628 0.28617967,0.28618539 0 0 0 0.2868,-0.28628 0.28617967,0.28618539 0 0 0 -0.2868,-0.28578 z m 0.85886,0 a 0.28617967,0.28618539 0 0 0 -0.28628,0.28578 0.28617967,0.28618539 0 0 0 0.28628,0.28628 0.28617967,0.28618539 0 0 0 0.28629,-0.28628 0.28617967,0.28618539 0 0 0 -0.28629,-0.28578 z m -30.0116,0.85783 a 0.28618539,0.28618539 0 0 0 -0.28629,0.28681 0.28618539,0.28618539 0 0 0 0.28629,0.28577 0.28618539,0.28618539 0 0 0 0.28628,-0.28577 0.28618539,0.28618539 0 0 0 -0.28628,-0.28681 z m 0.85834,0 a 0.28618539,0.28618539 0 0 0 -0.28577,0.28681 0.28618539,0.28618539 0 0 0 0.28577,0.28577 0.28618539,0.28618539 0 0 0 0.28629,-0.28577 0.28618539,0.28618539 0 0 0 -0.28629,-0.28681 z m 0.85887,0 a 0.28618539,0.28618539 0 0 0 -0.28629,0.28681 0.28618539,0.28618539 0 0 0 0.28629,0.28577 0.28618539,0.28618539 0 0 0 0.28577,-0.28577 0.28618539,0.28618539 0 0 0 -0.28577,-0.28681 z m 0.85886,0 a 0.28618539,0.28618539 0 0 0 -0.28681,0.28681 0.28618539,0.28618539 0 0 0 0.28681,0.28577 0.28618539,0.28618539 0 0 0 0.28577,-0.28577 0.28618539,0.28618539 0 0 0 -0.28577,-0.28681 z m 0.85783,0 a 0.28618539,0.28618539 0 0 0 -0.28577,0.28681 0.28618539,0.28618539 0 0 0 0.28577,0.28577 0.28618539,0.28618539 0 0 0 0.2868,-0.28577 0.28618539,0.28618539 0 0 0 -0.2868,-0.28681 z m 0.85886,0 a 0.28618539,0.28618539 0 0 0 -0.28629,0.28681 0.28618539,0.28618539 0 0 0 0.28629,0.28577 0.28618539,0.28618539 0 0 0 0.28629,-0.28577 0.28618539,0.28618539 0 0 0 -0.28629,-0.28681 z m 0.85834,0 a 0.28618539,0.28618539 0 0 0 -0.28577,0.28681 0.28618539,0.28618539 0 0 0 0.28577,0.28577 0.28618539,0.28618539 0 0 0 0.28629,-0.28577 0.28618539,0.28618539 0 0 0 -0.28629,-0.28681 z m 0.85887,0 a 0.28618539,0.28618539 0 0 0 -0.28629,0.28681 0.28618539,0.28618539 0 0 0 0.28629,0.28577 0.28618539,0.28618539 0 0 0 0.28628,-0.28577 0.28618539,0.28618539 0 0 0 -0.28628,-0.28681 z m 0.85886,0 a 0.28618539,0.28618539 0 0 0 -0.28681,0.28681 0.28618539,0.28618539 0 0 0 0.28681,0.28577 0.28618539,0.28618539 0 0 0 0.28577,-0.28577 0.28618539,0.28618539 0 0 0 -0.28577,-0.28681 z m 0.85783,0 a 0.28618539,0.28618539 0 0 0 -0.28577,0.28681 0.28618539,0.28618539 0 0 0 0.28577,0.28577 0.28618539,0.28618539 0 0 0 0.2868,-0.28577 0.28618539,0.28618539 0 0 0 -0.2868,-0.28681 z m 0.85886,0 a 0.28618539,0.28618539 0 0 0 -0.28629,0.28681 0.28618539,0.28618539 0 0 0 0.28629,0.28577 0.28618539,0.28618539 0 0 0 0.28629,-0.28577 0.28618539,0.28618539 0 0 0 -0.28629,-0.28681 z m 0.85835,0 a 0.28618539,0.28618539 0 0 0 -0.28578,0.28681 0.28618539,0.28618539 0 0 0 0.28578,0.28577 0.28618539,0.28618539 0 0 0 0.28628,-0.28577 0.28618539,0.28618539 0 0 0 -0.28628,-0.28681 z m 0.85886,0 a 0.28618539,0.28618539 0 0 0 -0.28629,0.28681 0.28618539,0.28618539 0 0 0 0.28629,0.28577 0.28618539,0.28618539 0 0 0 0.28629,-0.28577 0.28618539,0.28618539 0 0 0 -0.28629,-0.28681 z m 0.85886,0 a 0.28618539,0.28618539 0 0 0 -0.2868,0.28681 0.28618539,0.28618539 0 0 0 0.2868,0.28577 0.28618539,0.28618539 0 0 0 0.28577,-0.28577 0.28618539,0.28618539 0 0 0 -0.28577,-0.28681 z m 0.85783,0 a 0.28618539,0.28618539 0 0 0 -0.28577,0.28681 0.28618539,0.28618539 0 0 0 0.28577,0.28577 0.28618539,0.28618539 0 0 0 0.2868,-0.28577 0.28618539,0.28618539 0 0 0 -0.2868,-0.28681 z m 0.85886,0 a 0.28618539,0.28618539 0 0 0 -0.28629,0.28681 0.28618539,0.28618539 0 0 0 0.28629,0.28577 0.28618539,0.28618539 0 0 0 0.28629,-0.28577 0.28618539,0.28618539 0 0 0 -0.28629,-0.28681 z m 0.85835,0 a 0.28618539,0.28618539 0 0 0 -0.28577,0.28681 0.28618539,0.28618539 0 0 0 0.28577,0.28577 0.28618539,0.28618539 0 0 0 0.28628,-0.28577 0.28618539,0.28618539 0 0 0 -0.28628,-0.28681 z m 0.85886,0 a 0.28618539,0.28618539 0 0 0 -0.28577,0.28681 0.28618539,0.28618539 0 0 0 0.28577,0.28577 0.28618539,0.28618539 0 0 0 0.28629,-0.28577 0.28618539,0.28618539 0 0 0 -0.28629,-0.28681 z m 0.85886,0 a 0.28618539,0.28618539 0 0 0 -0.2868,0.28681 0.28618539,0.28618539 0 0 0 0.2868,0.28577 0.28618539,0.28618539 0 0 0 0.28577,-0.28577 0.28618539,0.28618539 0 0 0 -0.28577,-0.28681 z m 0.85835,0 a 0.28618539,0.28618539 0 0 0 -0.28629,0.28681 0.28618539,0.28618539 0 0 0 0.28629,0.28577 0.28618539,0.28618539 0 0 0 0.28628,-0.28577 0.28618539,0.28618539 0 0 0 -0.28628,-0.28681 z m 0.85834,0 a 0.28618539,0.28618539 0 0 0 -0.28628,0.28681 0.28618539,0.28618539 0 0 0 0.28628,0.28577 0.28618539,0.28618539 0 0 0 0.28629,-0.28577 0.28618539,0.28618539 0 0 0 -0.28629,-0.28681 z m 0.85835,0 a 0.28618539,0.28618539 0 0 0 -0.28577,0.28681 0.28618539,0.28618539 0 0 0 0.28577,0.28577 0.28618539,0.28618539 0 0 0 0.28629,-0.28577 0.28618539,0.28618539 0 0 0 -0.28629,-0.28681 z m 0.85886,0 a 0.28618539,0.28618539 0 0 0 -0.28577,0.28681 0.28618539,0.28618539 0 0 0 0.28577,0.28577 0.28618539,0.28618539 0 0 0 0.28629,-0.28577 0.28618539,0.28618539 0 0 0 -0.28629,-0.28681 z m 0.82062,0 a 0.28617967,0.28618539 0 0 0 -0.28577,0.28681 0.28617967,0.28618539 0 0 0 0.28577,0.28577 0.28617967,0.28618539 0 0 0 0.28681,-0.28577 0.28617967,0.28618539 0 0 0 -0.28681,-0.28681 z m 0.85886,0 a 0.28617967,0.28618539 0 0 0 -0.28628,0.28681 0.28617967,0.28618539 0 0 0 0.28628,0.28577 0.28617967,0.28618539 0 0 0 0.28629,-0.28577 0.28617967,0.28618539 0 0 0 -0.28629,-0.28681 z m 0.85835,0 a 0.28617967,0.28618539 0 0 0 -0.28577,0.28681 0.28617967,0.28618539 0 0 0 0.28577,0.28577 0.28617967,0.28618539 0 0 0 0.28629,-0.28577 0.28617967,0.28618539 0 0 0 -0.28629,-0.28681 z m 0.85886,0 a 0.28617967,0.28618539 0 0 0 -0.28629,0.28681 0.28617967,0.28618539 0 0 0 0.28629,0.28577 0.28617967,0.28618539 0 0 0 0.28577,-0.28577 0.28617967,0.28618539 0 0 0 -0.28577,-0.28681 z m 0.85835,0 a 0.28617967,0.28618539 0 0 0 -0.28629,0.28681 0.28617967,0.28618539 0 0 0 0.28629,0.28577 0.28617967,0.28618539 0 0 0 0.28629,-0.28577 0.28617967,0.28618539 0 0 0 -0.28629,-0.28681 z m 0.85834,0 a 0.28617967,0.28618539 0 0 0 -0.28628,0.28681 0.28617967,0.28618539 0 0 0 0.28628,0.28577 0.28617967,0.28618539 0 0 0 0.28681,-0.28577 0.28617967,0.28618539 0 0 0 -0.28681,-0.28681 z m 0.85887,0 a 0.28617967,0.28618539 0 0 0 -0.28629,0.28681 0.28617967,0.28618539 0 0 0 0.28629,0.28577 0.28617967,0.28618539 0 0 0 0.28628,-0.28577 0.28617967,0.28618539 0 0 0 -0.28628,-0.28681 z m 0.85834,0 a 0.28617967,0.28618539 0 0 0 -0.28577,0.28681 0.28617967,0.28618539 0 0 0 0.28577,0.28577 0.28617967,0.28618539 0 0 0 0.28629,-0.28577 0.28617967,0.28618539 0 0 0 -0.28629,-0.28681 z m 0.85886,0 a 0.28617967,0.28618539 0 0 0 -0.28628,0.28681 0.28617967,0.28618539 0 0 0 0.28628,0.28577 0.28617967,0.28618539 0 0 0 0.28577,-0.28577 0.28617967,0.28618539 0 0 0 -0.28577,-0.28681 z m 0.85835,0 a 0.28617967,0.28618539 0 0 0 -0.28629,0.28681 0.28617967,0.28618539 0 0 0 0.28629,0.28577 0.28617967,0.28618539 0 0 0 0.28629,-0.28577 0.28617967,0.28618539 0 0 0 -0.28629,-0.28681 z m 0.85834,0 a 0.28617967,0.28618539 0 0 0 -0.28628,0.28681 0.28617967,0.28618539 0 0 0 0.28628,0.28577 0.28617967,0.28618539 0 0 0 0.28629,-0.28577 0.28617967,0.28618539 0 0 0 -0.28629,-0.28681 z m 0.85835,0 a 0.28617967,0.28618539 0 0 0 -0.28577,0.28681 0.28617967,0.28618539 0 0 0 0.28577,0.28577 0.28617967,0.28618539 0 0 0 0.2868,-0.28577 0.28617967,0.28618539 0 0 0 -0.2868,-0.28681 z m 0.85886,0 a 0.28617967,0.28618539 0 0 0 -0.28628,0.28681 0.28617967,0.28618539 0 0 0 0.28628,0.28577 0.28617967,0.28618539 0 0 0 0.28629,-0.28577 0.28617967,0.28618539 0 0 0 -0.28629,-0.28681 z m -30.0116,0.85887 a 0.28618539,0.28618539 0 0 0 -0.28629,0.28577 0.28618539,0.28618539 0 0 0 0.28629,0.2868 0.28618539,0.28618539 0 0 0 0.28628,-0.2868 0.28618539,0.28618539 0 0 0 -0.28628,-0.28577 z m 0.85834,0 a 0.28618539,0.28618539 0 0 0 -0.28577,0.28577 0.28618539,0.28618539 0 0 0 0.28577,0.2868 0.28618539,0.28618539 0 0 0 0.28629,-0.2868 0.28618539,0.28618539 0 0 0 -0.28629,-0.28577 z m 0.85887,0 a 0.28618539,0.28618539 0 0 0 -0.28629,0.28577 0.28618539,0.28618539 0 0 0 0.28629,0.2868 0.28618539,0.28618539 0 0 0 0.28577,-0.2868 0.28618539,0.28618539 0 0 0 -0.28577,-0.28577 z m 0.85886,0 a 0.28618539,0.28618539 0 0 0 -0.28681,0.28577 0.28618539,0.28618539 0 0 0 0.28681,0.2868 0.28618539,0.28618539 0 0 0 0.28577,-0.2868 0.28618539,0.28618539 0 0 0 -0.28577,-0.28577 z m 0.85783,0 a 0.28618539,0.28618539 0 0 0 -0.28577,0.28577 0.28618539,0.28618539 0 0 0 0.28577,0.2868 0.28618539,0.28618539 0 0 0 0.2868,-0.2868 0.28618539,0.28618539 0 0 0 -0.2868,-0.28577 z m 0.85886,0 a 0.28618539,0.28618539 0 0 0 -0.28629,0.28577 0.28618539,0.28618539 0 0 0 0.28629,0.2868 0.28618539,0.28618539 0 0 0 0.28629,-0.2868 0.28618539,0.28618539 0 0 0 -0.28629,-0.28577 z m 0.85834,0 a 0.28618539,0.28618539 0 0 0 -0.28577,0.28577 0.28618539,0.28618539 0 0 0 0.28577,0.2868 0.28618539,0.28618539 0 0 0 0.28629,-0.2868 0.28618539,0.28618539 0 0 0 -0.28629,-0.28577 z m 0.85887,0 a 0.28618539,0.28618539 0 0 0 -0.28629,0.28577 0.28618539,0.28618539 0 0 0 0.28629,0.2868 0.28618539,0.28618539 0 0 0 0.28628,-0.2868 0.28618539,0.28618539 0 0 0 -0.28628,-0.28577 z m 0.85886,0 a 0.28618539,0.28618539 0 0 0 -0.28681,0.28577 0.28618539,0.28618539 0 0 0 0.28681,0.2868 0.28618539,0.28618539 0 0 0 0.28577,-0.2868 0.28618539,0.28618539 0 0 0 -0.28577,-0.28577 z m 0.85783,0 a 0.28618539,0.28618539 0 0 0 -0.28577,0.28577 0.28618539,0.28618539 0 0 0 0.28577,0.2868 0.28618539,0.28618539 0 0 0 0.2868,-0.2868 0.28618539,0.28618539 0 0 0 -0.2868,-0.28577 z m 0.85886,0 a 0.28618539,0.28618539 0 0 0 -0.28629,0.28577 0.28618539,0.28618539 0 0 0 0.28629,0.2868 0.28618539,0.28618539 0 0 0 0.28629,-0.2868 0.28618539,0.28618539 0 0 0 -0.28629,-0.28577 z m 0.85835,0 a 0.28618539,0.28618539 0 0 0 -0.28578,0.28577 0.28618539,0.28618539 0 0 0 0.28578,0.2868 0.28618539,0.28618539 0 0 0 0.28628,-0.2868 0.28618539,0.28618539 0 0 0 -0.28628,-0.28577 z m 0.85886,0 a 0.28618539,0.28618539 0 0 0 -0.28629,0.28577 0.28618539,0.28618539 0 0 0 0.28629,0.2868 0.28618539,0.28618539 0 0 0 0.28629,-0.2868 0.28618539,0.28618539 0 0 0 -0.28629,-0.28577 z m 0.85886,0 a 0.28618539,0.28618539 0 0 0 -0.2868,0.28577 0.28618539,0.28618539 0 0 0 0.2868,0.2868 0.28618539,0.28618539 0 0 0 0.28577,-0.2868 0.28618539,0.28618539 0 0 0 -0.28577,-0.28577 z m 0.85783,0 a 0.28618539,0.28618539 0 0 0 -0.28577,0.28577 0.28618539,0.28618539 0 0 0 0.28577,0.2868 0.28618539,0.28618539 0 0 0 0.2868,-0.2868 0.28618539,0.28618539 0 0 0 -0.2868,-0.28577 z m 0.85886,0 a 0.28618539,0.28618539 0 0 0 -0.28629,0.28577 0.28618539,0.28618539 0 0 0 0.28629,0.2868 0.28618539,0.28618539 0 0 0 0.28629,-0.2868 0.28618539,0.28618539 0 0 0 -0.28629,-0.28577 z m 0.85835,0 a 0.28618539,0.28618539 0 0 0 -0.28577,0.28577 0.28618539,0.28618539 0 0 0 0.28577,0.2868 0.28618539,0.28618539 0 0 0 0.28628,-0.2868 0.28618539,0.28618539 0 0 0 -0.28628,-0.28577 z m 0.85886,0 a 0.28618539,0.28618539 0 0 0 -0.28577,0.28577 0.28618539,0.28618539 0 0 0 0.28577,0.2868 0.28618539,0.28618539 0 0 0 0.28629,-0.2868 0.28618539,0.28618539 0 0 0 -0.28629,-0.28577 z m 0.85886,0 a 0.28618539,0.28618539 0 0 0 -0.2868,0.28577 0.28618539,0.28618539 0 0 0 0.2868,0.2868 0.28618539,0.28618539 0 0 0 0.28577,-0.2868 0.28618539,0.28618539 0 0 0 -0.28577,-0.28577 z m 0.85835,0 a 0.28618539,0.28618539 0 0 0 -0.28629,0.28577 0.28618539,0.28618539 0 0 0 0.28629,0.2868 0.28618539,0.28618539 0 0 0 0.28628,-0.2868 0.28618539,0.28618539 0 0 0 -0.28628,-0.28577 z m 0.85834,0 a 0.28618539,0.28618539 0 0 0 -0.28628,0.28577 0.28618539,0.28618539 0 0 0 0.28628,0.2868 0.28618539,0.28618539 0 0 0 0.28629,-0.2868 0.28618539,0.28618539 0 0 0 -0.28629,-0.28577 z m 0.85835,0 a 0.28618539,0.28618539 0 0 0 -0.28577,0.28577 0.28618539,0.28618539 0 0 0 0.28577,0.2868 0.28618539,0.28618539 0 0 0 0.28629,-0.2868 0.28618539,0.28618539 0 0 0 -0.28629,-0.28577 z m 0.85886,0 a 0.28618539,0.28618539 0 0 0 -0.28577,0.28577 0.28618539,0.28618539 0 0 0 0.28577,0.2868 0.28618539,0.28618539 0 0 0 0.28629,-0.2868 0.28618539,0.28618539 0 0 0 -0.28629,-0.28577 z m 0.82062,0 a 0.28617967,0.28618539 0 0 0 -0.28577,0.28577 0.28617967,0.28618539 0 0 0 0.28577,0.2868 0.28617967,0.28618539 0 0 0 0.28681,-0.2868 0.28617967,0.28618539 0 0 0 -0.28681,-0.28577 z m 0.85886,0 a 0.28617967,0.28618539 0 0 0 -0.28628,0.28577 0.28617967,0.28618539 0 0 0 0.28628,0.2868 0.28617967,0.28618539 0 0 0 0.28629,-0.2868 0.28617967,0.28618539 0 0 0 -0.28629,-0.28577 z m 0.85835,0 a 0.28617967,0.28618539 0 0 0 -0.28577,0.28577 0.28617967,0.28618539 0 0 0 0.28577,0.2868 0.28617967,0.28618539 0 0 0 0.28629,-0.2868 0.28617967,0.28618539 0 0 0 -0.28629,-0.28577 z m 0.85886,0 a 0.28617967,0.28618539 0 0 0 -0.28629,0.28577 0.28617967,0.28618539 0 0 0 0.28629,0.2868 0.28617967,0.28618539 0 0 0 0.28577,-0.2868 0.28617967,0.28618539 0 0 0 -0.28577,-0.28577 z m 0.85835,0 a 0.28617967,0.28618539 0 0 0 -0.28629,0.28577 0.28617967,0.28618539 0 0 0 0.28629,0.2868 0.28617967,0.28618539 0 0 0 0.28629,-0.2868 0.28617967,0.28618539 0 0 0 -0.28629,-0.28577 z m 0.85834,0 a 0.28617967,0.28618539 0 0 0 -0.28628,0.28577 0.28617967,0.28618539 0 0 0 0.28628,0.2868 0.28617967,0.28618539 0 0 0 0.28681,-0.2868 0.28617967,0.28618539 0 0 0 -0.28681,-0.28577 z m 0.85887,0 a 0.28617967,0.28618539 0 0 0 -0.28629,0.28577 0.28617967,0.28618539 0 0 0 0.28629,0.2868 0.28617967,0.28618539 0 0 0 0.28628,-0.2868 0.28617967,0.28618539 0 0 0 -0.28628,-0.28577 z m 0.85834,0 a 0.28617967,0.28618539 0 0 0 -0.28577,0.28577 0.28617967,0.28618539 0 0 0 0.28577,0.2868 0.28617967,0.28618539 0 0 0 0.28629,-0.2868 0.28617967,0.28618539 0 0 0 -0.28629,-0.28577 z m 0.85886,0 a 0.28617967,0.28618539 0 0 0 -0.28628,0.28577 0.28617967,0.28618539 0 0 0 0.28628,0.2868 0.28617967,0.28618539 0 0 0 0.28577,-0.2868 0.28617967,0.28618539 0 0 0 -0.28577,-0.28577 z m 0.85835,0 a 0.28617967,0.28618539 0 0 0 -0.28629,0.28577 0.28617967,0.28618539 0 0 0 0.28629,0.2868 0.28617967,0.28618539 0 0 0 0.28629,-0.2868 0.28617967,0.28618539 0 0 0 -0.28629,-0.28577 z m 0.85834,0 a 0.28617967,0.28618539 0 0 0 -0.28628,0.28577 0.28617967,0.28618539 0 0 0 0.28628,0.2868 0.28617967,0.28618539 0 0 0 0.28629,-0.2868 0.28617967,0.28618539 0 0 0 -0.28629,-0.28577 z m 0.85835,0 a 0.28617967,0.28618539 0 0 0 -0.28577,0.28577 0.28617967,0.28618539 0 0 0 0.28577,0.2868 0.28617967,0.28618539 0 0 0 0.2868,-0.2868 0.28617967,0.28618539 0 0 0 -0.2868,-0.28577 z m 0.85886,0 a 0.28617967,0.28618539 0 0 0 -0.28628,0.28577 0.28617967,0.28618539 0 0 0 0.28628,0.2868 0.28617967,0.28618539 0 0 0 0.28629,-0.2868 0.28617967,0.28618539 0 0 0 -0.28629,-0.28577 z m -30.0116,0.85834 a 0.28618539,0.28618539 0 0 0 -0.28629,0.28629 0.28618539,0.28618539 0 0 0 0.28629,0.28629 0.28618539,0.28618539 0 0 0 0.28628,-0.28629 0.28618539,0.28618539 0 0 0 -0.28628,-0.28629 z m 0.85834,0 a 0.28618539,0.28618539 0 0 0 -0.28577,0.28629 0.28618539,0.28618539 0 0 0 0.28577,0.28629 0.28618539,0.28618539 0 0 0 0.28629,-0.28629 0.28618539,0.28618539 0 0 0 -0.28629,-0.28629 z m 0.85887,0 a 0.28618539,0.28618539 0 0 0 -0.28629,0.28629 0.28618539,0.28618539 0 0 0 0.28629,0.28629 0.28618539,0.28618539 0 0 0 0.28577,-0.28629 0.28618539,0.28618539 0 0 0 -0.28577,-0.28629 z m 0.85886,0 a 0.28618539,0.28618539 0 0 0 -0.28681,0.28629 0.28618539,0.28618539 0 0 0 0.28681,0.28629 0.28618539,0.28618539 0 0 0 0.28577,-0.28629 0.28618539,0.28618539 0 0 0 -0.28577,-0.28629 z m 0.85783,0 a 0.28618539,0.28618539 0 0 0 -0.28577,0.28629 0.28618539,0.28618539 0 0 0 0.28577,0.28629 0.28618539,0.28618539 0 0 0 0.2868,-0.28629 0.28618539,0.28618539 0 0 0 -0.2868,-0.28629 z m 0.85886,0 a 0.28618539,0.28618539 0 0 0 -0.28629,0.28629 0.28618539,0.28618539 0 0 0 0.28629,0.28629 0.28618539,0.28618539 0 0 0 0.28629,-0.28629 0.28618539,0.28618539 0 0 0 -0.28629,-0.28629 z m 0.85834,0 a 0.28618539,0.28618539 0 0 0 -0.28577,0.28629 0.28618539,0.28618539 0 0 0 0.28577,0.28629 0.28618539,0.28618539 0 0 0 0.28629,-0.28629 0.28618539,0.28618539 0 0 0 -0.28629,-0.28629 z m 0.85887,0 a 0.28618539,0.28618539 0 0 0 -0.28629,0.28629 0.28618539,0.28618539 0 0 0 0.28629,0.28629 0.28618539,0.28618539 0 0 0 0.28628,-0.28629 0.28618539,0.28618539 0 0 0 -0.28628,-0.28629 z m 0.85886,0 a 0.28618539,0.28618539 0 0 0 -0.28681,0.28629 0.28618539,0.28618539 0 0 0 0.28681,0.28629 0.28618539,0.28618539 0 0 0 0.28577,-0.28629 0.28618539,0.28618539 0 0 0 -0.28577,-0.28629 z m 0.85783,0 a 0.28618539,0.28618539 0 0 0 -0.28577,0.28629 0.28618539,0.28618539 0 0 0 0.28577,0.28629 0.28618539,0.28618539 0 0 0 0.2868,-0.28629 0.28618539,0.28618539 0 0 0 -0.2868,-0.28629 z m 0.85886,0 a 0.28618539,0.28618539 0 0 0 -0.28629,0.28629 0.28618539,0.28618539 0 0 0 0.28629,0.28629 0.28618539,0.28618539 0 0 0 0.28629,-0.28629 0.28618539,0.28618539 0 0 0 -0.28629,-0.28629 z m 0.85835,0 a 0.28618539,0.28618539 0 0 0 -0.28578,0.28629 0.28618539,0.28618539 0 0 0 0.28578,0.28629 0.28618539,0.28618539 0 0 0 0.28628,-0.28629 0.28618539,0.28618539 0 0 0 -0.28628,-0.28629 z m 0.85886,0 a 0.28618539,0.28618539 0 0 0 -0.28629,0.28629 0.28618539,0.28618539 0 0 0 0.28629,0.28629 0.28618539,0.28618539 0 0 0 0.28629,-0.28629 0.28618539,0.28618539 0 0 0 -0.28629,-0.28629 z m 0.85886,0 a 0.28618539,0.28618539 0 0 0 -0.2868,0.28629 0.28618539,0.28618539 0 0 0 0.2868,0.28629 0.28618539,0.28618539 0 0 0 0.28577,-0.28629 0.28618539,0.28618539 0 0 0 -0.28577,-0.28629 z m 0.85783,0 a 0.28618539,0.28618539 0 0 0 -0.28577,0.28629 0.28618539,0.28618539 0 0 0 0.28577,0.28629 0.28618539,0.28618539 0 0 0 0.2868,-0.28629 0.28618539,0.28618539 0 0 0 -0.2868,-0.28629 z m 0.85886,0 a 0.28618539,0.28618539 0 0 0 -0.28629,0.28629 0.28618539,0.28618539 0 0 0 0.28629,0.28629 0.28618539,0.28618539 0 0 0 0.28629,-0.28629 0.28618539,0.28618539 0 0 0 -0.28629,-0.28629 z m 0.85835,0 a 0.28618539,0.28618539 0 0 0 -0.28577,0.28629 0.28618539,0.28618539 0 0 0 0.28577,0.28629 0.28618539,0.28618539 0 0 0 0.28628,-0.28629 0.28618539,0.28618539 0 0 0 -0.28628,-0.28629 z m 0.85886,0 a 0.28618539,0.28618539 0 0 0 -0.28577,0.28629 0.28618539,0.28618539 0 0 0 0.28577,0.28629 0.28618539,0.28618539 0 0 0 0.28629,-0.28629 0.28618539,0.28618539 0 0 0 -0.28629,-0.28629 z m 0.85886,0 a 0.28618539,0.28618539 0 0 0 -0.2868,0.28629 0.28618539,0.28618539 0 0 0 0.2868,0.28629 0.28618539,0.28618539 0 0 0 0.28577,-0.28629 0.28618539,0.28618539 0 0 0 -0.28577,-0.28629 z m 0.85835,0 a 0.28618539,0.28618539 0 0 0 -0.28629,0.28629 0.28618539,0.28618539 0 0 0 0.28629,0.28629 0.28618539,0.28618539 0 0 0 0.28628,-0.28629 0.28618539,0.28618539 0 0 0 -0.28628,-0.28629 z m 0.85834,0 a 0.28618539,0.28618539 0 0 0 -0.28628,0.28629 0.28618539,0.28618539 0 0 0 0.28628,0.28629 0.28618539,0.28618539 0 0 0 0.28629,-0.28629 0.28618539,0.28618539 0 0 0 -0.28629,-0.28629 z m 0.85835,0 a 0.28618539,0.28618539 0 0 0 -0.28577,0.28629 0.28618539,0.28618539 0 0 0 0.28577,0.28629 0.28618539,0.28618539 0 0 0 0.28629,-0.28629 0.28618539,0.28618539 0 0 0 -0.28629,-0.28629 z m 0.85886,0 a 0.28618539,0.28618539 0 0 0 -0.28577,0.28629 0.28618539,0.28618539 0 0 0 0.28577,0.28629 0.28618539,0.28618539 0 0 0 0.28629,-0.28629 0.28618539,0.28618539 0 0 0 -0.28629,-0.28629 z m 0.82062,0 a 0.28617967,0.28618539 0 0 0 -0.28577,0.28629 0.28617967,0.28618539 0 0 0 0.28577,0.28629 0.28617967,0.28618539 0 0 0 0.28681,-0.28629 0.28617967,0.28618539 0 0 0 -0.28681,-0.28629 z m 0.85886,0 a 0.28617967,0.28618539 0 0 0 -0.28628,0.28629 0.28617967,0.28618539 0 0 0 0.28628,0.28629 0.28617967,0.28618539 0 0 0 0.28629,-0.28629 0.28617967,0.28618539 0 0 0 -0.28629,-0.28629 z m 0.85835,0 a 0.28617967,0.28618539 0 0 0 -0.28577,0.28629 0.28617967,0.28618539 0 0 0 0.28577,0.28629 0.28617967,0.28618539 0 0 0 0.28629,-0.28629 0.28617967,0.28618539 0 0 0 -0.28629,-0.28629 z m 0.85886,0 a 0.28617967,0.28618539 0 0 0 -0.28629,0.28629 0.28617967,0.28618539 0 0 0 0.28629,0.28629 0.28617967,0.28618539 0 0 0 0.28577,-0.28629 0.28617967,0.28618539 0 0 0 -0.28577,-0.28629 z m 0.85835,0 a 0.28617967,0.28618539 0 0 0 -0.28629,0.28629 0.28617967,0.28618539 0 0 0 0.28629,0.28629 0.28617967,0.28618539 0 0 0 0.28629,-0.28629 0.28617967,0.28618539 0 0 0 -0.28629,-0.28629 z m 0.85834,0 a 0.28617967,0.28618539 0 0 0 -0.28628,0.28629 0.28617967,0.28618539 0 0 0 0.28628,0.28629 0.28617967,0.28618539 0 0 0 0.28681,-0.28629 0.28617967,0.28618539 0 0 0 -0.28681,-0.28629 z m 0.85887,0 a 0.28617967,0.28618539 0 0 0 -0.28629,0.28629 0.28617967,0.28618539 0 0 0 0.28629,0.28629 0.28617967,0.28618539 0 0 0 0.28628,-0.28629 0.28617967,0.28618539 0 0 0 -0.28628,-0.28629 z m 0.85834,0 a 0.28617967,0.28618539 0 0 0 -0.28577,0.28629 0.28617967,0.28618539 0 0 0 0.28577,0.28629 0.28617967,0.28618539 0 0 0 0.28629,-0.28629 0.28617967,0.28618539 0 0 0 -0.28629,-0.28629 z m 0.85886,0 a 0.28617967,0.28618539 0 0 0 -0.28628,0.28629 0.28617967,0.28618539 0 0 0 0.28628,0.28629 0.28617967,0.28618539 0 0 0 0.28577,-0.28629 0.28617967,0.28618539 0 0 0 -0.28577,-0.28629 z m 0.85835,0 a 0.28617967,0.28618539 0 0 0 -0.28629,0.28629 0.28617967,0.28618539 0 0 0 0.28629,0.28629 0.28617967,0.28618539 0 0 0 0.28629,-0.28629 0.28617967,0.28618539 0 0 0 -0.28629,-0.28629 z m 0.85834,0 a 0.28617967,0.28618539 0 0 0 -0.28628,0.28629 0.28617967,0.28618539 0 0 0 0.28628,0.28629 0.28617967,0.28618539 0 0 0 0.28629,-0.28629 0.28617967,0.28618539 0 0 0 -0.28629,-0.28629 z m 0.85835,0 a 0.28617967,0.28618539 0 0 0 -0.28577,0.28629 0.28617967,0.28618539 0 0 0 0.28577,0.28629 0.28617967,0.28618539 0 0 0 0.2868,-0.28629 0.28617967,0.28618539 0 0 0 -0.2868,-0.28629 z m 0.85886,0 a 0.28617967,0.28618539 0 0 0 -0.28628,0.28629 0.28617967,0.28618539 0 0 0 0.28628,0.28629 0.28617967,0.28618539 0 0 0 0.28629,-0.28629 0.28617967,0.28618539 0 0 0 -0.28629,-0.28629 z" />
  </g>
</svg>
