<?xml version="1.0" encoding="UTF-8" standalone="no"?>
<!-- Created with Inkscape (http://www.inkscape.org/) -->

<svg
   width="101.73563"
   height="24.999926"
   viewBox="0 0 26.917551 6.6145636"
   version="1.1"
   id="svg1"
   inkscape:version="1.4.2 (ebf0e940d0, 2025-05-08)"
   sodipodi:docname="bar_ornament_ship.svg"
   xmlns:inkscape="http://www.inkscape.org/namespaces/inkscape"
   xmlns:sodipodi="http://sodipodi.sourceforge.net/DTD/sodipodi-0.dtd"
   xmlns="http://www.w3.org/2000/svg"
   xmlns:svg="http://www.w3.org/2000/svg">
  <sodipodi:namedview
     id="namedview1"
     pagecolor="#ffffff"
     bordercolor="#d82222"
     borderopacity="1"
     inkscape:showpageshadow="0"
     inkscape:pageopacity="0"
     inkscape:pagecheckerboard="0"
     inkscape:deskcolor="#505050"
     inkscape:document-units="px"
     inkscape:zoom="4.8881215"
     inkscape:cx="39.585759"
     inkscape:cy="37.949139"
     inkscape:window-width="1900"
     inkscape:window-height="995"
     inkscape:window-x="10"
     inkscape:window-y="75"
     inkscape:window-maximized="1"
     inkscape:current-layer="layer1" />
  <defs
     id="defs1" />
  <g
     inkscape:label="Layer 1"
     inkscape:groupmode="layer"
     id="layer1"
     transform="translate(-153.19375,-89.958353)">
    <path
       sodipodi:type="star"
       style="opacity:0.25;fill:#646464;fill-opacity:1;stroke:none;stroke-width:1;stroke-linecap:round;stroke-dasharray:none;stroke-opacity:1;paint-order:markers fill stroke"
       id="path4818-4"
       inkscape:flatsided="true"
       sodipodi:sides="3"
       sodipodi:cx="164.12061"
       sodipodi:cy="246.1787"
       sodipodi:r1="4.7185159"
       sodipodi:r2="2.3592579"
       sodipodi:arg1="0"
       sodipodi:arg2="1.0471976"
       inkscape:rounded="0"
       inkscape:randomized="0"
       d="m 168.83912,246.1787 -7.07777,4.08635 v -8.17271 z"
       inkscape:transform-center-x="-0.56855425"
       transform="matrix(0.48197926,0,0,0.48197926,75.228134,-25.387449)"
       inkscape:transform-center-y="-1.4040916e-06" />
    <path
       sodipodi:type="star"
       style="opacity:0.375;fill:#646464;fill-opacity:1;stroke:none;stroke-width:1;stroke-linecap:round;stroke-dasharray:none;stroke-opacity:1;paint-order:markers fill stroke"
       id="use4818-5"
       inkscape:flatsided="true"
       sodipodi:sides="3"
       sodipodi:cx="164.12061"
       sodipodi:cy="246.1787"
       sodipodi:r1="4.7185159"
       sodipodi:r2="2.3592579"
       sodipodi:arg1="0"
       sodipodi:arg2="1.0471976"
       inkscape:rounded="0"
       inkscape:randomized="0"
       d="m 168.83912,246.1787 -7.07777,4.08635 v -8.17271 z"
       inkscape:transform-center-x="-0.56855353"
       transform="matrix(0.48197926,0,0,0.48197926,79.899949,-25.387449)"
       inkscape:transform-center-y="-1.4040916e-06" />
    <path
       sodipodi:type="star"
       style="opacity:0.5;fill:#646464;fill-opacity:1;stroke:none;stroke-width:1;stroke-linecap:round;stroke-dasharray:none;stroke-opacity:1;paint-order:markers fill stroke"
       id="use4819-0"
       inkscape:flatsided="true"
       sodipodi:sides="3"
       sodipodi:cx="164.12061"
       sodipodi:cy="246.1787"
       sodipodi:r1="4.7185159"
       sodipodi:r2="2.3592579"
       sodipodi:arg1="0"
       sodipodi:arg2="1.0471976"
       inkscape:rounded="0"
       inkscape:randomized="0"
       d="m 168.83912,246.1787 -7.07777,4.08635 v -8.17271 z"
       inkscape:transform-center-x="-0.56855394"
       transform="matrix(0.48197926,0,0,0.48197926,83.991577,-25.387449)"
       inkscape:transform-center-y="-1.4040916e-06" />
    <path
       id="path867-9-0"
       style="color:#000000;font-size:88.1944px;line-height:7.50002px;font-family:TRACEROUTE;-inkscape-font-specification:TRACEROUTE;opacity:0.5;fill:#646464;fill-opacity:1;stroke:none;stroke-width:0;stroke-dasharray:none;stroke-opacity:1"
       d="m 169.65373,89.958699 c -0.32077,0.01955 -1.73678,0.677672 -1.87414,0.979027 -0.15158,0.37021 0.35255,0.969488 0.87816,1.376517 l 0.0178,0.831698 0.0112,0.283304 0.0178,0.831699 c -0.50802,0.42871 -0.98784,1.049725 -0.81961,1.41246 0.15977,0.315003 1.79029,0.97465 1.96228,0.892491 0.9592,-0.451739 1.17762,-1.355744 1.8239,-1.553539 3.2612,-0.998307 4.32301,-0.964728 6.43167,-1.233366 1.44426,-0.183908 1.98609,-0.644967 1.98609,-0.644967 l 0.0112,-0.01162 2e-5,-0.144286 0.0112,-0.01162 c 0,0 -0.56056,-0.438414 -2.01139,-0.561809 -2.11793,-0.180162 -3.17747,-0.102196 -6.47765,-0.963061 -0.65385,-0.170683 -0.90995,-1.064788 -1.88735,-1.475859 -0.0121,-0.0083 -0.0279,-0.0078 -0.049,-0.007 z" />
  </g>
</svg>
