<?xml version="1.0" encoding="UTF-8" standalone="no"?>
<!-- Created with Inkscape (http://www.inkscape.org/) -->

<svg
   width="100.929"
   height="30.000103"
   viewBox="0 0 26.704132 7.9375273"
   version="1.1"
   id="svg1"
   inkscape:version="1.4.2 (ebf0e940d0, 2025-05-08)"
   sodipodi:docname="bar_ornament_logos.svg"
   xmlns:inkscape="http://www.inkscape.org/namespaces/inkscape"
   xmlns:sodipodi="http://sodipodi.sourceforge.net/DTD/sodipodi-0.dtd"
   xmlns:xlink="http://www.w3.org/1999/xlink"
   xmlns="http://www.w3.org/2000/svg"
   xmlns:svg="http://www.w3.org/2000/svg">
  <sodipodi:namedview
     id="namedview1"
     pagecolor="#ffffff"
     bordercolor="#d82222"
     borderopacity="1"
     inkscape:showpageshadow="0"
     inkscape:pageopacity="0"
     inkscape:pagecheckerboard="0"
     inkscape:deskcolor="#505050"
     inkscape:document-units="px"
     inkscape:zoom="2.5984312"
     inkscape:cx="39.831727"
     inkscape:cy="2.886357"
     inkscape:window-width="1900"
     inkscape:window-height="995"
     inkscape:window-x="10"
     inkscape:window-y="75"
     inkscape:window-maximized="1"
     inkscape:current-layer="layer1" />
  <defs
     id="defs1" />
  <g
     inkscape:label="Layer 1"
     inkscape:groupmode="layer"
     id="layer1"
     transform="translate(-152.4,-88.9)">
    <path
       id="path4674"
       style="fill:#646464;fill-opacity:1;stroke:none;stroke-width:0.227715;stroke-linecap:round;stroke-dasharray:none;stroke-opacity:1;paint-order:markers fill stroke"
       d="m 156.36875,88.9 c -2.19188,7e-6 -3.96874,1.776874 -3.96875,3.96875 1e-5,2.191884 1.77687,3.968742 3.96875,3.96875 2.19187,-8e-6 3.96874,-1.776866 3.96875,-3.96875 -1e-5,-2.191876 -1.77688,-3.968743 -3.96875,-3.96875 z m 9e-5,0.693597 c 1.4702,4.97e-4 2.7599,0.980593 3.15412,2.396946 -0.56475,-0.04349 -1.11791,-0.07292 -1.58957,-0.07107 -0.0629,1.84e-4 -0.12427,6.58e-4 -0.18404,0.003 0.52179,0.08007 1.19735,0.226686 1.87753,0.615204 0.0113,0.110161 0.0169,0.220817 0.017,0.331555 -0.003,0.708285 -0.23552,1.396516 -0.66271,1.961478 -0.28146,-1.122982 -0.68362,-2.117071 -1.41511,-2.56129 0.69111,0.744401 0.66307,2.120738 0.38862,3.45594 -0.48452,0.271925 -1.03025,0.416121 -1.58586,0.419018 -0.061,-0.003 -0.12193,-0.0067 -0.18269,-0.01311 0.87244,-1.02584 1.02961,-2.491195 0.95745,-3.652208 -0.22765,0.85325 -0.29968,2.140035 -2.64015,3.074582 -0.8808,-0.61029 -1.40735,-1.612855 -1.40985,-2.684426 0,-1.808857 1.4664,-3.275205 3.27524,-3.275152 z m -0.37735,0.979356 -0.14024,0.04535 -0.0431,0.14015 c 0.24244,0.306657 0.51818,0.550972 0.73988,0.909567 l -0.0138,0.269406 0.29809,0.297995 0.28709,-0.08978 -0.0755,-0.07975 c 0.10888,-0.04431 0.22546,-0.160586 0.25909,-0.259179 l 0.0717,0.07174 0.0904,-0.28939 -0.29772,-0.297704 -0.26615,0.01386 c -0.36582,-0.224954 -0.60501,-0.491943 -0.90956,-0.732221 z"
       sodipodi:nodetypes="ssssscccccccccccccccccccccccccccccsc" />
    <g
       id="g3"
       transform="matrix(0.05880413,0,0,0.05880413,95.25094,76.06547)"
       inkscape:export-filename="transcendence_icon.png"
       inkscape:export-xdpi="385.38266"
       inkscape:export-ydpi="385.38266"
       style="fill:#646464">
      <path
         id="path1-8"
         style="fill:#646464;fill-opacity:1;stroke-width:0.574722;stroke-linecap:square;stroke-linejoin:round;stroke-miterlimit:0"
         d="m 1199.4858,218.259 a 67.490759,67.490759 0 0 0 -67.4909,67.491 67.490759,67.490759 0 0 0 67.4909,67.491 67.490759,67.490759 0 0 0 67.4897,-67.491 67.490759,67.490759 0 0 0 -67.4897,-67.491 z m 0,5.32417 a 62.166755,62.166755 0 0 1 62.1655,62.16683 62.166755,62.166755 0 0 1 -62.1655,62.16541 62.166755,62.166755 0 0 1 -62.1667,-62.16541 62.166755,62.166755 0 0 1 62.1667,-62.16683 z" />
      <path
         sodipodi:type="star"
         style="fill:#646464;fill-opacity:1;stroke-width:0.2;stroke-linecap:square;stroke-linejoin:round;stroke-miterlimit:0"
         id="path2-7"
         inkscape:flatsided="false"
         sodipodi:sides="4"
         sodipodi:cx="305.93692"
         sodipodi:cy="27.516617"
         sodipodi:r1="5.5539579"
         sodipodi:r2="1.4440291"
         sodipodi:arg1="0"
         sodipodi:arg2="0.78539816"
         inkscape:rounded="0.04"
         inkscape:randomized="0"
         d="m 311.49088,27.516617 c 0,0.185858 -4.40146,0.889661 -4.53288,1.021083 -0.13142,0.131421 -0.83522,4.532875 -1.02108,4.532875 -0.18586,0 -0.88966,-4.401454 -1.02108,-4.532875 -0.13142,-0.131422 -4.53288,-0.835225 -4.53288,-1.021083 0,-0.185858 4.40146,-0.889661 4.53288,-1.021083 0.13142,-0.131422 0.83522,-4.532875 1.02108,-4.532875 0.18586,0 0.88966,4.401453 1.02108,4.532875 0.13142,0.131422 4.53288,0.835225 4.53288,1.021083 z"
         inkscape:transform-center-x="3.8543234e-06"
         transform="matrix(2.7423214,0,0,2.7423214,342.93582,177.80699)" />
      <path
         sodipodi:type="star"
         style="fill:#646464;fill-opacity:1;stroke-width:0.2;stroke-linecap:square;stroke-linejoin:round;stroke-miterlimit:0"
         id="path2-6"
         inkscape:flatsided="false"
         sodipodi:sides="4"
         sodipodi:cx="305.93692"
         sodipodi:cy="27.516617"
         sodipodi:r1="5.5539579"
         sodipodi:r2="1.4440291"
         sodipodi:arg1="0"
         sodipodi:arg2="0.78539816"
         inkscape:rounded="0.04"
         inkscape:randomized="0"
         d="m 311.49088,27.516617 c 0,0.185858 -4.40146,0.889661 -4.53288,1.021083 -0.13142,0.131421 -0.83522,4.532875 -1.02108,4.532875 -0.18586,0 -0.88966,-4.401454 -1.02108,-4.532875 -0.13142,-0.131422 -4.53288,-0.835225 -4.53288,-1.021083 0,-0.185858 4.40146,-0.889661 4.53288,-1.021083 0.13142,-0.131422 0.83522,-4.532875 1.02108,-4.532875 0.18586,0 0.88966,4.401453 1.02108,4.532875 0.13142,0.131422 4.53288,0.835225 4.53288,1.021083 z"
         transform="matrix(1.6442833,0,0,1.6442833,665.22568,231.00641)" />
      <path
         sodipodi:type="star"
         style="fill:#646464;fill-opacity:1;stroke-width:0.2;stroke-linecap:square;stroke-linejoin:round;stroke-miterlimit:0"
         id="path2-6-5"
         inkscape:flatsided="false"
         sodipodi:sides="4"
         sodipodi:cx="305.93692"
         sodipodi:cy="27.516617"
         sodipodi:r1="5.5539579"
         sodipodi:r2="1.4440291"
         sodipodi:arg1="0"
         sodipodi:arg2="0.78539816"
         inkscape:rounded="0.04"
         inkscape:randomized="0"
         d="m 311.49088,27.516617 c 0,0.185858 -4.40146,0.889661 -4.53288,1.021083 -0.13142,0.131421 -0.83522,4.532875 -1.02108,4.532875 -0.18586,0 -0.88966,-4.401454 -1.02108,-4.532875 -0.13142,-0.131422 -4.53288,-0.835225 -4.53288,-1.021083 0,-0.185858 4.40146,-0.889661 4.53288,-1.021083 0.13142,-0.131422 0.83522,-4.532875 1.02108,-4.532875 0.18586,0 0.88966,4.401453 1.02108,4.532875 0.13142,0.131422 4.53288,0.835225 4.53288,1.021083 z"
         transform="matrix(1.1640494,0,0,1.1640494,831.92377,240.83395)" />
      <path
         id="path4"
         style="fill:#646464;fill-opacity:1;stroke-width:0.40718;stroke-linecap:square;stroke-linejoin:round;stroke-miterlimit:0"
         d="m 1218.2598,243.72507 c -1.2165,10.40861 -1.1447,20.26528 -3.7413,31.26525 l -4.8452,4.84524 v 11.29885 l 8.0553,4.65106 0.082,-2.94448 c 2.8251,2.14801 5.6119,1.83988 8.0054,-7.5e-4 v 2.71833 l 8.1074,-4.68082 v -11.28694 l -4.785,-4.78498 c -2.67,-11.1988 -2.666,-20.7936 -3.8848,-31.12168 l -3.5165,-1.79957 z m 2.7466,23.43537 1.5935,-0.0625 1.6129,4.67636 c 0.4222,3.30265 1.2641,6.29075 1.2624,9.91141 -2.5306,0.52708 -4.9806,0.59693 -7.3456,0.18599 -0.1506,-3.31112 0.8391,-7.0017 1.2833,-10.51102 z" />
      <path
         id="path5"
         style="fill:#646464;fill-opacity:1;stroke-width:0.548464;stroke-linecap:square;stroke-linejoin:round;stroke-miterlimit:0"
         d="m 1233.4389,294.6337 a 24.487232,24.487232 0 0 1 -2.5006,1.36529 c 3.8555,9.64344 13.1186,18.10718 22.3377,26.5808 5.6526,-8.49924 9.4374,-17.8247 11.5708,-26.41647 -11.0909,3.53447 -22.0648,6.29816 -31.4079,-1.52962 z m -5.456,2.52697 a 24.487232,24.487232 0 0 1 -2.406,0.62632 c 2.2647,14.38821 2.8866,30.43395 9.6108,43.33172 5.3742,-3.63992 10.0074,-8.03919 13.933,-12.88138 -9.6717,-9.57298 -18.3053,-20.02731 -21.1378,-31.07666 z m -12.7501,0.61805 c -9.8063,29.65474 -35.6242,39.57704 -48.1232,46.75684 14.5115,5.47373 27.2086,7.35467 38.2416,6.63629 6.1187,-19.60854 12.7262,-44.51093 13.2509,-52.90323 a 24.487232,24.487232 0 0 1 -3.3693,-0.4899 z m 7.4616,0.45786 a 24.487232,24.487232 0 0 1 -2.2707,0.16226 24.487232,24.487232 0 0 1 -0.3188,-0.0227 c 0.1488,20.34305 -2.6858,35.98176 -8.2238,52.04075 6.6089,-1.1091 12.5564,-3.19173 17.8702,-6.0048 -4.5884,-12.79643 -5.5912,-29.75453 -7.0569,-46.17547 z" />
      <use
         x="0"
         y="0"
         xlink:href="#path1-8"
         id="use9"
         transform="matrix(0.92963622,0,0,0.92963622,84.400314,20.10645)"
         style="fill:#646464" />
    </g>
    <g
       id="g8"
       transform="matrix(0.19730263,0,0,0.19730263,139.29662,71.922708)"
       style="fill:#646464">
      <path
         d="m 177.55374,96.795146 c -1.30633,1.032708 -2.346,2.208259 -3.87355,3.152459 l -1.14733,-0.06033 -1.27017,1.271585 0.38167,1.22369 0.33939,-0.3227 c 0.18944,0.4638 0.68435,0.95891 1.10381,1.10239 l -0.30469,0.30752 1.2297,0.38396 1.26901,-1.26901 -0.0582,-1.13447 c 0.95816,-1.558263 2.09493,-2.576235 3.1185,-3.873529 h 0.003 l -0.19352,-0.598622 z"
         style="fill:#646464;fill-opacity:0.994078;stroke:none;stroke-width:4.2335;stroke-linecap:round;stroke-dasharray:none;stroke-opacity:1;paint-order:markers fill stroke"
         id="path1-9" />
      <path
         d="m 187.40033,112.54939 c -1.20395,0.9518 -2.16204,2.03532 -3.57,2.90544 l -1.05739,-0.0557 -1.17059,1.172 0.35175,1.12775 0.31273,-0.29745 c 0.17457,0.42746 0.63071,0.88377 1.01737,1.01595 l -0.2814,0.28281 1.13332,0.35386 1.16956,-1.16956 -0.0537,-1.04557 c 0.88309,-1.43615 1.93076,-2.37434 2.87409,-3.56997 h 0.001 l -0.17834,-0.5517 z"
         style="fill:#646464;fill-opacity:0.994078;stroke:none;stroke-width:3.90173;stroke-linecap:round;stroke-dasharray:none;stroke-opacity:1;paint-order:markers fill stroke"
         id="path1-1" />
      <path
         id="path5-7"
         style="fill:#646464;fill-opacity:0.994078;stroke:none;stroke-width:0.0285585;paint-order:markers fill stroke"
         d="m 171.65949,103.49224 h -2.34513 l -1.53241,1.53241 h 2.34515 l 0.009,2.35374 1.53241,-1.53241 z m -2.20946,2.20947 h -2.34514 l -0.10369,0.10369 -1.4283,1.4283 -2.76833,2.76833 2.35374,2.35375 2.76834,-2.76834 1.4283,-1.4283 0.10369,-0.10369 z"
         sodipodi:nodetypes="ccccccccccccccccc" />
      <path
         id="path6"
         style="fill:#646464;fill-opacity:0.994078;stroke:none;stroke-width:0.0966448;paint-order:markers fill stroke"
         d="m 195.8495,91.955673 a 20.13932,20.091 45 0 0 -28.44699,-0.03435 20.13932,20.091 45 0 0 0.0343,28.446977 20.13932,20.091 45 0 0 28.44699,0.0344 20.13932,20.091 45 0 0 -0.0343,-28.446977 z m -1.93301,1.933007 a 17.398787,17.35704 45 0 1 0.0296,24.57621 17.398787,17.35704 45 0 1 -24.57621,-0.0296 17.398787,17.35704 45 0 1 -0.0292,-24.575853 17.398787,17.35704 45 0 1 24.57585,0.02923 z" />
      <path
         d="m 190.8239,94.590712 c -0.003,1.41e-4 -0.007,-7.1e-5 -0.0112,0.0013 -0.10595,0.05419 0.21539,1.069791 0.16123,1.17564 -0.0542,0.105546 -1.06448,0.442743 -1.04697,0.560166 0.0157,0.117373 1.0843,0.125819 1.16841,0.209815 0.084,0.084 0.0924,1.15085 0.20981,1.168399 0.11695,0.0157 0.45427,-0.990898 0.56016,-1.044901 0.10557,-0.05381 1.12164,0.266411 1.17564,0.161231 0.0542,-0.105962 -0.80517,-0.737774 -0.82268,-0.855238 -0.0157,-0.116956 0.60038,-0.984883 0.51625,-1.068671 -0.0836,-0.0836 -0.94919,0.533788 -1.0666,0.516246 -0.11343,-0.01569 -0.7112,-0.822909 -0.8444,-0.824232 z m -1.96267,3.17758 c -1.92924,1.525481 -3.46682,3.262898 -5.72316,4.657598 l -1.69551,-0.0868 -1.87483,1.87483 0.56482,1.80609 0.50022,-0.47646 c 0.27906,0.68502 1.01212,1.42071 1.63246,1.63245 l -0.45288,0.45146 1.82056,0.56689 1.87502,-1.87361 -0.0868,-1.67587 c 1.41562,-2.30202 3.09494,-3.8061 4.60696,-5.722642 l -0.28422,-0.882114 -0.88057,-0.271817 z"
         style="fill:#646464;fill-opacity:0.994078;stroke:none;stroke-width:2.89453;stroke-linecap:round;stroke-dasharray:none;stroke-opacity:1;paint-order:markers fill stroke"
         id="path1-6" />
      <path
         d="m 181.97581,118.51317 h -2.34514 l -0.10369,0.10369 -1.4283,1.4283 -3.2462,3.24621 2.35374,2.35374 3.2462,-3.24621 1.4283,-1.4283 0.10369,-0.10369 z"
         style="fill:#646464;fill-opacity:0.994078;stroke:none;stroke-width:0.0285585;paint-order:markers fill stroke"
         id="path1-0"
         sodipodi:nodetypes="cccccccccc" />
      <path
         d="m 180.44273,107.35384 -2.34514,-1e-5 -0.10369,0.10369 -1.4283,1.4283 -8.797,8.79701 2.35374,2.35374 8.797,-8.79701 1.4283,-1.4283 0.10369,-0.10369 z"
         style="fill:#646464;fill-opacity:0.994078;stroke:none;stroke-width:0.0285585;paint-order:markers fill stroke"
         id="path1-0-5"
         sodipodi:nodetypes="cccccccccc" />
      <path
         style="fill:#646464;fill-opacity:0.994078;stroke:none;stroke-width:0.1;paint-order:markers fill stroke"
         d="m 170.53215,120.42801 2.24097,2.24097 c 2.04132,-4.13297 5.09369,-8.21224 7.79693,-12.27888 z"
         id="path7"
         sodipodi:nodetypes="cccc" />
      <use
         x="0"
         y="0"
         xlink:href="#path7"
         id="use7"
         transform="matrix(0,-1,-1,0,287.86643,287.86643)"
         style="fill:#646464;fill-opacity:0.994078" />
    </g>
  </g>
</svg>
