<?xml version="1.0" encoding="UTF-8" standalone="no"?>
<!-- Created with Inkscape (http://www.inkscape.org/) -->

<svg
   width="231.30719"
   height="33.109642"
   viewBox="0 0 61.200028 8.7602595"
   version="1.1"
   id="svg1"
   inkscape:version="1.4.2 (ebf0e940d0, 2025-05-08)"
   sodipodi:docname="footer_ornament_watermark_bonk.svg"
   xmlns:inkscape="http://www.inkscape.org/namespaces/inkscape"
   xmlns:sodipodi="http://sodipodi.sourceforge.net/DTD/sodipodi-0.dtd"
   xmlns="http://www.w3.org/2000/svg"
   xmlns:svg="http://www.w3.org/2000/svg">
  <sodipodi:namedview
     id="namedview1"
     pagecolor="#ffffff"
     bordercolor="#d82222"
     borderopacity="1"
     inkscape:showpageshadow="0"
     inkscape:pageopacity="0"
     inkscape:pagecheckerboard="0"
     inkscape:deskcolor="#505050"
     inkscape:document-units="px"
     inkscape:zoom="5.3147669"
     inkscape:cx="143.46819"
     inkscape:cy="21.355593"
     inkscape:window-width="1900"
     inkscape:window-height="995"
     inkscape:window-x="10"
     inkscape:window-y="75"
     inkscape:window-maximized="1"
     inkscape:current-layer="layer1" />
  <defs
     id="defs1" />
  <g
     inkscape:label="Layer 1"
     inkscape:groupmode="layer"
     id="layer1"
     transform="translate(-140.18421,-88.324457)">
    <g
       id="use266"
       inkscape:label="Layer 1"
       transform="matrix(0.1786004,0,0,0.1786004,140.3691,93.50429)"
       style="fill:#646464">
      <path
         d=""
         id="path2"
         style="fill:#646464;stroke-width:0.264583" />
      <path
         d=""
         id="path3"
         style="fill:#646464;stroke-width:0.264583" />
      <path
         d=""
         id="path4"
         style="fill:#646464;stroke-width:0.264583" />
      <path
         id="path5"
         style="fill:#646464;stroke-width:1.17144"
         d="M 17.703918,0.13229167 V 2.4751723 4.8180576 h 1.171444 1.171441 V 2.4751723 0.13229167 h -1.171441 z m 3.514325,0 V 2.4751723 4.8180576 h 1.171445 1.17144 V 2.4751723 0.13229167 h -1.17144 z m 120.658507,0 V 2.4751723 4.8180576 h 1.17144 1.17144 V 2.4751723 0.13229167 h -1.17144 z m 3.51433,0 V 2.4751723 4.8180576 h 1.17144 1.17144 V 2.4751723 0.13229167 h -1.17144 z M 3.6466158,1.303732 V 3.0608947 4.8180576 H 1.8894544 0.13229167 v 2.928603 2.9286074 H 1.8894544 3.6466158 v 1.757163 1.757162 h 2.9286076 2.928603 v -1.757162 -1.757163 h 1.7571626 1.757163 v 1.155426 1.153137 L 8.3323861,16.08632 3.6466158,19.186524 v 0.430131 0.430131 h 4.7978789 4.7978793 l 3.402212,-2.011124 3.402217,-2.008839 v -2.676931 -2.674637 h 1.757162 1.757163 V 8.3323697 5.9894846 H 20.046803 16.532477 V 3.6466038 1.3037187 H 14.775315 13.018152 V 3.0608814 4.8180443 H 11.260989 9.5038264 V 3.0608814 1.3037187 h -2.928603 z m 66.7721812,0 v 4.1000479 4.1000434 h 2.832513 2.83022 V 6.9870571 h 10.151731 v 0.7596035 l -7.90723,5.6673104 -7.907234,5.667307 v 0.482761 0.482761 h 4.786438 4.786438 l 6.328531,-4.392905 6.328535,-4.392909 0.01373,-4.9786269 0.01373,-4.9786271 H 81.547491 Z m 62.672143,0 v 1.7571627 1.7571629 h -4.68577 -4.10005 v 2.928603 2.9286074 h 2.5488 2.54652 3.6905 v 6.847898 2.523634 h 2.34288 3.51432 v -9.371532 h 6.44294 2.34288 V 8.332383 5.9894979 h -3.50289 -3.52576 V 4.8180576 h -1.75717 V 1.303732 h -3.79574 z m 46.27195,0 v 2.9858064 2.9880909 l -1.78691,3.4548377 -1.7869,3.457126 h 3.41822 3.42052 l 0.67267,-1.757162 0.67495,-1.757163 4.42951,0.03896 4.42952,0.03896 v 1.331601 l -3.96963,2.615149 -7.74479,5.271488 5.19827,0.03896 h 0.002 l 5.19827,0.03675 3.87125,-2.635741 3.87125,-2.635747 0.009,-4.9786266 0.007,-4.9786269 h -6.44329 -6.44293 V 3.0612356 1.3040729 h -3.51433 z M 50.776558,2.4751723 47.712961,10.741619 44.248972,20.0468 h 3.429671 3.029276 l 3.161976,-8.376266 9.936662,5.136498 3.097915,-5.665017 -10.76262,-5.2303082 0.658935,-1.7182672 0.658936,-1.7182673 h -3.34044 z m 44.242517,0 v 2.3428853 2.342885 h 4.100048 4.100047 V 4.8180576 2.4751723 h -4.100047 z m 55.057765,0 v 2.3428853 2.342885 h 4.10005 4.10004 V 4.8180576 2.4751723 h -4.10004 z m -37.84992,3.5143256 -3.64474,2.7798878 -3.64246,2.7775993 -4.960321,0.839683 -4.960324,0.837399 v 3.251208 3.251208 l 6.150075,-1.095938 6.15006,-1.098227 2.34289,-1.603865 2.34288,-1.60387 4.68577,-4.122924 4.68577,-4.1252184 -4.57366,-0.043389 z m 55.05776,0 -3.64474,2.7798878 -3.64245,2.7775993 -4.96032,0.839683 -4.96033,0.837399 v 3.251208 3.251208 l 6.15007,-1.095938 6.15007,-1.098227 2.34289,-1.603865 2.34288,-1.60387 4.68577,-4.122924 4.68576,-4.1252184 -4.57366,-0.043389 z M 27.075453,7.1609426 v 1.7571627 1.7571627 h 1.757163 1.079924 V 8.9181053 7.1609426 h -1.079924 z m 4.173261,0 v 1.7571627 1.7571627 h 1.68395 1.17144 V 8.9181053 7.1609426 h -1.17144 z m 5.337839,3.5143254 -3.232905,3.2718 -7.449635,1.503198 v 2.14154 2.139255 l 4.63543,-0.84655 4.633145,-0.846551 4.191564,-3.681344 4.193853,-3.681348 h -3.486871 z m 106.175647,0.276851 -3.31299,3.312985 4.96948,4.969476 3.31298,-3.312985 z m -13.28626,0.01151 -4.96948,4.969475 3.31299,3.312985 4.96947,-4.969475 z" />
    </g>
    <text
       xml:space="preserve"
       style="font-style:normal;font-variant:normal;font-weight:bold;font-stretch:normal;font-size:3.06354px;line-height:100%;font-family:'Helvetica Now Micro';-inkscape-font-specification:'Helvetica Now Micro Bold';text-align:end;letter-spacing:0px;text-anchor:end;fill:#646464;fill-opacity:1;stroke-width:0.248115;stroke-miterlimit:4.6;paint-order:markers fill stroke"
       x="178.20316"
       y="97.035698"
       id="use267"><tspan
         sodipodi:role="line"
         id="tspan2"
         style="text-align:start;text-anchor:start;stroke-width:0.248115"
         x="178.20316"
         y="97.035698">//2204-2205</tspan></text>
    <rect
       style="opacity:0.5;fill:#8ac0ca;fill-opacity:1;stroke-width:0.366798;stroke-miterlimit:4.6;paint-order:markers fill stroke"
       id="use268"
       width="45.602261"
       height="0.62300247"
       x="139.93176"
       y="91.74778" />
    <text
       xml:space="preserve"
       style="font-style:normal;font-variant:normal;font-weight:bold;font-stretch:normal;font-size:2.97102px;line-height:100%;font-family:'Helvetica Now Micro';-inkscape-font-specification:'Helvetica Now Micro Bold';text-align:start;letter-spacing:0px;text-anchor:start;opacity:0.4;fill:#8ac0ca;fill-opacity:1;stroke-width:0.240622;stroke-miterlimit:4.6;paint-order:markers fill stroke"
       x="139.91385"
       y="90.701271"
       id="use269"><tspan
         sodipodi:role="line"
         id="tspan1"
         style="fill:#8ac0ca;stroke-width:0.240622"
         x="139.91385"
         y="90.701271">Design / Implementation by</tspan></text>
    <circle
       id="path1"
       style="fill:#8ac0ca;stroke:#ee111a;stroke-width:0.264583"
       cx="155.21858"
       cy="112.31971"
       r="0" />
  </g>
</svg>
