<?xml version="1.0" encoding="UTF-8" standalone="no"?>
<!-- Created with Inkscape (http://www.inkscape.org/) -->

<svg
   width="228.41321"
   height="32.739368"
   viewBox="0 0 60.434327 8.6622911"
   version="1.1"
   id="svg1"
   inkscape:version="1.4.2 (ebf0e940d0, 2025-05-08)"
   sodipodi:docname="footer_ornament_watermark_choo.svg"
   xml:space="preserve"
   xmlns:inkscape="http://www.inkscape.org/namespaces/inkscape"
   xmlns:sodipodi="http://sodipodi.sourceforge.net/DTD/sodipodi-0.dtd"
   xmlns="http://www.w3.org/2000/svg"
   xmlns:svg="http://www.w3.org/2000/svg"><sodipodi:namedview
     id="namedview1"
     pagecolor="#ffffff"
     bordercolor="#d82222"
     borderopacity="1"
     inkscape:showpageshadow="0"
     inkscape:pageopacity="0"
     inkscape:pagecheckerboard="0"
     inkscape:deskcolor="#505050"
     inkscape:document-units="px"
     inkscape:zoom="2.8284271"
     inkscape:cx="98.641396"
     inkscape:cy="51.442018"
     inkscape:window-width="1900"
     inkscape:window-height="1019"
     inkscape:window-x="10"
     inkscape:window-y="51"
     inkscape:window-maximized="1"
     inkscape:current-layer="layer1"
     showgrid="false" /><defs
     id="defs1"><inkscape:path-effect
       effect="perspective-envelope"
       up_left_point="-71.79,103.2568"
       up_right_point="-35.59,103.2568"
       down_left_point="-72.992919,107.0873"
       down_right_point="-36.785499,107.0873"
       id="path-effect1"
       is_visible="true"
       lpeversion="1"
       deform_type="perspective"
       horizontal_mirror="false"
       vertical_mirror="false"
       overflow_perspective="false" /><inkscape:path-effect
       effect="perspective-envelope"
       up_left_point="-91.6,138.76233"
       up_right_point="-55.39,138.76233"
       down_left_point="-92.798411,142.59283"
       down_right_point="-56.590991,142.59283"
       id="path-effect6"
       is_visible="true"
       lpeversion="1"
       deform_type="perspective"
       horizontal_mirror="false"
       vertical_mirror="false"
       overflow_perspective="false" /><inkscape:path-effect
       effect="perspective-envelope"
       up_left_point="-92.798411,138.76233"
       up_right_point="-56.344577,138.76233"
       down_left_point="-92.798411,142.59283"
       down_right_point="-56.344577,142.59283"
       id="path-effect5"
       is_visible="true"
       lpeversion="1"
       deform_type="perspective"
       horizontal_mirror="false"
       vertical_mirror="false"
       overflow_perspective="false" /><inkscape:path-effect
       effect="perspective-envelope"
       up_left_point="-91.46886,122.87112"
       up_right_point="-56.234701,122.87112"
       down_left_point="-91.46886,126.70162"
       down_right_point="-56.234701,126.70162"
       id="path-effect4"
       is_visible="true"
       lpeversion="1"
       deform_type="perspective"
       horizontal_mirror="false"
       vertical_mirror="false"
       overflow_perspective="false" /><inkscape:path-effect
       effect="perspective-envelope"
       up_left_point="-91.46886,122.87112"
       up_right_point="-56.234701,122.87112"
       down_left_point="-91.46886,126.70162"
       down_right_point="-56.234701,126.70162"
       id="path-effect3"
       is_visible="true"
       lpeversion="1"
       deform_type="perspective"
       horizontal_mirror="false"
       vertical_mirror="false"
       overflow_perspective="false" /><inkscape:path-effect
       effect="perspective-envelope"
       up_left_point="48.62,812.30752"
       up_right_point="331.27,812.30752"
       down_left_point="48.61512,845.33858"
       down_right_point="331.27332,845.33858"
       id="path-effect330"
       is_visible="true"
       lpeversion="1"
       deform_type="perspective"
       horizontal_mirror="false"
       vertical_mirror="false"
       overflow_perspective="false" /><inkscape:path-effect
       effect="perspective-envelope"
       up_left_point="58.62,812.30752"
       up_right_point="341.27,812.30752"
       down_left_point="48.61512,845.33858"
       down_right_point="331.27332,845.33858"
       id="path-effect330-2"
       is_visible="true"
       lpeversion="1"
       deform_type="perspective"
       horizontal_mirror="false"
       vertical_mirror="false"
       overflow_perspective="false" /></defs><g
     inkscape:label="Layer 1"
     inkscape:groupmode="layer"
     id="layer1"
     transform="translate(96.509437,-98.425007)"><rect
       style="opacity:0.3;fill:#219398;fill-opacity:1;stroke-width:0.361277;stroke-miterlimit:4.6;paint-order:markers fill stroke"
       id="rect87-2"
       width="44.463493"
       height="0.61986762"
       x="-80.538605"
       y="101.70934" /><text
       xml:space="preserve"
       style="font-style:normal;font-variant:normal;font-weight:bold;font-stretch:normal;font-size:2.88499px;line-height:100%;font-family:'Helvetica Now Micro';-inkscape-font-specification:'Helvetica Now Micro Bold';text-align:start;letter-spacing:0px;text-anchor:start;opacity:0.2;fill:#219398;fill-opacity:1;stroke-width:0.233655;stroke-miterlimit:4.6;paint-order:markers fill stroke"
       x="-80.801109"
       y="100.64068"
       id="text93-8"><tspan
         sodipodi:role="line"
         id="tspan93-9"
         style="fill:#219398;fill-opacity:1;stroke-width:0.233655"
         x="-80.801109"
         y="100.64068">Backend / Infrastructure by</tspan></text><text
       xml:space="preserve"
       style="font-style:normal;font-variant:normal;font-weight:bold;font-stretch:normal;font-size:3.06354px;line-height:100%;font-family:'Helvetica Now Micro';-inkscape-font-specification:'Helvetica Now Micro Bold';text-align:end;letter-spacing:0px;text-anchor:end;fill:#646464;fill-opacity:1;stroke-width:0.248115;stroke-miterlimit:4.6;paint-order:markers fill stroke"
       x="-96.739204"
       y="107.03826"
       id="text82-2"><tspan
         sodipodi:role="line"
         id="tspan82-9"
         style="text-align:start;text-anchor:start;stroke-width:0.248115"
         x="-96.739204"
         y="107.03826">2203-2205//</tspan></text><g
       id="g1"
       inkscape:path-effect="#path-effect1"><path
         style="font-size:22.5778px;line-height:125%;font-family:Stop;-inkscape-font-specification:Stop;text-align:end;letter-spacing:0px;text-anchor:end;fill:#646464;stroke:#ee111a;stroke-width:0;stroke-linecap:square;stroke-miterlimit:4.6;paint-order:markers fill stroke"
         d="m -53.11051,104.46732 -0.797288,2.54711 h 2.480773 l 0.27369,-0.87474 h -1.476554 l 0.162214,-0.5183 h 1.476508 l 0.273665,-0.87465 h -1.476439 l 0.08745,-0.27942 z"
         id="path330"
         inkscape:original-d="m -53.930609,104.46749 v 2.54695 h 2.480783 v -0.8746 h -1.476629 l 5e-6,-0.51826 h 1.476624 v -0.87465 h -1.476624 v -0.27944 z" /><path
         style="font-size:22.5778px;line-height:125%;font-family:Stop;-inkscape-font-specification:Stop;text-align:end;letter-spacing:0px;text-anchor:end;fill:#646464;stroke:#ee111a;stroke-width:0;stroke-linecap:square;stroke-miterlimit:4.6;paint-order:markers fill stroke"
         d="m -56.033634,104.46732 -0.797687,2.54711 h 2.480775 l 0.273827,-0.87474 h -1.476495 l 0.162304,-0.5183 h 1.476439 l 0.273802,-0.87465 h -1.47637 l 0.0875,-0.27943 z"
         id="path329"
         inkscape:original-d="m -56.854143,104.46749 v 2.54695 h 2.480784 v -0.8746 h -1.476569 l 1.4e-5,-0.51826 h 1.476555 v -0.87465 h -1.476555 v -0.27945 z" /><path
         id="path328"
         style="font-size:22.5778px;line-height:125%;font-family:Stop;-inkscape-font-specification:Stop;text-align:end;letter-spacing:0px;text-anchor:end;fill:#646464;stroke:#ee111a;stroke-width:0;stroke-linecap:square;stroke-miterlimit:4.6;paint-order:markers fill stroke"
         d="m -47.102839,103.3296 -1.152367,3.68504 h 1.004069 l 0.43565,-1.39337 h 1.101139 l 0.27333,-0.87437 h -1.101087 l 0.443137,-1.4173 z m 2.258323,0 -0.443042,1.4173 h -0.001 l -0.273323,0.87437 h 10e-4 l -0.435556,1.39337 h 1.004585 l 1.151723,-3.68504 z"
         inkscape:original-d="m -48.277929,103.32961 v 3.68504 h 1.004073 v -1.39319 h 1.101225 v -0.87437 h -1.101225 v -1.41748 z m 2.258777,0 v 1.41748 h -0.001 v 0.87437 h 0.001 v 1.39319 h 1.004589 v -3.68504 z" /><path
         id="path328-3"
         style="font-size:22.5778px;line-height:125%;font-family:Stop;-inkscape-font-specification:Stop;text-align:end;letter-spacing:0px;text-anchor:end;fill:#646464;stroke:#ee111a;stroke-width:0;stroke-linecap:square;stroke-miterlimit:4.6;paint-order:markers fill stroke"
         d="m -59.347168,103.32958 -1.154781,3.68504 h 1.004069 l 0.436563,-1.39337 h 1.101139 l 0.273903,-0.87437 h -1.101087 l 0.444065,-1.4173 z m 2.258323,0 -0.44397,1.4173 h -10e-4 l -0.273896,0.87437 h 10e-4 l -0.43647,1.39337 h 1.004585 l 1.154138,-3.68504 z"
         inkscape:original-d="m -60.524726,103.32959 v 3.68504 h 1.004073 v -1.39319 h 1.101225 v -0.87437 h -1.101225 v -1.41748 z m 2.258777,0 v 1.41748 h -10e-4 v 0.87437 h 10e-4 v 1.39319 h 1.004589 v -3.68504 z" /><path
         style="font-size:22.5778px;line-height:125%;font-family:Stop;-inkscape-font-specification:Stop;text-align:end;letter-spacing:0px;text-anchor:end;fill:#646464;stroke:#ee111a;stroke-width:0;stroke-linecap:square;stroke-miterlimit:4.6;paint-order:markers fill stroke"
         d="m -47.893737,103.32974 c -0.29328,0 -0.56459,0.0333 -0.813896,0.0998 -0.188493,0.0504 -0.376928,0.13224 -0.565326,0.24559 -0.188404,0.11337 -0.363463,0.25013 -0.525124,0.41028 -0.158738,0.15655 -0.297909,0.33111 -0.417528,0.52366 -0.119061,0.19075 -0.20867,0.38238 -0.268914,0.57493 -0.05968,0.19077 -0.08977,0.37887 -0.09018,0.56425 -4.09e-4,0.18537 0.02916,0.35543 0.08871,0.51021 0.0982,0.25558 0.261949,0.44545 0.491238,0.56964 0.231093,0.12419 0.534698,0.1863 0.910818,0.1863 h 0.496683 l 0.273554,-0.87473 h -0.329288 c -0.217745,0 -0.386566,-0.027 -0.506439,-0.081 -0.117508,-0.0558 -0.207288,-0.14851 -0.269328,-0.27809 -0.08575,-0.17458 -0.09313,-0.37524 -0.0222,-0.602 0.07543,-0.24114 0.214187,-0.45167 0.416224,-0.63162 0.134881,-0.12057 0.276411,-0.20788 0.424649,-0.26186 0.14824,-0.054 0.321314,-0.081 0.519244,-0.081 h 0.372456 l 0.273471,-0.87445 z"
         id="path327"
         inkscape:original-d="m -49.068942,103.32975 c -0.293339,0 -0.554288,0.0333 -0.782842,0.0998 -0.172764,0.0504 -0.335625,0.13227 -0.488593,0.24564 -0.152968,0.11338 -0.285266,0.25016 -0.396844,0.41033 -0.109777,0.15657 -0.194348,0.33115 -0.253735,0.52371 -0.05939,0.19076 -0.08905,0.38239 -0.08905,0.57495 0,0.19076 0.02877,0.37886 0.08636,0.56423 0.05759,0.18536 0.140365,0.3554 0.248341,0.51016 0.178165,0.25555 0.401315,0.44539 0.669458,0.56956 0.269944,0.12417 0.592976,0.18626 0.969097,0.18626 h 0.496685 v -0.87459 h -0.329305 c -0.217756,0 -0.395031,-0.027 -0.531803,-0.081 -0.134971,-0.0558 -0.253753,-0.14849 -0.356331,-0.27806 -0.140372,-0.17457 -0.210528,-0.37523 -0.210528,-0.60198 0,-0.24115 0.07291,-0.45168 0.218678,-0.63164 0.09718,-0.12058 0.211416,-0.2079 0.342788,-0.26189 0.131372,-0.054 0.296027,-0.081 0.493988,-0.081 h 0.372513 v -0.87459 z" /><path
         style="font-size:22.5778px;line-height:125%;font-family:Stop;-inkscape-font-specification:Stop;text-align:end;letter-spacing:0px;text-anchor:end;fill:#646464;stroke:#ee111a;stroke-width:0;stroke-linecap:square;stroke-miterlimit:4.6;paint-order:markers fill stroke"
         d="m -51.598945,103.32974 -1.148123,0.87445 h 2.199321 l 0.273605,-0.87445 z"
         id="path326"
         inkscape:original-d="m -52.774895,103.32975 -0.874592,0.87459 h 2.199661 v -0.87459 z" /><path
         style="font-size:22.5778px;line-height:125%;font-family:Stop;-inkscape-font-specification:Stop;text-align:end;letter-spacing:0px;text-anchor:end;fill:#646464;stroke:#ee111a;stroke-width:0;stroke-linecap:square;stroke-miterlimit:4.6;paint-order:markers fill stroke"
         d="m -52.754426,103.32974 -0.273665,0.87427 1.147839,-0.87427 z"
         id="path325"
         inkscape:original-d="m -53.930609,103.32975 v 0.87441 l 0.87435,-0.87441 z" /><path
         style="font-size:22.5778px;line-height:125%;font-family:Stop;-inkscape-font-specification:Stop;text-align:end;letter-spacing:0px;text-anchor:end;fill:#646464;stroke:#ee111a;stroke-width:0;stroke-linecap:square;stroke-miterlimit:4.6;paint-order:markers fill stroke"
         d="m -54.527163,103.32974 -1.148321,0.87445 h 2.204655 l 0.273742,-0.87445 z"
         id="path324"
         inkscape:original-d="m -55.703702,103.32975 -0.874652,0.87459 h 2.204995 v -0.87459 z" /><path
         style="font-size:22.5778px;line-height:125%;font-family:Stop;-inkscape-font-specification:Stop;text-align:end;letter-spacing:0px;text-anchor:end;fill:#646464;stroke:#ee111a;stroke-width:0;stroke-linecap:square;stroke-miterlimit:4.6;paint-order:markers fill stroke"
         d="m -55.677373,103.32974 -0.272129,0.86893 1.140972,-0.86893 z"
         id="path323"
         inkscape:original-d="m -56.854143,103.32975 v 0.86907 l 0.869017,-0.86907 z" /><path
         style="font-size:22.5778px;line-height:125%;font-family:Stop;-inkscape-font-specification:Stop;text-align:end;letter-spacing:0px;text-anchor:end;fill:#646464;stroke:#ee111a;stroke-width:0;stroke-linecap:square;stroke-miterlimit:4.6;paint-order:markers fill stroke"
         d="m -60.202911,103.32974 c -0.293279,0 -0.564611,0.0333 -0.813961,0.0998 -0.188526,0.0504 -0.377016,0.13224 -0.565488,0.24559 -0.18848,0.11337 -0.363629,0.25013 -0.525394,0.41028 -0.158842,0.15655 -0.298128,0.33111 -0.417874,0.52366 -0.119186,0.19075 -0.208981,0.38238 -0.269353,0.57493 -0.05981,0.19077 -0.08996,0.37887 -0.09049,0.56425 -5.31e-4,0.18537 0.02892,0.35543 0.08837,0.51021 0.09803,0.25558 0.261653,0.44545 0.49086,0.56964 0.231012,0.12419 0.534577,0.1863 0.910697,0.1863 h 0.496682 l 0.27413,-0.87473 h -0.329288 c -0.217744,0 -0.386548,-0.027 -0.506384,-0.081 -0.117474,-0.0558 -0.207192,-0.14851 -0.269147,-0.27809 -0.08564,-0.17458 -0.09288,-0.37524 -0.0218,-0.602 0.07559,-0.24114 0.214425,-0.45167 0.416581,-0.63162 0.134959,-0.12057 0.276607,-0.20788 0.424881,-0.26186 0.148276,-0.054 0.321368,-0.081 0.519297,-0.081 h 0.372456 l 0.274047,-0.87445 z"
         id="path321"
         inkscape:original-d="m -61.380591,103.32975 c -0.293338,0 -0.554287,0.0333 -0.782841,0.0998 -0.172764,0.0504 -0.335626,0.13227 -0.488593,0.24564 -0.15297,0.11338 -0.285268,0.25016 -0.396844,0.41033 -0.109778,0.15657 -0.194349,0.33115 -0.253736,0.52371 -0.05939,0.19076 -0.08911,0.38239 -0.08911,0.57495 0,0.19076 0.02883,0.37886 0.08642,0.56423 0.05759,0.18536 0.140364,0.3554 0.248342,0.51016 0.178163,0.25555 0.401313,0.44539 0.669456,0.56956 0.269944,0.12417 0.592977,0.18626 0.969098,0.18626 h 0.496684 v -0.87459 h -0.329305 c -0.217755,0 -0.395031,-0.027 -0.531802,-0.081 -0.134973,-0.0558 -0.253754,-0.14849 -0.356333,-0.27806 -0.14037,-0.17457 -0.210527,-0.37523 -0.210527,-0.60198 0,-0.24115 0.07285,-0.45168 0.218618,-0.63164 0.09718,-0.12058 0.211476,-0.2079 0.342849,-0.26189 0.131372,-0.054 0.296027,-0.081 0.493987,-0.081 h 0.372513 v -0.87459 z" /><path
         style="font-size:22.5778px;line-height:125%;font-family:Stop;-inkscape-font-specification:Stop;text-align:end;letter-spacing:0px;text-anchor:end;fill:#646464;stroke:#ee111a;stroke-width:0;stroke-linecap:square;stroke-miterlimit:4.6;paint-order:markers fill stroke"
         d="m -69.802245,103.32974 c -0.293279,0 -0.564629,0.0333 -0.814012,0.0998 -0.188553,0.0504 -0.377085,0.13224 -0.565615,0.24559 -0.188537,0.11337 -0.363696,0.25013 -0.525545,0.41028 -0.15892,0.15655 -0.298357,0.33111 -0.418202,0.52366 -0.119284,0.19075 -0.209118,0.38238 -0.269588,0.57493 -0.05991,0.19077 -0.09021,0.37887 -0.09084,0.56425 -6.27e-4,0.18537 0.02874,0.35543 0.08811,0.51021 0.0979,0.25558 0.261484,0.44545 0.490629,0.56964 0.230947,0.12419 0.534479,0.1863 0.910599,0.1863 h 0.496682 l 0.27458,-0.87473 h -0.329348 c -0.217745,0 -0.386534,-0.027 -0.506343,-0.081 -0.117444,-0.0558 -0.207056,-0.14851 -0.268943,-0.27809 -0.08555,-0.17458 -0.09275,-0.37524 -0.02156,-0.602 0.07571,-0.24114 0.214716,-0.45167 0.416964,-0.63162 0.135022,-0.12057 0.276654,-0.20788 0.424957,-0.26186 0.148304,-0.054 0.32147,-0.081 0.519398,-0.081 h 0.372456 l 0.274497,-0.87445 z"
         id="path319"
         inkscape:original-d="m -70.981855,103.32975 c -0.293338,0 -0.554288,0.0333 -0.782841,0.0998 -0.172765,0.0504 -0.335627,0.13227 -0.488594,0.24564 -0.152968,0.11338 -0.285206,0.25016 -0.396784,0.41033 -0.109776,0.15657 -0.194408,0.33115 -0.253795,0.52371 -0.05939,0.19076 -0.08905,0.38239 -0.08905,0.57495 0,0.19076 0.02877,0.37886 0.08636,0.56423 0.05759,0.18536 0.140364,0.3554 0.248342,0.51016 0.178163,0.25555 0.401373,0.44539 0.669517,0.56956 0.269944,0.12417 0.592975,0.18626 0.969097,0.18626 h 0.496684 v -0.87459 h -0.329364 c -0.217757,0 -0.395032,-0.027 -0.531803,-0.081 -0.134972,-0.0558 -0.253695,-0.14849 -0.356272,-0.27806 -0.140372,-0.17457 -0.210588,-0.37523 -0.210588,-0.60198 0,-0.24115 0.07291,-0.45168 0.218678,-0.63164 0.09718,-0.12058 0.211415,-0.2079 0.342789,-0.26189 0.131372,-0.054 0.296088,-0.081 0.494047,-0.081 h 0.372513 v -0.87459 z" /><path
         id="path318"
         style="font-size:22.5778px;line-height:125%;font-family:Stop;-inkscape-font-specification:Stop;text-align:end;letter-spacing:0px;text-anchor:end;fill:#646464;stroke:#ee111a;stroke-width:0;stroke-linecap:square;stroke-miterlimit:4.6;paint-order:markers fill stroke"
         d="m -37.492682,103.25681 c -0.494796,0 -0.968859,0.15835 -1.422205,0.47502 -0.250631,0.17455 -0.469572,0.38869 -0.656771,0.64242 -0.184839,0.25193 -0.322459,0.52274 -0.412945,0.81247 -0.152592,0.48861 -0.136619,0.90621 0.04808,1.25276 l 0.925651,-0.70542 c -0.0026,-0.0259 -0.0043,-0.0526 -0.0048,-0.0803 -0.0025,-0.14758 0.02407,-0.31044 0.0797,-0.48861 0.103392,-0.33112 0.258997,-0.59026 0.466782,-0.7774 0.210142,-0.18896 0.448341,-0.28344 0.714645,-0.28344 0.256084,0 0.431681,0.0902 0.526836,0.27073 l 0.875366,-0.6671 c -0.02031,-0.0233 -0.04178,-0.0459 -0.06435,-0.0678 -0.125545,-0.12235 -0.282263,-0.21683 -0.470195,-0.28341 -0.186127,-0.0666 -0.388074,-0.0999 -0.605785,-0.0999 z m 1.271434,0.63993 -0.93473,0.71235 c 0.01904,0.15706 -0.0053,0.34423 -0.07316,0.56145 -0.104489,0.33474 -0.261823,0.59659 -0.471972,0.78557 -0.208354,0.18897 -0.444789,0.28348 -0.709321,0.28348 -0.242937,0 -0.413085,-0.0747 -0.510408,-0.22409 -0.0087,-0.0138 -0.01674,-0.0281 -0.02424,-0.0429 l -0.864101,0.65857 c 0.100733,0.1231 0.22543,0.22203 0.374031,0.29681 0.216988,0.1062 0.47666,0.15932 0.778997,0.15932 0.302338,0 0.59209,-0.0549 0.869314,-0.16471 0.27902,-0.1098 0.539491,-0.27269 0.781463,-0.48867 0.189014,-0.16739 0.352988,-0.3582 0.491813,-0.57237 0.140629,-0.21417 0.247392,-0.43823 0.320409,-0.67219 0.104467,-0.33472 0.137399,-0.63339 0.09884,-0.89611 -0.02045,-0.14611 -0.06275,-0.27828 -0.126927,-0.39656 z"
         inkscape:original-d="m -38.688568,103.25681 c -0.494897,0 -0.919603,0.15838 -1.27413,0.47511 -0.196159,0.17457 -0.348252,0.38874 -0.456231,0.64249 -0.106176,0.25195 -0.159229,0.52277 -0.159229,0.81251 0,0.48859 0.146399,0.90616 0.439332,1.25267 l 0.705414,-0.70535 c -0.01072,-0.0259 -0.02068,-0.0526 -0.0299,-0.0803 -0.04859,-0.14757 -0.07287,-0.31043 -0.07287,-0.48859 0,-0.33113 0.0747,-0.59028 0.224072,-0.77744 0.151167,-0.18897 0.359901,-0.28346 0.626247,-0.28346 0.256125,0 0.45991,0.0902 0.611445,0.27075 l 0.667239,-0.66718 c -0.02759,-0.0233 -0.05611,-0.0459 -0.08552,-0.0678 -0.163766,-0.12237 -0.350013,-0.21687 -0.558769,-0.28346 -0.206956,-0.0666 -0.41934,-0.0999 -0.637095,-0.0999 z m 1.471473,0.64004 -0.712484,0.71242 c 0.06808,0.15707 0.102117,0.34424 0.102117,0.56147 0,0.33473 -0.0756,0.59657 -0.226768,0.78553 -0.149369,0.18896 -0.35631,0.28346 -0.620854,0.28346 -0.242948,0 -0.43643,-0.0747 -0.580403,-0.22407 -0.01297,-0.0138 -0.02552,-0.0281 -0.03764,-0.0429 l -0.658489,0.65849 c 0.139176,0.12308 0.294769,0.222 0.46672,0.29676 0.250149,0.10618 0.526407,0.15929 0.828744,0.15929 0.302338,0 0.574948,-0.0549 0.817898,-0.16468 0.244749,-0.10978 0.454381,-0.27264 0.628944,-0.48859 0.136773,-0.16737 0.241198,-0.35816 0.313184,-0.57231 0.07379,-0.21416 0.110627,-0.43821 0.110627,-0.67216 0,-0.33473 -0.06029,-0.63341 -0.180863,-0.89616 -0.06606,-0.14612 -0.149627,-0.27831 -0.250738,-0.3966 z" /><path
         id="text22"
         style="font-size:22.5778px;line-height:125%;font-family:Stop;-inkscape-font-specification:Stop;text-align:end;letter-spacing:0px;text-anchor:end;fill:#646464;stroke:#ee111a;stroke-width:0;stroke-linecap:square;stroke-miterlimit:4.6;paint-order:markers fill stroke"
         d="m -41.578756,103.25681 c -0.494796,0 -0.968954,0.15835 -1.422367,0.47502 -0.250668,0.17455 -0.4696,0.38869 -0.656853,0.64242 -0.184894,0.25193 -0.322632,0.52274 -0.413181,0.81247 -0.152696,0.4886 -0.13675,0.90621 0.04786,1.25276 l 0.925743,-0.70542 c -1e-6,-2e-5 1.9e-5,-4e-5 1.8e-5,-6e-5 -0.0026,-0.0259 -0.0042,-0.0526 -0.0047,-0.0803 -0.0025,-0.14758 0.02408,-0.31044 0.07975,-0.48861 0.103465,-0.33112 0.259126,-0.59026 0.46695,-0.7774 0.210184,-0.18896 0.448405,-0.28344 0.714708,-0.28344 0.25608,0 0.431688,0.0903 0.526837,0.27073 l 0.875452,-0.6671 c -0.02032,-0.0233 -0.04176,-0.0459 -0.06433,-0.0678 -0.125518,-0.12235 -0.282214,-0.21683 -0.470132,-0.28341 -0.186115,-0.0666 -0.387995,-0.0999 -0.605704,-0.0999 z m 1.271235,0.63993 -0.934808,0.71229 c 2e-6,2e-5 -1.9e-5,4e-5 -1.8e-5,6e-5 0.01901,0.15706 -0.0054,0.34422 -0.07328,0.56145 -0.104563,0.33474 -0.261954,0.59659 -0.472144,0.78557 -0.208396,0.18897 -0.44485,0.28348 -0.709383,0.28348 -0.242939,0 -0.413072,-0.0747 -0.51036,-0.22409 -0.0087,-0.0138 -0.01677,-0.028 -0.02423,-0.0429 l -0.864225,0.65851 c 8e-6,10e-6 -2.6e-5,5e-5 -1.9e-5,6e-5 0.100689,0.1231 0.225315,0.22203 0.373905,0.29681 0.216964,0.1062 0.476626,0.15932 0.778963,0.15932 0.302338,0 0.592161,-0.0549 0.869409,-0.16471 0.279044,-0.1098 0.539551,-0.27269 0.78157,-0.48867 0.189049,-0.16739 0.353008,-0.3582 0.491879,-0.57237 0.140676,-0.21417 0.247548,-0.43823 0.320616,-0.67219 0.104541,-0.33472 0.137537,-0.63339 0.09904,-0.89611 -0.02041,-0.14611 -0.06273,-0.27828 -0.126901,-0.39656 z"
         inkscape:original-d="m -42.775479,103.25681 c -0.494898,0 -0.919664,0.15838 -1.274189,0.47511 -0.196158,0.17457 -0.348194,0.38874 -0.456172,0.64249 -0.106176,0.25195 -0.159288,0.52277 -0.159288,0.81251 0,0.48858 0.146466,0.90616 0.439392,1.25267 l 0.705352,-0.70535 c -7e-6,-2e-5 7e-6,-4e-5 0,-6e-5 -0.01072,-0.0259 -0.02062,-0.0526 -0.02984,-0.0803 -0.04859,-0.14757 -0.07293,-0.31043 -0.07293,-0.48859 0,-0.33113 0.0747,-0.59028 0.22407,-0.77744 0.151168,-0.18897 0.359903,-0.28346 0.626248,-0.28346 0.256121,0 0.459968,0.0903 0.611505,0.27075 l 0.667179,-0.66718 c -0.0276,-0.0233 -0.0561,-0.0459 -0.08552,-0.0678 -0.163765,-0.12237 -0.350011,-0.21687 -0.558768,-0.28346 -0.206958,-0.0666 -0.419282,-0.0999 -0.637036,-0.0999 z m 1.471413,0.64004 -0.712424,0.71236 c 8e-6,2e-5 -7e-6,4e-5 0,6e-5 0.06808,0.15707 0.102117,0.34423 0.102117,0.56147 0,0.33473 -0.0756,0.59657 -0.226768,0.78553 -0.149369,0.18896 -0.356308,0.28346 -0.620853,0.28346 -0.24295,0 -0.436434,-0.0747 -0.580404,-0.22407 -0.01298,-0.0138 -0.02552,-0.028 -0.03764,-0.0429 l -0.658488,0.65843 c 1.1e-5,1e-5 -1e-5,5e-5 0,6e-5 0.139159,0.12308 0.294703,0.222 0.466659,0.29676 0.250148,0.10618 0.526408,0.15929 0.828745,0.15929 0.302338,0 0.575007,-0.0549 0.817957,-0.16468 0.244749,-0.10978 0.454381,-0.27264 0.628944,-0.48859 0.136772,-0.16737 0.24114,-0.35816 0.313125,-0.57231 0.07379,-0.21416 0.110687,-0.43821 0.110687,-0.67216 0,-0.33473 -0.06029,-0.63341 -0.180863,-0.89616 -0.06605,-0.14612 -0.149671,-0.27831 -0.250799,-0.3966 z" /><path
         id="rect249"
         style="fill:#646464;stroke:#ee111a;stroke-width:0;stroke-linecap:square;stroke-miterlimit:4.6;paint-order:markers fill stroke"
         d="m -64.119398,103.32961 -0.532954,0.77346 h 0.810157 l 0.532922,-0.77346 z m 0.721354,0.47585 -1.067281,1.54813 0.104426,1.65589 h 1.164782 z m -1.50348,0.6588 -1.760525,2.55349 h 0.809767 l 1.76093,-2.55349 z"
         inkscape:original-d="m -65.297906,103.32962 -0.290421,0.77359 h 0.810286 l 0.290422,-0.77359 z m 0.870748,0.47594 -0.581877,1.54822 0.623735,1.65572 h 1.164787 z m -1.297078,0.65887 -0.959632,2.55333 h 0.80977 l 0.960148,-2.55333 z" /><path
         id="path328-3-1"
         style="font-size:22.5778px;line-height:125%;font-family:Stop;-inkscape-font-specification:Stop;text-align:end;letter-spacing:0px;text-anchor:end;fill:#646464;stroke:#ee111a;stroke-width:0;stroke-linecap:square;stroke-miterlimit:4.6;paint-order:markers fill stroke"
         d="m -68.919771,103.32958 -1.156669,3.68504 h 1.00407 l 0.437276,-1.39337 h 1.101139 l 0.274351,-0.87437 h -1.101087 l 0.444791,-1.4173 z m 2.258323,0 -0.444697,1.4173 h -9.99e-4 l -0.274344,0.87437 h 0.001 l -0.437183,1.39337 h 1.004585 l 1.156025,-3.68504 z"
         inkscape:original-d="m -70.099254,103.32959 v 3.68504 h 1.004073 v -1.39319 h 1.101225 v -0.87437 h -1.101225 v -1.41748 z m 2.258777,0 v 1.41748 h -10e-4 v 0.87437 h 10e-4 v 1.39319 h 1.004589 v -3.68504 z" /></g></g></svg>
