<?xml version="1.0" encoding="UTF-8" standalone="no"?>
<!-- Created with Inkscape (http://www.inkscape.org/) -->

<svg
   width="228.41321"
   height="32.739368"
   viewBox="0 0 60.434327 8.6622911"
   version="1.1"
   id="svg1"
   inkscape:version="1.4.2 (ebf0e940d0, 2025-05-08)"
   sodipodi:docname="footer_ornament_watermark_choo.svg"
   xml:space="preserve"
   xmlns:inkscape="http://www.inkscape.org/namespaces/inkscape"
   xmlns:sodipodi="http://sodipodi.sourceforge.net/DTD/sodipodi-0.dtd"
   xmlns:xlink="http://www.w3.org/1999/xlink"
   xmlns="http://www.w3.org/2000/svg"
   xmlns:svg="http://www.w3.org/2000/svg"><sodipodi:namedview
     id="namedview1"
     pagecolor="#ffffff"
     bordercolor="#d82222"
     borderopacity="1"
     inkscape:showpageshadow="0"
     inkscape:pageopacity="0"
     inkscape:pagecheckerboard="0"
     inkscape:deskcolor="#505050"
     inkscape:document-units="px"
     inkscape:zoom="4"
     inkscape:cx="114.25"
     inkscape:cy="20.875"
     inkscape:window-width="1900"
     inkscape:window-height="1019"
     inkscape:window-x="10"
     inkscape:window-y="51"
     inkscape:window-maximized="1"
     inkscape:current-layer="layer1"
     showgrid="false" /><defs
     id="defs1"><inkscape:path-effect
       effect="perspective-envelope"
       up_left_point="-91.6,138.76233"
       up_right_point="-55.39,138.76233"
       down_left_point="-92.798411,142.59283"
       down_right_point="-56.590991,142.59283"
       id="path-effect6"
       is_visible="true"
       lpeversion="1"
       deform_type="perspective"
       horizontal_mirror="false"
       vertical_mirror="false"
       overflow_perspective="false" /><inkscape:path-effect
       effect="perspective-envelope"
       up_left_point="-92.798411,138.76233"
       up_right_point="-56.344577,138.76233"
       down_left_point="-92.798411,142.59283"
       down_right_point="-56.344577,142.59283"
       id="path-effect5"
       is_visible="true"
       lpeversion="1"
       deform_type="perspective"
       horizontal_mirror="false"
       vertical_mirror="false"
       overflow_perspective="false" /><inkscape:path-effect
       effect="perspective-envelope"
       up_left_point="-91.46886,122.87112"
       up_right_point="-56.234701,122.87112"
       down_left_point="-91.46886,126.70162"
       down_right_point="-56.234701,126.70162"
       id="path-effect4"
       is_visible="true"
       lpeversion="1"
       deform_type="perspective"
       horizontal_mirror="false"
       vertical_mirror="false"
       overflow_perspective="false" /><inkscape:path-effect
       effect="perspective-envelope"
       up_left_point="-91.46886,122.87112"
       up_right_point="-56.234701,122.87112"
       down_left_point="-91.46886,126.70162"
       down_right_point="-56.234701,126.70162"
       id="path-effect3"
       is_visible="true"
       lpeversion="1"
       deform_type="perspective"
       horizontal_mirror="false"
       vertical_mirror="false"
       overflow_perspective="false" /><inkscape:path-effect
       effect="perspective-envelope"
       up_left_point="48.62,812.30752"
       up_right_point="331.27,812.30752"
       down_left_point="48.61512,845.33858"
       down_right_point="331.27332,845.33858"
       id="path-effect330"
       is_visible="true"
       lpeversion="1"
       deform_type="perspective"
       horizontal_mirror="false"
       vertical_mirror="false"
       overflow_perspective="false" /><inkscape:path-effect
       effect="perspective-envelope"
       up_left_point="58.62,812.30752"
       up_right_point="341.27,812.30752"
       down_left_point="48.61512,845.33858"
       down_right_point="331.27332,845.33858"
       id="path-effect330-2"
       is_visible="true"
       lpeversion="1"
       deform_type="perspective"
       horizontal_mirror="false"
       vertical_mirror="false"
       overflow_perspective="false" /></defs><g
     inkscape:label="Layer 1"
     inkscape:groupmode="layer"
     id="layer1"
     transform="translate(96.509437,-98.425007)"><rect
       style="opacity:0.3;fill:#219398;fill-opacity:1;stroke-width:0.361277;stroke-miterlimit:4.6;paint-order:markers fill stroke"
       id="rect87-2"
       width="44.463493"
       height="0.61986762"
       x="-80.538605"
       y="101.70934" /><text
       xml:space="preserve"
       style="font-style:normal;font-variant:normal;font-weight:bold;font-stretch:normal;font-size:2.88499px;line-height:100%;font-family:'Helvetica Now Micro';-inkscape-font-specification:'Helvetica Now Micro Bold';text-align:start;letter-spacing:0px;text-anchor:start;opacity:0.2;fill:#219398;fill-opacity:1;stroke-width:0.233655;stroke-miterlimit:4.6;paint-order:markers fill stroke"
       x="-80.801109"
       y="100.64068"
       id="text93-8"><tspan
         sodipodi:role="line"
         id="tspan93-9"
         style="fill:#219398;fill-opacity:1;stroke-width:0.233655"
         x="-80.801109"
         y="100.64068">Backend / Infrastructure by</tspan></text><text
       xml:space="preserve"
       style="font-style:normal;font-variant:normal;font-weight:bold;font-stretch:normal;font-size:3.06354px;line-height:100%;font-family:'Helvetica Now Micro';-inkscape-font-specification:'Helvetica Now Micro Bold';text-align:end;letter-spacing:0px;text-anchor:end;fill:#646464;fill-opacity:1;stroke-width:0.248115;stroke-miterlimit:4.6;paint-order:markers fill stroke"
       x="-96.739204"
       y="107.03826"
       id="text82-2"><tspan
         sodipodi:role="line"
         id="tspan82-9"
         style="text-align:start;text-anchor:start;stroke-width:0.248115"
         x="-96.739204"
         y="107.03826">2203-2205//</tspan></text><g
       id="g5"
       inkscape:path-effect="#path-effect6"
       transform="translate(19.805492,-35.505532)"
       style="fill:#646464"><path
         style="font-size:22.5778px;line-height:125%;font-family:Stop;-inkscape-font-specification:Stop;text-align:end;letter-spacing:0px;text-anchor:end;fill:#646464;stroke:#ee111a;stroke-width:0;stroke-linecap:square;stroke-miterlimit:4.6;paint-order:markers fill stroke"
         d="m -72.915556,139.97308 -0.797726,2.5469 h 2.480787 l 0.273963,-0.87456 h -1.476655 l 0.162337,-0.51825 h 1.476665 l 0.273993,-0.87465 h -1.476688 l 0.08753,-0.27944 z"
         id="path330"
         inkscape:original-d="m -73.736101,139.97302 v 2.54695 h 2.480783 v -0.8746 h -1.476629 l 5e-6,-0.51826 h 1.476624 v -0.87465 h -1.476624 v -0.27944 z" /><path
         style="font-size:22.5778px;line-height:125%;font-family:Stop;-inkscape-font-specification:Stop;text-align:end;letter-spacing:0px;text-anchor:end;fill:#646464;stroke:#ee111a;stroke-width:0;stroke-linecap:square;stroke-miterlimit:4.6;paint-order:markers fill stroke"
         d="m -75.839233,139.97308 -0.797587,2.5469 h 2.480788 l 0.273916,-0.87456 h -1.476595 l 0.162318,-0.51825 h 1.476595 l 0.273946,-0.87465 h -1.476619 l 0.08752,-0.27945 z"
         id="path329"
         inkscape:original-d="m -76.659635,139.97302 v 2.54695 h 2.480784 v -0.8746 h -1.476569 l 1.4e-5,-0.51826 h 1.476555 v -0.87465 h -1.476555 v -0.27945 z" /><path
         id="path328"
         style="font-size:22.5778px;line-height:125%;font-family:Stop;-inkscape-font-specification:Stop;text-align:end;letter-spacing:0px;text-anchor:end;fill:#646464;stroke:#ee111a;stroke-width:0;stroke-linecap:square;stroke-miterlimit:4.6;paint-order:markers fill stroke"
         d="m -66.906063,138.83515 -1.154597,3.68504 h 1.004074 l 0.436522,-1.39314 h 1.101255 l 0.273992,-0.87437 h -1.101273 l 0.44417,-1.41753 z m 2.258935,0 -0.444204,1.41753 h -0.001 l -0.273994,0.87437 h 0.001 l -0.436554,1.39314 h 1.004591 l 1.15482,-3.68504 z"
         inkscape:original-d="m -68.083421,138.83514 v 3.68504 h 1.004073 v -1.39319 h 1.101225 v -0.87437 h -1.101225 v -1.41748 z m 2.258777,0 v 1.41748 h -10e-4 v 0.87437 h 10e-4 v 1.39319 h 1.004589 v -3.68504 z" /><path
         style="font-size:22.5778px;line-height:125%;font-family:Stop;-inkscape-font-specification:Stop;text-align:end;letter-spacing:0px;text-anchor:end;fill:#646464;stroke:#ee111a;stroke-width:0;stroke-linecap:square;stroke-miterlimit:4.6;paint-order:markers fill stroke"
         d="m -67.697175,138.83529 c -0.29336,0 -0.564761,0.0333 -0.814166,0.0998 -0.188566,0.0504 -0.377088,0.13228 -0.565585,0.24566 -0.188499,0.11338 -0.363657,0.25017 -0.525421,0.41035 -0.158834,0.15657 -0.298102,0.33116 -0.417817,0.52372 -0.119153,0.19077 -0.208846,0.3824 -0.269169,0.57496 -0.05976,0.19076 -0.08991,0.37886 -0.09039,0.56422 -4.75e-4,0.18536 0.02903,0.35539 0.08853,0.51015 0.09811,0.25553 0.261796,0.44536 0.491042,0.56953 0.231046,0.12416 0.534628,0.18625 0.910749,0.18625 h 0.496686 l 0.274007,-0.87455 h -0.329311 c -0.21776,0 -0.386579,-0.027 -0.506436,-0.081 -0.117492,-0.0558 -0.207238,-0.14848 -0.269227,-0.27805 -0.08568,-0.17457 -0.09298,-0.37522 -0.02194,-0.60197 0.07555,-0.24115 0.21442,-0.45169 0.416575,-0.63165 0.134963,-0.12058 0.276562,-0.2079 0.424856,-0.2619 0.148298,-0.054 0.321421,-0.081 0.519393,-0.081 h 0.372533 l 0.274035,-0.87463 z"
         id="path327"
         inkscape:original-d="m -68.874434,138.83528 c -0.293339,0 -0.554288,0.0333 -0.782842,0.0998 -0.172764,0.0504 -0.335625,0.13227 -0.488593,0.24564 -0.152968,0.11338 -0.285266,0.25016 -0.396844,0.41033 -0.109777,0.15657 -0.194348,0.33115 -0.253735,0.52371 -0.05939,0.19076 -0.08905,0.38239 -0.08905,0.57495 0,0.19076 0.02877,0.37886 0.08636,0.56423 0.05759,0.18536 0.140365,0.3554 0.248341,0.51016 0.178165,0.25555 0.401315,0.44539 0.669458,0.56956 0.269944,0.12417 0.592976,0.18626 0.969097,0.18626 h 0.496685 v -0.87459 h -0.329305 c -0.217756,0 -0.395031,-0.027 -0.531803,-0.081 -0.134971,-0.0558 -0.253753,-0.14849 -0.356331,-0.27806 -0.140372,-0.17457 -0.210528,-0.37523 -0.210528,-0.60198 0,-0.24115 0.07291,-0.45168 0.218678,-0.63164 0.09718,-0.12058 0.211416,-0.2079 0.342788,-0.26189 0.131372,-0.054 0.296027,-0.081 0.493988,-0.081 h 0.372513 v -0.87459 z" /><path
         style="font-size:22.5778px;line-height:125%;font-family:Stop;-inkscape-font-specification:Stop;text-align:end;letter-spacing:0px;text-anchor:end;fill:#646464;stroke:#ee111a;stroke-width:0;stroke-linecap:square;stroke-miterlimit:4.6;paint-order:markers fill stroke"
         d="m -71.403388,138.83529 -1.148606,0.87463 h 2.199779 l 0.273989,-0.87463 z"
         id="path326"
         inkscape:original-d="m -72.580387,138.83528 -0.874592,0.87459 h 2.199661 v -0.87459 z" /><path
         style="font-size:22.5778px;line-height:125%;font-family:Stop;-inkscape-font-specification:Stop;text-align:end;letter-spacing:0px;text-anchor:end;fill:#646464;stroke:#ee111a;stroke-width:0;stroke-linecap:square;stroke-miterlimit:4.6;paint-order:markers fill stroke"
         d="m -72.559182,138.83529 -0.273893,0.87445 1.148304,-0.87445 z"
         id="path325"
         inkscape:original-d="m -73.736101,138.83528 v 0.87441 l 0.87435,-0.87441 z" /><path
         style="font-size:22.5778px;line-height:125%;font-family:Stop;-inkscape-font-specification:Stop;text-align:end;letter-spacing:0px;text-anchor:end;fill:#646464;stroke:#ee111a;stroke-width:0;stroke-linecap:square;stroke-miterlimit:4.6;paint-order:markers fill stroke"
         d="m -74.332399,138.83529 -1.148619,0.87463 h 2.205113 l 0.273942,-0.87463 z"
         id="path324"
         inkscape:original-d="m -75.509194,138.83528 -0.874652,0.87459 h 2.204995 v -0.87459 z" /><path
         style="font-size:22.5778px;line-height:125%;font-family:Stop;-inkscape-font-specification:Stop;text-align:end;letter-spacing:0px;text-anchor:end;fill:#646464;stroke:#ee111a;stroke-width:0;stroke-linecap:square;stroke-miterlimit:4.6;paint-order:markers fill stroke"
         d="m -75.482921,138.83529 -0.272172,0.86911 1.14125,-0.86911 z"
         id="path323"
         inkscape:original-d="m -76.659635,138.83528 v 0.86907 l 0.869017,-0.86907 z" /><path
         style="font-size:22.5778px;line-height:125%;font-family:Stop;-inkscape-font-specification:Stop;text-align:end;letter-spacing:0px;text-anchor:end;fill:#646464;stroke:#ee111a;stroke-width:0;stroke-linecap:square;stroke-miterlimit:4.6;paint-order:markers fill stroke"
         d="m -80.009685,138.83529 c -0.293359,0 -0.564752,0.0333 -0.814141,0.0998 -0.188555,0.0504 -0.37706,0.13228 -0.56553,0.24566 -0.188475,0.11338 -0.363602,0.25017 -0.525327,0.41035 -0.158799,0.15657 -0.298027,0.33116 -0.417697,0.52372 -0.119109,0.19077 -0.208819,0.3824 -0.269098,0.57496 -0.05971,0.19076 -0.08977,0.37886 -0.0902,0.56422 -4.32e-4,0.18536 0.02912,0.35539 0.08865,0.51015 0.09817,0.25553 0.261896,0.44536 0.491171,0.56953 0.231075,0.12416 0.534671,0.18625 0.910793,0.18625 h 0.496684 l 0.273807,-0.87455 h -0.329311 c -0.217759,0 -0.386585,-0.027 -0.506454,-0.081 -0.117507,-0.0558 -0.207273,-0.14848 -0.269292,-0.27805 -0.08572,-0.17457 -0.09306,-0.37522 -0.02208,-0.60197 0.07549,-0.24115 0.214256,-0.45169 0.41637,-0.63165 0.134935,-0.12058 0.276575,-0.2079 0.424857,-0.2619 0.148286,-0.054 0.321403,-0.081 0.519373,-0.081 h 0.372533 l 0.273835,-0.87463 z"
         id="path321"
         inkscape:original-d="m -81.186083,138.83528 c -0.293338,0 -0.554287,0.0333 -0.782841,0.0998 -0.172764,0.0504 -0.335626,0.13227 -0.488593,0.24564 -0.15297,0.11338 -0.285268,0.25016 -0.396844,0.41033 -0.109778,0.15657 -0.194349,0.33115 -0.253736,0.52371 -0.05939,0.19076 -0.08911,0.38239 -0.08911,0.57495 0,0.19076 0.02883,0.37886 0.08642,0.56423 0.05759,0.18536 0.140364,0.3554 0.248342,0.51016 0.178163,0.25555 0.401313,0.44539 0.669456,0.56956 0.269944,0.12417 0.592977,0.18626 0.969098,0.18626 h 0.496684 v -0.87459 h -0.329305 c -0.217755,0 -0.395031,-0.027 -0.531802,-0.081 -0.134973,-0.0558 -0.253754,-0.14849 -0.356333,-0.27806 -0.14037,-0.17457 -0.210527,-0.37523 -0.210527,-0.60198 0,-0.24115 0.07285,-0.45168 0.218618,-0.63164 0.09718,-0.12058 0.211476,-0.2079 0.342849,-0.26189 0.131372,-0.054 0.296027,-0.081 0.493987,-0.081 h 0.372513 v -0.87459 z" /><path
         id="path320"
         style="font-size:22.5778px;line-height:125%;font-family:Stop;-inkscape-font-specification:Stop;text-align:end;letter-spacing:0px;text-anchor:end;fill:#646464;stroke:#ee111a;stroke-width:0;stroke-linecap:square;stroke-miterlimit:4.6;paint-order:markers fill stroke"
         d="m -88.820663,138.83515 -1.153095,3.68504 h 1.004075 l 0.435954,-1.39314 h 10e-4 1.102289 l 0.273635,-0.87437 h -1.102307 -0.001 l 0.443592,-1.41753 z m 2.260485,0 -0.443625,1.41753 h -5.17e-4 l -0.273638,0.87437 h 5.17e-4 l -0.435986,1.39314 h 1.004074 l 1.153318,-3.68504 z" /><path
         style="font-size:22.5778px;line-height:125%;font-family:Stop;-inkscape-font-specification:Stop;text-align:end;letter-spacing:0px;text-anchor:end;fill:#646464;stroke:#ee111a;stroke-width:0;stroke-linecap:square;stroke-miterlimit:4.6;paint-order:markers fill stroke"
         d="m -89.61162,138.83529 c -0.293359,0 -0.564747,0.0333 -0.814124,0.0998 -0.188547,0.0504 -0.377036,0.13228 -0.565486,0.24566 -0.188453,0.11338 -0.363495,0.25017 -0.525194,0.41035 -0.158769,0.15657 -0.298027,0.33116 -0.417663,0.52372 -0.119075,0.19077 -0.20869,0.3824 -0.268935,0.57496 -0.05968,0.19076 -0.08976,0.37886 -0.09016,0.56422 -3.99e-4,0.18536 0.02918,0.35539 0.08874,0.51015 0.09822,0.25553 0.262035,0.44536 0.491333,0.56953 0.231097,0.12416 0.534703,0.18625 0.910826,0.18625 h 0.496684 l 0.273651,-0.87455 h -0.32937 c -0.217761,0 -0.386591,-0.027 -0.506469,-0.081 -0.117516,-0.0558 -0.207241,-0.14848 -0.269281,-0.27805 -0.08576,-0.17457 -0.09319,-0.37522 -0.02225,-0.60197 0.07545,-0.24115 0.214236,-0.45169 0.416318,-0.63165 0.134913,-0.12058 0.276476,-0.2079 0.42475,-0.2619 0.148276,-0.054 0.321449,-0.081 0.519418,-0.081 h 0.372533 l 0.273679,-0.87463 z"
         id="path319"
         inkscape:original-d="m -90.787347,138.83528 c -0.293338,0 -0.554288,0.0333 -0.782841,0.0998 -0.172765,0.0504 -0.335627,0.13227 -0.488594,0.24564 -0.152968,0.11338 -0.285206,0.25016 -0.396784,0.41033 -0.109776,0.15657 -0.194408,0.33115 -0.253795,0.52371 -0.05939,0.19076 -0.08905,0.38239 -0.08905,0.57495 0,0.19076 0.02877,0.37886 0.08636,0.56423 0.05759,0.18536 0.140364,0.3554 0.248342,0.51016 0.178163,0.25555 0.401373,0.44539 0.669517,0.56956 0.269944,0.12417 0.592975,0.18626 0.969097,0.18626 h 0.496684 v -0.87459 h -0.329364 c -0.217757,0 -0.395032,-0.027 -0.531803,-0.081 -0.134972,-0.0558 -0.253695,-0.14849 -0.356272,-0.27806 -0.140372,-0.17457 -0.210588,-0.37523 -0.210588,-0.60198 0,-0.24115 0.07291,-0.45168 0.218678,-0.63164 0.09718,-0.12058 0.211415,-0.2079 0.342789,-0.26189 0.131372,-0.054 0.296088,-0.081 0.494047,-0.081 h 0.372513 v -0.87459 z" /><path
         id="path318"
         style="font-size:22.5778px;line-height:125%;font-family:Stop;-inkscape-font-specification:Stop;text-align:end;letter-spacing:0px;text-anchor:end;fill:#646464;stroke:#ee111a;stroke-width:0;stroke-linecap:square;stroke-miterlimit:4.6;paint-order:markers fill stroke"
         d="m -57.293208,138.76234 c -0.494932,0 -0.969321,0.15839 -1.423165,0.47514 -0.250896,0.17458 -0.470137,0.38876 -0.657666,0.64252 -0.185161,0.25195 -0.32311,0.52278 -0.413933,0.81252 -0.153154,0.48858 -0.137641,0.90614 0.04668,1.25264 l 0.926531,-0.70533 c -0.0026,-0.0259 -0.0042,-0.0526 -0.0047,-0.0803 -0.0023,-0.14756 0.02444,-0.31042 0.08029,-0.48858 0.103805,-0.33113 0.259749,-0.59029 0.467801,-0.77745 0.210417,-0.18898 0.448785,-0.28347 0.715146,-0.28347 0.256139,0 0.431656,0.0902 0.526593,0.27076 l 0.876457,-0.66721 c -0.02029,-0.0233 -0.04172,-0.0459 -0.06427,-0.0678 -0.125409,-0.12237 -0.28204,-0.21688 -0.469932,-0.28347 -0.186089,-0.0666 -0.388048,-0.0999 -0.605818,-0.0999 z m 1.270897,0.64008 -0.935886,0.71244 c 0.01884,0.15708 -0.0058,0.34425 -0.07391,0.56148 -0.104942,0.33473 -0.262633,0.59656 -0.473044,0.78552 -0.208611,0.18895 -0.445181,0.28345 -0.709729,0.28345 -0.242952,0 -0.41302,-0.0747 -0.510171,-0.22407 -0.0086,-0.0138 -0.01671,-0.0281 -0.02419,-0.0429 l -0.864914,0.65846 c 0.100597,0.12307 0.225183,0.22199 0.3737,0.29674 0.216866,0.10617 0.476476,0.15928 0.778813,0.15928 0.302338,0 0.592158,-0.0549 0.869524,-0.16467 0.279166,-0.10977 0.539856,-0.27262 0.782123,-0.48856 0.189248,-0.16736 0.35349,-0.35815 0.492619,-0.57229 0.140936,-0.21416 0.24802,-0.4382 0.321371,-0.67215 0.10495,-0.33473 0.138305,-0.63342 0.100109,-0.89618 -0.02025,-0.14612 -0.06237,-0.27832 -0.126402,-0.39661 z"
         inkscape:original-d="m -58.49406,138.76234 c -0.494897,0 -0.919603,0.15838 -1.27413,0.47511 -0.196159,0.17457 -0.348252,0.38874 -0.456231,0.64249 -0.106176,0.25195 -0.159229,0.52277 -0.159229,0.81251 0,0.48859 0.146399,0.90616 0.439332,1.25267 l 0.705414,-0.70535 c -0.01072,-0.0259 -0.02068,-0.0526 -0.0299,-0.0803 -0.04859,-0.14757 -0.07287,-0.31043 -0.07287,-0.48859 0,-0.33113 0.0747,-0.59028 0.224072,-0.77744 0.151167,-0.18897 0.359901,-0.28346 0.626247,-0.28346 0.256125,0 0.45991,0.0902 0.611445,0.27075 l 0.667239,-0.66718 c -0.02759,-0.0233 -0.05611,-0.0459 -0.08552,-0.0678 -0.163766,-0.12237 -0.350013,-0.21687 -0.558769,-0.28346 -0.206956,-0.0666 -0.41934,-0.0999 -0.637095,-0.0999 z m 1.471473,0.64004 -0.712484,0.71242 c 0.06808,0.15707 0.102117,0.34424 0.102117,0.56147 0,0.33473 -0.0756,0.59657 -0.226768,0.78553 -0.149369,0.18896 -0.35631,0.28346 -0.620854,0.28346 -0.242948,0 -0.43643,-0.0747 -0.580403,-0.22407 -0.01297,-0.0138 -0.02552,-0.0281 -0.03764,-0.0429 l -0.658489,0.65849 c 0.139176,0.12308 0.294769,0.222 0.46672,0.29676 0.250149,0.10618 0.526407,0.15929 0.828744,0.15929 0.302338,0 0.574948,-0.0549 0.817898,-0.16468 0.244749,-0.10978 0.454381,-0.27264 0.628944,-0.48859 0.136773,-0.16737 0.241198,-0.35816 0.313184,-0.57231 0.07379,-0.21416 0.110627,-0.43821 0.110627,-0.67216 0,-0.33473 -0.06029,-0.63341 -0.180863,-0.89616 -0.06606,-0.14612 -0.149627,-0.27831 -0.250738,-0.3966 z" /><path
         id="text22"
         style="font-size:22.5778px;line-height:125%;font-family:Stop;-inkscape-font-specification:Stop;text-align:end;letter-spacing:0px;text-anchor:end;fill:#646464;stroke:#ee111a;stroke-width:0;stroke-linecap:square;stroke-miterlimit:4.6;paint-order:markers fill stroke"
         d="m -61.38041,138.76234 c -0.494933,0 -0.96937,0.15839 -1.423188,0.47514 -0.250882,0.17458 -0.470049,0.38876 -0.657559,0.64252 -0.185141,0.25195 -0.323128,0.52278 -0.41393,0.81252 -0.153113,0.48857 -0.137505,0.90614 0.04684,1.25264 l 0.926416,-0.70533 c -1e-6,-2e-5 1.9e-5,-4e-5 1.9e-5,-6e-5 -0.0026,-0.0259 -0.0041,-0.0526 -0.0047,-0.0803 -0.0023,-0.14756 0.02436,-0.31042 0.08019,-0.48858 0.103779,-0.33113 0.259703,-0.59029 0.46774,-0.77745 0.210403,-0.18898 0.448765,-0.28347 0.715125,-0.28347 0.256135,0 0.43169,0.0903 0.526674,0.27076 l 0.876346,-0.66721 c -0.0203,-0.0233 -0.04172,-0.0459 -0.06427,-0.0678 -0.125418,-0.12237 -0.282054,-0.21688 -0.469953,-0.28347 -0.186096,-0.0666 -0.387997,-0.0999 -0.605767,-0.0999 z m 1.270886,0.64008 -0.935754,0.71238 c 2e-6,2e-5 -1.9e-5,4e-5 -1.9e-5,6e-5 0.01885,0.15708 -0.0058,0.34424 -0.07387,0.56148 -0.104917,0.33473 -0.262588,0.59656 -0.472984,0.78552 -0.208597,0.18895 -0.445157,0.28345 -0.709706,0.28345 -0.242954,0 -0.41303,-0.0747 -0.51019,-0.22407 -0.0087,-0.0138 -0.01675,-0.028 -0.02419,-0.0429 l -0.864845,0.6584 c 8e-6,1e-5 -2.5e-5,5e-5 -1.8e-5,6e-5 0.100588,0.12307 0.225133,0.22199 0.373661,0.29674 0.216873,0.10617 0.476489,0.15928 0.778826,0.15928 0.302338,0 0.592213,-0.0549 0.86957,-0.16467 0.279158,-0.10977 0.539836,-0.27262 0.782086,-0.48856 0.189234,-0.16736 0.353405,-0.35815 0.492516,-0.57229 0.140921,-0.21416 0.248048,-0.4382 0.321381,-0.67215 0.104924,-0.33473 0.138256,-0.63342 0.10004,-0.89618 -0.02025,-0.14612 -0.06244,-0.27832 -0.126493,-0.39661 z"
         inkscape:original-d="m -62.580971,138.76234 c -0.494898,0 -0.919664,0.15838 -1.274189,0.47511 -0.196158,0.17457 -0.348194,0.38874 -0.456172,0.64249 -0.106176,0.25195 -0.159288,0.52277 -0.159288,0.81251 0,0.48858 0.146466,0.90616 0.439392,1.25267 l 0.705352,-0.70535 c -7e-6,-2e-5 7e-6,-4e-5 0,-6e-5 -0.01072,-0.0259 -0.02062,-0.0526 -0.02984,-0.0803 -0.04859,-0.14757 -0.07293,-0.31043 -0.07293,-0.48859 0,-0.33113 0.0747,-0.59028 0.22407,-0.77744 0.151168,-0.18897 0.359903,-0.28346 0.626248,-0.28346 0.256121,0 0.459968,0.0903 0.611505,0.27075 l 0.667179,-0.66718 c -0.0276,-0.0233 -0.0561,-0.0459 -0.08552,-0.0678 -0.163765,-0.12237 -0.350011,-0.21687 -0.558768,-0.28346 -0.206958,-0.0666 -0.419282,-0.0999 -0.637036,-0.0999 z m 1.471413,0.64004 -0.712424,0.71236 c 8e-6,2e-5 -7e-6,4e-5 0,6e-5 0.06808,0.15707 0.102117,0.34423 0.102117,0.56147 0,0.33473 -0.0756,0.59657 -0.226768,0.78553 -0.149369,0.18896 -0.356308,0.28346 -0.620853,0.28346 -0.24295,0 -0.436434,-0.0747 -0.580404,-0.22407 -0.01298,-0.0138 -0.02552,-0.028 -0.03764,-0.0429 l -0.658488,0.65843 c 1.1e-5,1e-5 -1e-5,5e-5 0,6e-5 0.139159,0.12308 0.294703,0.222 0.466659,0.29676 0.250148,0.10618 0.526408,0.15929 0.828745,0.15929 0.302338,0 0.575007,-0.0549 0.817957,-0.16468 0.244749,-0.10978 0.454381,-0.27264 0.628944,-0.48859 0.136772,-0.16737 0.24114,-0.35816 0.313125,-0.57231 0.07379,-0.21416 0.110687,-0.43821 0.110687,-0.67216 0,-0.33473 -0.06029,-0.63341 -0.180863,-0.89616 -0.06605,-0.14612 -0.149671,-0.27831 -0.250799,-0.3966 z" /><g
         id="g304"
         transform="matrix(0.11591471,0,0,0.11591471,-97.146292,44.609635)"
         style="fill:#646464"><path
           id="rect249"
           style="fill:#646464;stroke:#ee111a;stroke-width:0;stroke-linecap:square;stroke-miterlimit:4.6;paint-order:markers fill stroke"
           d="m 120.26938,816.99383 -9.20191,13.35658 0.90803,14.28387 h 10.05004 z"
           inkscape:original-d="m 111.40767,816.99354 -5.02088,13.35629 5.379,14.2844 h 10.05003 z" /><path
           id="rect250"
           style="fill:#646464;stroke:#ee111a;stroke-width:0;stroke-linecap:square;stroke-miterlimit:4.6;paint-order:markers fill stroke"
           d="m 114.04293,812.88788 -4.59613,6.67128 h 6.9891 l 4.59623,-6.67128 z m -6.74506,9.79057 -15.173868,22.02506 h 6.988729 l 15.174209,-22.02506 z"
           inkscape:original-d="m 103.8965,812.88784 -2.50786,6.67091 h 6.98872 l 2.50786,-6.67091 z m -3.6804,9.7901 -8.28011,22.02553 h 6.98872 l 8.28012,-22.02553 z" /></g><use
         x="0"
         y="0"
         xlink:href="#path320"
         id="use4"
         transform="translate(9.6014364)"
         style="fill:#646464" /></g></g></svg>
