<?xml version="1.0" encoding="UTF-8" standalone="no"?>
<!-- Created with Inkscape (http://www.inkscape.org/) -->

<svg
   width="38.004284"
   height="16.838627"
   viewBox="0 0 10.0553 4.45522"
   version="1.1"
   id="svg1"
   inkscape:version="1.4.2 (ebf0e940d0, 2025-05-08)"
   sodipodi:docname="icon_psp.svg"
   xmlns:inkscape="http://www.inkscape.org/namespaces/inkscape"
   xmlns:sodipodi="http://sodipodi.sourceforge.net/DTD/sodipodi-0.dtd"
   xmlns="http://www.w3.org/2000/svg"
   xmlns:svg="http://www.w3.org/2000/svg">
  <sodipodi:namedview
     id="namedview1"
     pagecolor="#ffffff"
     bordercolor="#d82222"
     borderopacity="1"
     inkscape:showpageshadow="0"
     inkscape:pageopacity="0"
     inkscape:pagecheckerboard="0"
     inkscape:deskcolor="#505050"
     inkscape:document-units="px"
     inkscape:zoom="0.33217293"
     inkscape:cx="-516.29734"
     inkscape:cy="-383.83621"
     inkscape:window-width="1900"
     inkscape:window-height="995"
     inkscape:window-x="10"
     inkscape:window-y="75"
     inkscape:window-maximized="1"
     inkscape:current-layer="layer1" />
  <defs
     id="defs1" />
  <g
     inkscape:label="Layer 1"
     inkscape:groupmode="layer"
     id="layer1"
     transform="translate(-302.154,-193.93958)">
    <g
       id="g356"
       transform="translate(-3962.4659,92.313709)">
      <rect
         style="fill:#646464;fill-opacity:1;stroke:#ee111a;stroke-width:0;stroke-linecap:square;stroke-miterlimit:4.6;paint-order:markers fill stroke"
         id="rect356-8"
         width="8.1535263"
         height="3.0969479"
         x="4265.291"
         y="102.34012"
         ry="0"
         rx="0" />
      <path
         id="rect355-24"
         style="fill:#dedede;fill-opacity:1;stroke:#ee111a;stroke-width:0;stroke-linecap:square;stroke-miterlimit:4.6;paint-order:markers fill stroke"
         d="m 4266.5115,101.62587 c -1.0479,0 -1.8916,0.84366 -1.8916,1.89159 v 0.67204 c 0,1.04793 0.8437,1.89159 1.8916,1.89159 h 6.2721 c 1.0479,0 1.8916,-0.84366 1.8916,-1.89159 v -0.67204 c 0,-1.04793 -0.8437,-1.89159 -1.8916,-1.89159 z m 3.0925,0.97738 c 0.5591,0 0.8884,0.21128 0.9816,0.6306 l -0.4877,0.0559 c -0.028,-0.10561 -0.081,-0.18635 -0.1615,-0.23605 -0.081,-0.0497 -0.1957,-0.0746 -0.3417,-0.0746 -0.2919,0 -0.4379,0.0995 -0.4379,0.29203 0,0.0839 0.025,0.14596 0.078,0.18633 0.053,0.0435 0.1491,0.0777 0.292,0.10562 l 0.2857,0.059 c 0.2858,0.0621 0.4908,0.14597 0.6182,0.25468 0.1242,0.11182 0.1894,0.26092 0.1894,0.44729 0,0.24849 -0.093,0.43796 -0.2765,0.57463 -0.1832,0.13666 -0.4379,0.20504 -0.764,0.20504 -0.5964,0 -0.938,-0.22987 -1.0281,-0.69578 l 0.5032,-0.059 c 0.05,0.24848 0.2298,0.36958 0.5466,0.36958 0.1616,0 0.2858,-0.0279 0.3728,-0.0838 0.087,-0.0559 0.1305,-0.13671 0.1305,-0.24231 0,-0.087 -0.031,-0.15219 -0.093,-0.19879 -0.062,-0.0466 -0.1678,-0.087 -0.3138,-0.11806 l -0.3231,-0.0621 c -0.2515,-0.0497 -0.4379,-0.13042 -0.556,-0.24224 -0.118,-0.11182 -0.1769,-0.26406 -0.1769,-0.45664 0,-0.22363 0.081,-0.40067 0.2484,-0.52491 0.1677,-0.12424 0.4038,-0.18641 0.7144,-0.18641 z m -3.2427,0.0591 h 0.9971 c 0.2732,0 0.4876,0.0715 0.6398,0.21433 0.1491,0.14287 0.2267,0.33544 0.2267,0.57772 0,0.23606 -0.078,0.42549 -0.2298,0.56527 -0.1553,0.14288 -0.3696,0.21432 -0.6399,0.21432 h -0.4876 v 0.81385 h -0.5063 z m 4.7088,0 h 0.9972 c 0.2732,0 0.4875,0.0715 0.6397,0.21433 0.1491,0.14287 0.2268,0.33544 0.2268,0.57772 0,0.23606 -0.078,0.42549 -0.2298,0.56527 -0.1554,0.14288 -0.3697,0.21432 -0.6399,0.21432 h -0.4877 v 0.81385 h -0.5063 z m -4.2025,0.4162 v 0.74859 h 0.4596 c 0.118,0 0.2113,-0.0311 0.2766,-0.0963 0.065,-0.0652 0.099,-0.15838 0.099,-0.27641 0,-0.12114 -0.034,-0.21435 -0.099,-0.27958 -0.066,-0.0621 -0.1585,-0.0963 -0.2796,-0.0963 z m 4.7088,0 v 0.74859 h 0.4597 c 0.1181,0 0.2112,-0.0311 0.2765,-0.0963 0.065,-0.0652 0.099,-0.15838 0.099,-0.27641 0,-0.12114 -0.034,-0.21435 -0.099,-0.27958 -0.066,-0.0621 -0.1584,-0.0963 -0.2795,-0.0963 z" />
    </g>
  </g>
</svg>
