<?xml version="1.0" encoding="UTF-8" standalone="no"?>
<!-- Created with Inkscape (http://www.inkscape.org/) -->

<svg
   width="38.004284"
   height="16.838627"
   viewBox="0 0 10.0553 4.45522"
   version="1.1"
   id="svg1"
   inkscape:version="1.4.2 (ebf0e940d0, 2025-05-08)"
   sodipodi:docname="icon_vita.svg"
   xmlns:inkscape="http://www.inkscape.org/namespaces/inkscape"
   xmlns:sodipodi="http://sodipodi.sourceforge.net/DTD/sodipodi-0.dtd"
   xmlns="http://www.w3.org/2000/svg"
   xmlns:svg="http://www.w3.org/2000/svg">
  <sodipodi:namedview
     id="namedview1"
     pagecolor="#ffffff"
     bordercolor="#d82222"
     borderopacity="1"
     inkscape:showpageshadow="0"
     inkscape:pageopacity="0"
     inkscape:pagecheckerboard="0"
     inkscape:deskcolor="#505050"
     inkscape:document-units="px"
     inkscape:zoom="0.33217293"
     inkscape:cx="19.568121"
     inkscape:cy="7.5262003"
     inkscape:window-width="1900"
     inkscape:window-height="995"
     inkscape:window-x="10"
     inkscape:window-y="75"
     inkscape:window-maximized="1"
     inkscape:current-layer="layer1" />
  <defs
     id="defs1" />
  <g
     inkscape:label="Layer 1"
     inkscape:groupmode="layer"
     id="layer1"
     transform="translate(-160.602,-90.222915)">
    <g
       id="g357"
       transform="translate(-4104.0179,-24.780615)">
      <rect
         style="fill:#646464;fill-opacity:1;stroke:#ee111a;stroke-width:0;stroke-linecap:square;stroke-miterlimit:4.6;paint-order:markers fill stroke"
         id="rect356-0"
         width="8.1535263"
         height="3.0969479"
         x="4265.6123"
         y="115.62292"
         ry="0"
         rx="0" />
      <path
         id="rect355-2"
         style="fill:#dedede;fill-opacity:1;stroke:#ee111a;stroke-width:0;stroke-linecap:square;stroke-miterlimit:4.6;paint-order:markers fill stroke"
         d="m 4266.5115,115.00353 c -1.0479,0 -1.8916,0.84366 -1.8916,1.89159 v 0.67204 c 0,1.04794 0.8437,1.89159 1.8916,1.89159 h 6.2721 c 1.0479,0 1.8916,-0.84366 1.8916,-1.89159 v -0.67204 c 0,-1.04793 -0.8437,-1.89159 -1.8916,-1.89159 z m 2.2944,0.95875 h 0.4969 v 0.44728 h -0.4969 z m -2.5191,0.0994 h 0.5498 l 0.5156,1.70834 0.056,0.23605 0.056,-0.23605 0.5093,-1.70834 h 0.5312 l -0.792,2.38549 h -0.6151 z m 3.718,0.18015 h 0.4907 v 0.38512 l -0.018,0.14288 0.5374,-0.0248 v 0.32613 l -0.5436,-0.0217 0.025,0.23915 v 0.56225 c 0,0.13357 0.062,0.19879 0.1894,0.19879 h 0.3262 v 0.39757 h -0.4379 c -0.1957,0 -0.3386,-0.0373 -0.4318,-0.11497 -0.093,-0.0776 -0.1367,-0.20183 -0.1367,-0.37577 v -0.66787 l 0.025,-0.23605 -0.4039,0.0186 v -0.32613 l 0.3975,0.0217 -0.018,-0.13979 z m 2.2333,0.45347 c 0.264,0 0.4596,0.0466 0.5839,0.13979 0.1243,0.0932 0.1864,0.22985 0.1864,0.41311 v 0.82622 0.37275 h -0.4131 c 0,-0.0155 -0.01,-0.0497 -0.022,-0.10562 -0.012,-0.0528 -0.018,-0.087 -0.018,-0.10562 -0.1274,0.17705 -0.323,0.26404 -0.584,0.26404 -0.1863,0 -0.3354,-0.0466 -0.4472,-0.13979 -0.1118,-0.0932 -0.1677,-0.21743 -0.1677,-0.37584 0,-0.1553 0.053,-0.27645 0.1583,-0.35721 0.1056,-0.0808 0.2827,-0.14285 0.525,-0.18633 l 0.3665,-0.0653 c 0.05,-0.006 0.093,-0.0217 0.1273,-0.0403 v -0.0684 c 0,-0.0839 -0.025,-0.14597 -0.071,-0.18324 -0.046,-0.0373 -0.1304,-0.0559 -0.2484,-0.0559 -0.118,0 -0.205,0.0217 -0.2609,0.059 -0.056,0.0404 -0.09,0.10874 -0.1056,0.20814 l -0.4225,-0.0466 c 0.056,-0.36652 0.3262,-0.5529 0.8139,-0.5529 z m -3.4322,0.0497 h 0.4969 v 1.70215 h -0.4969 z m 3.721,0.86658 -0.1117,0.028 -0.2796,0.0559 c -0.1926,0.0435 -0.2889,0.12734 -0.2889,0.25469 0,0.0777 0.025,0.13667 0.074,0.17705 0.05,0.0404 0.1243,0.059 0.2175,0.059 0.1833,0 0.3137,-0.0745 0.3882,-0.2267 z" />
    </g>
  </g>
</svg>
