<?xml version="1.0" encoding="UTF-8" standalone="no"?>
<!-- Created with Inkscape (http://www.inkscape.org/) -->

<svg
   width="38.003529"
   height="16.838362"
   viewBox="0 0 10.0551 4.4551499"
   version="1.1"
   id="svg1"
   inkscape:version="1.4.2 (ebf0e940d0, 2025-05-08)"
   sodipodi:docname="icon_ps3.svg"
   xmlns:inkscape="http://www.inkscape.org/namespaces/inkscape"
   xmlns:sodipodi="http://sodipodi.sourceforge.net/DTD/sodipodi-0.dtd"
   xmlns="http://www.w3.org/2000/svg"
   xmlns:svg="http://www.w3.org/2000/svg">
  <sodipodi:namedview
     id="namedview1"
     pagecolor="#ffffff"
     bordercolor="#d82222"
     borderopacity="1"
     inkscape:showpageshadow="0"
     inkscape:pageopacity="0"
     inkscape:pagecheckerboard="0"
     inkscape:deskcolor="#505050"
     inkscape:document-units="px"
     inkscape:zoom="0.33217293"
     inkscape:cx="19.568121"
     inkscape:cy="7.5262003"
     inkscape:window-width="1900"
     inkscape:window-height="995"
     inkscape:window-x="10"
     inkscape:window-y="75"
     inkscape:window-maximized="1"
     inkscape:current-layer="layer1" />
  <defs
     id="defs1" />
  <g
     inkscape:label="Layer 1"
     inkscape:groupmode="layer"
     id="layer1"
     transform="translate(-160.3375,-90.487499)">
    <g
       id="g358"
       transform="translate(-4104.2825,15.61691)">
      <rect
         style="fill:#646464;fill-opacity:1;stroke:#ee111a;stroke-width:0;stroke-linecap:square;stroke-miterlimit:4.6;paint-order:markers fill stroke"
         id="rect356"
         width="8.1535263"
         height="3.0969479"
         x="4265.3691"
         y="75.593933"
         ry="0"
         rx="0" />
      <path
         id="rect355"
         style="fill:#dedede;fill-opacity:1;stroke:#ee111a;stroke-width:0;stroke-linecap:square;stroke-miterlimit:4.6;paint-order:markers fill stroke"
         d="m 4266.5115,74.870589 c -1.0479,0 -1.8915,0.84364 -1.8915,1.89156 v 0.672031 c 0,1.047919 0.8436,1.891559 1.8915,1.891559 h 6.272 c 1.048,0 1.8916,-0.84364 1.8916,-1.891559 v -0.672031 c 0,-1.04792 -0.8436,-1.89156 -1.8916,-1.89156 z m 3.0972,0.977364 c 0.5591,0 0.8884,0.211273 0.9816,0.630591 l -0.4877,0.0559 c -0.028,-0.105606 -0.081,-0.186424 -0.1615,-0.236121 -0.081,-0.0497 -0.1957,-0.07454 -0.3417,-0.07454 -0.2919,0 -0.438,0.09945 -0.438,0.292021 0,0.08386 0.025,0.145957 0.078,0.186336 0.053,0.04349 0.149,0.07766 0.2919,0.105614 l 0.2858,0.059 c 0.2857,0.06212 0.4906,0.145972 0.618,0.254683 0.1243,0.111819 0.1896,0.260915 0.1896,0.447278 0,0.248484 -0.093,0.437952 -0.2765,0.574619 -0.1833,0.136666 -0.438,0.205041 -0.7641,0.205041 -0.5964,0 -0.938,-0.229865 -1.028,-0.695773 l 0.5031,-0.059 c 0.05,0.248484 0.2298,0.369578 0.5467,0.369578 0.1615,0 0.2857,-0.02791 0.3727,-0.08382 0.087,-0.0559 0.1304,-0.136702 0.1304,-0.242308 0,-0.08697 -0.031,-0.152191 -0.093,-0.198782 -0.062,-0.04659 -0.1677,-0.087 -0.3137,-0.11806 l -0.323,-0.06209 c -0.2517,-0.0497 -0.4379,-0.130491 -0.5559,-0.242308 -0.1181,-0.111819 -0.1771,-0.263983 -0.1771,-0.456559 0,-0.223636 0.081,-0.400663 0.2484,-0.524906 0.1678,-0.124242 0.4038,-0.186407 0.7144,-0.186407 z m 2.3793,0.0062 c 0.2515,0 0.4565,0.05898 0.6181,0.170796 0.1615,0.11803 0.2423,0.276476 0.2423,0.475264 0,0.248484 -0.1244,0.416208 -0.3666,0.503178 v 0.0093 c 0.2982,0.07144 0.4473,0.260932 0.4473,0.568431 0,0.239166 -0.087,0.425519 -0.2609,0.559079 -0.174,0.13356 -0.4006,0.198782 -0.6864,0.198782 -0.2919,0 -0.5188,-0.06829 -0.6834,-0.208063 -0.1646,-0.139772 -0.2578,-0.341684 -0.2795,-0.605698 l 0.5062,-0.04036 c 0.025,0.285758 0.1772,0.428572 0.4567,0.428572 0.1304,0 0.2329,-0.03104 0.3043,-0.09626 0.071,-0.06212 0.1088,-0.152218 0.1088,-0.264036 0,-0.223636 -0.1336,-0.335403 -0.3977,-0.335403 h -0.2235 v -0.363443 h 0.205 c 0.1242,0 0.2174,-0.02484 0.2826,-0.07454 0.065,-0.0497 0.1,-0.12114 0.1,-0.214322 0,-0.09318 -0.035,-0.164612 -0.1026,-0.217416 -0.068,-0.0497 -0.1646,-0.07763 -0.2827,-0.07763 -0.2515,0 -0.3945,0.114909 -0.4255,0.344757 l -0.4783,-0.04654 c 0.034,-0.229848 0.1304,-0.403828 0.2888,-0.528071 0.1554,-0.124242 0.3666,-0.186335 0.6275,-0.186335 z m -5.622,0.05281 h 0.997 c 0.2734,0 0.4877,0.07145 0.6399,0.214322 0.1491,0.142878 0.2267,0.33544 0.2267,0.577712 0,0.236061 -0.078,0.425494 -0.2298,0.565266 -0.1553,0.142879 -0.3696,0.214322 -0.6399,0.214322 h -0.4876 v 0.813833 h -0.5063 z m 0.5063,0.416197 v 0.74858 h 0.4597 c 0.118,0 0.2112,-0.03111 0.2765,-0.09633 0.065,-0.06522 0.099,-0.158379 0.099,-0.27641 0,-0.121136 -0.034,-0.214348 -0.099,-0.279575 -0.066,-0.06212 -0.1585,-0.09626 -0.2797,-0.09626 z" />
    </g>
  </g>
</svg>
