<?xml version="1.0" encoding="UTF-8" standalone="no"?>
<!-- Created with Inkscape (http://www.inkscape.org/) -->

<svg
   width="25.841837"
   height="25.804914"
   viewBox="0 0 6.8373193 6.8275503"
   version="1.1"
   id="svg1"
   inkscape:version="1.4.2 (ebf0e940d0, 2025-05-08)"
   sodipodi:docname="icon_rpcs3.svg"
   xmlns:inkscape="http://www.inkscape.org/namespaces/inkscape"
   xmlns:sodipodi="http://sodipodi.sourceforge.net/DTD/sodipodi-0.dtd"
   xmlns="http://www.w3.org/2000/svg"
   xmlns:svg="http://www.w3.org/2000/svg">
  <sodipodi:namedview
     id="namedview1"
     pagecolor="#ffffff"
     bordercolor="#d82222"
     borderopacity="1"
     inkscape:showpageshadow="0"
     inkscape:pageopacity="0"
     inkscape:pagecheckerboard="0"
     inkscape:deskcolor="#505050"
     inkscape:document-units="px"
     inkscape:zoom="0.33217293"
     inkscape:cx="-356.74189"
     inkscape:cy="-88.809163"
     inkscape:window-width="1900"
     inkscape:window-height="995"
     inkscape:window-x="10"
     inkscape:window-y="75"
     inkscape:window-maximized="1"
     inkscape:current-layer="layer1" />
  <defs
     id="defs1" />
  <g
     inkscape:label="Layer 1"
     inkscape:groupmode="layer"
     id="layer1"
     transform="translate(-259.82079,-115.62292)">
    <g
       id="g361"
       transform="matrix(0.07919761,0,0,0.07919761,-111.1953,117.96983)">
      <rect
         style="fill:#646464;fill-opacity:1;stroke:#ee111a;stroke-width:0;stroke-linecap:square;stroke-miterlimit:4.6;paint-order:markers fill stroke"
         id="rect361"
         width="71.866554"
         height="59.710022"
         x="4690.9912"
         y="-15.374436" />
      <path
         d="m 4696.4962,-29.611631 c -0.652,0.0461 -1.0068,0.0945 -1.6474,0.2304 -0.4907,0.10368 -0.6935,0.15437 -1.0022,0.25114 -0.1521,0.0484 -0.3387,0.10598 -0.4147,0.12672 -0.076,0.0207 -0.2627,0.0899 -0.417,0.15207 -0.1544,0.0622 -0.2927,0.11289 -0.3088,0.11289 -0.016,0 -0.159,0.0622 -0.3156,0.13824 -0.159,0.076 -0.2996,0.13824 -0.3111,0.13824 -0.034,0 -0.8709,0.43546 -0.9792,0.50919 -0.053,0.0369 -0.106,0.0668 -0.1175,0.0668 -0.012,0 -0.074,0.0346 -0.1336,0.076 -0.062,0.0438 -0.2005,0.13133 -0.3088,0.19584 -0.1082,0.0645 -0.2188,0.13824 -0.2488,0.16589 -0.03,0.0276 -0.092,0.0714 -0.1382,0.0991 -0.2489,0.14516 -0.9908,0.73729 -1.3179,1.05294 -0.06,0.0576 -0.189,0.18202 -0.2903,0.27648 -0.189,0.17741 -0.4585,0.4608 -0.6774,0.71194 -0.069,0.0806 -0.1682,0.19354 -0.2212,0.25344 -0.1175,0.13364 -0.4792,0.60135 -0.5115,0.66126 -0.014,0.0253 -0.067,0.0968 -0.1175,0.15897 -0.053,0.0622 -0.1106,0.14746 -0.129,0.18893 -0.021,0.0392 -0.06,0.10368 -0.09,0.13824 -0.028,0.0346 -0.1083,0.15668 -0.1751,0.27188 -0.067,0.11289 -0.1359,0.22349 -0.152,0.24192 -0.035,0.0438 -0.3134,0.54605 -0.394,0.71424 -0.035,0.0691 -0.1106,0.2258 -0.1705,0.3456 -0.06,0.11981 -0.1337,0.2857 -0.1659,0.36865 -0.032,0.0829 -0.085,0.21197 -0.1198,0.288 -0.074,0.16128 -0.288,0.76032 -0.3825,1.07137 -0.097,0.32486 -0.2926,1.0944 -0.3203,1.2672 -0.1336,0.84097 -0.1705,1.13128 -0.2073,1.57595 -0.016,0.20045 -0.023,10.3473299 -0.023,31.24245 0,33.37365 -0.01,31.19406 0.1129,32.01659 0.083,0.5737 0.097,0.65665 0.1406,0.88474 0.1106,0.57371 0.47,1.74875 0.682,2.23029 0.058,0.13133 0.1152,0.27188 0.1267,0.31335 0.014,0.0392 0.078,0.18432 0.1474,0.31795 0.069,0.13594 0.1268,0.25574 0.1268,0.26496 0,0.0115 0.048,0.10599 0.1083,0.20967 0.058,0.10598 0.1359,0.24883 0.1705,0.31796 0.037,0.0691 0.1129,0.19813 0.1705,0.288 0.055,0.0875 0.1129,0.18662 0.1267,0.21657 0.014,0.0299 0.078,0.13363 0.1451,0.23041 0.064,0.0968 0.1314,0.19122 0.1429,0.21196 0.014,0.0207 0.069,0.10368 0.1267,0.18202 0.058,0.0806 0.1359,0.19123 0.1751,0.24884 0.041,0.0576 0.099,0.13132 0.1313,0.16358 0.032,0.0346 0.083,0.0991 0.1129,0.14285 0.1129,0.16589 0.8156,0.95155 1.0806,1.2096 0.3226,0.31104 0.9861,0.89166 1.0691,0.93543 0.025,0.0138 0.078,0.053 0.1152,0.0876 0.076,0.0691 0.652,0.48384 0.6727,0.48384 0.01,0 0.076,0.0461 0.1544,0.0991 0.076,0.0553 0.1866,0.12671 0.2442,0.15897 0.058,0.0323 0.1982,0.1152 0.3134,0.18662 0.1152,0.0737 0.2235,0.13134 0.2396,0.13134 0.016,0 0.048,0.0138 0.067,0.0299 0.064,0.0576 1.0092,0.52301 1.0553,0.52301 0.014,0 0.1405,0.0507 0.2857,0.11289 0.1451,0.0622 0.3202,0.13134 0.3893,0.15207 0.069,0.023 0.295,0.0968 0.5,0.16589 0.2051,0.0691 0.4216,0.13363 0.4839,0.14515 0.06,0.0115 0.2718,0.0622 0.4677,0.1106 0.4746,0.1198 0.6244,0.14515 1.6358,0.27647 0.2627,0.0346 2.9906,0.0369 31.4383,0.0438 21.9757,0.007 31.2494,0.002 31.4844,-0.0161 0.7073,-0.0507 1.5114,-0.17511 2.0621,-0.31335 0.1774,-0.0461 0.3847,-0.0968 0.4608,-0.1129 0.076,-0.0161 0.2788,-0.0783 0.4493,-0.13824 0.1704,-0.0576 0.3663,-0.12211 0.4331,-0.14054 0.069,-0.0184 0.2327,-0.0806 0.3663,-0.13824 0.1337,-0.0576 0.3065,-0.12673 0.3825,-0.15668 0.2788,-0.10828 1.1451,-0.54374 1.4101,-0.71194 0.076,-0.0484 0.2119,-0.12902 0.2995,-0.18202 0.09,-0.0507 0.182,-0.11289 0.2074,-0.13363 0.025,-0.023 0.088,-0.0645 0.1382,-0.0922 0.051,-0.0276 0.1451,-0.0898 0.2074,-0.13594 0.5368,-0.39629 0.8409,-0.6313 0.8409,-0.64973 0,-0.009 0.028,-0.0322 0.06,-0.0507 0.1797,-0.0945 1.0138,-0.91239 1.4677,-1.44001 0.078,-0.0899 0.1866,-0.21428 0.2373,-0.27649 0.1175,-0.13363 0.4355,-0.55526 0.5253,-0.69581 0.037,-0.0576 0.097,-0.13824 0.1336,-0.18202 0.037,-0.0415 0.081,-0.10368 0.095,-0.13824 0.016,-0.0323 0.088,-0.14745 0.1613,-0.25344 0.071,-0.10829 0.1313,-0.20505 0.1313,-0.21428 0,-0.0115 0.046,-0.0898 0.099,-0.1751 0.1889,-0.288 0.6843,-1.29255 0.7764,-1.57134 0.028,-0.0829 0.058,-0.16128 0.067,-0.1728 0.062,-0.0829 0.4147,-1.1497 0.4838,-1.46305 0.023,-0.10829 0.078,-0.35712 0.1244,-0.55296 0.1198,-0.52531 0.1774,-0.94465 0.2465,-1.77409 0.014,-0.1682 0.023,-11.56616 0.023,-31.23093 0,-27.1989 0,-31.01435 -0.035,-31.35765 -0.018,-0.21657 -0.039,-0.41702 -0.046,-0.44928 -0.01,-0.0323 -0.021,-0.16819 -0.035,-0.30413 -0.023,-0.26266 -0.095,-0.64512 -0.2074,-1.12436 -0.039,-0.15898 -0.081,-0.34099 -0.094,-0.4032 -0.014,-0.0645 -0.083,-0.2857 -0.1498,-0.49306 -0.069,-0.20506 -0.1244,-0.38477 -0.1244,-0.39629 0,-0.0254 -0.1567,-0.42164 -0.2281,-0.57831 -0.025,-0.0599 -0.048,-0.12211 -0.048,-0.13824 0,-0.0276 -0.212,-0.49536 -0.3341,-0.73268 -0.2119,-0.41472 -0.3156,-0.60595 -0.394,-0.73498 -0.048,-0.0806 -0.1198,-0.20045 -0.1589,-0.26726 -0.106,-0.18202 -0.242,-0.39169 -0.3687,-0.56909 -0.062,-0.0899 -0.1336,-0.19585 -0.1567,-0.23501 -0.025,-0.0392 -0.071,-0.10369 -0.1059,-0.14055 -0.037,-0.0392 -0.1083,-0.12902 -0.1613,-0.20275 -0.4217,-0.58061 -1.2281,-1.42849 -1.8571,-1.9492 -0.1152,-0.0945 -0.2649,-0.22118 -0.334,-0.27879 -0.069,-0.0576 -0.1636,-0.12902 -0.2074,-0.15436 -0.044,-0.0276 -0.1037,-0.0714 -0.1336,-0.0991 -0.028,-0.0276 -0.1152,-0.0922 -0.1959,-0.14745 -0.078,-0.0553 -0.2119,-0.14746 -0.2949,-0.20506 -0.085,-0.0599 -0.1613,-0.10829 -0.1705,-0.10829 -0.01,0 -0.083,-0.0461 -0.1636,-0.10368 -0.081,-0.0576 -0.1866,-0.12442 -0.2327,-0.14515 -0.048,-0.023 -0.1336,-0.0714 -0.1912,-0.10599 -0.058,-0.0369 -0.2235,-0.12902 -0.3687,-0.20506 -0.1451,-0.076 -0.3225,-0.16589 -0.3916,-0.20275 -0.1797,-0.0945 -0.7189,-0.32947 -0.9101,-0.39859 -0.088,-0.03 -0.2696,-0.0991 -0.4032,-0.14746 -0.2627,-0.0991 -0.9355,-0.30413 -1.1751,-0.35943 -0.9861,-0.22349 -1.3916,-0.28569 -2.1657,-0.33638 -0.4378,-0.0276 -62.2614,-0.0254 -62.6808,0.002 z m 47.7738,23.4940399 c 0.9078,0.023 1.0276,0.0323 1.9699,0.15668 1.1082,0.14515 1.6059,0.23501 2.4192,0.43776 1.5345,0.38477 2.887,0.95847 4.062,1.72801 2.1543,1.41236 3.5827,3.50210002 4.1841,6.13099 0.083,0.35942 0.2074,1.07367 0.2719,1.5506 0.051,0.38477 0.053,0.46771 0.053,1.79713 0,1.2073 0,1.4354 -0.042,1.70497 -0.2281,1.71419 -0.5392,2.8431601 -1.1082,3.9974701 -0.3894,0.78797 -0.8894,1.52756 -1.4262,2.11739 l -0.182,0.19584 0.235,0.26035 c 1.2464,1.38241 2.0482,3.20719 2.3938,5.44439 0.1291,0.83636 0.1291,0.82945 0.1291,2.31553 0,1.48609 0,1.48149 -0.1291,2.31554 -0.2189,1.41236 -0.5967,2.59893 -1.175,3.6726 -0.4792,0.89626 -0.9838,1.56673 -1.7165,2.28328 -0.6774,0.66356 -1.2856,1.11514 -2.152,1.6059 -1.3248,0.7465 -2.9583,1.29947 -4.7462,1.6059 -0.5783,0.0991 -1.2949,0.19353 -2.0506,0.27187 -0.4677,0.0461 -0.5507,0.0484 -10.7828,0.0645 -5.6702,0.009 -15.771,0.0184 -22.4434,0.0207 -12.0638,0.002 -12.1329,0.002 -12.3127,-0.0438 -0.2073,-0.053 -0.3248,-0.1175 -0.4861,-0.26035 -0.1498,-0.13594 -0.2719,-0.31795 -0.3364,-0.49997 l -0.053,-0.14976 -0.01,-2.79938 c -0.01,-3.08969 -0.012,-2.9837 0.1359,-3.2671 0.1544,-0.29491 0.4908,-0.54605 0.8249,-0.61747 0.129,-0.0276 3.0781,-0.0323 20.0703,-0.0346 10.9555,0 20.7937,-0.009 21.8651,-0.0207 l 1.9469,-0.0184 0.334,-0.0691 c 1.5575,-0.33178 2.2718,-0.94234 2.675,-2.28558 0.1659,-0.55527 0.2166,-0.98843 0.2143,-1.80865 0,-0.55297 -0.012,-0.72347 -0.051,-0.98382 -0.1728,-1.13357 -0.5783,-1.93076 -1.2281,-2.41461 -0.387,-0.288 -0.8778,-0.48384 -1.592,-0.63591 l -0.3986,-0.0852 -21.8075,-0.0184 c -14.2296,-0.0138 -21.8697,-0.0276 -21.9873,-0.0415 -0.2511,-0.0322 -0.4423,-0.12902 -0.6382,-0.32256 -0.1912,-0.18893 -0.2649,-0.31335 -0.3225,-0.54836 -0.046,-0.17741 -0.046,-0.24422 -0.041,-2.99061 l 0.01,-2.8109 0.053,-0.14976 c 0.1359,-0.39168 0.5,-0.7096301 0.8917,-0.7810601 0.099,-0.0184 5.9075,-0.0299 20.4481,-0.0392 11.1699,-0.007 21.0264,-0.0207 21.8997,-0.0322 l 1.5897,-0.0184 0.341,-0.0714 c 1.7626,-0.37095 2.546,-1.2603 2.8063,-3.19336 0.021,-0.15207 0.03,-0.4562 0.03,-0.88705 0,-0.55296 -0.01,-0.70964 -0.051,-0.99534 -0.1106,-0.73728 -0.3203,-1.33402 -0.629,-1.78561 -0.4908,-0.71424 -1.3502,-1.15661 -2.5782,-1.3225 -0.1152,-0.0138 -7.4996,-0.0299 -21.9227,-0.0438 -15.1121,-0.0161 -21.7983,-0.0299 -21.9089,-0.0461 -0.4032,-0.0622 -0.7741,-0.38016 -0.917,-0.78335998 l -0.053,-0.14976 -0.01,-2.81090002 c 0,-2.74639 0,-2.81321 0.041,-2.99062 0.058,-0.235 0.1313,-0.35942 0.3225,-0.54835 0.1682,-0.16589 0.341,-0.26266 0.5484,-0.31104 0.1083,-0.0254 4.1288,-0.0276 21.8697,-0.0207 12.8357,0.005 22.1116,0.0184 22.6485,0.0299 z"
         id="path1-91"
         style="fill:#dedede;stroke:none;stroke-width:0.00230402" />
    </g>
  </g>
</svg>
