<?xml version="1.0" encoding="UTF-8" standalone="no"?>
<!-- Created with Inkscape (http://www.inkscape.org/) -->

<svg
   width="547.95508"
   height="271.91898"
   viewBox="0 0 144.97978 71.945229"
   version="1.1"
   id="svg1"
   inkscape:version="1.4.2 (ebf0e940d0, 2025-05-08)"
   sodipodi:docname="lobby_card_bg.svg"
   xmlns:inkscape="http://www.inkscape.org/namespaces/inkscape"
   xmlns:sodipodi="http://sodipodi.sourceforge.net/DTD/sodipodi-0.dtd"
   xmlns="http://www.w3.org/2000/svg"
   xmlns:svg="http://www.w3.org/2000/svg">
  <sodipodi:namedview
     id="namedview1"
     pagecolor="#808080"
     bordercolor="#d82222"
     borderopacity="1"
     inkscape:showpageshadow="0"
     inkscape:pageopacity="0"
     inkscape:pagecheckerboard="0"
     inkscape:deskcolor="#505050"
     inkscape:document-units="px"
     inkscape:zoom="1.3243695"
     inkscape:cx="312.60158"
     inkscape:cy="129.49558"
     inkscape:window-width="1900"
     inkscape:window-height="995"
     inkscape:window-x="10"
     inkscape:window-y="75"
     inkscape:window-maximized="1"
     inkscape:current-layer="layer1"
     showgrid="false" />
  <defs
     id="defs1" />
  <g
     inkscape:label="Layer 1"
     inkscape:groupmode="layer"
     id="layer1"
     transform="translate(-92.8687,-62.970832)">
    <path
       id="use43-6-5"
       style="fill:#ffffff;stroke:#ee111a;stroke-width:0;stroke-linecap:square;stroke-miterlimit:4.6;paint-order:markers fill stroke"
       d="m 92.8687,62.970832 v 14.933455 14.933456 14.932937 27.14538 H 237.84848 V 107.77068 92.837743 77.904287 67.886811 h -6.99139 l -5.52782,-4.915979 z"
       sodipodi:nodetypes="ccccccccccccc" />
    <rect
       style="fill:#f6f6f6;fill-opacity:1;stroke:#ee111a;stroke-width:0;stroke-linecap:square;stroke-miterlimit:4.6;paint-order:markers fill stroke"
       id="rect418-2"
       width="135.60701"
       height="46.752178"
       x="95.514534"
       y="85.032463" />
    <g
       inkscape:label="Layer 1"
       id="layer1-8"
       transform="matrix(0.43682877,0,0,0.43682877,92.868699,63.240005)"
       style="opacity:0.05"
       clip-path="none">
      <path
         style="opacity:1;fill:#565656;fill-opacity:1;stroke:#008080;stroke-width:0;stroke-linecap:round;stroke-dasharray:none;stroke-opacity:0.991667;paint-order:stroke fill markers"
         d="m 164.85305,29.866657 7.46665,7.358448 c -0.35415,1.370694 -1.21412,2.741386 1.19034,4.112077 6.63129,-4.556426 11.69682,-12.244368 17.53044,-18.396125 9.49876,-6.409185 7.80366,-7.610705 11.14588,-10.71304 V 9.6309142 L 199.80569,7.2502413 C 191.82713,13.997407 184.70251,21.064803 179.02888,28.676317 l -5.08599,-5.085989 c 6.44576,-5.787391 13.16016,-12.067274 21.31787,-20.993227 L 192.55545,1.9445718e-6 189.52549,0.10822656 c -4.60201,2.99741894 -8.25512,7.12835154 -12.55265,13.09371244 -6.06037,4.598798 -11.433,9.541465 -16.34009,14.716901 0.60747,1.202631 0.092,3.182674 4.2203,1.947817 z"
         id="path9045"
         sodipodi:nodetypes="ccccccccccccccc" />
      <path
         style="opacity:1;fill:#565656;fill-opacity:1;stroke:#008080;stroke-width:0;stroke-linecap:round;stroke-dasharray:none;stroke-opacity:0.991667;paint-order:stroke fill markers"
         d="m 170.51095,59.857237 c 0.40601,1.348786 0.1096,2.697576 3.80358,4.046362 v 4.046362 c 2.28037,1.336825 4.32829,-0.348174 6.40069,-1.715063 v -7.348784 l 14.88316,-20.474581 -20.96014,14.728748 h -6.55511 c -0.91377,2.160727 -4.71806,3.598826 -1.79995,6.717527 z"
         id="path9101"
         sodipodi:nodetypes="cccccccccc" />
      <path
         id="rect9155"
         style="opacity:1;fill:#7fb4c0;fill-opacity:1;stroke:#008080;stroke-width:0;stroke-linecap:round;stroke-dasharray:none;stroke-opacity:0.991667;paint-order:stroke fill markers"
         d="m 151.75702,37.685008 c 0,0 -66.886068,67.190122 -66.947882,66.887272 -2.923326,1.89277 -6.32984,2.90378 -9.812414,2.91222 -10.015667,-7e-5 -18.134966,-8.119368 -18.135043,-18.135039 7.3e-5,-10.015664 8.119372,-18.134966 18.135039,-18.135039 4.922157,3.8e-5 9.383821,1.963604 12.651345,5.146914 L 98.334146,65.675251 C 92.274569,59.705374 83.984131,56.100425 74.996724,56.100567 56.635184,56.101069 41.750307,70.985943 41.749808,89.347483 41.749214,107.7098 56.63441,122.59588 74.996724,122.59638 c 6.709071,-7.2e-4 14.125714,-1.8582 18.794749,-5.82445 4.998723,-4.24632 69.086117,-67.963348 69.086117,-67.963348 V 37.684997 Z"
         sodipodi:nodetypes="ccccccccccsccc" />
      <path
         id="path9343"
         style="opacity:1;fill:#7fb4c0;fill-opacity:1;stroke:#008080;stroke-width:0;stroke-linecap:round;stroke-dasharray:none;stroke-opacity:0.991667;paint-order:stroke fill markers"
         d="m 75.527673,35.035484 c -29.875741,8.28e-4 -54.094354,24.220334 -54.094086,54.096075 -2.68e-4,29.875741 24.218345,54.095241 54.094086,54.096071 15.621092,-9.8e-4 29.247497,-7.5758 40.751347,-18.52334 l 45.88513,-46.598357 v -10.12891 h -10.1324 c -15.23861,15.23917 -45.65628,46.265047 -45.65628,46.265047 l -0.12678,-0.12678 c -7.824847,7.64904 -18.322825,14.61689 -30.719024,14.6166 C 53.659594,128.73132 35.930811,111.00164 35.931329,89.13157 35.930811,67.261494 53.659594,49.531824 75.529666,49.531249 86.24836,49.530996 95.964955,53.797215 103.09477,60.714588 l 10.2542,-10.254202 C 103.59514,40.919691 90.249673,35.035365 75.527684,35.035495 Z"
         sodipodi:nodetypes="cccccccccccscccc" />
      <path
         id="path9423"
         style="opacity:1;fill:#7fb4c0;fill-opacity:1;stroke:#008080;stroke-width:0;stroke-linecap:round;stroke-dasharray:none;stroke-opacity:0.991667;paint-order:stroke fill markers"
         d="M 75.133433,13.81586 C 33.638462,13.815944 8.6257653e-5,47.454322 1.9168367e-6,88.949294 8.6257653e-5,130.44427 33.638462,164.08264 75.133433,164.08273 c 20.057036,-0.0196 39.273677,-8.05796 53.370987,-22.32508 l 34.40767,-33.30081 V 97.482645 h -10.97197 c -0.0873,0.110257 -23.46663,23.237305 -33.96332,33.747375 -11.3099,11.46225 -26.740689,17.91541 -42.84339,17.91712 -33.246444,2.7e-4 -60.198145,-26.95143 -60.197872,-60.197876 8.24e-4,-33.245674 26.952198,-60.196167 60.197872,-60.195898 16.647528,-1.35e-4 31.71613,6.757566 42.61358,17.679389 L 128.30827,35.871481 C 114.70802,22.246522 95.90561,13.815906 75.133433,13.81586 Z"
         sodipodi:nodetypes="cccccccccccccc" />
      <path
         style="opacity:1;fill:#565656;fill-opacity:1;stroke:#008080;stroke-width:0;stroke-linecap:round;stroke-dasharray:none;stroke-opacity:0.991667;paint-order:stroke fill markers"
         d="m 166.51212,94.928265 c 1.13537,1.135373 5.96448,-3.845516 5.96448,-3.845516 5.49539,7.569945 11.33102,-3.103731 6.74927,-5.729045 0,0 9.3874,-11.410799 9.49608,-11.458068 4.57606,1.772073 9.45743,-8.005359 9.45743,-8.005359 0.49811,-1.766169 -0.8536,-3.212334 -2.86495,-2.590148 0,0 -8.54595,3.27669 -8.16207,9.575266 l -11.40662,8.762379 c -2.83574,-2.941359 -12.47667,-0.650257 -5.70202,7.326019 0,0 -4.66697,4.829099 -3.5316,5.964472 z"
         id="path9498"
         sodipodi:nodetypes="zcccsscccz" />
    </g>
    <g
       id="text362-6"
       style="font-size:4.6536px;line-height:125%;font-family:'Helvetica Now Micro';-inkscape-font-specification:'Helvetica Now Micro';letter-spacing:0px;fill:#646464;stroke:#ee111a;stroke-width:0;stroke-linecap:square;stroke-miterlimit:4.6;paint-order:markers fill stroke"
       aria-label="WipEout HD lobby&#10;ThatOneBonk (4/8) // Phantom Single Race">
      <path
         style="fill:#8ac0ca"
         d="m 101.33927,71.590801 -0.13961,0.721308 -0.121,-0.721308 -0.53516,-2.336107 h -1.005178 l -0.535164,2.336107 -0.120994,0.721308 -0.139608,-0.721308 -0.604968,-2.336107 h -0.753883 l 1.014485,3.573965 h 0.944681 l 0.674769,-2.899193 0.72131,2.899193 h 0.94003 l 1.01914,-3.573965 h -0.75389 z m 2.59205,-1.814904 v -0.670118 h -0.74457 v 0.670118 z m 0,3.052762 v -2.550173 h -0.74457 v 2.550173 z m 2.25234,-2.619977 c -0.35367,0 -0.62358,0.134955 -0.80042,0.395556 l -0.0372,-0.325752 h -0.66546 v 3.499508 h 0.74457 v -1.237858 c 0.1815,0.241987 0.43279,0.362981 0.75854,0.362981 0.33971,0 0.61428,-0.125648 0.82369,-0.376942 0.20941,-0.246641 0.31644,-0.567739 0.31644,-0.967949 0,-0.404863 -0.10703,-0.730615 -0.31179,-0.977256 -0.21406,-0.246641 -0.48863,-0.372288 -0.82834,-0.372288 z m -0.17684,2.09412 c -0.14891,0 -0.2699,-0.04188 -0.37228,-0.134954 -0.10238,-0.08842 -0.17219,-0.218719 -0.20942,-0.386249 v -0.474667 c 0.0372,-0.158223 0.10704,-0.28387 0.20942,-0.372288 0.10238,-0.08842 0.22337,-0.134955 0.37228,-0.134955 0.17684,0 0.3118,0.0698 0.41418,0.204759 0.10237,0.134954 0.15356,0.316445 0.15356,0.544471 0,0.23268 -0.0512,0.418824 -0.15356,0.553778 -0.10238,0.134955 -0.23734,0.200105 -0.41418,0.200105 z m 2.75959,-1.000524 h 1.71252 v -0.614275 h -1.71252 v -0.800419 h 1.8754 v -0.63289 h -2.62929 v 3.573965 h 2.63859 v -0.63289 h -1.8847 z m 3.76011,1.600839 c 0.40486,0 0.73061,-0.125648 0.97725,-0.376942 0.24199,-0.241987 0.36764,-0.567739 0.36764,-0.977256 0,-0.40021 -0.12099,-0.725962 -0.35833,-0.977256 -0.24199,-0.241987 -0.57239,-0.367634 -0.98191,-0.367634 -0.40951,0 -0.73992,0.125647 -0.98191,0.367634 -0.25129,0.251294 -0.37229,0.577046 -0.37229,0.977256 0,0.409517 0.121,0.739922 0.36764,0.98191 0.24199,0.251294 0.56774,0.372288 0.98191,0.372288 z m 0,-0.572393 c -0.39556,0 -0.59101,-0.260602 -0.59101,-0.781805 0,-0.511896 0.19545,-0.772498 0.59566,-0.772498 0.3909,0 0.58636,0.260602 0.58636,0.772498 0,0.251294 -0.0512,0.446746 -0.15357,0.5817 -0.10238,0.134954 -0.24664,0.200105 -0.43744,0.200105 z m 3.65308,-0.577047 c -0.0279,0.162876 -0.0884,0.288524 -0.17684,0.381596 -0.0931,0.09307 -0.20476,0.139608 -0.33506,0.139608 -0.12565,0 -0.22337,-0.03723 -0.29783,-0.120994 -0.0745,-0.07911 -0.10703,-0.190798 -0.10703,-0.339713 v -1.535688 h -0.74458 v 1.740447 c 0,0.269908 0.0791,0.483974 0.24199,0.642196 0.15822,0.158223 0.37694,0.237334 0.6515,0.237334 0.32575,0 0.59101,-0.134954 0.79577,-0.409517 l 0.0279,0.339713 h 0.68873 v -2.550173 h -0.74457 z m 2.50363,-1.437962 0.0279,-0.214066 v -0.577046 h -0.73527 v 0.577046 l 0.0279,0.209412 -0.59566,-0.03257 v 0.488628 l 0.60497,-0.02792 -0.0372,0.353673 v 1.000524 c 0,0.260602 0.0652,0.446746 0.20476,0.563086 0.13961,0.11634 0.35367,0.172183 0.64685,0.172183 h 0.65616 v -0.595661 h -0.48863 c -0.1908,0 -0.28387,-0.09772 -0.28387,-0.29783 v -0.842302 l -0.0372,-0.358327 0.81438,0.03258 v -0.488628 z m 5.06312,0.353674 h -1.50312 v -1.414695 h -0.75853 v 3.573965 h 0.75853 v -1.51242 h 1.50312 v 1.51242 h 0.75853 v -3.573965 h -0.75853 z m 1.60549,-1.414695 v 3.573965 h 1.3635 c 0.57705,0 1.01914,-0.153569 1.32162,-0.46536 0.29784,-0.307138 0.4514,-0.74923 0.4514,-1.321622 0,-0.577047 -0.15356,-1.019139 -0.45605,-1.326276 -0.30248,-0.307138 -0.74923,-0.460707 -1.34024,-0.460707 z m 0.75853,2.955036 v -2.336107 h 0.59101 c 0.32575,0 0.57705,0.09307 0.74923,0.279216 0.17218,0.186144 0.2606,0.483974 0.2606,0.888838 0,0.781804 -0.3304,1.168053 -0.99121,1.168053 z"
         id="path8" />
      <path
         d="m 131.20141,72.828659 v -3.573965 h -0.74457 v 3.573965 z m 1.98709,0.07446 c 0.40486,0 0.73061,-0.125648 0.97726,-0.376942 0.24198,-0.241987 0.36763,-0.567739 0.36763,-0.977256 0,-0.40021 -0.12099,-0.725962 -0.35833,-0.977256 -0.24198,-0.241987 -0.57239,-0.367634 -0.98191,-0.367634 -0.40951,0 -0.73992,0.125647 -0.98191,0.367634 -0.25129,0.251294 -0.37228,0.577046 -0.37228,0.977256 0,0.409517 0.12099,0.739922 0.36763,0.98191 0.24199,0.251294 0.56774,0.372288 0.98191,0.372288 z m 0,-0.572393 c -0.39556,0 -0.59101,-0.260602 -0.59101,-0.781805 0,-0.511896 0.19545,-0.772498 0.59566,-0.772498 0.39091,0 0.58636,0.260602 0.58636,0.772498 0,0.251294 -0.0512,0.446746 -0.15357,0.5817 -0.10238,0.134954 -0.24664,0.200105 -0.43744,0.200105 z m 3.49485,-2.126695 c -0.32109,0 -0.57239,0.125647 -0.75853,0.367634 v -1.316969 h -0.74458 v 3.573965 h 0.65616 l 0.0419,-0.330406 c 0.18149,0.269909 0.4514,0.40021 0.80507,0.40021 0.33972,0 0.61428,-0.125647 0.82369,-0.376942 0.20941,-0.251294 0.31645,-0.577046 0.31645,-0.972602 0,-0.40021 -0.10704,-0.725962 -0.3118,-0.972602 -0.21406,-0.246641 -0.48862,-0.372288 -0.82834,-0.372288 z m -0.17683,2.089466 c -0.17684,0 -0.3211,-0.06515 -0.43279,-0.195451 -0.11168,-0.130301 -0.17218,-0.316445 -0.17683,-0.553779 0,-0.23268 0.0605,-0.418824 0.17218,-0.553778 0.11168,-0.130301 0.25595,-0.200105 0.43744,-0.200105 0.17683,0 0.31179,0.0698 0.41417,0.204759 0.10238,0.134954 0.15357,0.316444 0.15357,0.549124 0,0.228027 -0.0512,0.409517 -0.15357,0.544472 -0.10238,0.139608 -0.23734,0.204758 -0.41417,0.204758 z m 3.46227,-2.089466 c -0.3211,0 -0.57239,0.125647 -0.75853,0.367634 v -1.316969 h -0.74458 v 3.573965 h 0.65616 l 0.0419,-0.330406 c 0.18149,0.269909 0.4514,0.40021 0.80507,0.40021 0.33971,0 0.61428,-0.125647 0.82369,-0.376942 0.20941,-0.251294 0.31644,-0.577046 0.31644,-0.972602 0,-0.40021 -0.10703,-0.725962 -0.31179,-0.972602 -0.21406,-0.246641 -0.48863,-0.372288 -0.82834,-0.372288 z m -0.17683,2.089466 c -0.17684,0 -0.3211,-0.06515 -0.43279,-0.195451 -0.11169,-0.130301 -0.17218,-0.316445 -0.17684,-0.553779 0,-0.23268 0.0605,-0.418824 0.17219,-0.553778 0.11168,-0.130301 0.25594,-0.200105 0.43744,-0.200105 0.17683,0 0.31179,0.0698 0.41417,0.204759 0.10237,0.134954 0.15356,0.316444 0.15356,0.549124 0,0.228027 -0.0512,0.409517 -0.15356,0.544472 -0.10238,0.139608 -0.23734,0.204758 -0.41417,0.204758 z m 3.01087,-0.237334 v -0.01396 l -0.58635,-1.763715 h -0.79111 l 1.00517,2.615323 -0.009,0.02792 c -0.0512,0.130301 -0.10238,0.218719 -0.15357,0.260602 -0.0512,0.04188 -0.1303,0.0605 -0.24199,0.0605 h -0.3909 v 0.563086 h 0.37694 c 0.27921,0 0.49793,-0.05584 0.66081,-0.172183 0.15822,-0.11634 0.29318,-0.321099 0.40486,-0.618929 l 1.02845,-2.736317 h -0.76319 z"
         id="path9" />
      <path
         d="m 97.453509,75.071694 v 0.63289 h 1.084289 v 2.941075 h 0.76319 v -2.941075 h 1.084292 v -0.63289 z m 4.997971,0.953988 c -0.31645,0 -0.56774,0.125648 -0.76319,0.372288 v -1.326276 h -0.74458 v 3.573965 h 0.74458 V 77.1472 c 0.0279,-0.153569 0.0884,-0.274562 0.17683,-0.362981 0.0884,-0.08842 0.20011,-0.134954 0.33041,-0.134954 0.12565,0 0.22337,0.04188 0.29783,0.120993 0.0745,0.08376 0.11169,0.195452 0.11169,0.339713 v 1.535688 h 0.74457 v -1.740446 c 0,-0.269909 -0.0838,-0.483975 -0.24199,-0.642197 -0.16287,-0.158222 -0.38159,-0.237334 -0.65615,-0.237334 z m 2.83869,-0.0047 c -0.73062,0 -1.13548,0.279216 -1.21924,0.828341 l 0.63289,0.0698 c 0.0233,-0.148916 0.0745,-0.251295 0.15822,-0.311792 0.0838,-0.05584 0.21406,-0.08842 0.3909,-0.08842 0.17684,0 0.30249,0.02792 0.37229,0.08376 0.0698,0.05584 0.10703,0.148915 0.10703,0.274562 v 0.102379 c -0.0512,0.02792 -0.11634,0.05119 -0.1908,0.0605 l -0.54912,0.09773 c -0.36298,0.06515 -0.62824,0.158222 -0.78646,0.279216 -0.15822,0.120993 -0.23733,0.302484 -0.23733,0.535164 0,0.237334 0.0838,0.423478 0.25129,0.563086 0.16753,0.139608 0.3909,0.209412 0.67012,0.209412 0.3909,0 0.68408,-0.130301 0.87488,-0.395556 0,0.02792 0.009,0.07911 0.0279,0.158222 0.0186,0.08376 0.0279,0.134954 0.0326,0.158222 h 0.61893 V 78.087227 76.84937 c 0,-0.274563 -0.0931,-0.479321 -0.27921,-0.618929 -0.18615,-0.139608 -0.47932,-0.209412 -0.87488,-0.209412 z m -0.14892,2.233728 c -0.1396,0 -0.25129,-0.02792 -0.32575,-0.08842 -0.0744,-0.0605 -0.11168,-0.148916 -0.11168,-0.265256 0,-0.190797 0.14426,-0.316445 0.43278,-0.381595 l 0.41883,-0.08376 0.16752,-0.04188 v 0.521203 c -0.11168,0.228027 -0.30713,0.339713 -0.5817,0.339713 z m 3.06673,-2.122042 0.0279,-0.214065 v -0.577047 h -0.73527 v 0.577047 l 0.0279,0.209412 -0.59566,-0.03258 v 0.488628 l 0.60497,-0.02792 -0.0372,0.353673 v 1.000524 c 0,0.260602 0.0652,0.446746 0.20476,0.563086 0.13961,0.11634 0.35367,0.172183 0.64685,0.172183 h 0.65616 v -0.595661 h -0.48863 c -0.1908,0 -0.28387,-0.09772 -0.28387,-0.29783 v -0.842302 l -0.0372,-0.358327 0.81438,0.03257 v -0.488628 z m 4.48607,2.08016 c 0.32575,-0.33506 0.48863,-0.786459 0.48863,-1.354198 0,-0.563086 -0.16288,-1.014485 -0.48863,-1.354198 -0.33506,-0.339713 -0.76784,-0.511896 -1.30301,-0.511896 -0.54447,0 -0.97725,0.172183 -1.30301,0.511896 -0.3304,0.339713 -0.49328,0.791112 -0.49328,1.354198 0,0.563085 0.16288,1.014485 0.49328,1.349544 0.32576,0.344366 0.75854,0.511896 1.30301,0.511896 0.53982,0 0.97726,-0.16753 1.30301,-0.507242 z m -2.04758,-0.437439 c -0.18615,-0.214066 -0.27457,-0.521203 -0.27457,-0.916759 0,-0.390903 0.0884,-0.69804 0.27457,-0.916759 0.17683,-0.214066 0.42813,-0.321099 0.74457,-0.321099 0.31645,0 0.56309,0.107033 0.74458,0.321099 0.17683,0.214065 0.26991,0.516549 0.26991,0.916759 0,0.400209 -0.0931,0.707347 -0.26991,0.916759 -0.18149,0.214066 -0.42813,0.321099 -0.74458,0.321099 -0.31644,0 -0.56774,-0.107033 -0.74457,-0.321099 z m 4.73736,-1.749754 c -0.32576,0 -0.59101,0.139608 -0.79577,0.409517 l -0.0279,-0.339713 h -0.68408 v 2.550173 h 0.74458 V 77.1472 c 0.0279,-0.153569 0.0884,-0.274562 0.17683,-0.362981 0.0884,-0.08842 0.20011,-0.134954 0.33041,-0.134954 0.12565,0 0.22337,0.04188 0.29783,0.120993 0.0745,0.08376 0.11169,0.195452 0.11169,0.339713 v 1.535688 h 0.74457 v -1.740446 c 0,-0.269909 -0.0838,-0.483975 -0.24199,-0.642197 -0.16287,-0.158222 -0.38159,-0.237334 -0.65615,-0.237334 z m 4.21616,1.368159 c 0,-0.40021 -0.11634,-0.730615 -0.34437,-0.991217 -0.23268,-0.251294 -0.56774,-0.381595 -0.99587,-0.381595 -0.41882,0 -0.74923,0.125647 -0.98656,0.372288 -0.23734,0.251294 -0.35368,0.577046 -0.35368,0.986563 0,0.409517 0.121,0.730615 0.36298,0.972603 0.24199,0.24664 0.57705,0.367634 1.00518,0.367634 0.29318,0 0.54447,-0.0605 0.75854,-0.186144 0.21406,-0.120994 0.37229,-0.29783 0.47467,-0.525857 l -0.65616,-0.130301 c -0.12099,0.204759 -0.30714,0.302484 -0.56309,0.302484 -0.40951,0 -0.63289,-0.214065 -0.66081,-0.64685 h 1.95917 z m -1.34024,-0.879531 c 0.36298,0 0.56774,0.204759 0.61428,0.609622 h -1.22855 c 0.0186,-0.195451 0.0838,-0.34902 0.19079,-0.451399 0.10704,-0.102379 0.24664,-0.158223 0.42348,-0.158223 z m 4.32785,0.204759 c 0.16753,-0.05584 0.29783,-0.153569 0.39556,-0.288523 0.0931,-0.130301 0.14426,-0.288524 0.14426,-0.46536 0,-0.274563 -0.0977,-0.493282 -0.28852,-0.651504 -0.19545,-0.158223 -0.47467,-0.241988 -0.84696,-0.241988 h -1.70322 v 3.573965 h 1.69391 c 0.43279,0 0.75389,-0.09772 0.96795,-0.302484 0.20941,-0.200104 0.31645,-0.456053 0.31645,-0.76319 0,-0.204759 -0.0605,-0.381595 -0.18149,-0.539818 -0.121,-0.158222 -0.28387,-0.265255 -0.49794,-0.321098 z m -0.69804,-1.084289 c 0.15357,0 0.27456,0.04188 0.35833,0.120994 0.0838,0.07911 0.1303,0.186144 0.1303,0.321098 0,0.148915 -0.0465,0.265255 -0.1303,0.344366 -0.0838,0.07911 -0.20476,0.11634 -0.36298,0.11634 h -0.83765 V 75.63478 Z m -0.8423,2.447794 v -0.991217 h 0.9028 c 0.16753,0 0.30248,0.04654 0.39555,0.130301 0.0931,0.08376 0.14427,0.204758 0.14427,0.36298 0,0.158223 -0.0465,0.28387 -0.13496,0.367635 -0.0931,0.08842 -0.21872,0.130301 -0.37694,0.130301 z m 4.12775,0.637543 c 0.40486,0 0.73061,-0.125647 0.97725,-0.376942 0.24199,-0.241987 0.36764,-0.567739 0.36764,-0.977256 0,-0.400209 -0.121,-0.725961 -0.35833,-0.977256 -0.24199,-0.241987 -0.57239,-0.367634 -0.98191,-0.367634 -0.40952,0 -0.73992,0.125647 -0.98191,0.367634 -0.25129,0.251295 -0.37229,0.577047 -0.37229,0.977256 0,0.409517 0.121,0.739923 0.36764,0.98191 0.24198,0.251294 0.56774,0.372288 0.98191,0.372288 z m 0,-0.572393 c -0.39556,0 -0.59101,-0.260602 -0.59101,-0.781805 0,-0.511896 0.19545,-0.772497 0.59566,-0.772497 0.3909,0 0.58635,0.260601 0.58635,0.772497 0,0.251295 -0.0512,0.446746 -0.15356,0.5817 -0.10238,0.134955 -0.24665,0.200105 -0.43744,0.200105 z m 3.4995,-2.122042 c -0.32575,0 -0.591,0.139608 -0.79576,0.409517 l -0.0279,-0.339713 h -0.68408 v 2.550173 h 0.74457 V 77.1472 c 0.0279,-0.153569 0.0884,-0.274562 0.17684,-0.362981 0.0884,-0.08842 0.20011,-0.134954 0.33041,-0.134954 0.12564,0 0.22337,0.04188 0.29783,0.120993 0.0745,0.08376 0.11168,0.195452 0.11168,0.339713 v 1.535688 h 0.74458 v -1.740446 c 0,-0.269909 -0.0838,-0.483975 -0.24199,-0.642197 -0.16287,-0.158222 -0.38159,-0.237334 -0.65616,-0.237334 z m 4.25805,2.619977 -1.05637,-1.544995 1.01449,-1.005178 h -0.84231 l -0.98191,1.121518 v -2.14531 h -0.74457 v 3.573965 h 0.74457 v -0.823687 l 0.37229,-0.367634 0.67943,1.191321 z m 3.14117,0.949335 c -0.41417,-0.716655 -0.61893,-1.493806 -0.61893,-2.331454 0,-0.846955 0.20476,-1.633414 0.61893,-2.354722 h -0.66546 c -0.46536,0.688733 -0.69804,1.465884 -0.69804,2.340761 0,0.86557 0.23268,1.647375 0.69804,2.345415 z m 2.93177,-4.527953 h -1.05171 l -1.3542,2.131349 v 0.632889 l 1.71253,-0.0605 v 0.874877 h 0.69338 v -0.874877 l 0.5119,0.0605 v -0.600314 l -0.5119,0.0605 z m -1.75441,2.177885 1.04706,-1.661336 h 0.014 v 1.707872 z m 3.40178,1.400733 1.49381,-3.573965 h -0.60032 l -1.4938,3.573965 z m 3.48555,0.07446 c 0.44209,0 0.80042,-0.09773 1.07498,-0.29783 0.26991,-0.195452 0.40952,-0.470014 0.40952,-0.828341 0,-0.21872 -0.0652,-0.40021 -0.18615,-0.549125 -0.12099,-0.144262 -0.29783,-0.246641 -0.5212,-0.302484 v -0.0093 c 0.38159,-0.130301 0.57239,-0.386249 0.57239,-0.767844 0,-0.307138 -0.12099,-0.544472 -0.35833,-0.716655 -0.24198,-0.167529 -0.57239,-0.255948 -0.99121,-0.255948 -0.41883,0 -0.74923,0.08842 -0.98191,0.255948 -0.23268,0.172183 -0.34902,0.409517 -0.34902,0.716655 0,0.186144 0.0465,0.34902 0.14891,0.47932 0.0977,0.134955 0.23734,0.23268 0.41883,0.288524 v 0.0093 c -0.22338,0.04654 -0.39556,0.148915 -0.52121,0.29783 -0.12564,0.148915 -0.18614,0.335059 -0.18614,0.553779 0,0.358327 0.13495,0.632889 0.40952,0.828341 0.26525,0.200104 0.61892,0.29783 1.06102,0.29783 z m -0.4514,-2.345415 c -0.11169,-0.08376 -0.16753,-0.200104 -0.16753,-0.353673 0,-0.148915 0.0512,-0.265255 0.16287,-0.34902 0.10238,-0.07446 0.26061,-0.11634 0.46536,-0.11634 0.20476,0 0.35833,0.04188 0.46536,0.11634 0.10704,0.08376 0.16288,0.200105 0.16288,0.34902 0,0.153569 -0.0558,0.269909 -0.16288,0.353673 -0.11168,0.08842 -0.26525,0.130301 -0.46536,0.130301 -0.20475,0 -0.35832,-0.04188 -0.4607,-0.130301 z m -0.0605,1.600839 c -0.12565,-0.09307 -0.18614,-0.23268 -0.18614,-0.414171 0,-0.167529 0.0605,-0.302484 0.18149,-0.400209 0.12099,-0.09307 0.29783,-0.144262 0.5212,-0.144262 0.22337,0 0.39556,0.05119 0.5212,0.148915 0.121,0.09773 0.18615,0.228027 0.18615,0.395556 0,0.181491 -0.0652,0.321099 -0.18615,0.414171 -0.1303,0.102379 -0.30248,0.148915 -0.5212,0.148915 -0.22337,0 -0.39556,-0.04654 -0.51655,-0.148915 z m 3.16444,1.619453 c 0.46536,-0.69804 0.7027,-1.479845 0.7027,-2.345415 0,-0.865569 -0.23734,-1.647374 -0.7027,-2.340761 h -0.66546 c 0.41417,0.735269 0.62358,1.517074 0.62358,2.354722 0,0.823687 -0.20941,1.600839 -0.62358,2.331454 z m 3.14584,-0.949335 1.49381,-3.573965 h -0.60032 l -1.4938,3.573965 z m 1.69391,0 1.49381,-3.573965 h -0.60032 l -1.4938,3.573965 z m 3.44832,-3.573965 v 3.573965 h 0.75854 v -1.219243 h 0.73061 c 0.40486,0 0.72596,-0.107033 0.95864,-0.321098 0.22803,-0.209412 0.34437,-0.493282 0.34437,-0.846956 0,-0.36298 -0.11634,-0.651504 -0.33971,-0.865569 -0.22803,-0.214066 -0.54913,-0.321099 -0.95864,-0.321099 z m 0.75854,1.7451 v -1.121517 h 0.68408 c 0.18149,0 0.32109,0.05119 0.41882,0.144261 0.0977,0.09773 0.14891,0.237334 0.14891,0.418824 0,0.176837 -0.0512,0.316445 -0.14891,0.414171 -0.0977,0.09772 -0.23733,0.144261 -0.41417,0.144261 z m 4.15566,-0.791112 c -0.31644,0 -0.56774,0.125648 -0.76319,0.372288 v -1.326276 h -0.74457 v 3.573965 h 0.74457 V 77.1472 c 0.0279,-0.153569 0.0884,-0.274562 0.17684,-0.362981 0.0884,-0.08842 0.2001,-0.134954 0.3304,-0.134954 0.12565,0 0.22338,0.04188 0.29783,0.120993 0.0745,0.08376 0.11169,0.195452 0.11169,0.339713 v 1.535688 h 0.74458 v -1.740446 c 0,-0.269909 -0.0838,-0.483975 -0.24199,-0.642197 -0.16288,-0.158222 -0.3816,-0.237334 -0.65616,-0.237334 z m 2.8387,-0.0047 c -0.73062,0 -1.13548,0.279216 -1.21925,0.828341 l 0.63289,0.0698 c 0.0233,-0.148916 0.0745,-0.251295 0.15823,-0.311792 0.0838,-0.05584 0.21406,-0.08842 0.3909,-0.08842 0.17684,0 0.30248,0.02792 0.37229,0.08376 0.0698,0.05584 0.10703,0.148915 0.10703,0.274562 v 0.102379 c -0.0512,0.02792 -0.11634,0.05119 -0.1908,0.0605 l -0.54912,0.09773 c -0.36298,0.06515 -0.62824,0.158222 -0.78646,0.279216 -0.15822,0.120993 -0.23733,0.302484 -0.23733,0.535164 0,0.237334 0.0838,0.423478 0.25129,0.563086 0.16753,0.139608 0.3909,0.209412 0.67012,0.209412 0.3909,0 0.68408,-0.130301 0.87487,-0.395556 0,0.02792 0.009,0.07911 0.0279,0.158222 0.0186,0.08376 0.0279,0.134954 0.0326,0.158222 h 0.61893 V 78.087227 76.84937 c 0,-0.274563 -0.0931,-0.479321 -0.27922,-0.618929 -0.18614,-0.139608 -0.47932,-0.209412 -0.87487,-0.209412 z m -0.14892,2.233728 c -0.13961,0 -0.25129,-0.02792 -0.32575,-0.08842 -0.0745,-0.0605 -0.11169,-0.148916 -0.11169,-0.265256 0,-0.190797 0.14427,-0.316445 0.43279,-0.381595 l 0.41882,-0.08376 0.16753,-0.04188 v 0.521203 c -0.11168,0.228027 -0.30714,0.339713 -0.5817,0.339713 z m 3.56466,-2.229075 c -0.32575,0 -0.59101,0.139608 -0.79577,0.409517 l -0.0279,-0.339713 h -0.68408 v 2.550173 h 0.74458 V 77.1472 c 0.0279,-0.153569 0.0884,-0.274562 0.17684,-0.362981 0.0884,-0.08842 0.2001,-0.134954 0.3304,-0.134954 0.12565,0 0.22337,0.04188 0.29783,0.120993 0.0745,0.08376 0.11169,0.195452 0.11169,0.339713 v 1.535688 h 0.74457 v -1.740446 c 0,-0.269909 -0.0838,-0.483975 -0.24198,-0.642197 -0.16288,-0.158222 -0.3816,-0.237334 -0.65616,-0.237334 z m 2.65721,0.107033 0.0279,-0.214065 v -0.577047 h -0.73527 v 0.577047 l 0.0279,0.209412 -0.59566,-0.03258 v 0.488628 l 0.60497,-0.02792 -0.0372,0.353673 v 1.000524 c 0,0.260602 0.0651,0.446746 0.20476,0.563086 0.13961,0.11634 0.35367,0.172183 0.64685,0.172183 h 0.65616 v -0.595661 h -0.48863 c -0.1908,0 -0.28387,-0.09772 -0.28387,-0.29783 v -0.842302 l -0.0372,-0.358327 0.81438,0.03257 v -0.488628 z m 2.60136,2.587402 c 0.40486,0 0.73062,-0.125647 0.97726,-0.376942 0.24198,-0.241987 0.36763,-0.567739 0.36763,-0.977256 0,-0.400209 -0.12099,-0.725961 -0.35833,-0.977256 -0.24198,-0.241987 -0.57239,-0.367634 -0.98191,-0.367634 -0.40951,0 -0.73992,0.125647 -0.98191,0.367634 -0.25129,0.251295 -0.37228,0.577047 -0.37228,0.977256 0,0.409517 0.12099,0.739923 0.36763,0.98191 0.24199,0.251294 0.56774,0.372288 0.98191,0.372288 z m 0,-0.572393 c -0.39556,0 -0.59101,-0.260602 -0.59101,-0.781805 0,-0.511896 0.19545,-0.772497 0.59566,-0.772497 0.39091,0 0.58636,0.260601 0.58636,0.772497 0,0.251295 -0.0512,0.446746 -0.15357,0.5817 -0.10238,0.134955 -0.24664,0.200105 -0.43744,0.200105 z m 5.16084,-2.122042 c -0.34902,0 -0.62823,0.158223 -0.83764,0.474668 -0.14427,-0.316445 -0.41883,-0.474668 -0.81904,-0.474668 -0.33506,0 -0.60031,0.139608 -0.79576,0.409517 l -0.0233,-0.339713 h -0.69339 v 2.550173 h 0.74458 V 77.1472 c 0.0279,-0.153569 0.0884,-0.274562 0.17683,-0.362981 0.0884,-0.08842 0.20011,-0.134954 0.33041,-0.134954 0.12565,0 0.22337,0.04188 0.29783,0.125647 0.0745,0.08376 0.11169,0.195451 0.11169,0.344366 v 1.526381 h 0.74457 V 77.1472 c 0.0279,-0.153569 0.0884,-0.274562 0.17684,-0.362981 0.0884,-0.08842 0.2001,-0.134954 0.33041,-0.134954 0.12564,0 0.22337,0.04188 0.29783,0.125647 0.0745,0.08376 0.11168,0.195451 0.11168,0.344366 v 1.526381 h 0.74458 v -1.749753 c 0,-0.265256 -0.0838,-0.474668 -0.24664,-0.63289 -0.16288,-0.158222 -0.3816,-0.237334 -0.65151,-0.237334 z m 4.36973,2.703742 c 0.48863,0 0.87023,-0.102379 1.14479,-0.307137 0.27456,-0.204759 0.41417,-0.488629 0.41417,-0.860917 0,-0.279216 -0.0977,-0.502588 -0.28387,-0.670118 -0.1908,-0.162876 -0.49793,-0.288523 -0.92607,-0.381595 l -0.42813,-0.08842 c -0.21406,-0.04188 -0.35832,-0.09307 -0.43744,-0.158222 -0.0791,-0.0605 -0.11634,-0.153569 -0.11634,-0.279216 0,-0.288523 0.21872,-0.437438 0.65616,-0.437438 0.21872,0 0.3909,0.03723 0.5119,0.111686 0.12099,0.07446 0.2001,0.195451 0.24199,0.353674 l 0.73061,-0.08376 c -0.13961,-0.628236 -0.63289,-0.944681 -1.47054,-0.944681 -0.46536,0 -0.81903,0.09307 -1.07032,0.279216 -0.2513,0.186144 -0.37229,0.451399 -0.37229,0.786458 0,0.288524 0.0884,0.51655 0.26525,0.68408 0.17684,0.167529 0.45606,0.288523 0.833,0.36298 l 0.48397,0.09307 c 0.21872,0.04654 0.37694,0.107033 0.47001,0.176837 0.0931,0.0698 0.13961,0.16753 0.13961,0.297831 0,0.158222 -0.0652,0.279216 -0.19545,0.36298 -0.1303,0.08376 -0.31644,0.125648 -0.55843,0.125648 -0.47467,0 -0.74458,-0.181491 -0.81903,-0.553779 l -0.75389,0.08842 c 0.13496,0.69804 0.64685,1.042406 1.54034,1.042406 z m 2.93177,-3.136526 V 74.922779 H 183.224 v 0.670119 z m 0,3.052761 V 76.095486 H 183.224 v 2.550173 z m 2.25699,-2.619977 c -0.32575,0 -0.591,0.139608 -0.79576,0.409517 l -0.0279,-0.339713 h -0.68408 v 2.550173 h 0.74457 V 77.1472 c 0.0279,-0.153569 0.0884,-0.274562 0.17684,-0.362981 0.0884,-0.08842 0.20011,-0.134954 0.33041,-0.134954 0.12564,0 0.22337,0.04188 0.29783,0.120993 0.0745,0.08376 0.11168,0.195452 0.11168,0.339713 v 1.535688 h 0.74458 v -1.740446 c 0,-0.269909 -0.0838,-0.483975 -0.24199,-0.642197 -0.16287,-0.158222 -0.38159,-0.237334 -0.65616,-0.237334 z m 3.41109,0.33506 c -0.18615,-0.241988 -0.44209,-0.362981 -0.76785,-0.362981 -0.3304,0 -0.59566,0.111686 -0.80041,0.330405 -0.20476,0.223373 -0.30714,0.530511 -0.30714,0.91676 0,0.372288 0.10238,0.665464 0.31644,0.874877 0.20941,0.214065 0.47002,0.316444 0.78181,0.316444 0.30713,0 0.55843,-0.09772 0.74457,-0.293176 v 0.395556 c 0,0.344366 -0.16753,0.516549 -0.49793,0.516549 -0.2513,0 -0.41883,-0.102379 -0.50259,-0.307137 l -0.67943,0.08376 c 0.13961,0.507243 0.53517,0.758537 1.17736,0.758537 0.40021,0 0.70735,-0.09772 0.92142,-0.293177 0.20941,-0.195451 0.31644,-0.483974 0.31644,-0.870223 v -2.354722 h -0.67477 z m -0.59101,1.51242 c -0.17684,0 -0.31179,-0.05584 -0.40952,-0.172184 -0.10237,-0.11634 -0.14891,-0.274562 -0.14891,-0.474667 0,-0.195451 0.0465,-0.353673 0.14891,-0.470013 0.0977,-0.11634 0.23268,-0.176837 0.40952,-0.176837 0.13961,0 0.2606,0.04188 0.35833,0.120993 0.0977,0.07911 0.16287,0.190798 0.2001,0.33506 v 0.376941 c -0.0372,0.148915 -0.10238,0.265255 -0.2001,0.344367 -0.10238,0.07911 -0.21872,0.11634 -0.35833,0.11634 z m 2.79216,0.772497 v -3.573965 h -0.74458 v 3.573965 z m 3.31801,-1.251818 c 0,-0.40021 -0.11634,-0.730615 -0.34437,-0.991217 -0.23268,-0.251294 -0.56774,-0.381595 -0.99587,-0.381595 -0.41882,0 -0.74923,0.125647 -0.98656,0.372288 -0.23733,0.251294 -0.35367,0.577046 -0.35367,0.986563 0,0.409517 0.12099,0.730615 0.36298,0.972603 0.24198,0.24664 0.57704,0.367634 1.00517,0.367634 0.29318,0 0.54448,-0.0605 0.75854,-0.186144 0.21407,-0.120994 0.37229,-0.29783 0.47467,-0.525857 l -0.65616,-0.130301 c -0.12099,0.204759 -0.30714,0.302484 -0.56308,0.302484 -0.40952,0 -0.63289,-0.214065 -0.66082,-0.64685 h 1.95917 z m -1.34024,-0.879531 c 0.36298,0 0.56774,0.204759 0.61428,0.609622 h -1.22855 c 0.0186,-0.195451 0.0838,-0.34902 0.1908,-0.451399 0.10703,-0.102379 0.24664,-0.158223 0.42347,-0.158223 z m 6.1195,1.088943 c -0.0652,-0.372288 -0.27457,-0.600315 -0.62359,-0.674772 0.5119,-0.16753 0.7725,-0.479321 0.7725,-0.940027 0,-0.288524 -0.0931,-0.511896 -0.27922,-0.674772 -0.18614,-0.158223 -0.44209,-0.241988 -0.77715,-0.241988 h -1.8754 v 3.573965 h 0.75389 v -1.386773 h 0.77249 c 0.1908,0 0.33041,0.04188 0.41417,0.125648 0.0838,0.08376 0.13961,0.23268 0.17684,0.446745 l 0.12099,0.81438 h 0.73062 z m -2.02897,-0.940027 v -0.995871 h 0.80972 c 0.3909,0 0.58636,0.153569 0.58636,0.451399 0,0.176837 -0.0605,0.311792 -0.18149,0.404864 -0.121,0.09307 -0.29784,0.139608 -0.52121,0.139608 z m 4.07654,-0.642197 c -0.73061,0 -1.13547,0.279216 -1.21924,0.828341 l 0.63289,0.0698 c 0.0233,-0.148916 0.0745,-0.251295 0.15822,-0.311792 0.0838,-0.05584 0.21407,-0.08842 0.39091,-0.08842 0.17683,0 0.30248,0.02792 0.37228,0.08376 0.0698,0.05584 0.10704,0.148915 0.10704,0.274562 v 0.102379 c -0.0512,0.02792 -0.11634,0.05119 -0.1908,0.0605 l -0.54913,0.09773 c -0.36298,0.06515 -0.62823,0.158222 -0.78646,0.279216 -0.15822,0.120993 -0.23733,0.302484 -0.23733,0.535164 0,0.237334 0.0838,0.423478 0.2513,0.563086 0.16753,0.139608 0.3909,0.209412 0.67011,0.209412 0.39091,0 0.68408,-0.130301 0.87488,-0.395556 0,0.02792 0.009,0.07911 0.0279,0.158222 0.0186,0.08376 0.0279,0.134954 0.0326,0.158222 h 0.61893 V 78.087227 76.84937 c 0,-0.274563 -0.0931,-0.479321 -0.27922,-0.618929 -0.18614,-0.139608 -0.47932,-0.209412 -0.87488,-0.209412 z m -0.14891,2.233728 c -0.13961,0 -0.2513,-0.02792 -0.32575,-0.08842 -0.0745,-0.0605 -0.11169,-0.148916 -0.11169,-0.265256 0,-0.190797 0.14426,-0.316445 0.43279,-0.381595 l 0.41882,-0.08376 0.16753,-0.04188 v 0.521203 c -0.11169,0.228027 -0.30714,0.339713 -0.5817,0.339713 z m 3.24822,0.456053 c 0.3304,0 0.60497,-0.08376 0.81903,-0.251295 0.21407,-0.167529 0.35833,-0.409517 0.42348,-0.716654 l -0.68873,-0.0698 c -0.0745,0.316445 -0.2513,0.474667 -0.53517,0.474667 -0.18614,0 -0.3304,-0.06515 -0.42813,-0.195451 -0.10238,-0.130301 -0.14891,-0.325752 -0.14891,-0.586354 0,-0.521203 0.19079,-0.781805 0.57239,-0.781805 0.27921,0 0.45605,0.144262 0.5212,0.423478 l 0.7027,-0.09307 c -0.0745,-0.288523 -0.21872,-0.511896 -0.43279,-0.660811 -0.21406,-0.148915 -0.48397,-0.228027 -0.81438,-0.228027 -0.40952,0 -0.72596,0.120994 -0.95399,0.358328 -0.22802,0.241987 -0.33971,0.567739 -0.33971,0.986563 0,0.41417 0.11634,0.739922 0.35367,0.977256 0.23734,0.241987 0.55378,0.362981 0.94934,0.362981 z m 4.43022,-1.316969 c 0,-0.40021 -0.11634,-0.730615 -0.34437,-0.991217 -0.23268,-0.251294 -0.56773,-0.381595 -0.99587,-0.381595 -0.41882,0 -0.74923,0.125647 -0.98656,0.372288 -0.23733,0.251294 -0.35367,0.577046 -0.35367,0.986563 0,0.409517 0.12099,0.730615 0.36298,0.972603 0.24199,0.24664 0.57704,0.367634 1.00518,0.367634 0.29317,0 0.54447,-0.0605 0.75853,-0.186144 0.21407,-0.120994 0.37229,-0.29783 0.47467,-0.525857 l -0.65616,-0.130301 c -0.12099,0.204759 -0.30714,0.302484 -0.56308,0.302484 -0.40952,0 -0.63289,-0.214065 -0.66081,-0.64685 h 1.95916 z m -1.34024,-0.879531 c 0.36298,0 0.56774,0.204759 0.61428,0.609622 h -1.22855 c 0.0186,-0.195451 0.0838,-0.34902 0.1908,-0.451399 0.10703,-0.102379 0.24664,-0.158223 0.42347,-0.158223 z"
         id="path10" />
    </g>
    <g
       id="g8"
       transform="matrix(1.0355832,0,0,1.0355832,-6.204578,4.4936789)">
      <g
         id="text363-7"
         style="font-size:4.11821px;line-height:125%;font-family:'Helvetica Now Micro';-inkscape-font-specification:'Helvetica Now Micro';letter-spacing:0px;fill:#646464;stroke:#ee111a;stroke-width:0;stroke-linecap:square;stroke-miterlimit:4.6;paint-order:markers fill stroke"
         aria-label="- ThatOneBonk   &#10;- Patrex           &#10;- yel                &#10;- jwelsh2004    &#10;- ThatOneBonk   &#10;- Patrex           &#10;- yel                &#10;- jwelsh2004    ">
        <path
           d="m 102.26807,82.65249 v -0.518894 h -1.44137 v 0.518894 z m 1.54022,-2.252661 v 0.560077 h 0.95954 v 2.602708 h 0.67538 v -2.602708 h 0.95955 v -0.560077 z m 4.42295,0.844233 c -0.28003,0 -0.50242,0.111192 -0.67538,0.329457 v -1.17369 h -0.65892 v 3.162785 h 0.65892 v -1.326063 c 0.0247,-0.135901 0.0782,-0.242975 0.15649,-0.32122 0.0782,-0.07825 0.17708,-0.119429 0.29239,-0.119429 0.11119,0 0.19768,0.03706 0.26357,0.107074 0.0659,0.07413 0.0988,0.172965 0.0988,0.300629 v 1.359009 h 0.65892 v -1.54021 c 0,-0.238856 -0.0741,-0.428294 -0.21415,-0.568313 -0.14414,-0.140019 -0.33769,-0.210029 -0.58067,-0.210029 z m 2.51211,-0.0041 c -0.64656,0 -1.00484,0.247093 -1.07897,0.733041 l 0.56007,0.06177 c 0.0206,-0.131783 0.0659,-0.222384 0.14002,-0.27592 0.0741,-0.04942 0.18944,-0.07825 0.34593,-0.07825 0.1565,0 0.26769,0.02471 0.32946,0.07413 0.0618,0.04942 0.0947,0.131783 0.0947,0.242975 v 0.0906 c -0.0453,0.02471 -0.10296,0.0453 -0.16885,0.05354 l -0.48595,0.08648 c -0.32122,0.05765 -0.55595,0.14002 -0.69597,0.247093 -0.14002,0.107073 -0.21003,0.267684 -0.21003,0.473594 0,0.210029 0.0741,0.374757 0.22238,0.498304 0.14826,0.123546 0.34593,0.185319 0.59302,0.185319 0.34593,0 0.60538,-0.11531 0.77423,-0.350048 0,0.02471 0.008,0.07001 0.0247,0.140019 0.0165,0.07413 0.0247,0.119428 0.0288,0.140019 h 0.54773 v -0.494185 -1.095444 c 0,-0.242974 -0.0824,-0.424175 -0.2471,-0.547721 -0.16473,-0.123547 -0.42417,-0.18532 -0.77422,-0.18532 z m -0.13178,1.976741 c -0.12355,0 -0.22239,-0.02471 -0.28828,-0.07825 -0.0659,-0.05354 -0.0988,-0.131783 -0.0988,-0.234738 0,-0.168847 0.12767,-0.280038 0.383,-0.337693 l 0.37064,-0.07413 0.14825,-0.03706 v 0.461239 c -0.0988,0.201793 -0.2718,0.30063 -0.51477,0.30063 z m 2.7139,-1.877904 0.0247,-0.189438 v -0.510658 h -0.65068 v 0.510658 l 0.0247,0.18532 -0.52713,-0.02883 v 0.432412 l 0.53537,-0.02471 -0.0329,0.312984 v 0.885415 c 0,0.23062 0.0577,0.395348 0.1812,0.498304 0.12355,0.102955 0.31299,0.152373 0.57243,0.152373 h 0.58067 v -0.52713 h -0.43241 c -0.16885,0 -0.25121,-0.08648 -0.25121,-0.263566 v -0.745396 l -0.0329,-0.317102 0.72069,0.02883 v -0.432412 z m 3.96995,1.84084 c 0.28828,-0.296511 0.43241,-0.695978 0.43241,-1.198399 0,-0.498304 -0.14413,-0.89777 -0.43241,-1.198399 -0.29651,-0.30063 -0.6795,-0.453003 -1.1531,-0.453003 -0.48183,0 -0.86482,0.152373 -1.1531,0.453003 -0.29239,0.300629 -0.43653,0.700095 -0.43653,1.198399 0,0.498303 0.14414,0.89777 0.43653,1.194281 0.28828,0.304747 0.67127,0.453003 1.1531,0.453003 0.47772,0 0.86483,-0.148256 1.1531,-0.448885 z m -1.81201,-0.387112 c -0.16473,-0.189437 -0.24297,-0.461239 -0.24297,-0.811287 0,-0.34593 0.0782,-0.617732 0.24297,-0.811287 0.15649,-0.189438 0.37888,-0.284157 0.65891,-0.284157 0.28004,0 0.49831,0.09472 0.65892,0.284157 0.15649,0.189437 0.23885,0.457121 0.23885,0.811287 0,0.354166 -0.0824,0.625968 -0.23885,0.811287 -0.16061,0.189438 -0.37888,0.284157 -0.65892,0.284157 -0.28003,0 -0.50242,-0.09472 -0.65891,-0.284157 z m 4.19234,-1.548447 c -0.28828,0 -0.52302,0.123547 -0.70422,0.362403 l -0.0247,-0.30063 h -0.60537 v 2.256779 h 0.65891 v -1.326063 c 0.0247,-0.135901 0.0782,-0.242975 0.15649,-0.32122 0.0782,-0.07825 0.17709,-0.119429 0.2924,-0.119429 0.11119,0 0.19767,0.03706 0.26356,0.107074 0.0659,0.07413 0.0988,0.172965 0.0988,0.300629 v 1.359009 h 0.65891 v -1.54021 c 0,-0.238856 -0.0741,-0.428294 -0.21415,-0.568313 -0.14413,-0.140019 -0.33769,-0.210029 -0.58066,-0.210029 z m 3.73109,1.210754 c 0,-0.354166 -0.10295,-0.646559 -0.30475,-0.877179 -0.20591,-0.222383 -0.50242,-0.337693 -0.88129,-0.337693 -0.37064,0 -0.66303,0.111192 -0.87306,0.329457 -0.21003,0.222383 -0.31299,0.510658 -0.31299,0.87306 0,0.362403 0.10708,0.646559 0.32122,0.860706 0.21415,0.218265 0.51066,0.325339 0.88954,0.325339 0.25944,0 0.48183,-0.05354 0.67126,-0.164729 0.18944,-0.107073 0.32946,-0.263565 0.42006,-0.465357 l -0.58067,-0.11531 c -0.10707,0.181201 -0.2718,0.267683 -0.4983,0.267683 -0.3624,0 -0.56008,-0.189437 -0.58479,-0.572431 h 1.73377 z m -1.18604,-0.778342 c 0.32122,0 0.50242,0.181202 0.5436,0.539486 h -1.08721 c 0.0165,-0.172965 0.0741,-0.308866 0.16885,-0.399467 0.0947,-0.0906 0.21826,-0.140019 0.37476,-0.140019 z m 3.82994,0.181202 c 0.14825,-0.04942 0.26356,-0.135901 0.35004,-0.255329 0.0824,-0.11531 0.12767,-0.255329 0.12767,-0.411821 0,-0.242975 -0.0865,-0.436531 -0.25533,-0.57655 -0.17297,-0.140019 -0.42006,-0.214147 -0.74952,-0.214147 h -1.50726 v 3.162785 h 1.49903 c 0.38299,0 0.66715,-0.08648 0.85659,-0.267683 0.18532,-0.177083 0.28003,-0.403585 0.28003,-0.675387 0,-0.181201 -0.0535,-0.337693 -0.16061,-0.477712 -0.10707,-0.140019 -0.25121,-0.234738 -0.44064,-0.284156 z M 125.433,80.898133 c 0.1359,0 0.24298,0.03706 0.31711,0.107073 0.0741,0.07001 0.11531,0.164729 0.11531,0.284157 0,0.131782 -0.0412,0.234738 -0.11531,0.304747 -0.0741,0.07001 -0.18121,0.102955 -0.32122,0.102955 h -0.74128 v -0.798932 z m -0.74539,2.166178 v -0.877179 h 0.79893 c 0.14826,0 0.26768,0.04118 0.35005,0.11531 0.0824,0.07413 0.12766,0.181201 0.12766,0.321221 0,0.140019 -0.0412,0.25121 -0.11943,0.325338 -0.0824,0.07825 -0.19355,0.11531 -0.33357,0.11531 z m 3.65285,0.564195 c 0.35829,0 0.64656,-0.111192 0.86483,-0.333575 0.21414,-0.214147 0.32534,-0.502422 0.32534,-0.864824 0,-0.354166 -0.10708,-0.642441 -0.31711,-0.864824 -0.21414,-0.214147 -0.50654,-0.325339 -0.86894,-0.325339 -0.3624,0 -0.65479,0.111192 -0.86894,0.325339 -0.22238,0.222383 -0.32946,0.510658 -0.32946,0.864824 0,0.362402 0.10708,0.654795 0.32534,0.868942 0.21415,0.222383 0.50242,0.329457 0.86894,0.329457 z m 0,-0.50654 c -0.35005,0 -0.52301,-0.23062 -0.52301,-0.691859 0,-0.453003 0.17296,-0.683623 0.52713,-0.683623 0.34593,0 0.5189,0.23062 0.5189,0.683623 0,0.222383 -0.0453,0.395348 -0.13591,0.514776 -0.0906,0.119428 -0.21826,0.177083 -0.38711,0.177083 z m 3.0969,-1.877904 c -0.28828,0 -0.52302,0.123547 -0.70422,0.362403 l -0.0247,-0.30063 h -0.60537 v 2.256779 h 0.65891 v -1.326063 c 0.0247,-0.135901 0.0782,-0.242975 0.15649,-0.32122 0.0782,-0.07825 0.17709,-0.119429 0.2924,-0.119429 0.11119,0 0.19767,0.03706 0.26356,0.107074 0.0659,0.07413 0.0988,0.172965 0.0988,0.300629 v 1.359009 h 0.65891 v -1.54021 c 0,-0.238856 -0.0741,-0.428294 -0.21415,-0.568313 -0.14413,-0.140019 -0.33769,-0.210029 -0.58066,-0.210029 z m 3.76816,2.318552 -0.93484,-1.367245 0.89777,-0.889534 h -0.74539 l -0.86894,0.992489 v -1.898495 h -0.65892 v 3.162785 h 0.65892 v -0.728923 l 0.32945,-0.325338 0.60126,1.054261 z"
           id="path11" />
        <path
           d="m 102.26807,87.800252 v -0.518894 h -1.44137 v 0.518894 z m 1.75436,-2.25266 v 3.162785 h 0.67127 v -1.078971 h 0.64656 c 0.35828,0 0.64244,-0.09472 0.84835,-0.284157 0.20179,-0.185319 0.30475,-0.43653 0.30475,-0.749514 0,-0.32122 -0.10296,-0.576549 -0.30063,-0.765987 -0.20179,-0.189438 -0.48595,-0.284156 -0.84835,-0.284156 z m 0.67127,1.544328 v -0.992488 h 0.60538 c 0.16061,0 0.28415,0.0453 0.37064,0.127664 0.0865,0.08648 0.13178,0.210029 0.13178,0.370639 0,0.156492 -0.0453,0.280038 -0.13178,0.366521 -0.0865,0.08648 -0.21003,0.127664 -0.36652,0.127664 z m 3.39753,-0.704214 c -0.64656,0 -1.00485,0.247093 -1.07898,0.733042 l 0.56008,0.06177 c 0.0206,-0.131783 0.0659,-0.222383 0.14002,-0.27592 0.0741,-0.04942 0.18944,-0.07825 0.34593,-0.07825 0.15649,0 0.26768,0.02471 0.32946,0.07413 0.0618,0.04942 0.0947,0.131782 0.0947,0.242974 v 0.0906 c -0.0453,0.02471 -0.10296,0.0453 -0.16885,0.05354 l -0.48595,0.08648 c -0.32122,0.05766 -0.55596,0.140019 -0.69598,0.247092 -0.14002,0.107074 -0.21003,0.267684 -0.21003,0.473594 0,0.210029 0.0741,0.374758 0.22239,0.498304 0.14825,0.123546 0.34593,0.185319 0.59302,0.185319 0.34593,0 0.60538,-0.11531 0.77422,-0.350048 0,0.02471 0.008,0.07001 0.0247,0.14002 0.0165,0.07413 0.0247,0.119428 0.0288,0.140019 h 0.54772 v -0.494185 -1.095444 c 0,-0.242975 -0.0824,-0.424176 -0.24709,-0.547722 -0.16473,-0.123546 -0.42418,-0.18532 -0.77422,-0.18532 z m -0.13179,1.976741 c -0.12354,0 -0.22238,-0.02471 -0.28827,-0.07825 -0.0659,-0.05354 -0.0988,-0.131783 -0.0988,-0.234738 0,-0.168846 0.12767,-0.280038 0.38299,-0.337693 l 0.37064,-0.07413 0.14826,-0.03706 v 0.46124 c -0.0988,0.201792 -0.2718,0.300629 -0.51478,0.300629 z m 2.7139,-1.877904 0.0247,-0.189437 v -0.510658 h -0.65067 v 0.510658 l 0.0247,0.185319 -0.52713,-0.02883 v 0.432412 l 0.53536,-0.02471 -0.0329,0.312983 V 88.0597 c 0,0.230619 0.0576,0.395348 0.1812,0.498303 0.12354,0.102955 0.31298,0.152374 0.57243,0.152374 h 0.58067 v -0.527131 h -0.43242 c -0.16884,0 -0.25121,-0.08648 -0.25121,-0.263566 v -0.745396 l -0.0329,-0.317102 0.72069,0.02883 v -0.432412 z m 2.64801,-0.07413 c -0.35828,0 -0.60125,0.156492 -0.72892,0.465357 l -0.0247,-0.424175 h -0.61361 v 2.256779 h 0.65891 v -1.247818 c 0.0412,-0.168846 0.11943,-0.292393 0.23474,-0.366521 0.11531,-0.07413 0.2718,-0.111191 0.46948,-0.111191 h 0.14825 v -0.572431 z m 2.87452,1.190162 c 0,-0.354166 -0.10296,-0.646559 -0.30475,-0.877178 -0.20591,-0.222384 -0.50242,-0.337694 -0.8813,-0.337694 -0.37064,0 -0.66303,0.111192 -0.87306,0.329457 -0.21003,0.222384 -0.31298,0.510658 -0.31298,0.873061 0,0.362402 0.10707,0.646559 0.32122,0.860706 0.21415,0.218265 0.51066,0.325338 0.88953,0.325338 0.25945,0 0.48183,-0.05354 0.67127,-0.164728 0.18944,-0.107074 0.32946,-0.263566 0.42006,-0.465358 l -0.58067,-0.11531 c -0.10707,0.181201 -0.2718,0.267684 -0.4983,0.267684 -0.36241,0 -0.56008,-0.189438 -0.58479,-0.572431 h 1.73377 z m -1.18605,-0.778341 c 0.32122,0 0.50242,0.181201 0.54361,0.539485 h -1.08721 c 0.0165,-0.172965 0.0741,-0.308866 0.16885,-0.399466 0.0947,-0.0906 0.21826,-0.140019 0.37475,-0.140019 z m 2.96923,0.691859 0.83188,-1.062498 h -0.66715 l -0.453,0.646559 -0.44889,-0.646559 h -0.74951 l 0.84011,1.136626 -0.89777,1.120153 h 0.67127 l 0.51478,-0.712451 0.50242,0.712451 h 0.74539 z"
           id="path12" />
        <path
           d="M 102.26807,92.948015 V 92.42912 h -1.44137 v 0.518895 z m 2.74273,0.226501 v -0.01235 l -0.51889,-1.560802 h -0.7001 l 0.88954,2.314434 -0.008,0.02471 c -0.0453,0.11531 -0.0906,0.193556 -0.1359,0.23062 -0.0453,0.03706 -0.11531,0.05354 -0.21415,0.05354 h -0.34593 v 0.498303 h 0.33358 c 0.24709,0 0.44065,-0.04942 0.58478,-0.152374 0.14002,-0.102955 0.25945,-0.284156 0.35829,-0.547722 l 0.91012,-2.421507 h -0.67539 z m 3.80523,-0.424175 c 0,-0.354166 -0.10296,-0.646559 -0.30475,-0.877179 -0.20591,-0.222383 -0.50242,-0.337693 -0.8813,-0.337693 -0.37064,0 -0.66303,0.111191 -0.87306,0.329456 -0.21003,0.222384 -0.31298,0.510658 -0.31298,0.873061 0,0.362402 0.10707,0.646559 0.32122,0.860706 0.21415,0.218265 0.51066,0.325338 0.88953,0.325338 0.25945,0 0.48183,-0.05354 0.67127,-0.164728 0.18944,-0.107073 0.32946,-0.263565 0.42006,-0.465358 l -0.58067,-0.11531 c -0.10707,0.181202 -0.2718,0.267684 -0.4983,0.267684 -0.36241,0 -0.56008,-0.189438 -0.58479,-0.572431 h 1.73377 z m -1.18605,-0.778342 c 0.32122,0 0.50242,0.181201 0.54361,0.539485 h -1.08721 c 0.0165,-0.172964 0.0741,-0.308865 0.16885,-0.399466 0.0947,-0.0906 0.21826,-0.140019 0.37475,-0.140019 z m 2.41328,1.88614 v -3.162785 h -0.65892 v 3.162785 z"
           id="path13" />
        <path
           d="m 102.26807,98.095777 v -0.518894 h -1.44137 v 0.518894 z m 2.37209,-1.791421 v -0.593023 h -0.65891 v 0.593023 z m -0.78246,3.566369 c 0.5189,0 0.78246,-0.242974 0.78246,-0.737159 v -2.384444 h -0.65891 v 2.396798 c 0,0.0906 -0.0206,0.156492 -0.0577,0.193556 -0.0371,0.04118 -0.0988,0.05765 -0.18532,0.05765 h -0.26357 v 0.473594 z m 4.06467,-1.898494 -0.11119,0.420057 -0.11119,-0.424176 -0.33769,-1.21899 h -0.66715 l -0.32534,1.231345 -0.0906,0.387112 -0.10708,-0.387112 -0.3624,-1.231345 h -0.69598 l 0.75775,2.256779 h 0.69186 l 0.33358,-1.120153 0.14002,-0.485949 0.14002,0.481831 0.34593,1.124271 h 0.67127 l 0.75775,-2.256779 h -0.66715 z m 3.6858,-0.07413 c 0,-0.354166 -0.10295,-0.646559 -0.30475,-0.877179 -0.20591,-0.222383 -0.50242,-0.337693 -0.88129,-0.337693 -0.37064,0 -0.66303,0.111192 -0.87306,0.329457 -0.21003,0.222383 -0.31299,0.510658 -0.31299,0.87306 0,0.362403 0.10708,0.646559 0.32122,0.860706 0.21415,0.218265 0.51066,0.325339 0.88954,0.325339 0.25944,0 0.48183,-0.05354 0.67126,-0.164729 0.18944,-0.107073 0.32946,-0.263565 0.42006,-0.465357 l -0.58067,-0.11531 c -0.10707,0.181201 -0.2718,0.267683 -0.4983,0.267683 -0.3624,0 -0.56008,-0.189437 -0.58478,-0.572431 h 1.73376 z m -1.18604,-0.778342 c 0.32122,0 0.50242,0.181201 0.5436,0.539486 h -1.08721 c 0.0165,-0.172965 0.0741,-0.308866 0.16885,-0.399467 0.0947,-0.0906 0.21827,-0.140019 0.37476,-0.140019 z m 2.41327,1.88614 v -3.162785 h -0.65891 v 3.162785 z m 1.65552,0.0906 c 0.33769,0 0.59714,-0.06589 0.77834,-0.197674 0.1812,-0.131783 0.27592,-0.32122 0.27592,-0.568313 0,-0.189438 -0.0618,-0.341811 -0.18532,-0.457121 -0.12355,-0.111192 -0.3171,-0.189438 -0.57243,-0.238857 l -0.37064,-0.06589 c -0.21415,-0.04118 -0.32122,-0.123546 -0.32122,-0.247092 0,-0.160611 0.11943,-0.242975 0.36652,-0.242975 0.25533,0 0.4077,0.102955 0.45712,0.304748 l 0.60538,-0.05765 c -0.10296,-0.444767 -0.45712,-0.66715 -1.06662,-0.66715 -0.31298,0 -0.55184,0.06589 -0.7248,0.193556 -0.17297,0.131782 -0.25533,0.308865 -0.25533,0.531249 0,0.354166 0.21826,0.572431 0.65479,0.654795 l 0.42418,0.0906 c 0.12355,0.02471 0.21415,0.06177 0.26768,0.102955 0.0535,0.04118 0.0824,0.09884 0.0824,0.172965 0,0.181201 -0.1359,0.267683 -0.40359,0.267683 -0.1359,0 -0.24297,-0.02471 -0.3171,-0.08236 -0.0783,-0.05354 -0.1359,-0.140019 -0.16885,-0.263565 l -0.62185,0.06177 c 0.0494,0.234738 0.16885,0.411821 0.35829,0.531249 0.18944,0.119428 0.43241,0.177083 0.73716,0.177083 z m 2.96099,-2.409153 c -0.28004,0 -0.50242,0.111192 -0.67539,0.329457 v -1.17369 h -0.65891 v 3.162785 h 0.65891 v -1.326063 c 0.0247,-0.135901 0.0782,-0.242975 0.15649,-0.321221 0.0782,-0.07825 0.17709,-0.119428 0.2924,-0.119428 0.11119,0 0.19767,0.03706 0.26356,0.107074 0.0659,0.07413 0.0988,0.172965 0.0988,0.300629 v 1.359009 h 0.65891 v -1.54021 c 0,-0.238856 -0.0741,-0.428294 -0.21414,-0.568313 -0.14414,-0.140019 -0.3377,-0.210029 -0.58067,-0.210029 z m 3.94936,2.318552 v -0.601258 h -1.55257 c 0.004,-0.05765 0.0288,-0.107074 0.0783,-0.156492 0.0494,-0.0453 0.1359,-0.102956 0.26768,-0.177083 l 0.30063,-0.172965 c 0.29651,-0.168847 0.51478,-0.341812 0.65068,-0.518895 0.1359,-0.172964 0.20591,-0.378875 0.20591,-0.613613 0,-0.308866 -0.10707,-0.55184 -0.3171,-0.724805 -0.21003,-0.172965 -0.49419,-0.263565 -0.85659,-0.263565 -0.37887,0 -0.6795,0.09884 -0.89365,0.292393 -0.21827,0.197674 -0.32534,0.469476 -0.32534,0.819523 v 0.03295 h 0.64244 v -0.04118 c 0,-0.172965 0.0453,-0.304747 0.14002,-0.395348 0.0947,-0.0906 0.23062,-0.135901 0.40359,-0.135901 0.16472,0 0.29239,0.04118 0.38299,0.123546 0.0906,0.08236 0.1359,0.193556 0.1359,0.337693 0,0.119429 -0.0329,0.222384 -0.0988,0.304748 -0.0659,0.08648 -0.17296,0.177083 -0.32534,0.267684 l -0.3624,0.218265 c -0.37064,0.222383 -0.62597,0.432412 -0.7701,0.638322 -0.14826,0.210029 -0.22239,0.465358 -0.22239,0.765987 z m 2.83332,-0.358284 c 0.21415,-0.27592 0.32534,-0.683623 0.32534,-1.223108 0,-0.535368 -0.11119,-0.94307 -0.32534,-1.227227 -0.22238,-0.280038 -0.53948,-0.420057 -0.9513,-0.420057 -0.41594,0 -0.73304,0.140019 -0.95131,0.420057 -0.21826,0.284157 -0.32534,0.691859 -0.32534,1.227227 0,0.539485 0.10708,0.947188 0.32534,1.223108 0.21415,0.284157 0.53125,0.424176 0.95131,0.424176 0.41594,0 0.73304,-0.140019 0.9513,-0.424176 z m -0.9513,-0.135901 c -0.21003,0 -0.3624,-0.08648 -0.46124,-0.259447 -0.0988,-0.172965 -0.14826,-0.448885 -0.14826,-0.82776 0,-0.374757 0.0494,-0.650677 0.14826,-0.823642 0.0988,-0.172965 0.25121,-0.263566 0.46124,-0.263566 0.21003,0 0.36652,0.0906 0.46536,0.263566 0.0988,0.172965 0.14825,0.448885 0.14825,0.823642 0,0.378875 -0.0494,0.654795 -0.14825,0.82776 -0.0988,0.172965 -0.25533,0.259447 -0.46536,0.259447 z m 4.08938,0.135901 c 0.21414,-0.27592 0.32533,-0.683623 0.32533,-1.223108 0,-0.535368 -0.11119,-0.94307 -0.32533,-1.227227 -0.22239,-0.280038 -0.53949,-0.420057 -0.95131,-0.420057 -0.41594,0 -0.73304,0.140019 -0.95131,0.420057 -0.21826,0.284157 -0.32534,0.691859 -0.32534,1.227227 0,0.539485 0.10708,0.947188 0.32534,1.223108 0.21415,0.284157 0.53125,0.424176 0.95131,0.424176 0.41594,0 0.73304,-0.140019 0.95131,-0.424176 z m -0.95131,-0.135901 c -0.21003,0 -0.3624,-0.08648 -0.46124,-0.259447 -0.0988,-0.172965 -0.14826,-0.448885 -0.14826,-0.82776 0,-0.374757 0.0494,-0.650677 0.14826,-0.823642 0.0988,-0.172965 0.25121,-0.263566 0.46124,-0.263566 0.21003,0 0.36652,0.0906 0.46536,0.263566 0.0988,0.172965 0.14825,0.448885 0.14825,0.823642 0,0.378875 -0.0494,0.654795 -0.14825,0.82776 -0.0988,0.172965 -0.25533,0.259447 -0.46536,0.259447 z m 3.97819,-2.672718 h -0.93072 l -1.1984,1.88614 v 0.560077 l 1.5155,-0.05354 v 0.774223 h 0.61362 v -0.774223 l 0.453,0.05354 v -0.531249 l -0.453,0.05354 z m -1.55257,1.927322 0.9266,-1.470201 h 0.0123 v 1.511383 z"
           id="path14" />
        <path
           d="m 102.26807,103.24354 v -0.5189 h -1.44137 v 0.5189 z m 1.54022,-2.25266 v 0.56008 h 0.95954 v 2.6027 h 0.67538 v -2.6027 h 0.95955 v -0.56008 z m 4.42295,0.84423 c -0.28003,0 -0.50242,0.11119 -0.67538,0.32946 v -1.17369 h -0.65892 v 3.16278 h 0.65892 v -1.32606 c 0.0247,-0.1359 0.0782,-0.24297 0.15649,-0.32122 0.0782,-0.0782 0.17708,-0.11943 0.29239,-0.11943 0.11119,0 0.19768,0.0371 0.26357,0.10708 0.0659,0.0741 0.0988,0.17296 0.0988,0.30062 v 1.35901 h 0.65892 v -1.54021 c 0,-0.23885 -0.0741,-0.42829 -0.21415,-0.56831 -0.14414,-0.14002 -0.33769,-0.21003 -0.58067,-0.21003 z m 2.51211,-0.004 c -0.64656,0 -1.00484,0.2471 -1.07897,0.73304 l 0.56007,0.0618 c 0.0206,-0.13178 0.0659,-0.22239 0.14002,-0.27592 0.0741,-0.0494 0.18944,-0.0782 0.34593,-0.0782 0.1565,0 0.26769,0.0247 0.32946,0.0741 0.0618,0.0494 0.0947,0.13178 0.0947,0.24297 v 0.0906 c -0.0453,0.0247 -0.10296,0.0453 -0.16885,0.0535 l -0.48595,0.0865 c -0.32122,0.0577 -0.55595,0.14002 -0.69597,0.2471 -0.14002,0.10707 -0.21003,0.26768 -0.21003,0.47359 0,0.21003 0.0741,0.37476 0.22238,0.4983 0.14826,0.12355 0.34593,0.18532 0.59302,0.18532 0.34593,0 0.60538,-0.11531 0.77423,-0.35004 0,0.0247 0.008,0.07 0.0247,0.14001 0.0165,0.0741 0.0247,0.11943 0.0288,0.14002 h 0.54773 v -0.49418 -1.09545 c 0,-0.24297 -0.0824,-0.42417 -0.2471,-0.54772 -0.16473,-0.12354 -0.42417,-0.18532 -0.77422,-0.18532 z m -0.13178,1.97674 c -0.12355,0 -0.22239,-0.0247 -0.28828,-0.0782 -0.0659,-0.0535 -0.0988,-0.13178 -0.0988,-0.23474 0,-0.16885 0.12767,-0.28004 0.383,-0.33769 l 0.37064,-0.0741 0.14825,-0.0371 v 0.46123 c -0.0988,0.2018 -0.2718,0.30063 -0.51477,0.30063 z m 2.7139,-1.8779 0.0247,-0.18944 v -0.51066 h -0.65068 v 0.51066 l 0.0247,0.18532 -0.52713,-0.0288 v 0.43242 l 0.53537,-0.0247 -0.0329,0.31298 v 0.88542 c 0,0.23062 0.0577,0.39534 0.1812,0.4983 0.12355,0.10296 0.31299,0.15237 0.57243,0.15237 h 0.58067 v -0.52713 h -0.43241 c -0.16885,0 -0.25121,-0.0865 -0.25121,-0.26356 v -0.7454 l -0.0329,-0.3171 0.72069,0.0288 v -0.43242 z m 3.96995,1.84084 c 0.28828,-0.29651 0.43241,-0.69598 0.43241,-1.1984 0,-0.4983 -0.14413,-0.89777 -0.43241,-1.1984 -0.29651,-0.30063 -0.6795,-0.453 -1.1531,-0.453 -0.48183,0 -0.86482,0.15237 -1.1531,0.453 -0.29239,0.30063 -0.43653,0.7001 -0.43653,1.1984 0,0.4983 0.14414,0.89777 0.43653,1.19428 0.28828,0.30475 0.67127,0.453 1.1531,0.453 0.47772,0 0.86483,-0.14825 1.1531,-0.44888 z m -1.81201,-0.38711 c -0.16473,-0.18944 -0.24297,-0.46124 -0.24297,-0.81129 0,-0.34593 0.0782,-0.61773 0.24297,-0.81129 0.15649,-0.18943 0.37888,-0.28415 0.65891,-0.28415 0.28004,0 0.49831,0.0947 0.65892,0.28415 0.15649,0.18944 0.23885,0.45713 0.23885,0.81129 0,0.35417 -0.0824,0.62597 -0.23885,0.81129 -0.16061,0.18944 -0.37888,0.28415 -0.65892,0.28415 -0.28003,0 -0.50242,-0.0947 -0.65891,-0.28415 z m 4.19234,-1.54845 c -0.28828,0 -0.52302,0.12355 -0.70422,0.3624 l -0.0247,-0.30063 h -0.60537 v 2.25678 h 0.65891 v -1.32606 c 0.0247,-0.1359 0.0782,-0.24297 0.15649,-0.32122 0.0782,-0.0782 0.17709,-0.11943 0.2924,-0.11943 0.11119,0 0.19767,0.0371 0.26356,0.10708 0.0659,0.0741 0.0988,0.17296 0.0988,0.30062 v 1.35901 h 0.65891 v -1.54021 c 0,-0.23885 -0.0741,-0.42829 -0.21415,-0.56831 -0.14413,-0.14002 -0.33769,-0.21003 -0.58066,-0.21003 z m 3.73109,1.21076 c 0,-0.35417 -0.10295,-0.64656 -0.30475,-0.87718 -0.20591,-0.22239 -0.50242,-0.3377 -0.88129,-0.3377 -0.37064,0 -0.66303,0.11119 -0.87306,0.32946 -0.21003,0.22238 -0.31299,0.51066 -0.31299,0.87306 0,0.3624 0.10708,0.64656 0.32122,0.86071 0.21415,0.21826 0.51066,0.32533 0.88954,0.32533 0.25944,0 0.48183,-0.0535 0.67126,-0.16472 0.18944,-0.10708 0.32946,-0.26357 0.42006,-0.46536 l -0.58067,-0.11531 c -0.10707,0.1812 -0.2718,0.26768 -0.4983,0.26768 -0.3624,0 -0.56008,-0.18944 -0.58479,-0.57243 h 1.73377 z m -1.18604,-0.77835 c 0.32122,0 0.50242,0.1812 0.5436,0.53949 h -1.08721 c 0.0165,-0.17297 0.0741,-0.30887 0.16885,-0.39947 0.0947,-0.0906 0.21826,-0.14002 0.37476,-0.14002 z m 3.82994,0.1812 c 0.14825,-0.0494 0.26356,-0.1359 0.35004,-0.25532 0.0824,-0.11531 0.12767,-0.25533 0.12767,-0.41183 0,-0.24297 -0.0865,-0.43653 -0.25533,-0.57654 -0.17297,-0.14002 -0.42006,-0.21415 -0.74952,-0.21415 h -1.50726 v 3.16278 h 1.49903 c 0.38299,0 0.66715,-0.0865 0.85659,-0.26768 0.18532,-0.17708 0.28003,-0.40358 0.28003,-0.67539 0,-0.1812 -0.0535,-0.33769 -0.16061,-0.47771 -0.10707,-0.14002 -0.25121,-0.23474 -0.44064,-0.28416 z m -0.61774,-0.95954 c 0.1359,0 0.24298,0.0371 0.31711,0.10708 0.0741,0.07 0.11531,0.16472 0.11531,0.28415 0,0.13178 -0.0412,0.23474 -0.11531,0.30475 -0.0741,0.07 -0.18121,0.10295 -0.32122,0.10295 h -0.74128 v -0.79893 z m -0.74539,2.16618 v -0.87718 h 0.79893 c 0.14826,0 0.26768,0.0412 0.35005,0.11531 0.0824,0.0741 0.12766,0.1812 0.12766,0.32122 0,0.14002 -0.0412,0.25121 -0.11943,0.32534 -0.0824,0.0783 -0.19355,0.11531 -0.33357,0.11531 z m 3.65285,0.56419 c 0.35829,0 0.64656,-0.11119 0.86483,-0.33357 0.21414,-0.21415 0.32534,-0.50242 0.32534,-0.86482 0,-0.35417 -0.10708,-0.64244 -0.31711,-0.86483 -0.21414,-0.21415 -0.50654,-0.32534 -0.86894,-0.32534 -0.3624,0 -0.65479,0.11119 -0.86894,0.32534 -0.22238,0.22239 -0.32946,0.51066 -0.32946,0.86483 0,0.3624 0.10708,0.65479 0.32534,0.86894 0.21415,0.22238 0.50242,0.32945 0.86894,0.32945 z m 0,-0.50653 c -0.35005,0 -0.52301,-0.23062 -0.52301,-0.69186 0,-0.45301 0.17296,-0.68363 0.52713,-0.68363 0.34593,0 0.5189,0.23062 0.5189,0.68363 0,0.22238 -0.0453,0.39534 -0.13591,0.51477 -0.0906,0.11943 -0.21826,0.17709 -0.38711,0.17709 z m 3.0969,-1.87791 c -0.28828,0 -0.52302,0.12355 -0.70422,0.3624 l -0.0247,-0.30063 h -0.60537 v 2.25678 h 0.65891 v -1.32606 c 0.0247,-0.1359 0.0782,-0.24297 0.15649,-0.32122 0.0782,-0.0782 0.17709,-0.11943 0.2924,-0.11943 0.11119,0 0.19767,0.0371 0.26356,0.10708 0.0659,0.0741 0.0988,0.17296 0.0988,0.30062 v 1.35901 h 0.65891 v -1.54021 c 0,-0.23885 -0.0741,-0.42829 -0.21415,-0.56831 -0.14413,-0.14002 -0.33769,-0.21003 -0.58066,-0.21003 z m 3.76816,2.31855 -0.93484,-1.36724 0.89777,-0.88954 h -0.74539 l -0.86894,0.99249 v -1.89849 h -0.65892 v 3.16278 h 0.65892 v -0.72892 l 0.32945,-0.32534 0.60126,1.05426 z"
           id="path15" />
        <path
           d="m 102.26807,108.3913 v -0.51889 h -1.44137 v 0.51889 z m 1.75436,-2.25266 v 3.16279 h 0.67127 v -1.07898 h 0.64656 c 0.35828,0 0.64244,-0.0947 0.84835,-0.28415 0.20179,-0.18532 0.30475,-0.43653 0.30475,-0.74952 0,-0.32122 -0.10296,-0.57655 -0.30063,-0.76598 -0.20179,-0.18944 -0.48595,-0.28416 -0.84835,-0.28416 z m 0.67127,1.54433 v -0.99249 h 0.60538 c 0.16061,0 0.28415,0.0453 0.37064,0.12767 0.0865,0.0865 0.13178,0.21002 0.13178,0.37063 0,0.1565 -0.0453,0.28004 -0.13178,0.36652 -0.0865,0.0865 -0.21003,0.12767 -0.36652,0.12767 z m 3.39753,-0.70421 c -0.64656,0 -1.00485,0.24709 -1.07898,0.73304 l 0.56008,0.0618 c 0.0206,-0.13178 0.0659,-0.22238 0.14002,-0.27592 0.0741,-0.0494 0.18944,-0.0782 0.34593,-0.0782 0.15649,0 0.26768,0.0247 0.32946,0.0741 0.0618,0.0494 0.0947,0.13178 0.0947,0.24298 v 0.0906 c -0.0453,0.0247 -0.10296,0.0453 -0.16885,0.0535 l -0.48595,0.0865 c -0.32122,0.0577 -0.55596,0.14002 -0.69598,0.24709 -0.14002,0.10707 -0.21003,0.26768 -0.21003,0.47359 0,0.21003 0.0741,0.37476 0.22239,0.49831 0.14825,0.12354 0.34593,0.18532 0.59302,0.18532 0.34593,0 0.60538,-0.11531 0.77422,-0.35005 0,0.0247 0.008,0.07 0.0247,0.14002 0.0165,0.0741 0.0247,0.11942 0.0288,0.14002 h 0.54772 v -0.49419 -1.09544 c 0,-0.24298 -0.0824,-0.42418 -0.24709,-0.54772 -0.16473,-0.12355 -0.42418,-0.18532 -0.77422,-0.18532 z m -0.13179,1.97674 c -0.12354,0 -0.22238,-0.0247 -0.28827,-0.0782 -0.0659,-0.0535 -0.0988,-0.13178 -0.0988,-0.23474 0,-0.16884 0.12767,-0.28004 0.38299,-0.33769 l 0.37064,-0.0741 0.14826,-0.0371 v 0.46124 c -0.0988,0.20179 -0.2718,0.30063 -0.51478,0.30063 z m 2.7139,-1.87791 0.0247,-0.18944 v -0.51065 h -0.65067 v 0.51065 l 0.0247,0.18532 -0.52713,-0.0288 v 0.43241 l 0.53536,-0.0247 -0.0329,0.31298 v 0.88542 c 0,0.23062 0.0576,0.39535 0.1812,0.4983 0.12354,0.10296 0.31298,0.15238 0.57243,0.15238 h 0.58067 v -0.52713 h -0.43242 c -0.16884,0 -0.25121,-0.0865 -0.25121,-0.26357 v -0.7454 l -0.0329,-0.3171 0.72069,0.0288 v -0.43241 z m 2.64801,-0.0741 c -0.35828,0 -0.60125,0.1565 -0.72892,0.46536 l -0.0247,-0.42417 h -0.61361 v 2.25678 h 0.65891 v -1.24782 c 0.0412,-0.16885 0.11943,-0.29239 0.23474,-0.36652 0.11531,-0.0741 0.2718,-0.11119 0.46948,-0.11119 h 0.14825 v -0.57244 z m 2.87452,1.19017 c 0,-0.35417 -0.10296,-0.64656 -0.30475,-0.87718 -0.20591,-0.22238 -0.50242,-0.33769 -0.8813,-0.33769 -0.37064,0 -0.66303,0.11119 -0.87306,0.32945 -0.21003,0.22239 -0.31298,0.51066 -0.31298,0.87306 0,0.36241 0.10707,0.64656 0.32122,0.86071 0.21415,0.21826 0.51066,0.32534 0.88953,0.32534 0.25945,0 0.48183,-0.0535 0.67127,-0.16473 0.18944,-0.10707 0.32946,-0.26357 0.42006,-0.46536 l -0.58067,-0.11531 c -0.10707,0.1812 -0.2718,0.26768 -0.4983,0.26768 -0.36241,0 -0.56008,-0.18943 -0.58479,-0.57243 h 1.73377 z m -1.18605,-0.77834 c 0.32122,0 0.50242,0.1812 0.54361,0.53948 h -1.08721 c 0.0165,-0.17296 0.0741,-0.30886 0.16885,-0.39947 0.0947,-0.0906 0.21826,-0.14001 0.37475,-0.14001 z m 2.96923,0.69186 0.83188,-1.0625 h -0.66715 l -0.453,0.64656 -0.44889,-0.64656 h -0.74951 l 0.84011,1.13662 -0.89777,1.12016 h 0.67127 l 0.51478,-0.71245 0.50242,0.71245 h 0.74539 z"
           id="path16" />
        <path
           d="m 102.26807,113.53906 v -0.51889 h -1.44137 v 0.51889 z m 2.74273,0.22651 v -0.0124 l -0.51889,-1.5608 h -0.7001 l 0.88954,2.31443 -0.008,0.0247 c -0.0453,0.11531 -0.0906,0.19356 -0.1359,0.23062 -0.0453,0.0371 -0.11531,0.0535 -0.21415,0.0535 h -0.34593 v 0.4983 h 0.33358 c 0.24709,0 0.44065,-0.0494 0.58478,-0.15237 0.14002,-0.10296 0.25945,-0.28416 0.35829,-0.54772 l 0.91012,-2.42151 h -0.67539 z m 3.80523,-0.42418 c 0,-0.35417 -0.10296,-0.64656 -0.30475,-0.87718 -0.20591,-0.22238 -0.50242,-0.33769 -0.8813,-0.33769 -0.37064,0 -0.66303,0.11119 -0.87306,0.32945 -0.21003,0.22239 -0.31298,0.51066 -0.31298,0.87307 0,0.3624 0.10707,0.64655 0.32122,0.8607 0.21415,0.21827 0.51066,0.32534 0.88953,0.32534 0.25945,0 0.48183,-0.0535 0.67127,-0.16473 0.18944,-0.10707 0.32946,-0.26356 0.42006,-0.46536 l -0.58067,-0.11531 c -0.10707,0.1812 -0.2718,0.26769 -0.4983,0.26769 -0.36241,0 -0.56008,-0.18944 -0.58479,-0.57243 h 1.73377 z m -1.18605,-0.77834 c 0.32122,0 0.50242,0.1812 0.54361,0.53948 h -1.08721 c 0.0165,-0.17296 0.0741,-0.30886 0.16885,-0.39946 0.0947,-0.0906 0.21826,-0.14002 0.37475,-0.14002 z m 2.41328,1.88614 v -3.16279 h -0.65892 v 3.16279 z"
           id="path17" />
        <path
           d="m 102.26807,118.68683 v -0.5189 h -1.44137 v 0.5189 z m 2.37209,-1.79143 v -0.59302 h -0.65891 v 0.59302 z m -0.78246,3.56637 c 0.5189,0 0.78246,-0.24297 0.78246,-0.73715 v -2.38445 h -0.65891 v 2.3968 c 0,0.0906 -0.0206,0.15649 -0.0577,0.19356 -0.0371,0.0412 -0.0988,0.0576 -0.18532,0.0576 h -0.26357 v 0.47359 z m 4.06467,-1.89849 -0.11119,0.42006 -0.11119,-0.42418 -0.33769,-1.21899 h -0.66715 l -0.32534,1.23135 -0.0906,0.38711 -0.10708,-0.38711 -0.3624,-1.23135 h -0.69598 l 0.75775,2.25678 h 0.69186 l 0.33358,-1.12015 0.14002,-0.48595 0.14002,0.48183 0.34593,1.12427 h 0.67127 l 0.75775,-2.25678 h -0.66715 z m 3.6858,-0.0741 c 0,-0.35416 -0.10295,-0.64656 -0.30475,-0.87718 -0.20591,-0.22238 -0.50242,-0.33769 -0.88129,-0.33769 -0.37064,0 -0.66303,0.11119 -0.87306,0.32946 -0.21003,0.22238 -0.31299,0.51065 -0.31299,0.87306 0,0.3624 0.10708,0.64656 0.32122,0.8607 0.21415,0.21827 0.51066,0.32534 0.88954,0.32534 0.25944,0 0.48183,-0.0535 0.67126,-0.16473 0.18944,-0.10707 0.32946,-0.26356 0.42006,-0.46535 l -0.58067,-0.11531 c -0.10707,0.1812 -0.2718,0.26768 -0.4983,0.26768 -0.3624,0 -0.56008,-0.18944 -0.58478,-0.57243 h 1.73376 z m -1.18604,-0.77834 c 0.32122,0 0.50242,0.1812 0.5436,0.53949 h -1.08721 c 0.0165,-0.17297 0.0741,-0.30887 0.16885,-0.39947 0.0947,-0.0906 0.21827,-0.14002 0.37476,-0.14002 z m 2.41327,1.88614 v -3.16278 h -0.65891 v 3.16278 z m 1.65552,0.0906 c 0.33769,0 0.59714,-0.0659 0.77834,-0.19767 0.1812,-0.13179 0.27592,-0.32122 0.27592,-0.56832 0,-0.18943 -0.0618,-0.34181 -0.18532,-0.45712 -0.12355,-0.11119 -0.3171,-0.18943 -0.57243,-0.23885 l -0.37064,-0.0659 c -0.21415,-0.0412 -0.32122,-0.12355 -0.32122,-0.2471 0,-0.16061 0.11943,-0.24297 0.36652,-0.24297 0.25533,0 0.4077,0.10295 0.45712,0.30475 l 0.60538,-0.0577 c -0.10296,-0.44477 -0.45712,-0.66715 -1.06662,-0.66715 -0.31298,0 -0.55184,0.0659 -0.7248,0.19356 -0.17297,0.13178 -0.25533,0.30886 -0.25533,0.53125 0,0.35416 0.21826,0.57243 0.65479,0.65479 l 0.42418,0.0906 c 0.12355,0.0247 0.21415,0.0618 0.26768,0.10296 0.0535,0.0412 0.0824,0.0988 0.0824,0.17296 0,0.1812 -0.1359,0.26769 -0.40359,0.26769 -0.1359,0 -0.24297,-0.0247 -0.3171,-0.0824 -0.0783,-0.0535 -0.1359,-0.14002 -0.16885,-0.26356 l -0.62185,0.0618 c 0.0494,0.23474 0.16885,0.41182 0.35829,0.53125 0.18944,0.11943 0.43241,0.17708 0.73716,0.17708 z m 2.96099,-2.40915 c -0.28004,0 -0.50242,0.11119 -0.67539,0.32946 v -1.17369 h -0.65891 v 3.16278 h 0.65891 v -1.32606 c 0.0247,-0.1359 0.0782,-0.24298 0.15649,-0.32122 0.0782,-0.0782 0.17709,-0.11943 0.2924,-0.11943 0.11119,0 0.19767,0.0371 0.26356,0.10707 0.0659,0.0741 0.0988,0.17297 0.0988,0.30063 v 1.35901 h 0.65891 v -1.54021 c 0,-0.23886 -0.0741,-0.42829 -0.21414,-0.56831 -0.14414,-0.14002 -0.3377,-0.21003 -0.58067,-0.21003 z m 3.94936,2.31855 v -0.60126 h -1.55257 c 0.004,-0.0576 0.0288,-0.10707 0.0783,-0.15649 0.0494,-0.0453 0.1359,-0.10296 0.26768,-0.17708 l 0.30063,-0.17297 c 0.29651,-0.16884 0.51478,-0.34181 0.65068,-0.51889 0.1359,-0.17297 0.20591,-0.37888 0.20591,-0.61362 0,-0.30886 -0.10707,-0.55184 -0.3171,-0.7248 -0.21003,-0.17297 -0.49419,-0.26357 -0.85659,-0.26357 -0.37887,0 -0.6795,0.0988 -0.89365,0.2924 -0.21827,0.19767 -0.32534,0.46947 -0.32534,0.81952 v 0.033 h 0.64244 v -0.0412 c 0,-0.17296 0.0453,-0.30474 0.14002,-0.39534 0.0947,-0.0906 0.23062,-0.1359 0.40359,-0.1359 0.16472,0 0.29239,0.0412 0.38299,0.12354 0.0906,0.0824 0.1359,0.19356 0.1359,0.33769 0,0.11943 -0.0329,0.22239 -0.0988,0.30475 -0.0659,0.0865 -0.17296,0.17709 -0.32534,0.26769 l -0.3624,0.21826 c -0.37064,0.22238 -0.62597,0.43241 -0.7701,0.63832 -0.14826,0.21003 -0.22239,0.46536 -0.22239,0.76599 z m 2.83332,-0.35828 c 0.21415,-0.27592 0.32534,-0.68363 0.32534,-1.22311 0,-0.53537 -0.11119,-0.94307 -0.32534,-1.22723 -0.22238,-0.28004 -0.53948,-0.42006 -0.9513,-0.42006 -0.41594,0 -0.73304,0.14002 -0.95131,0.42006 -0.21826,0.28416 -0.32534,0.69186 -0.32534,1.22723 0,0.53948 0.10708,0.94719 0.32534,1.22311 0.21415,0.28415 0.53125,0.42417 0.95131,0.42417 0.41594,0 0.73304,-0.14002 0.9513,-0.42417 z m -0.9513,-0.1359 c -0.21003,0 -0.3624,-0.0865 -0.46124,-0.25945 -0.0988,-0.17297 -0.14826,-0.44889 -0.14826,-0.82776 0,-0.37476 0.0494,-0.65068 0.14826,-0.82364 0.0988,-0.17297 0.25121,-0.26357 0.46124,-0.26357 0.21003,0 0.36652,0.0906 0.46536,0.26357 0.0988,0.17296 0.14825,0.44888 0.14825,0.82364 0,0.37887 -0.0494,0.65479 -0.14825,0.82776 -0.0988,0.17296 -0.25533,0.25945 -0.46536,0.25945 z m 4.08938,0.1359 c 0.21414,-0.27592 0.32533,-0.68363 0.32533,-1.22311 0,-0.53537 -0.11119,-0.94307 -0.32533,-1.22723 -0.22239,-0.28004 -0.53949,-0.42006 -0.95131,-0.42006 -0.41594,0 -0.73304,0.14002 -0.95131,0.42006 -0.21826,0.28416 -0.32534,0.69186 -0.32534,1.22723 0,0.53948 0.10708,0.94719 0.32534,1.22311 0.21415,0.28415 0.53125,0.42417 0.95131,0.42417 0.41594,0 0.73304,-0.14002 0.95131,-0.42417 z m -0.95131,-0.1359 c -0.21003,0 -0.3624,-0.0865 -0.46124,-0.25945 -0.0988,-0.17297 -0.14826,-0.44889 -0.14826,-0.82776 0,-0.37476 0.0494,-0.65068 0.14826,-0.82364 0.0988,-0.17297 0.25121,-0.26357 0.46124,-0.26357 0.21003,0 0.36652,0.0906 0.46536,0.26357 0.0988,0.17296 0.14825,0.44888 0.14825,0.82364 0,0.37887 -0.0494,0.65479 -0.14825,0.82776 -0.0988,0.17296 -0.25533,0.25945 -0.46536,0.25945 z m 3.97819,-2.67272 h -0.93072 l -1.1984,1.88614 v 0.56007 l 1.5155,-0.0535 v 0.77422 h 0.61362 v -0.77422 l 0.453,0.0535 v -0.53125 l -0.453,0.0535 z m -1.55257,1.92732 0.9266,-1.4702 h 0.0123 v 1.51138 z"
           id="path18" />
      </g>
      <g
         id="text401-0"
         style="font-size:4.11821px;line-height:125%;font-family:'Helvetica Now Micro';-inkscape-font-specification:'Helvetica Now Micro';letter-spacing:0px;fill:#646464;stroke:#ee111a;stroke-width:0;stroke-linecap:square;stroke-miterlimit:4.6;paint-order:markers fill stroke"
         aria-label="[PS Vita]&#10;[PS3]&#10;[RPCS3]&#10;[PS3]&#10;[PS Vita]&#10;[PS3]&#10;[RPCS3]&#10;[PS3]">
        <path
           style="text-align:end;text-anchor:end"
           d="m 205.96369,84.781376 v -0.547722 h -0.67127 v -3.051593 h 0.67127 v -0.547722 h -1.30135 v 4.147037 z m 0.56008,-4.0029 v 3.162785 h 0.67127 V 82.86229 h 0.64655 c 0.35829,0 0.64245,-0.09472 0.84836,-0.284156 0.20179,-0.18532 0.30474,-0.43653 0.30474,-0.749514 0,-0.321221 -0.10295,-0.57655 -0.30063,-0.765987 -0.20179,-0.189438 -0.48594,-0.284157 -0.84835,-0.284157 z m 0.67127,1.544329 v -0.992489 h 0.60537 c 0.16061,0 0.28416,0.0453 0.37064,0.127665 0.0865,0.08648 0.13178,0.210028 0.13178,0.370639 0,0.156492 -0.0453,0.280038 -0.13178,0.36652 -0.0865,0.08648 -0.21003,0.127665 -0.36652,0.127665 z m 3.5952,1.692584 c 0.43241,0 0.7701,-0.0906 1.01308,-0.271802 0.24297,-0.181201 0.36652,-0.432412 0.36652,-0.761869 0,-0.247092 -0.0865,-0.444766 -0.25121,-0.593022 -0.16885,-0.144137 -0.44065,-0.255329 -0.81953,-0.337693 l -0.37887,-0.07825 c -0.18944,-0.03706 -0.31711,-0.08236 -0.38712,-0.140019 -0.07,-0.05354 -0.10295,-0.135901 -0.10295,-0.247093 0,-0.255329 0.19356,-0.387111 0.58067,-0.387111 0.19355,0 0.34593,0.03294 0.453,0.09884 0.10707,0.06589 0.17708,0.172964 0.21415,0.312984 l 0.64656,-0.07413 c -0.12355,-0.555959 -0.56008,-0.835997 -1.30136,-0.835997 -0.41182,0 -0.7248,0.08236 -0.94719,0.247093 -0.22238,0.164728 -0.32945,0.399466 -0.32945,0.695977 0,0.255329 0.0782,0.457121 0.23473,0.605377 0.1565,0.148256 0.40359,0.255329 0.73716,0.32122 l 0.4283,0.08236 c 0.19355,0.04118 0.33357,0.09472 0.41594,0.156492 0.0824,0.06177 0.12354,0.148255 0.12354,0.263565 0,0.140019 -0.0576,0.247093 -0.17296,0.32122 -0.11531,0.07413 -0.28004,0.111192 -0.49419,0.111192 -0.42005,0 -0.65891,-0.16061 -0.7248,-0.490067 l -0.66715,0.07825 c 0.11943,0.617732 0.57243,0.922479 1.36313,0.922479 z m 4.41884,-0.971897 -0.0741,0.312983 -0.0741,-0.312983 -0.68362,-2.265016 h -0.72893 l 1.07486,3.162785 h 0.8154 l 1.05015,-3.162785 h -0.70422 z m 2.43797,-1.803776 v -0.593023 h -0.65891 v 0.593023 z m 0,2.701545 v -2.256779 h -0.65891 v 2.256779 z m 1.55668,-2.223833 0.0247,-0.189438 v -0.510658 h -0.65067 v 0.510658 l 0.0247,0.18532 -0.52714,-0.02883 v 0.432412 l 0.53537,-0.02471 -0.0329,0.312984 v 0.885415 c 0,0.23062 0.0577,0.395348 0.1812,0.498304 0.12354,0.102955 0.31298,0.152373 0.57243,0.152373 h 0.58067 V 83.41413 h -0.43242 c -0.16884,0 -0.25121,-0.08648 -0.25121,-0.263565 v -0.745396 l -0.0329,-0.317102 0.72068,0.02883 v -0.432412 z m 2.33503,-0.09884 c -0.64656,0 -1.00484,0.247093 -1.07897,0.733041 l 0.56007,0.06177 c 0.0206,-0.131782 0.0659,-0.222383 0.14002,-0.27592 0.0741,-0.04942 0.18944,-0.07825 0.34593,-0.07825 0.1565,0 0.26769,0.02471 0.32946,0.07413 0.0618,0.04942 0.0947,0.131783 0.0947,0.242975 v 0.0906 c -0.0453,0.02471 -0.10296,0.0453 -0.16885,0.05354 l -0.48595,0.08648 c -0.32122,0.05765 -0.55595,0.140019 -0.69597,0.247093 -0.14002,0.107073 -0.21003,0.267684 -0.21003,0.473594 0,0.210029 0.0741,0.374757 0.22238,0.498303 0.14826,0.123547 0.34593,0.18532 0.59302,0.18532 0.34593,0 0.60538,-0.11531 0.77423,-0.350048 0,0.02471 0.008,0.07001 0.0247,0.140019 0.0165,0.07413 0.0247,0.119428 0.0288,0.140019 h 0.54773 v -0.494185 -1.095444 c 0,-0.242974 -0.0824,-0.424175 -0.2471,-0.547722 -0.16473,-0.123546 -0.42417,-0.185319 -0.77422,-0.185319 z m -0.13178,1.976741 c -0.12355,0 -0.22239,-0.02471 -0.28828,-0.07825 -0.0659,-0.05354 -0.0988,-0.131783 -0.0988,-0.234738 0,-0.168847 0.12767,-0.280039 0.383,-0.337693 l 0.37064,-0.07413 0.14825,-0.03706 v 0.461239 c -0.0988,0.201793 -0.2718,0.30063 -0.51477,0.30063 z m 2.97746,1.186044 v -4.147037 h -1.30547 v 0.547722 h 0.67539 v 3.051593 h -0.67539 v 0.547722 z"
           id="path19" />
        <path
           style="text-align:end;text-anchor:end"
           d="m 213.32705,89.929138 v -0.547722 h -0.67127 v -3.051593 h 0.67127 v -0.547722 h -1.30135 v 4.147037 z m 0.56008,-4.0029 v 3.162786 h 0.67127 v -1.078971 h 0.64655 c 0.35829,0 0.64245,-0.09472 0.84836,-0.284157 0.20179,-0.185319 0.30474,-0.43653 0.30474,-0.749514 0,-0.32122 -0.10295,-0.576549 -0.30063,-0.765987 -0.20179,-0.189438 -0.48594,-0.284157 -0.84835,-0.284157 z m 0.67127,1.544329 v -0.992488 h 0.60537 c 0.16061,0 0.28416,0.0453 0.37064,0.127664 0.0865,0.08648 0.13178,0.210029 0.13178,0.370639 0,0.156492 -0.0453,0.280038 -0.13178,0.366521 -0.0865,0.08648 -0.21003,0.127664 -0.36652,0.127664 z m 3.5952,1.692584 c 0.43241,0 0.7701,-0.0906 1.01307,-0.271801 0.24298,-0.181202 0.36653,-0.432413 0.36653,-0.761869 0,-0.247093 -0.0865,-0.444767 -0.25122,-0.593023 -0.16884,-0.144137 -0.44064,-0.255329 -0.81952,-0.337693 l -0.37887,-0.07825 c -0.18944,-0.03706 -0.31711,-0.08236 -0.38712,-0.140019 -0.07,-0.05354 -0.10295,-0.135901 -0.10295,-0.247092 0,-0.255329 0.19355,-0.387112 0.58067,-0.387112 0.19355,0 0.34593,0.03295 0.453,0.09884 0.10707,0.06589 0.17708,0.172965 0.21415,0.312984 l 0.64656,-0.07413 c -0.12355,-0.555958 -0.56008,-0.835997 -1.30136,-0.835997 -0.41182,0 -0.7248,0.08236 -0.94719,0.247093 -0.22238,0.164728 -0.32945,0.399466 -0.32945,0.695977 0,0.25533 0.0782,0.457122 0.23473,0.605377 0.1565,0.148256 0.40359,0.255329 0.73716,0.321221 l 0.4283,0.08236 c 0.19355,0.04118 0.33357,0.09472 0.41594,0.156492 0.0824,0.06177 0.12354,0.148255 0.12354,0.263565 0,0.140019 -0.0576,0.247093 -0.17296,0.321221 -0.11531,0.07413 -0.28004,0.111191 -0.49419,0.111191 -0.42005,0 -0.65891,-0.16061 -0.7248,-0.490067 l -0.66715,0.07825 c 0.11943,0.617732 0.57243,0.922479 1.36313,0.922479 z m 3.17925,-0.01235 c 0.37888,0 0.67951,-0.08648 0.91013,-0.263566 0.23062,-0.177083 0.34593,-0.424175 0.34593,-0.741277 0,-0.407703 -0.19768,-0.658914 -0.59302,-0.753633 v -0.01235 c 0.32122,-0.11531 0.48594,-0.337694 0.48594,-0.66715 0,-0.263566 -0.10707,-0.473595 -0.32122,-0.630087 -0.21414,-0.148255 -0.48594,-0.226501 -0.81952,-0.226501 -0.34593,0 -0.62597,0.08236 -0.83188,0.247092 -0.21003,0.164729 -0.33769,0.395349 -0.38299,0.700096 l 0.6342,0.06177 c 0.0412,-0.304747 0.23062,-0.457121 0.5642,-0.457121 0.15649,0 0.28415,0.03706 0.37475,0.102955 0.0906,0.07001 0.13591,0.164729 0.13591,0.288275 0,0.123546 -0.0453,0.218265 -0.13179,0.284156 -0.0865,0.06589 -0.21003,0.09884 -0.37475,0.09884 h -0.27181 v 0.481831 h 0.29652 c 0.35004,0 0.52713,0.148256 0.52713,0.444767 0,0.148255 -0.0494,0.267683 -0.14414,0.350047 -0.0947,0.08648 -0.23062,0.127665 -0.40359,0.127665 -0.37063,0 -0.57243,-0.189438 -0.60537,-0.568313 l -0.67127,0.05354 c 0.0288,0.350048 0.15237,0.617731 0.37064,0.803051 0.21826,0.185319 0.51889,0.27592 0.906,0.27592 z m 3.05159,0.778341 v -4.147037 h -1.30547 v 0.547722 h 0.67539 v 3.051593 h -0.67539 v 0.547722 z"
           id="path20" />
        <path
           style="text-align:end;text-anchor:end"
           d="m 206.59378,95.076901 v -0.547722 h -0.67127 v -3.051594 h 0.67127 v -0.547722 h -1.30136 v 4.147038 z m 3.02276,-1.762594 c -0.0576,-0.329457 -0.24297,-0.531249 -0.55184,-0.597141 0.45301,-0.148255 0.68363,-0.424175 0.68363,-0.831878 0,-0.255329 -0.0824,-0.453003 -0.2471,-0.59714 -0.16473,-0.140019 -0.39123,-0.214147 -0.68774,-0.214147 h -1.65964 v 3.162785 h 0.66715 v -1.227227 h 0.68363 c 0.16884,0 0.29239,0.03706 0.36652,0.111192 0.0741,0.07413 0.12354,0.205911 0.15649,0.395348 l 0.10707,0.720687 h 0.64656 z M 207.821,92.482428 v -0.881296 h 0.71657 c 0.34593,0 0.5189,0.135901 0.5189,0.399466 0,0.156492 -0.0535,0.27592 -0.16061,0.358284 -0.10708,0.08236 -0.26357,0.123546 -0.46124,0.123546 z m 2.59447,-1.408427 v 3.162785 h 0.67127 v -1.078971 h 0.64656 c 0.35829,0 0.64244,-0.09472 0.84835,-0.284157 0.2018,-0.185319 0.30475,-0.43653 0.30475,-0.749514 0,-0.32122 -0.10295,-0.576549 -0.30063,-0.765987 -0.20179,-0.189437 -0.48595,-0.284156 -0.84835,-0.284156 z m 0.67127,1.544328 v -0.992488 h 0.60538 c 0.16061,0 0.28416,0.0453 0.37064,0.127664 0.0865,0.08648 0.13178,0.210029 0.13178,0.370639 0,0.156492 -0.0453,0.280039 -0.13178,0.366521 -0.0865,0.08648 -0.21003,0.127664 -0.36652,0.127664 z m 3.8217,1.688466 c 0.37064,0 0.68775,-0.09472 0.94307,-0.288274 0.25533,-0.193556 0.4283,-0.465358 0.51478,-0.811288 l -0.63832,-0.07413 c -0.10708,0.403584 -0.37476,0.601258 -0.80305,0.601258 -0.26769,0 -0.47772,-0.09472 -0.63009,-0.288274 -0.15237,-0.189438 -0.2265,-0.457122 -0.2265,-0.803051 0,-0.341812 0.0741,-0.605377 0.22238,-0.790697 0.14826,-0.185319 0.36241,-0.280038 0.63833,-0.280038 0.39123,0 0.65067,0.181201 0.77422,0.535367 l 0.65891,-0.07413 c -0.0906,-0.329457 -0.25944,-0.584786 -0.50654,-0.761869 -0.24709,-0.172965 -0.56007,-0.263566 -0.93483,-0.263566 -0.46124,0 -0.83188,0.148256 -1.11192,0.444767 -0.28827,0.296511 -0.43241,0.700096 -0.43241,1.206636 0,0.506539 0.14002,0.906006 0.42418,1.198399 0.28003,0.300629 0.65067,0.448884 1.10779,0.448884 z m 3.24515,0.0041 c 0.43242,0 0.77011,-0.0906 1.01308,-0.271802 0.24298,-0.181201 0.36653,-0.432412 0.36653,-0.761869 0,-0.247093 -0.0865,-0.444767 -0.25122,-0.593022 -0.16884,-0.144138 -0.44064,-0.255329 -0.81952,-0.337693 l -0.37887,-0.07825 c -0.18944,-0.03706 -0.31711,-0.08236 -0.38712,-0.14002 -0.07,-0.05354 -0.10295,-0.1359 -0.10295,-0.247092 0,-0.255329 0.19355,-0.387112 0.58067,-0.387112 0.19355,0 0.34593,0.03295 0.453,0.09884 0.10707,0.06589 0.17708,0.172965 0.21415,0.312984 l 0.64655,-0.07413 c -0.12354,-0.555958 -0.56007,-0.835996 -1.30135,-0.835996 -0.41182,0 -0.7248,0.08236 -0.94719,0.247092 -0.22238,0.164729 -0.32945,0.399467 -0.32945,0.695978 0,0.255329 0.0782,0.457121 0.23473,0.605377 0.1565,0.148255 0.40359,0.255329 0.73716,0.32122 l 0.4283,0.08236 c 0.19355,0.04118 0.33357,0.09472 0.41594,0.156492 0.0824,0.06177 0.12354,0.148256 0.12354,0.263566 0,0.140019 -0.0576,0.247092 -0.17296,0.32122 -0.11531,0.07413 -0.28004,0.111192 -0.49419,0.111192 -0.42006,0 -0.65891,-0.160611 -0.7248,-0.490067 l -0.66715,0.07825 c 0.11943,0.617731 0.57243,0.922479 1.36312,0.922479 z m 3.17926,-0.01235 c 0.37888,0 0.67951,-0.08648 0.91013,-0.263565 0.23062,-0.177083 0.34593,-0.424176 0.34593,-0.741278 0,-0.407703 -0.19768,-0.658914 -0.59302,-0.753633 v -0.01235 c 0.32122,-0.11531 0.48594,-0.337693 0.48594,-0.66715 0,-0.263566 -0.10707,-0.473594 -0.32122,-0.630086 -0.21414,-0.148256 -0.48594,-0.226502 -0.81952,-0.226502 -0.34593,0 -0.62597,0.08236 -0.83188,0.247093 -0.21003,0.164728 -0.33769,0.395348 -0.38299,0.700095 l 0.6342,0.06177 c 0.0412,-0.304748 0.23062,-0.457122 0.5642,-0.457122 0.15649,0 0.28415,0.03706 0.37475,0.102956 0.0906,0.07001 0.13591,0.164728 0.13591,0.288274 0,0.123547 -0.0453,0.218265 -0.13179,0.284157 -0.0865,0.06589 -0.21003,0.09884 -0.37475,0.09884 h -0.27181 v 0.48183 h 0.29651 c 0.35005,0 0.52714,0.148256 0.52714,0.444767 0,0.148256 -0.0494,0.267684 -0.14414,0.350048 -0.0947,0.08648 -0.23062,0.127664 -0.40359,0.127664 -0.37064,0 -0.57243,-0.189437 -0.60537,-0.568313 l -0.67127,0.05354 c 0.0288,0.350048 0.15237,0.617732 0.37064,0.803051 0.21826,0.185319 0.51889,0.27592 0.906,0.27592 z m 3.05159,0.778342 v -4.147038 h -1.30547 v 0.547722 h 0.67539 v 3.051594 h -0.67539 v 0.547722 z"
           id="path21" />
        <path
           style="text-align:end;text-anchor:end"
           d="m 213.32705,100.22466 v -0.547719 h -0.67127 v -3.051593 h 0.67127 v -0.547722 h -1.30135 v 4.147034 z m 0.56008,-4.002897 v 3.162785 h 0.67127 v -1.078971 h 0.64655 c 0.35829,0 0.64245,-0.09472 0.84836,-0.284156 0.20179,-0.18532 0.30474,-0.436531 0.30474,-0.749514 0,-0.321221 -0.10295,-0.57655 -0.30063,-0.765987 -0.20179,-0.189438 -0.48594,-0.284157 -0.84835,-0.284157 z m 0.67127,1.544329 v -0.992489 h 0.60537 c 0.16061,0 0.28416,0.0453 0.37064,0.127665 0.0865,0.08648 0.13178,0.210028 0.13178,0.370639 0,0.156492 -0.0453,0.280038 -0.13178,0.36652 -0.0865,0.08648 -0.21003,0.127665 -0.36652,0.127665 z m 3.5952,1.692584 c 0.43241,0 0.7701,-0.0906 1.01307,-0.271802 0.24298,-0.181201 0.36653,-0.432412 0.36653,-0.761869 0,-0.247092 -0.0865,-0.444766 -0.25122,-0.593022 -0.16884,-0.144137 -0.44064,-0.255329 -0.81952,-0.337693 l -0.37887,-0.07825 c -0.18944,-0.03706 -0.31711,-0.08236 -0.38712,-0.140019 -0.07,-0.05354 -0.10295,-0.135901 -0.10295,-0.247093 0,-0.255329 0.19355,-0.387112 0.58067,-0.387112 0.19355,0 0.34593,0.03295 0.453,0.09884 0.10707,0.06589 0.17708,0.172965 0.21415,0.312984 l 0.64656,-0.07413 c -0.12355,-0.555959 -0.56008,-0.835997 -1.30136,-0.835997 -0.41182,0 -0.7248,0.08236 -0.94719,0.247093 -0.22238,0.164728 -0.32945,0.399466 -0.32945,0.695977 0,0.255329 0.0782,0.457121 0.23473,0.605377 0.1565,0.148255 0.40359,0.255329 0.73716,0.32122 l 0.4283,0.08237 c 0.19355,0.04118 0.33357,0.09472 0.41594,0.156491 0.0824,0.06177 0.12354,0.148256 0.12354,0.263566 0,0.140019 -0.0576,0.247093 -0.17296,0.32122 -0.11531,0.07413 -0.28004,0.111192 -0.49419,0.111192 -0.42005,0 -0.65891,-0.16061 -0.7248,-0.490067 l -0.66715,0.07825 c 0.11943,0.617731 0.57243,0.922479 1.36313,0.922479 z m 3.17925,-0.01235 c 0.37888,0 0.67951,-0.08648 0.91013,-0.263565 0.23062,-0.177083 0.34593,-0.424176 0.34593,-0.741278 0,-0.407703 -0.19768,-0.658913 -0.59302,-0.753632 v -0.01235 c 0.32122,-0.11531 0.48594,-0.337693 0.48594,-0.66715 0,-0.263565 -0.10707,-0.473594 -0.32122,-0.630086 -0.21414,-0.148256 -0.48594,-0.226502 -0.81952,-0.226502 -0.34593,0 -0.62597,0.08236 -0.83188,0.247093 -0.21003,0.164728 -0.33769,0.395348 -0.38299,0.700096 l 0.6342,0.06177 c 0.0412,-0.304748 0.23062,-0.457121 0.5642,-0.457121 0.15649,0 0.28415,0.03706 0.37475,0.102955 0.0906,0.07001 0.13591,0.164728 0.13591,0.288275 0,0.123546 -0.0453,0.218265 -0.13179,0.284156 -0.0865,0.06589 -0.21003,0.09884 -0.37475,0.09884 h -0.27181 v 0.481831 h 0.29652 c 0.35004,0 0.52713,0.148255 0.52713,0.444766 0,0.148256 -0.0494,0.267684 -0.14414,0.350048 -0.0947,0.08648 -0.23062,0.127665 -0.40359,0.127665 -0.37063,0 -0.57243,-0.189438 -0.60537,-0.568313 l -0.67127,0.05354 c 0.0288,0.350048 0.15237,0.617732 0.37064,0.803051 0.21826,0.18532 0.51889,0.27592 0.906,0.27592 z m 3.05159,0.778339 v -4.147034 h -1.30547 v 0.547722 h 0.67539 v 3.051593 h -0.67539 v 0.547719 z"
           id="path22" />
        <path
           style="text-align:end;text-anchor:end"
           d="m 205.96369,105.37243 v -0.54773 h -0.67127 v -3.05159 h 0.67127 v -0.54772 h -1.30135 v 4.14704 z m 0.56008,-4.0029 v 3.16278 h 0.67127 v -1.07897 h 0.64655 c 0.35829,0 0.64245,-0.0947 0.84836,-0.28416 0.20179,-0.18532 0.30474,-0.43653 0.30474,-0.74951 0,-0.32122 -0.10295,-0.57655 -0.30063,-0.76599 -0.20179,-0.18944 -0.48594,-0.28415 -0.84835,-0.28415 z m 0.67127,1.54432 v -0.99248 h 0.60537 c 0.16061,0 0.28416,0.0453 0.37064,0.12766 0.0865,0.0865 0.13178,0.21003 0.13178,0.37064 0,0.15649 -0.0453,0.28004 -0.13178,0.36652 -0.0865,0.0865 -0.21003,0.12766 -0.36652,0.12766 z m 3.5952,1.69259 c 0.43241,0 0.7701,-0.0906 1.01308,-0.2718 0.24297,-0.1812 0.36652,-0.43242 0.36652,-0.76187 0,-0.24709 -0.0865,-0.44477 -0.25121,-0.59302 -0.16885,-0.14414 -0.44065,-0.25533 -0.81953,-0.3377 l -0.37887,-0.0782 c -0.18944,-0.0371 -0.31711,-0.0824 -0.38712,-0.14002 -0.07,-0.0535 -0.10295,-0.1359 -0.10295,-0.2471 0,-0.25532 0.19356,-0.38711 0.58067,-0.38711 0.19355,0 0.34593,0.0329 0.453,0.0988 0.10707,0.0659 0.17708,0.17296 0.21415,0.31298 l 0.64656,-0.0741 c -0.12355,-0.55596 -0.56008,-0.836 -1.30136,-0.836 -0.41182,0 -0.7248,0.0824 -0.94719,0.24709 -0.22238,0.16473 -0.32945,0.39947 -0.32945,0.69598 0,0.25533 0.0782,0.45712 0.23473,0.60538 0.1565,0.14825 0.40359,0.25533 0.73716,0.32122 l 0.4283,0.0824 c 0.19355,0.0412 0.33357,0.0947 0.41594,0.15649 0.0824,0.0618 0.12354,0.14826 0.12354,0.26357 0,0.14002 -0.0576,0.24709 -0.17296,0.32122 -0.11531,0.0741 -0.28004,0.11119 -0.49419,0.11119 -0.42005,0 -0.65891,-0.16061 -0.7248,-0.49007 l -0.66715,0.0782 c 0.11943,0.61773 0.57243,0.92248 1.36313,0.92248 z m 4.41884,-0.9719 -0.0741,0.31298 -0.0741,-0.31298 -0.68362,-2.26501 h -0.72893 l 1.07486,3.16278 h 0.8154 l 1.05015,-3.16278 h -0.70422 z m 2.43797,-1.80378 v -0.59302 h -0.65891 v 0.59302 z m 0,2.70155 v -2.25678 h -0.65891 v 2.25678 z m 1.55668,-2.22383 0.0247,-0.18944 v -0.51066 h -0.65067 v 0.51066 l 0.0247,0.18532 -0.52714,-0.0288 v 0.43241 l 0.53537,-0.0247 -0.0329,0.31299 v 0.88541 c 0,0.23062 0.0577,0.39535 0.1812,0.49831 0.12354,0.10295 0.31298,0.15237 0.57243,0.15237 h 0.58067 v -0.52713 h -0.43242 c -0.16884,0 -0.25121,-0.0865 -0.25121,-0.26357 v -0.74539 l -0.0329,-0.3171 0.72068,0.0288 v -0.43241 z m 2.33503,-0.0988 c -0.64656,0 -1.00484,0.24709 -1.07897,0.73304 l 0.56007,0.0618 c 0.0206,-0.13178 0.0659,-0.22238 0.14002,-0.27592 0.0741,-0.0494 0.18944,-0.0782 0.34593,-0.0782 0.1565,0 0.26769,0.0247 0.32946,0.0741 0.0618,0.0494 0.0947,0.13178 0.0947,0.24297 v 0.0906 c -0.0453,0.0247 -0.10296,0.0453 -0.16885,0.0535 l -0.48595,0.0865 c -0.32122,0.0577 -0.55595,0.14002 -0.69597,0.24709 -0.14002,0.10708 -0.21003,0.26769 -0.21003,0.4736 0,0.21003 0.0741,0.37475 0.22238,0.4983 0.14826,0.12355 0.34593,0.18532 0.59302,0.18532 0.34593,0 0.60538,-0.11531 0.77423,-0.35005 0,0.0247 0.008,0.07 0.0247,0.14002 0.0165,0.0741 0.0247,0.11943 0.0288,0.14002 h 0.54773 v -0.49418 -1.09545 c 0,-0.24297 -0.0824,-0.42417 -0.2471,-0.54772 -0.16473,-0.12355 -0.42417,-0.18532 -0.77422,-0.18532 z m -0.13178,1.97674 c -0.12355,0 -0.22239,-0.0247 -0.28828,-0.0782 -0.0659,-0.0535 -0.0988,-0.13178 -0.0988,-0.23473 0,-0.16885 0.12767,-0.28004 0.383,-0.3377 l 0.37064,-0.0741 0.14825,-0.0371 v 0.46124 c -0.0988,0.20179 -0.2718,0.30063 -0.51477,0.30063 z m 2.97746,1.18605 v -4.14704 h -1.30547 v 0.54772 h 0.67539 v 3.05159 h -0.67539 v 0.54773 z"
           id="path23" />
        <path
           style="text-align:end;text-anchor:end"
           d="m 213.32705,110.52019 v -0.54772 h -0.67127 v -3.0516 h 0.67127 v -0.54772 h -1.30135 v 4.14704 z m 0.56008,-4.0029 v 3.16278 h 0.67127 v -1.07897 h 0.64655 c 0.35829,0 0.64245,-0.0947 0.84836,-0.28415 0.20179,-0.18532 0.30474,-0.43653 0.30474,-0.74952 0,-0.32122 -0.10295,-0.57655 -0.30063,-0.76599 -0.20179,-0.18943 -0.48594,-0.28415 -0.84835,-0.28415 z m 0.67127,1.54433 v -0.99249 h 0.60537 c 0.16061,0 0.28416,0.0453 0.37064,0.12766 0.0865,0.0865 0.13178,0.21003 0.13178,0.37064 0,0.15649 -0.0453,0.28004 -0.13178,0.36652 -0.0865,0.0865 -0.21003,0.12767 -0.36652,0.12767 z m 3.5952,1.69258 c 0.43241,0 0.7701,-0.0906 1.01307,-0.2718 0.24298,-0.1812 0.36653,-0.43241 0.36653,-0.76187 0,-0.24709 -0.0865,-0.44477 -0.25122,-0.59302 -0.16884,-0.14414 -0.44064,-0.25533 -0.81952,-0.3377 l -0.37887,-0.0782 c -0.18944,-0.0371 -0.31711,-0.0824 -0.38712,-0.14002 -0.07,-0.0535 -0.10295,-0.1359 -0.10295,-0.24709 0,-0.25533 0.19355,-0.38711 0.58067,-0.38711 0.19355,0 0.34593,0.0329 0.453,0.0988 0.10707,0.0659 0.17708,0.17297 0.21415,0.31299 l 0.64656,-0.0741 c -0.12355,-0.55596 -0.56008,-0.836 -1.30136,-0.836 -0.41182,0 -0.7248,0.0824 -0.94719,0.24709 -0.22238,0.16473 -0.32945,0.39947 -0.32945,0.69598 0,0.25533 0.0782,0.45712 0.23473,0.60538 0.1565,0.14825 0.40359,0.25533 0.73716,0.32122 l 0.4283,0.0824 c 0.19355,0.0412 0.33357,0.0947 0.41594,0.1565 0.0824,0.0618 0.12354,0.14825 0.12354,0.26356 0,0.14002 -0.0576,0.24709 -0.17296,0.32122 -0.11531,0.0741 -0.28004,0.11119 -0.49419,0.11119 -0.42005,0 -0.65891,-0.16061 -0.7248,-0.49006 l -0.66715,0.0782 c 0.11943,0.61773 0.57243,0.92248 1.36313,0.92248 z m 3.17925,-0.0123 c 0.37888,0 0.67951,-0.0865 0.91013,-0.26357 0.23062,-0.17708 0.34593,-0.42418 0.34593,-0.74128 0,-0.4077 -0.19768,-0.65891 -0.59302,-0.75363 v -0.0123 c 0.32122,-0.11531 0.48594,-0.3377 0.48594,-0.66715 0,-0.26357 -0.10707,-0.4736 -0.32122,-0.63009 -0.21414,-0.14826 -0.48594,-0.2265 -0.81952,-0.2265 -0.34593,0 -0.62597,0.0824 -0.83188,0.24709 -0.21003,0.16473 -0.33769,0.39535 -0.38299,0.7001 l 0.6342,0.0618 c 0.0412,-0.30475 0.23062,-0.45712 0.5642,-0.45712 0.15649,0 0.28415,0.0371 0.37475,0.10295 0.0906,0.07 0.13591,0.16473 0.13591,0.28828 0,0.12354 -0.0453,0.21826 -0.13179,0.28415 -0.0865,0.0659 -0.21003,0.0988 -0.37475,0.0988 h -0.27181 v 0.48183 h 0.29652 c 0.35004,0 0.52713,0.14826 0.52713,0.44477 0,0.14825 -0.0494,0.26768 -0.14414,0.35005 -0.0947,0.0865 -0.23062,0.12766 -0.40359,0.12766 -0.37063,0 -0.57243,-0.18944 -0.60537,-0.56831 l -0.67127,0.0535 c 0.0288,0.35005 0.15237,0.61774 0.37064,0.80306 0.21826,0.18532 0.51889,0.27592 0.906,0.27592 z m 3.05159,0.77834 v -4.14704 h -1.30547 v 0.54772 h 0.67539 v 3.0516 h -0.67539 v 0.54772 z"
           id="path24" />
        <path
           style="text-align:end;text-anchor:end"
           d="m 206.59378,115.66795 v -0.54772 h -0.67127 v -3.0516 h 0.67127 v -0.54772 h -1.30136 v 4.14704 z m 3.02276,-1.76259 c -0.0576,-0.32946 -0.24297,-0.53125 -0.55184,-0.59714 0.45301,-0.14826 0.68363,-0.42418 0.68363,-0.83188 0,-0.25533 -0.0824,-0.45301 -0.2471,-0.59714 -0.16473,-0.14002 -0.39123,-0.21415 -0.68774,-0.21415 h -1.65964 v 3.16279 h 0.66715 v -1.22723 h 0.68363 c 0.16884,0 0.29239,0.0371 0.36652,0.11119 0.0741,0.0741 0.12354,0.20591 0.15649,0.39535 l 0.10707,0.72069 h 0.64656 z m -1.79554,-0.83188 v -0.8813 h 0.71657 c 0.34593,0 0.5189,0.1359 0.5189,0.39947 0,0.15649 -0.0535,0.27592 -0.16061,0.35828 -0.10708,0.0824 -0.26357,0.12355 -0.46124,0.12355 z m 2.59447,-1.40843 v 3.16279 h 0.67127 v -1.07898 h 0.64656 c 0.35829,0 0.64244,-0.0947 0.84835,-0.28415 0.2018,-0.18532 0.30475,-0.43653 0.30475,-0.74952 0,-0.32122 -0.10295,-0.57655 -0.30063,-0.76598 -0.20179,-0.18944 -0.48595,-0.28416 -0.84835,-0.28416 z m 0.67127,1.54433 v -0.99249 h 0.60538 c 0.16061,0 0.28416,0.0453 0.37064,0.12766 0.0865,0.0865 0.13178,0.21003 0.13178,0.37064 0,0.1565 -0.0453,0.28004 -0.13178,0.36652 -0.0865,0.0865 -0.21003,0.12767 -0.36652,0.12767 z m 3.8217,1.68846 c 0.37064,0 0.68775,-0.0947 0.94307,-0.28827 0.25533,-0.19356 0.4283,-0.46536 0.51478,-0.81129 l -0.63832,-0.0741 c -0.10708,0.40359 -0.37476,0.60126 -0.80305,0.60126 -0.26769,0 -0.47772,-0.0947 -0.63009,-0.28827 -0.15237,-0.18944 -0.2265,-0.45712 -0.2265,-0.80305 0,-0.34181 0.0741,-0.60538 0.22238,-0.7907 0.14826,-0.18532 0.36241,-0.28004 0.63833,-0.28004 0.39123,0 0.65067,0.1812 0.77422,0.53537 l 0.65891,-0.0741 c -0.0906,-0.32945 -0.25944,-0.58478 -0.50654,-0.76187 -0.24709,-0.17296 -0.56007,-0.26356 -0.93483,-0.26356 -0.46124,0 -0.83188,0.14825 -1.11192,0.44477 -0.28827,0.29651 -0.43241,0.70009 -0.43241,1.20663 0,0.50654 0.14002,0.90601 0.42418,1.1984 0.28003,0.30063 0.65067,0.44888 1.10779,0.44888 z m 3.24515,0.004 c 0.43242,0 0.77011,-0.0906 1.01308,-0.2718 0.24298,-0.1812 0.36653,-0.43241 0.36653,-0.76187 0,-0.24709 -0.0865,-0.44476 -0.25122,-0.59302 -0.16884,-0.14414 -0.44064,-0.25533 -0.81952,-0.33769 l -0.37887,-0.0782 c -0.18944,-0.0371 -0.31711,-0.0824 -0.38712,-0.14002 -0.07,-0.0535 -0.10295,-0.1359 -0.10295,-0.24709 0,-0.25533 0.19355,-0.38711 0.58067,-0.38711 0.19355,0 0.34593,0.0329 0.453,0.0988 0.10707,0.0659 0.17708,0.17297 0.21415,0.31299 l 0.64655,-0.0741 c -0.12354,-0.55596 -0.56007,-0.836 -1.30135,-0.836 -0.41182,0 -0.7248,0.0824 -0.94719,0.2471 -0.22238,0.16472 -0.32945,0.39946 -0.32945,0.69597 0,0.25533 0.0782,0.45713 0.23473,0.60538 0.1565,0.14826 0.40359,0.25533 0.73716,0.32122 l 0.4283,0.0824 c 0.19355,0.0412 0.33357,0.0947 0.41594,0.15649 0.0824,0.0618 0.12354,0.14825 0.12354,0.26356 0,0.14002 -0.0576,0.2471 -0.17296,0.32122 -0.11531,0.0741 -0.28004,0.11119 -0.49419,0.11119 -0.42006,0 -0.65891,-0.16061 -0.7248,-0.49006 l -0.66715,0.0782 c 0.11943,0.61774 0.57243,0.92248 1.36312,0.92248 z m 3.17926,-0.0123 c 0.37888,0 0.67951,-0.0865 0.91013,-0.26357 0.23062,-0.17708 0.34593,-0.42417 0.34593,-0.74127 0,-0.40771 -0.19768,-0.65892 -0.59302,-0.75364 v -0.0123 c 0.32122,-0.11531 0.48594,-0.3377 0.48594,-0.66715 0,-0.26357 -0.10707,-0.4736 -0.32122,-0.63009 -0.21414,-0.14825 -0.48594,-0.2265 -0.81952,-0.2265 -0.34593,0 -0.62597,0.0824 -0.83188,0.24709 -0.21003,0.16473 -0.33769,0.39535 -0.38299,0.7001 l 0.6342,0.0618 c 0.0412,-0.30475 0.23062,-0.45712 0.5642,-0.45712 0.15649,0 0.28415,0.0371 0.37475,0.10296 0.0906,0.07 0.13591,0.16472 0.13591,0.28827 0,0.12355 -0.0453,0.21827 -0.13179,0.28416 -0.0865,0.0659 -0.21003,0.0988 -0.37475,0.0988 h -0.27181 v 0.48183 h 0.29651 c 0.35005,0 0.52714,0.14826 0.52714,0.44477 0,0.14826 -0.0494,0.26768 -0.14414,0.35005 -0.0947,0.0865 -0.23062,0.12766 -0.40359,0.12766 -0.37064,0 -0.57243,-0.18943 -0.60537,-0.56831 l -0.67127,0.0535 c 0.0288,0.35005 0.15237,0.61773 0.37064,0.80305 0.21826,0.18532 0.51889,0.27592 0.906,0.27592 z m 3.05159,0.77834 v -4.14704 h -1.30547 v 0.54772 h 0.67539 v 3.0516 h -0.67539 v 0.54772 z"
           id="path25" />
        <path
           style="text-align:end;text-anchor:end"
           d="m 213.32705,120.81571 v -0.54772 h -0.67127 v -3.05159 h 0.67127 v -0.54773 h -1.30135 v 4.14704 z m 0.56008,-4.0029 v 3.16279 h 0.67127 v -1.07897 h 0.64655 c 0.35829,0 0.64245,-0.0947 0.84836,-0.28416 0.20179,-0.18532 0.30474,-0.43653 0.30474,-0.74951 0,-0.32122 -0.10295,-0.57655 -0.30063,-0.76599 -0.20179,-0.18944 -0.48594,-0.28416 -0.84835,-0.28416 z m 0.67127,1.54433 v -0.99249 h 0.60537 c 0.16061,0 0.28416,0.0453 0.37064,0.12767 0.0865,0.0865 0.13178,0.21003 0.13178,0.37064 0,0.15649 -0.0453,0.28003 -0.13178,0.36652 -0.0865,0.0865 -0.21003,0.12766 -0.36652,0.12766 z m 3.5952,1.69259 c 0.43241,0 0.7701,-0.0906 1.01307,-0.27181 0.24298,-0.1812 0.36653,-0.43241 0.36653,-0.76187 0,-0.24709 -0.0865,-0.44476 -0.25122,-0.59302 -0.16884,-0.14414 -0.44064,-0.25533 -0.81952,-0.33769 l -0.37887,-0.0782 c -0.18944,-0.0371 -0.31711,-0.0824 -0.38712,-0.14002 -0.07,-0.0535 -0.10295,-0.1359 -0.10295,-0.24709 0,-0.25533 0.19355,-0.38711 0.58067,-0.38711 0.19355,0 0.34593,0.0329 0.453,0.0988 0.10707,0.0659 0.17708,0.17296 0.21415,0.31298 l 0.64656,-0.0741 c -0.12355,-0.55596 -0.56008,-0.83599 -1.30136,-0.83599 -0.41182,0 -0.7248,0.0824 -0.94719,0.24709 -0.22238,0.16473 -0.32945,0.39947 -0.32945,0.69598 0,0.25533 0.0782,0.45712 0.23473,0.60537 0.1565,0.14826 0.40359,0.25533 0.73716,0.32122 l 0.4283,0.0824 c 0.19355,0.0412 0.33357,0.0947 0.41594,0.15649 0.0824,0.0618 0.12354,0.14826 0.12354,0.26357 0,0.14001 -0.0576,0.24709 -0.17296,0.32122 -0.11531,0.0741 -0.28004,0.11119 -0.49419,0.11119 -0.42005,0 -0.65891,-0.16061 -0.7248,-0.49007 l -0.66715,0.0782 c 0.11943,0.61773 0.57243,0.92248 1.36313,0.92248 z m 3.17925,-0.0124 c 0.37888,0 0.67951,-0.0865 0.91013,-0.26356 0.23062,-0.17709 0.34593,-0.42418 0.34593,-0.74128 0,-0.40771 -0.19768,-0.65892 -0.59302,-0.75364 v -0.0123 c 0.32122,-0.11531 0.48594,-0.33769 0.48594,-0.66715 0,-0.26357 -0.10707,-0.47359 -0.32122,-0.63009 -0.21414,-0.14825 -0.48594,-0.2265 -0.81952,-0.2265 -0.34593,0 -0.62597,0.0824 -0.83188,0.2471 -0.21003,0.16472 -0.33769,0.39534 -0.38299,0.70009 l 0.6342,0.0618 c 0.0412,-0.30474 0.23062,-0.45712 0.5642,-0.45712 0.15649,0 0.28415,0.0371 0.37475,0.10296 0.0906,0.07 0.13591,0.16473 0.13591,0.28827 0,0.12355 -0.0453,0.21827 -0.13179,0.28416 -0.0865,0.0659 -0.21003,0.0988 -0.37475,0.0988 h -0.27181 v 0.48183 h 0.29652 c 0.35004,0 0.52713,0.14825 0.52713,0.44476 0,0.14826 -0.0494,0.26769 -0.14414,0.35005 -0.0947,0.0865 -0.23062,0.12767 -0.40359,0.12767 -0.37063,0 -0.57243,-0.18944 -0.60537,-0.56832 l -0.67127,0.0535 c 0.0288,0.35005 0.15237,0.61773 0.37064,0.80305 0.21826,0.18532 0.51889,0.27592 0.906,0.27592 z m 3.05159,0.77834 v -4.14704 h -1.30547 v 0.54773 h 0.67539 v 3.05159 h -0.67539 v 0.54772 z"
           id="path26" />
      </g>
    </g>
  </g>
</svg>
