<?xml version="1.0" encoding="UTF-8" standalone="no"?>
<!-- Created with Inkscape (http://www.inkscape.org/) -->

<svg
   width="547.95508"
   height="271.91898"
   viewBox="0 0 144.97978 71.945229"
   version="1.1"
   id="svg1"
   inkscape:version="1.4.2 (ebf0e940d0, 2025-05-08)"
   sodipodi:docname="lobby_card_pulse.svg"
   xml:space="preserve"
   xmlns:inkscape="http://www.inkscape.org/namespaces/inkscape"
   xmlns:sodipodi="http://sodipodi.sourceforge.net/DTD/sodipodi-0.dtd"
   xmlns="http://www.w3.org/2000/svg"
   xmlns:svg="http://www.w3.org/2000/svg"><sodipodi:namedview
     id="namedview1"
     pagecolor="#808080"
     bordercolor="#d82222"
     borderopacity="1"
     inkscape:showpageshadow="0"
     inkscape:pageopacity="0"
     inkscape:pagecheckerboard="0"
     inkscape:deskcolor="#505050"
     inkscape:document-units="px"
     inkscape:zoom="1.5307867"
     inkscape:cx="278.28828"
     inkscape:cy="148.61639"
     inkscape:window-width="1900"
     inkscape:window-height="995"
     inkscape:window-x="10"
     inkscape:window-y="75"
     inkscape:window-maximized="1"
     inkscape:current-layer="layer1"
     showgrid="false" /><defs
     id="defs1" /><g
     inkscape:label="Layer 1"
     inkscape:groupmode="layer"
     id="layer1"
     transform="translate(-92.8687,-62.970832)"><path
       id="use43-6-5"
       style="fill:#ffffff;stroke:#ee111a;stroke-width:0;stroke-linecap:square;stroke-miterlimit:4.6;paint-order:markers fill stroke"
       d="m 92.8687,62.970832 v 14.933455 14.933456 14.932937 27.14538 H 237.84848 V 107.77068 92.837743 77.904287 67.886811 h -6.99139 l -5.52782,-4.915979 z"
       sodipodi:nodetypes="ccccccccccccc" /><rect
       style="fill:#f6f6f6;fill-opacity:1;stroke:#ee111a;stroke-width:0;stroke-linecap:square;stroke-miterlimit:4.6;paint-order:markers fill stroke"
       id="rect418-2"
       width="133.51324"
       height="47.351952"
       x="95.514534"
       y="85.032463" /><g
       inkscape:label="Layer 1"
       id="layer1-3"
       transform="matrix(0.50320502,0,0,0.50320502,96.321286,67.18925)"
       style="opacity:0.05;fill:#219398"><path
         id="path9604"
         style="fill:#219398;fill-opacity:1;stroke:#d81324;stroke-width:0"
         d="M 138.60498,0.50022786 123.93145,0.84904378 56.91849,84.340072 C 40.495145,100.95257 16.074126,93.356306 4.9392334,78.655147 2.2312586,74.795189 1.2907951,70.566886 0.57412516,66.292078 0.72171806,70.504373 0.86223187,74.715772 2.2417236,79.09233 9.7170468,103.82924 48.750934,123.01197 70.32439,100.77163 L 138.60498,16.119946 Z M 118.60258,0.67437744 79.260278,0.67489421 68.391691,14.298869 H 81.556779 L 42.826843,62.979102 C 32.538395,77.876144 1.1670197,81.663967 1.2025106,56.436865 -5.3538451,83.820047 35.615643,102.25867 55.991931,79.052539 Z M 138.60498,22.603271 75.862553,100.97937 C 58.79795,126.06617 19.864679,110.40129 9.0392415,93.555013 7.0268625,90.083618 4.6435285,86.612548 3.3475993,83.141178 4.2602521,86.817367 6.4455643,90.493231 8.1256022,94.169446 22.091782,126.12475 77.972865,136.0548 92.476009,115.57847 L 124.61617,76.060474 v 13.861169 l 13.98881,-17.290417 z" /><path
         id="path9602"
         style="fill:#219398;fill-opacity:1;stroke:#d81324;stroke-width:0"
         d="M 58.125651,0.72553711 C 29.198055,0.87655701 -0.8589556,33.346339 12.115023,70.982747 c 2.531083,0.759799 5.062251,1.609224 7.593335,1.800924 C 7.9648097,53.858297 11.171452,19.369384 42.231531,4.6358927 10.417113,20.976091 11.446213,55.961474 23.503475,72.525289 c 1.85311,0.219065 4.36062,-0.909885 6.80682,-1.613338 C 1.7960579,34.336252 35.890328,1.0882292 58.125651,0.72553711 Z M 37.045801,5.8642415 C 8.001674,16.411846 2.0565087,50.140374 1.8288289,53.786898 1.2896132,62.425341 4.1049757,66.204659 8.5555501,68.82474 1.4711156,31.249081 22.411954,14.693699 37.045801,5.8642415 Z" /><path
         style="fill:#219398;fill-opacity:1;stroke:#d81324;stroke-width:0"
         d="m 58.287528,0.7207789 c -0.05311,4.8952e-4 -0.108186,0.004895 -0.161789,0.004895 0.403714,-0.002448 0.807698,-2.9372e-4 1.210874,0.0122382 -0.346537,-0.0146859 -0.69633,-0.0195812 -1.049134,-0.0146859 z"
         id="path9598" /></g><path
       id="barcode_bar1-1"
       style="fill:#f6f6f6;fill-opacity:1;stroke-width:0.36923"
       d="m 231.57704,132.08453 h 3.78327 v -0.49845 h -3.78327 z m 0,-0.99689 h 3.78327 v -0.49843 h -3.78327 z m 0,-1.49532 h 3.78327 v -0.49844 h -3.78327 z m 0,-1.49533 h 3.78327 v -0.99689 h -3.78327 z m 0,-1.99376 h 3.78327 v -0.99689 h -3.78327 z m 0,-1.99378 h 3.78327 v -0.49843 h -3.78327 z m 0,-1.99376 h 3.78327 v -0.49843 h -3.78327 z m 0,-0.99689 h 3.78327 v -0.99687 h -3.78327 z m 0,-1.49532 h 3.78327 v -1.49532 h -3.78327 z m 0,-1.99376 h 3.78327 v -0.99689 h -3.78327 z m 0,-1.99376 h 3.78327 v -0.49845 h -3.78327 z m 0,-1.49532 h 3.78327 v -0.99689 h -3.78327 z m 0,-1.99378 h 3.78327 v -0.49844 h -3.78327 z m 0,-1.49533 h 3.78327 v -0.99687 h -3.78327 z m 0,-1.49532 h 3.78327 v -0.49844 h -3.78327 z m 0,-0.99687 h 3.78327 v -0.49846 h -3.78327 z m 0,-0.99689 h 3.78327 v -1.49533 h -3.78327 z m 0,-2.49222 h 3.78327 v -0.49843 h -3.78327 z m 0,-0.99687 h 3.78327 v -0.49845 h -3.78327 z m 0,-1.49532 h 3.78327 v -0.49845 h -3.78327 z m 0,-1.99378 h 3.78327 v -0.498435 h -3.78327 z m 0,-2.492195 h 3.78327 v -0.49846 h -3.78327 z m 0,-0.99689 h 3.78327 v -0.49844 h -3.78327 z m 0,-2.49222 h 3.78327 v -0.49843 h -3.78327 z m 0,-0.99687 h 3.78327 v -0.49845 h -3.78327 z m 0,-0.99689 h 3.78327 v -0.49843 h -3.78327 z m 0,-2.49221 h 3.78327 v -0.49844 h -3.78327 z m 0,-2.4922 h 3.78327 v -0.49845 h -3.78327 z m 0,-0.99689 h 3.78327 v -0.49843 h -3.78327 z m 0,-0.99688 h 3.78327 v -0.49844 h -3.78327 z" /></g></svg>
