<?xml version="1.0" encoding="UTF-8" standalone="no"?>
<!-- Created with Inkscape (http://www.inkscape.org/) -->

<svg
   width="547.95508"
   height="271.91898"
   viewBox="0 0 144.97978 71.945229"
   version="1.1"
   id="svg1"
   inkscape:version="1.4.4 (dcaf3e7d9e, 2026-05-05)"
   sodipodi:docname="lobby_card_2048.svg"
   xml:space="preserve"
   xmlns:inkscape="http://www.inkscape.org/namespaces/inkscape"
   xmlns:sodipodi="http://sodipodi.sourceforge.net/DTD/sodipodi-0.dtd"
   xmlns="http://www.w3.org/2000/svg"
   xmlns:svg="http://www.w3.org/2000/svg"><sodipodi:namedview
     id="namedview1"
     pagecolor="#808080"
     bordercolor="#d82222"
     borderopacity="1"
     inkscape:showpageshadow="0"
     inkscape:pageopacity="0"
     inkscape:pagecheckerboard="0"
     inkscape:deskcolor="#505050"
     inkscape:document-units="px"
     inkscape:zoom="1.1373381"
     inkscape:cx="279.60023"
     inkscape:cy="112.10387"
     inkscape:window-width="1900"
     inkscape:window-height="995"
     inkscape:window-x="10"
     inkscape:window-y="75"
     inkscape:window-maximized="1"
     inkscape:current-layer="layer1"
     showgrid="false" /><defs
     id="defs1"><rect
       x="-14.627761"
       y="340.74078"
       width="350.2058"
       height="101.53387"
       id="rect846" /><rect
       x="-12.906848"
       y="288.25293"
       width="437.11191"
       height="160.90537"
       id="rect840" /><rect
       x="67.976065"
       y="358.81037"
       width="371.71722"
       height="111.85935"
       id="rect834" /><rect
       x="32.247036"
       y="334.63905"
       width="278.66307"
       height="62.060333"
       id="rect532" /><rect
       x="55.367552"
       y="330.98844"
       width="302.39202"
       height="65.710941"
       id="rect474" /><rect
       x="55.975987"
       y="323.68723"
       width="357.15113"
       height="66.319376"
       id="rect468" /></defs><g
     inkscape:label="Layer 1"
     inkscape:groupmode="layer"
     id="layer1"
     transform="translate(-92.8687,-62.970832)"><path
       id="use43-6-5"
       style="fill:#ffffff;stroke:#ee111a;stroke-width:0;stroke-linecap:square;stroke-miterlimit:4.6;paint-order:markers fill stroke"
       d="m 92.8687,62.970832 v 14.933455 14.933456 14.932937 27.14538 H 237.84848 V 107.77068 92.837743 77.904287 67.886811 h -6.99139 l -5.52782,-4.915979 z"
       sodipodi:nodetypes="ccccccccccccc" /><rect
       style="fill:#f6f6f6;fill-opacity:1;stroke:#ee111a;stroke-width:0;stroke-linecap:square;stroke-miterlimit:4.6;paint-order:markers fill stroke"
       id="rect418-2"
       width="133.51331"
       height="47.352009"
       x="95.514534"
       y="85.032463" /><path
       id="barcode_bar1"
       style="fill:#f6f6f6;stroke-width:0.311546;fill-opacity:1"
       d="m 231.57716,132.38441 h 3.78315 v -0.49843 h -3.78315 z m 0,-0.99689 h 3.78315 v -0.49843 h -3.78315 z m 0,-1.49532 h 3.78315 v -0.49844 h -3.78315 z m 0,-1.49533 h 3.78315 V 127.4 h -3.78315 z m 0,-1.99376 h 3.78315 v -0.99688 h -3.78315 z m 0,-1.99376 h 3.78315 v -0.49845 h -3.78315 z m 0,-1.99377 h 3.78315 v -0.49844 h -3.78315 z m 0,-0.99687 h 3.78315 v -0.99689 h -3.78315 z m 0,-1.49533 h 3.78315 v -1.49532 h -3.78315 z m 0,-1.99378 h 3.78315 v -0.99687 h -3.78315 z m 0,-1.99376 h 3.78315 v -0.49843 h -3.78315 z m 0,-1.49532 h 3.78315 v -0.99689 h -3.78315 z m 0,-1.99376 h 3.78315 v -0.49846 h -3.78315 z m 0,-1.49533 h 3.78315 v -0.99689 h -3.78315 z m 0,-1.49532 h 3.78315 v -0.49846 h -3.78315 z m 0,-0.99689 h 3.78315 v -0.49843 h -3.78315 z m 0,-0.99688 h 3.78315 v -1.49533 h -3.78315 z m 0,-2.4922 h 3.78315 v -0.49845 h -3.78315 z m 0,-0.99689 h 3.78315 v -0.49843 h -3.78315 z m 0,-0.99689 h 3.78315 v -0.49843 h -3.78315 z m 0,-2.49219 h 3.78315 v -0.498461 h -3.78315 z m 0,-1.993781 h 3.78315 v -0.49844 h -3.78315 z m 0,-1.495328 h 3.78315 v -0.498435 h -3.78315 z m 0,-0.99687 h 3.78315 v -0.498455 h -3.78315 z m 0,-2.492215 h 3.78315 v -1.495324 h -3.78315 z m 0,-1.99376 h 3.78315 v -0.498454 h -3.78315 z m 0,-1.495325 h 3.78315 v -0.996889 h -3.78315 z m 0,-1.993778 h 3.78315 v -0.996871 h -3.78315 z m 0,-1.495325 h 3.78315 v -0.498436 h -3.78315 z m 0,-0.996871 h 3.78315 v -0.498454 h -3.78315 z" /><path
       id="path826"
       style="opacity:0.05;fill:#000080;stroke-width:0.20271"
       d="m 129.74965,65.906604 a 33.176998,33.176998 0 0 0 -33.176782,33.176789 33.176998,33.176998 0 0 0 33.176782,33.177297 33.176998,33.176998 0 0 0 33.1773,-33.177297 33.176998,33.176998 0 0 0 -8.1964,-21.829679 c -0.4563,0.58687 -3.25617,4.186109 -6.22442,7.915799 2.98931,4.03285 4.6056,8.9187 4.6116,13.93868 1.7e-4,12.953217 -10.50065,23.454037 -23.45386,23.453867 -12.95302,-1.2e-4 -23.45352,-10.50085 -23.45335,-23.453867 1.2e-4,-12.95282 10.50054,-23.453229 23.45335,-23.453349 4.96299,0.006 9.79622,1.58566 13.80433,4.512389 0.13553,-0.10715 0.26687,-0.21251 0.39946,-0.31833 1.47018,-1.1896 6.99801,-5.952089 6.99801,-5.952089 l 0.21807,-0.21807 a 33.176998,33.176998 0 0 0 -21.33409,-7.77214 z m 0,0.50023 h 0.001 c 0.72988,7.1e-4 1.4575,0.0263 2.18178,0.0754 6.81046,0.46238 13.32319,3.04963 18.60868,7.42021 l -0.42735,0.38034 c -5.0317,-4.13725 -11.18549,-6.6356 -17.63718,-7.19129 -0.90377,-0.0778 -1.8133,-0.11802 -2.72645,-0.11885 -17.73423,1.6e-4 -32.111052,14.376439 -32.111212,32.110699 -1.3e-4,17.734437 14.376772,32.111567 32.111212,32.111727 17.73446,-1.6e-4 32.11135,-14.37729 32.11122,-32.111727 -0.007,-7.5172 -2.80473,-14.94285 -7.62486,-20.710879 l 0.37466,-0.43305 c 4.94219,5.879859 7.80806,13.462539 7.81606,21.143929 -9e-5,18.046827 -14.63022,32.676977 -32.67708,32.677067 -18.04684,-9e-5 -32.676982,-14.63024 -32.677072,-32.677067 9e-5,-18.0467 14.629952,-32.676189 32.676562,-32.676559 z m -0.67851,2.68769 0.92036,0.0527 1.10381,2.48874 1.36167,-2.34715 0.92036,0.0532 -2.00298,3.43339 -0.70022,-0.0403 z m -1.52394,0.16382 c 0.20536,0.0172 0.38546,0.0979 0.54054,0.24287 0.21132,0.19277 0.33403,0.43713 0.36793,0.73329 l 0.27854,2.43344 -0.82011,0.0935 -0.12815,-1.12086 -2.16008,0.24753 -0.0935,-0.82011 2.15956,-0.24753 -0.0563,-0.49196 c -0.0203,-0.1777 -0.0898,-0.26005 -0.20826,-0.24649 l -2.32389,0.26613 c -0.11391,0.013 -0.16038,0.10859 -0.14004,0.28629 l 0.27854,2.43292 -0.82011,0.0935 -0.27853,-2.43293 c -0.0339,-0.29616 0.0278,-0.56183 0.18552,-0.79685 0.16229,-0.23553 0.38948,-0.37021 0.68109,-0.40359 l 2.32389,-0.26562 c 0.074,-0.008 0.14497,-0.009 0.21342,-0.004 z m 6.4239,0.21962 0.81442,0.13281 -0.56999,3.49642 -0.81442,-0.1328 z m 1.53117,0.18707 3.87729,1.05213 -0.21601,0.79633 -1.54047,-0.41806 -0.71159,2.62258 -0.79685,-0.21601 0.7121,-2.62257 -1.54048,-0.41807 z m -13.18627,0.45165 h 5.1e-4 c 0.21655,-0.0168 0.41732,0.0434 0.60255,0.18139 0.22737,0.16611 0.38732,0.40321 0.48007,0.71055 0.0928,0.30733 0.0908,0.59263 -0.007,0.85679 -0.10407,0.29009 -0.30735,0.48115 -0.61029,0.57257 l -0.30335,0.0915 1.33067,0.81287 -1.08003,0.32556 -2.26705,-1.39216 2.03502,-0.61443 c 0.14489,-0.0437 0.18236,-0.18175 0.11214,-0.41445 -0.0702,-0.2327 -0.17809,-0.32742 -0.32298,-0.2837 l -2.44998,0.73949 0.78548,2.60139 -0.79065,0.23875 -1.02319,-3.39205 3.2861,-0.99166 c 0.0756,-0.0228 0.1496,-0.0367 0.22169,-0.0424 z m 17.92604,0.87178 0.74931,0.34727 -0.45992,0.99218 c -0.0733,0.15812 -0.058,0.26134 0.046,0.30954 l 2.12235,0.98341 c 0.10403,0.0482 0.19231,-0.007 0.26561,-0.16485 l 0.45992,-0.99219 0.74931,0.34727 -0.45992,0.99219 c -0.12535,0.27046 -0.31266,0.46156 -0.56172,0.5736 -0.26732,0.11878 -0.53417,0.1167 -0.80047,-0.007 l -0.68058,-0.31523 -0.57257,1.23558 -0.74879,-0.34726 0.57257,-1.23559 -0.69298,-0.32091 c -0.26631,-0.12341 -0.43825,-0.32479 -0.51625,-0.60358 -0.0797,-0.26438 -0.0571,-0.53155 0.0682,-0.80202 z m -22.29839,0.56069 0.36742,0.73897 -2.45153,1.21957 c -0.19709,0.098 -0.25164,0.23529 -0.16381,0.41186 l 0.57929,1.16427 c 0.0878,0.17656 0.23027,0.21586 0.42737,0.11782 l 1.71204,-0.85163 -0.23875,-0.48059 -1.00407,0.4992 -0.36742,-0.73898 1.74304,-0.86713 0.9741,1.95854 -2.45153,1.21956 c -0.28743,0.14297 -0.57869,0.16993 -0.87384,0.0811 -0.2972,-0.0929 -0.51746,-0.28307 -0.66043,-0.5705 l -0.57877,-1.16427 c -0.14297,-0.28744 -0.161,-0.57558 -0.0537,-0.86455 0.1052,-0.29307 0.30168,-0.51073 0.58911,-0.65371 z m -3.4308,3.33261 0.47491,0.68368 -2.55953,1.77819 -0.47491,-0.68368 z m 36.44532,0.25167 c -2.15078,1.76659 -4.28034,3.683059 -6.43061,5.453929 -1.76259,1.4516 -3.53887,2.80738 -5.35471,3.88606 l -2.98328,-0.0977 -3.81424,3.76566 1.17409,4.10724 0.92811,-0.81494 c 0.13587,1.71723 0.84389,2.51121 2.5771,2.67426 l -0.81597,1.07487 4.3031,1.02681 3.6189,-3.61838 v -3.42305 c 2.91776,-4.16468 6.12322,-7.89865 9.29141,-11.687659 l -0.56172,-1.70222 z m -40.26059,0.86403 2.26912,2.720239 -0.63356,0.52865 -2.26963,-2.720239 z m -1.1684,0.93327 0.59169,0.57568 -1.11259,1.144109 1.94872,1.89446 -0.57568,0.5917 -1.9482,-1.89394 -1.11259,1.14411 -0.5917,-0.57516 z m 20.13572,0.004 c -3.548,-1e-5 -6.89854,0.8377 -9.87226,2.319239 2.8771,4.99258 6.20305,10.92211 12.15171,10.70942 l -0.59531,-2.16731 4.47001,-4.41265 3.74499,-0.25941 c 1.01695,-0.73512 1.9627,-1.44916 2.86494,-2.14561 -3.73629,-2.630909 -8.19436,-4.043149 -12.76408,-4.043679 z m -23.49314,3.606499 2.90008,2.03398 -0.47387,0.67593 -3.175,0.36949 1.9544,1.37097 -0.47387,0.67541 -2.9006,-2.03398 0.47387,-0.67593 3.15847,-0.38137 -1.93787,-1.35909 z m 37.93206,3.38946 c 0.38148,0.0705 0.5525,0.30928 0.6258,0.62631 -0.61489,2.21178 -2.30965,4.06342 -4.01164,5.91282 -1.48147,-0.47601 -2.0649,-1.51353 -2.57401,-2.59726 1.62674,-1.69938 3.47238,-3.16471 5.95985,-3.94187 z m 10.76109,0.20773 c 0.0671,0.003 0.13423,0.0136 0.20153,0.0295 0.28359,0.0716 0.49199,0.2377 0.62529,0.49919 l 1.387,2.72129 -0.73536,0.37517 -1.387,-2.72128 c -0.0521,-0.10214 -0.15794,-0.11276 -0.31729,-0.0315 -0.15972,0.0812 -0.21281,0.17329 -0.16071,0.27544 l 1.00872,1.97921 c 0.1333,0.26149 0.14586,0.52837 0.0372,0.79995 -0.10055,0.25716 -0.28374,0.45321 -0.54932,0.58859 -0.26558,0.13538 -0.53699,0.16833 -0.81442,0.0987 -0.27743,-0.0696 -0.4827,-0.23511 -0.61599,-0.49661 l -1.38699,-2.72128 0.73535,-0.37517 1.387,2.72128 c 0.0521,0.10215 0.15794,0.11275 0.31729,0.0315 0.15526,-0.0791 0.20662,-0.16967 0.15452,-0.27181 l -1.00873,-1.97973 c -0.1333,-0.2615 -0.14586,-0.52785 -0.0372,-0.79943 0.10672,-0.25516 0.29304,-0.45063 0.55863,-0.58601 0.19918,-0.10154 0.39927,-0.14731 0.60048,-0.13695 z m -50.80103,0.66043 c 0.15341,0.007 0.30554,0.047 0.45682,0.11937 l 2.20968,1.05627 -0.35605,0.74517 -1.01802,-0.48679 -0.93741,1.96112 -0.74518,-0.35605 0.93793,-1.96112 -0.447,-0.21342 c -0.16137,-0.0771 -0.26793,-0.0621 -0.31936,0.0455 l -1.00873,2.10995 c -0.0495,0.10344 0.007,0.19363 0.16795,0.27078 l 2.20969,1.05679 -0.35605,0.74466 -2.20969,-1.05627 c -0.26894,-0.12858 -0.46085,-0.32237 -0.57619,-0.58084 -0.11336,-0.26261 -0.10696,-0.52637 0.0196,-0.79117 l 1.00872,-2.10995 c 0.12858,-0.26894 0.32999,-0.43958 0.60358,-0.51211 0.0689,-0.0192 0.1372,-0.0319 0.20568,-0.0382 0.0514,-0.005 0.10285,-0.006 0.15399,-0.004 z m 43.6268,1.39836 c -1.17795,1.49302 -2.10866,2.70494 -2.40554,3.17655 l -0.12454,3.63751 -4.24108,4.24108 -2.14716,-0.57309 c -0.29092,6.796407 7.35626,10.001827 10.71356,12.368757 1.50248,-2.99033 2.35334,-6.36428 2.35333,-9.938927 -4.6e-4,-4.63159 -1.45121,-9.14681 -4.14857,-12.91188 z m -37.11919,1.63866 c -0.47957,0.81048 -0.91065,1.65238 -1.28571,2.52491 3.47199,1.34959 12.6732,6.04028 23.27972,1.86604 l -0.25373,-0.92501 c -8.34882,2.89264 -17.77025,-1.15777 -21.74028,-3.46594 z m 45.11456,1.20768 c 0.1421,0.003 0.27912,0.0291 0.41186,0.0801 0.29578,0.10719 0.48852,0.30785 0.57722,0.60203 l 0.75034,2.48977 1.10691,-0.33383 0.23823,0.79065 -3.39204,1.02268 -0.98909,-3.27991 c -0.0887,-0.29418 -0.0394,-0.56777 0.1478,-0.82062 0.16922,-0.23306 0.405,-0.3949 0.70797,-0.48627 0.15148,-0.0457 0.29869,-0.0672 0.4408,-0.0646 z m 0.0723,0.81856 c -0.0668,-0.011 -0.15804,0.001 -0.2744,0.0362 -0.23708,0.0715 -0.33877,0.16438 -0.30437,0.27854 l 0.75085,2.48977 0.70487,-0.21291 -0.75086,-2.48925 c -0.0172,-0.0571 -0.0593,-0.0913 -0.12609,-0.10232 z m -21.60642,3.22254 -1.08831,0.9555 -0.0501,-0.18191 c -10.22716,7.857477 -17.44067,9.002317 -24.86515,10.617437 0.24108,0.96967 0.54808,1.91271 0.91209,2.82722 14.19357,-4.05404 20.08643,-8.849547 25.32042,-13.703547 -0.20448,-0.23275 -0.32558,-0.447 -0.22893,-0.5147 z m -33.06465,0.13539 c 0.0622,-0.001 0.12597,0.004 0.19172,0.0134 0.32648,0.0494 0.56241,0.20766 0.70745,0.47542 0.22005,-0.25893 0.5116,-0.36078 0.87436,-0.30592 0.26301,0.0398 0.47273,0.15504 0.62942,0.34571 0.1714,0.21609 0.2337,0.47817 0.18707,0.78652 l -0.2713,1.79575 c -0.0466,0.30835 -0.18423,0.54034 -0.41186,0.69608 -0.20607,0.13578 -0.44031,0.18396 -0.70332,0.14418 -0.36276,-0.0549 -0.61136,-0.23627 -0.74569,-0.54415 -0.21773,0.21289 -0.49,0.29432 -0.81649,0.24494 -0.263,-0.0398 -0.47272,-0.15504 -0.62942,-0.34571 -0.172092,-0.21156 -0.234732,-0.47145 -0.188102,-0.7798 l 0.254252,-1.68 c 0.0466,-0.30835 0.18336,-0.53816 0.41031,-0.68936 0.15455,-0.10186 0.32502,-0.154 0.5116,-0.1571 z m 57.77424,0.39843 0.14108,0.81338 -3.49023,0.6072 -0.14159,-0.81339 z m -57.70603,0.42839 c -0.10282,0.007 -0.16078,0.0547 -0.17415,0.14315 l -0.25425,1.68 c -0.0171,0.11336 0.0629,0.18357 0.23978,0.21032 0.17685,0.0268 0.2738,-0.0163 0.29094,-0.12971 l 0.25425,-1.68051 c 0.0178,-0.1179 -0.0619,-0.18978 -0.23875,-0.21653 -0.0442,-0.007 -0.0835,-0.009 -0.11782,-0.007 z m 1.34927,0.1416 c -0.10282,0.007 -0.16078,0.0547 -0.17415,0.14314 l -0.27182,1.79576 c -0.0178,0.1179 0.0619,0.19029 0.23875,0.21704 0.17685,0.0267 0.27414,-0.019 0.29197,-0.13694 l 0.27182,-1.79576 c 0.0178,-0.1179 -0.0619,-0.1903 -0.23875,-0.21704 -0.0442,-0.007 -0.0836,-0.009 -0.11782,-0.006 z m 32.63574,0.0512 c -10.41668,12.411737 -11.27803,18.453147 -13.6307,25.488877 0.91298,0.36141 1.85432,0.66587 2.82205,0.90485 1.84398,-7.19516 1.83978,-13.19405 10.72493,-24.945237 l -0.46509,-0.12403 0.95602,-1.25987 c -0.0673,0.0822 -0.22304,0.0404 -0.40721,-0.0646 z m 24.03366,1.11983 0.0527,0.83044 -1.3596,0.0858 0.13384,2.1146 1.35909,-0.0858 0.0522,0.82372 -3.5357,0.22324 -0.0522,-0.82372 1.35237,-0.0853 -0.13332,-2.1146 -1.35238,0.0853 -0.0527,-0.83044 z m -22.75777,0.69143 c -3.25694,10.062557 -0.54654,16.694457 1.87379,23.492617 0.89124,-0.37665 1.74936,-0.81432 2.57659,-1.29966 -3.10116,-6.45401 -5.76317,-13.88262 -3.45096,-21.926307 z m -33.86512,1.42782 10e-4,0.57102 0.71572,-0.002 0.002,0.83199 -0.7152,0.002 0.005,2.318717 -0.80512,-0.005 -2.026752,-2.025187 -0.003,-1.11415 2.001942,-0.005 -0.002,-0.57102 z m -0.82269,1.40508 -1.21078,0.003 1.21388,1.276927 z m 54.11349,0.99322 0.82114,0.0847 -0.31213,3.038057 c -0.0117,0.11402 0.0712,0.18013 0.24908,0.19843 0.17336,0.0178 0.2658,-0.0301 0.2775,-0.14417 l 0.22738,-2.2102 c 0.03,-0.29197 0.16439,-0.52235 0.40308,-0.69144 0.22815,-0.156327 0.4905,-0.219627 0.78703,-0.189127 0.29653,0.0305 0.5407,0.145687 0.73225,0.345197 0.19923,0.21412 0.28373,0.46716 0.25373,0.75912 l -0.31212,3.03858 -0.82166,-0.0848 0.31265,-3.03806 c 0.0117,-0.11405 -0.0712,-0.18065 -0.24908,-0.19895 -0.17792,-0.0183 -0.27304,0.0296 -0.28474,0.14366 l -0.22738,2.21072 c -0.03,0.29196 -0.16439,0.52234 -0.40307,0.69143 -0.22406,0.16137 -0.48431,0.22687 -0.78083,0.19637 -0.29654,-0.0305 -0.54225,-0.15057 -0.73743,-0.35967 -0.19523,-0.2091 -0.27753,-0.45941 -0.24753,-0.75138 z m -53.39053,1.820557 c 0.22479,0.009 0.42966,0.0851 0.61443,0.22789 0.24114,0.18658 0.38514,0.43852 0.43253,0.75603 l 0.1695,1.13636 c 0.0474,0.31752 -0.0168,0.60288 -0.19224,0.85628 -0.18001,0.25408 -0.42869,0.40477 -0.74621,0.45217 l -1.28571,0.19224 c -0.3175,0.0474 -0.5974,-0.0244 -0.83922,-0.21549 -0.24636,-0.19044 -0.39289,-0.44472 -0.44028,-0.76223 L 99.994318,103.205 c -0.0474,-0.31751 0.0193,-0.60105 0.199992,-0.85059 0.17548,-0.2534 0.42198,-0.40425 0.73949,-0.45165 l 1.28622,-0.19172 c 0.0794,-0.0114 0.15659,-0.0164 0.23152,-0.0134 z m -0.10956,0.82992 -1.28623,0.19172 c -0.19504,0.0291 -0.27676,0.15062 -0.24494,0.3638 l 0.17001,1.13585 c 0.0325,0.21769 0.14603,0.31229 0.34107,0.28319 l 1.28571,-0.19172 c 0.19504,-0.0291 0.27641,-0.1528 0.24391,-0.37052 l -0.1695,-1.13636 c -0.0318,-0.21317 -0.14499,-0.30506 -0.34003,-0.27596 z m 52.97247,1.73426 3.41633,0.93793 -0.21859,0.79634 -2.86443,1.41748 2.30167,0.632 -0.21859,0.79634 -3.41633,-0.93793 0.21859,-0.79633 2.84479,-1.42317 -2.28203,-0.62632 z m -51.33433,1.19528 1.04542,3.41375 -0.39946,0.1297 c -1.1216,0.36264 -1.86077,-0.0392 -2.21795,-1.20561 l -0.27596,-0.90123 c -0.0349,-0.114 -0.138,-0.14491 -0.30902,-0.0925 -0.16663,0.051 -0.23283,0.13351 -0.19792,0.24753 l 0.75344,2.46032 -0.7891,0.24133 -0.75344,-2.4598 c -0.0859,-0.28065 -0.0518,-0.54564 0.10232,-0.79427 0.14935,-0.23278 0.36661,-0.39277 0.65164,-0.48007 0.28503,-0.0873 0.55232,-0.0754 0.80202,0.0351 0.26688,0.11972 0.44322,0.31983 0.52916,0.60048 l 0.27596,0.90124 c 0.0779,0.25433 0.16051,0.43023 0.24804,0.52813 0.12862,0.1381 0.30381,0.1927 0.52504,0.1633 l -0.7798,-2.54558 z m 50.79276,3.13883 c 0.14428,0.005 0.28917,0.0422 0.4346,0.11007 l 1.17822,0.54983 c 0.29086,0.13586 0.48634,0.35166 0.58653,0.64648 0.096,0.29288 0.0759,0.58453 -0.0599,0.8754 l -0.87902,1.88205 c -0.13586,0.29087 -0.3468,0.49391 -0.63304,0.60823 -0.29039,0.11234 -0.58142,0.1002 -0.87229,-0.0357 l -1.17771,-0.54984 c -0.29087,-0.13586 -0.48433,-0.35049 -0.58033,-0.64337 -0.10025,-0.29482 -0.0826,-0.58764 0.0532,-0.8785 l 0.87953,-1.88206 c 0.13586,-0.29086 0.34885,-0.49274 0.63924,-0.60513 0.14312,-0.0572 0.28671,-0.0825 0.43098,-0.0775 z m -0.0408,0.82165 c -0.11797,-0.01 -0.21174,0.0607 -0.28164,0.21033 l -0.87901,1.88205 c -0.0932,0.19945 -0.0505,0.34076 0.12815,0.42426 l 1.17771,0.55036 c 0.17868,0.0834 0.31504,0.0253 0.40824,-0.17415 l 0.87902,-1.88206 c 0.0932,-0.19945 0.0505,-0.34086 -0.12816,-0.42426 l -1.17822,-0.55035 c -0.0447,-0.0209 -0.0868,-0.0332 -0.12609,-0.0362 z m -2.75591,3.18379 3.00706,1.87275 -0.43615,0.70073 -3.00757,-1.87275 z m -0.53123,1.61127 c 0.28789,0.008 0.55504,0.11158 0.8015,0.31006 0.24645,0.19848 0.40249,0.43593 0.46819,0.71261 0.0785,0.30465 0.0212,0.57666 -0.17157,0.81598 l -1.6309,2.02519 0.9002,0.72503 -0.5178,0.64285 -2.75899,-2.22209 2.14869,-2.66805 c 0.19273,-0.23931 0.44629,-0.35338 0.76068,-0.34158 z m -42.71883,0.65112 2.31459,2.53473 c 0.21335,0.2337 0.29072,0.50215 0.23151,0.8046 -0.0516,0.27683 -0.19597,0.52356 -0.43305,0.74001 -0.23709,0.21645 -0.49582,0.3376 -0.77618,0.3638 -0.30658,0.0315 -0.56644,-0.0696 -0.7798,-0.30334 l -0.21342,-0.23358 -0.15813,1.55081 -0.76068,-0.83302 0.27595,-2.64635 1.43351,1.56993 c 0.10204,0.1118 0.24269,0.0858 0.42219,-0.078 0.1795,-0.16388 0.21831,-0.30165 0.11627,-0.41341 l -1.72547,-1.89033 -2.00711,1.83245 -0.55656,-0.60978 z m 42.7333,0.15761 c -0.0237,-0.003 -0.0455,-0.002 -0.0651,0.004 -0.0261,0.008 -0.0485,0.0233 -0.0672,0.0465 l -1.6309,2.0252 0.57309,0.46147 1.6309,-2.0252 c 0.0748,-0.0929 0.0177,-0.21548 -0.17157,-0.36794 -0.10849,-0.0874 -0.19813,-0.13538 -0.26923,-0.14418 z m -3.15277,2.39986 2.30734,2.68769 -0.62631,0.53795 -1.40663,-1.63918 0.2496,2.55127 -2.48357,-0.63304 1.40715,1.63866 -0.62632,0.53795 -2.30787,-2.6882 0.65733,-0.56431 2.4169,0.61805 -0.24029,-2.48667 z m -36.14715,1.35495 c 0.20139,0.001 0.38974,0.0681 0.56482,0.20154 l 1.86035,1.418 c 0.2371,0.18069 0.36303,0.41242 0.37828,0.69505 0.0189,0.28541 -0.0622,0.54632 -0.24288,0.78342 l -1.48415,1.9482 -0.65681,-0.50075 0.6842,-0.8971 -1.72909,-1.31775 0.50022,-0.65629 1.7291,1.31723 0.30024,-0.39377 c 0.10841,-0.14226 0.11499,-0.24965 0.0202,-0.32195 l -1.86036,-1.41748 c -0.0912,-0.0695 -0.19079,-0.0332 -0.2992,0.10904 l -1.48415,1.94768 -0.65681,-0.50023 1.48467,-1.94768 c 0.18068,-0.2371 0.40919,-0.38567 0.68574,-0.44597 0.07,-0.0142 0.13855,-0.0215 0.20568,-0.0212 z m 31.90452,2.15905 c 0.13112,-0.0142 0.26328,0.002 0.39687,0.0491 0.27112,0.0911 0.48203,0.26512 0.63252,0.52245 l 1.2361,2.11408 -0.71262,0.41651 -0.56947,-0.97358 -1.87637,1.09709 -0.41651,-0.71262 1.87637,-1.09709 -0.25012,-0.42788 c -0.0903,-0.15438 -0.18697,-0.20128 -0.2899,-0.14108 l -2.019,1.18081 c -0.099,0.0579 -0.10322,0.16393 -0.0129,0.31833 l 1.2361,2.11408 -0.71262,0.41651 -1.2361,-2.11408 c -0.15049,-0.25733 -0.20091,-0.5249 -0.15141,-0.80357 0.0535,-0.28099 0.20708,-0.49572 0.46044,-0.64389 l 2.019,-1.18081 c 0.12866,-0.0753 0.25852,-0.12005 0.38964,-0.13435 z m -27.85981,0.65629 c 0.16466,0.009 0.32712,0.0546 0.48731,0.13797 l 2.4288,1.26349 -0.38086,0.73277 -2.42879,-1.264 c -0.19528,-0.10161 -0.33841,-0.0649 -0.42943,0.11007 l -0.60048,1.15342 c -0.091,0.17494 -0.0387,0.31283 0.15658,0.41444 l 2.42879,1.26401 -0.38086,0.73225 -2.42879,-1.26349 c -0.28478,-0.14818 -0.47835,-0.368 -0.58033,-0.65887 -0.0999,-0.29494 -0.0758,-0.58493 0.0724,-0.86972 l 0.60048,-1.1529 c 0.14818,-0.28478 0.37042,-0.46902 0.66715,-0.55242 0.0747,-0.0219 0.14889,-0.0364 0.22272,-0.0434 0.0554,-0.005 0.11049,-0.007 0.16537,-0.004 z m 24.25227,1.26555 1.24799,3.31556 -0.77876,0.29352 -0.48008,-1.27485 -1.98282,0.74672 0.48007,1.27486 -0.77256,0.29042 -1.24851,-3.31556 0.77257,-0.29042 0.47749,1.26814 1.98282,-0.74673 -0.47749,-1.26814 z m -20.81062,0.30076 0.7705,0.29714 -1.27589,3.30522 -0.76998,-0.29765 z m 1.26814,0.56275 0.79789,0.21188 1.44746,2.83238 0.60719,-2.2872 0.79789,0.21188 -0.90899,3.42408 -0.79788,-0.21187 -1.44229,-2.85254 -0.61237,2.30735 -0.79788,-0.21187 z m 15.64143,0.54829 0.16278,0.80925 -2.68408,0.53951 c -0.21581,0.0434 -0.30446,0.16168 -0.26561,0.35501 l 0.25631,1.27434 c 0.0388,0.1933 0.16607,0.26871 0.38189,0.22531 l 2.68407,-0.5395 0.16279,0.80925 -2.68408,0.53951 c -0.31473,0.0633 -0.60318,0.0132 -0.86506,-0.14935 -0.26279,-0.16704 -0.42561,-0.40771 -0.48886,-0.72243 l -0.25632,-1.27486 c -0.0633,-0.31474 -0.006,-0.59743 0.17312,-0.84853 0.17784,-0.2556 0.42424,-0.41532 0.73897,-0.47852 z m -10.70478,0.632 c 0.0752,-0.006 0.15269,-0.005 0.23255,0.003 l 2.72438,0.27233 -0.0822,0.82114 -2.72438,-0.27234 c -0.21904,-0.0219 -0.3385,0.0658 -0.35812,0.262 l -0.12919,1.29346 c -0.0196,0.19622 0.0802,0.30522 0.29921,0.32712 l 1.90272,0.19017 0.0537,-0.53382 -1.11569,-0.11162 0.0816,-0.82114 1.93735,0.19327 -0.21756,2.17713 -2.72438,-0.27234 c -0.31944,-0.0319 -0.58028,-0.16409 -0.7829,-0.39636 -0.20216,-0.23683 -0.28721,-0.51513 -0.25528,-0.83457 l 0.12919,-1.29346 c 0.0319,-0.31944 0.17038,-0.57312 0.41496,-0.76068 0.18379,-0.14408 0.38829,-0.2253 0.61392,-0.2434 z" /><text
       xml:space="preserve"
       transform="matrix(0.26458333,0,0,0.26458333,-102.30702,16.863582)"
       id="text466"
       style="font-style:normal;font-variant:normal;font-weight:normal;font-stretch:normal;font-size:26px;font-family:Bitsumishi;-inkscape-font-specification:Bitsumishi;white-space:pre;shape-inside:url(#rect468);display:inline;opacity:0.8;fill:#008080" /><text
       xml:space="preserve"
       transform="matrix(0.26458333,0,0,0.26458333,-102.30702,16.863582)"
       id="text472"
       style="font-style:normal;font-variant:normal;font-weight:normal;font-stretch:normal;font-size:26px;font-family:Bitsumishi;-inkscape-font-specification:Bitsumishi;white-space:pre;shape-inside:url(#rect474);display:inline;opacity:0.8;fill:#ffffff" /><text
       xml:space="preserve"
       transform="matrix(0.26458333,0,0,0.26458333,-102.30702,16.863582)"
       id="text832"
       style="font-style:normal;font-variant:normal;font-weight:normal;font-stretch:normal;font-size:26px;font-family:Bitsumishi;-inkscape-font-specification:Bitsumishi;white-space:pre;shape-inside:url(#rect834);display:inline;opacity:0.8;fill:#008080" /><text
       xml:space="preserve"
       transform="matrix(0.26458333,0,0,0.26458333,-102.30702,16.863582)"
       id="text838"
       style="font-style:normal;font-variant:normal;font-weight:normal;font-stretch:normal;font-size:26px;font-family:Bitsumishi;-inkscape-font-specification:Bitsumishi;white-space:pre;shape-inside:url(#rect840);display:inline;opacity:0.8;fill:#ffffff" /></g></svg>
