<?xml version="1.0" encoding="UTF-8" standalone="no"?>
<!-- Created with Inkscape (http://www.inkscape.org/) -->

<svg
   width="547.95508"
   height="271.91898"
   viewBox="0 0 144.97978 71.945229"
   version="1.1"
   id="svg1"
   inkscape:version="1.4.2 (ebf0e940d0, 2025-05-08)"
   sodipodi:docname="lobby_card_ae.svg"
   xml:space="preserve"
   xmlns:inkscape="http://www.inkscape.org/namespaces/inkscape"
   xmlns:sodipodi="http://sodipodi.sourceforge.net/DTD/sodipodi-0.dtd"
   xmlns="http://www.w3.org/2000/svg"
   xmlns:svg="http://www.w3.org/2000/svg"><sodipodi:namedview
     id="namedview1"
     pagecolor="#808080"
     bordercolor="#d82222"
     borderopacity="1"
     inkscape:showpageshadow="0"
     inkscape:pageopacity="0"
     inkscape:pagecheckerboard="0"
     inkscape:deskcolor="#505050"
     inkscape:document-units="px"
     inkscape:zoom="1.3243695"
     inkscape:cx="285.79637"
     inkscape:cy="106.08822"
     inkscape:window-width="1900"
     inkscape:window-height="995"
     inkscape:window-x="10"
     inkscape:window-y="75"
     inkscape:window-maximized="1"
     inkscape:current-layer="layer1"
     showgrid="false" /><defs
     id="defs1"><clipPath
       id="clip1"><path
         d="M 0,0 H 235.48828 V 235.48828 H 0 Z m 0,0"
         id="path1" /></clipPath></defs><g
     inkscape:label="Layer 1"
     inkscape:groupmode="layer"
     id="layer1"
     transform="translate(-92.8687,-62.970832)"><path
       id="use43-6-5"
       style="fill:#ffffff;stroke:#ee111a;stroke-width:0;stroke-linecap:square;stroke-miterlimit:4.6;paint-order:markers fill stroke"
       d="m 92.8687,62.970832 v 14.933455 14.933456 14.932937 27.14538 H 237.84848 V 107.77068 92.837743 77.904287 67.886811 h -6.99139 l -5.52782,-4.915979 z"
       sodipodi:nodetypes="ccccccccccccc" /><rect
       style="fill:#f6f6f6;fill-opacity:1;stroke:#ee111a;stroke-width:0;stroke-linecap:square;stroke-miterlimit:4.6;paint-order:markers fill stroke"
       id="rect418-2"
       width="135.60701"
       height="46.752178"
       x="95.514534"
       y="85.032463" /><g
       id="g1"
       transform="matrix(0.23382633,0,0,0.23382633,96.572867,67.440967)"
       style="opacity:0.04"><circle
         style="opacity:1;fill:#000000;stroke:#ee111a;stroke-width:0;stroke-linecap:square;stroke-miterlimit:4.6;paint-order:markers fill stroke"
         id="path10"
         cx="135.3257"
         cy="135.3257"
         r="135.3257" /><g
         id="surface1"
         transform="translate(17.581558,17.579605)"><g
           clip-path="url(#clip1)"
           clip-rule="nonzero"
           id="g2"><path
             style="fill:#8cd2ff;fill-opacity:1;fill-rule:evenodd;stroke:none"
             d="M 117.74219,0.00390698 C 52.714845,0.00390698 8.525391e-7,52.718751 8.525391e-7,117.74609 8.525391e-7,182.77344 52.714845,235.48828 117.74219,235.48828 c 65.02734,0 117.74609,-52.71484 117.74609,-117.74219 0,-65.027339 -52.71875,-117.74218302 -117.74609,-117.74218302"
             id="path2" /></g><path
           style="fill:#ffffff;fill-opacity:1;fill-rule:nonzero;stroke:none"
           d="m 147.50781,26.597656 c -12.40625,-4.925781 -22.99218,-5.476562 -27.09765,-5.476562 -0.89063,0 -1.47657,0.02734 -1.71094,0.03906 -0.23438,-0.01172 -0.83594,-0.03906 -1.75,-0.03906 -4.20313,0 -15.04688,0.550781 -27.753907,5.476562 -10.039063,3.890625 -21.683594,11.035157 -30.808594,21.25 C 33.535156,75.679688 38.664063,109.24609 38.664063,109.24609 l 4.320312,44.40235 c 0,0 -0.04687,2.39453 1.542969,5.21875 1.324219,2.35156 4.335937,5.22265 4.335937,5.22265 l 60.121099,47.27735 c 0,0 2.5,1.51172 5.17968,2.32812 1.78125,0.54297 3.7461,0.64844 4.41797,0.66797 v 0.004 c 0,0 0.043,0 0.11719,0 0.0781,0 0.125,0 0.125,0 v -0.004 c 0.64062,-0.0195 2.55469,-0.12109 4.30469,-0.66797 2.61718,-0.8164 5.0625,-2.32812 5.0625,-2.32812 l 58.6875,-47.27735 c 0,0 2.9375,-2.87109 4.23046,-5.22265 1.55469,-2.82422 1.50782,-5.21875 1.50782,-5.21875 l 4.21875,-44.40235 c 0,0 5.00781,-33.566402 -19.25391,-61.398434 -8.90625,-10.214843 -20.27734,-17.359375 -30.07422,-21.25"
           id="path3" /><path
           style="fill:#000000;fill-opacity:1;fill-rule:nonzero;stroke:none"
           d="m 196.83594,109.25 -4.21875,44.39844 c 0,0 0.0469,2.39453 -1.50782,5.21875 -1.29296,2.35156 -4.23046,5.22265 -4.23046,5.22265 l -58.69141,47.27735 c 0,0 -2.44141,1.51172 -5.05859,2.32812 -1.75,0.54688 -3.66407,0.64844 -4.30469,0.66797 v 0.004 c 0,0 -0.0469,0 -0.125,0 -0.0742,0 -0.11719,0 -0.11719,0 v -0.004 c -0.67187,-0.0195 -2.63672,-0.125 -4.41797,-0.66797 -2.67968,-0.8164 -5.17968,-2.32812 -5.17968,-2.32812 L 48.863281,164.08984 c 0,0 -3.011718,-2.87109 -4.335937,-5.22265 -1.589844,-2.82422 -1.542969,-5.21875 -1.542969,-5.21875 L 38.664063,109.25 c 0,0 -5.128907,-33.570312 19.722656,-61.402344 9.125,-10.214843 20.769531,-17.359375 30.808594,-21.25 C 101.90234,21.671875 112.74609,21.125 116.94922,21.125 c 0.91406,0 1.51562,0.02344 1.75,0.03516 0.23437,-0.01172 0.82031,-0.03516 1.71094,-0.03516 4.10547,0 14.6914,0.546875 27.09765,5.472656 9.79688,3.890625 21.16797,11.035157 30.07422,21.25 C 201.84375,75.679688 196.83594,109.25 196.83594,109.25 m -13.98047,-66 C 171.08594,29.746094 157.27344,22.945313 150.08984,20.09375 136.51953,14.703125 124.8125,14.125 120.41016,14.125 c -0.74219,0 -1.32032,0.01563 -1.71094,0.03125 -0.39844,-0.01563 -0.98828,-0.03125 -1.75,-0.03125 -4.48828,0 -16.43359,0.578125 -30.285157,5.945313 -7.34375,2.84375 -21.457032,9.632812 -33.5,23.117187 -25.957032,29.066406 -21.921875,63.53125 -21.453125,66.89844 l 4.28125,43.99609 c 0.05469,1.37109 0.414062,4.62891 2.4375,8.22266 1.746093,3.10156 4.972656,6.25 5.605468,6.85156 l 0.5,0.43359 60.121094,47.28125 0.71094,0.49219 c 0.33203,0.19922 3.34375,1.98828 6.75781,3.02734 2.46875,0.75391 4.97266,0.92969 6.24219,0.96875 l 0.008,-0.19921 0.15234,0.15234 v 0.0508 c 0.0195,0 0.0352,0.004 0.0508,0.004 h 0.0195 c 0.0156,0 0.0508,0 0.10547,0 0.0547,0 0.0898,0 0.10937,0 h 0.0117 c 0.0195,0 0.0391,-0.004 0.0586,-0.004 v -0.0508 l 0.14844,-0.15234 0.004,0.19921 c 1.25781,-0.0391 3.73047,-0.21484 6.18359,-0.98437 3.35937,-1.04688 6.32422,-2.84766 6.64844,-3.05078 l 0.71484,-0.50391 58.6875,-47.28125 0.5,-0.4414 c 0.61328,-0.60157 3.76953,-3.75391 5.47266,-6.85938 1.96875,-3.57812 2.3164,-6.81641 2.36718,-8.17187 l 4.17969,-44 C 204.24219,106.72656 208.1875,72.304688 182.85547,43.25"
           id="path4" /><path
           style="fill:#000000;fill-opacity:1;fill-rule:evenodd;stroke:none"
           d="m 131.19922,151.9375 40.22656,-17.76563 c 1.84375,-0.8164 3.98047,0.0547 4.77734,1.94532 0.79297,1.88672 -0.0586,4.07812 -1.89843,4.89453 l -40.22266,17.76562 c -1.84375,0.8125 -3.98437,-0.0547 -4.78125,-1.94531 -0.79297,-1.89062 0.0547,-4.07812 1.89844,-4.89453"
           id="path5" /><path
           style="fill:#000000;fill-opacity:1;fill-rule:evenodd;stroke:none"
           d="m 130.05078,178.89844 41.32813,-27.77735 c 1.66015,-1.11718 3.89062,-0.64453 4.98046,1.0586 1.08985,1.69922 0.625,3.98437 -1.03515,5.09765 l -41.32813,27.78125 c -1.66015,1.11719 -3.88672,0.64063 -4.97656,-1.05859 -1.08984,-1.69922 -0.62891,-3.98438 1.03125,-5.10156"
           id="path6" /><path
           style="fill:#000000;fill-opacity:1;fill-rule:evenodd;stroke:none"
           d="M 105.89844,151.9375 64.695313,134.17187 c -1.890625,-0.8164 -4.082032,0.0547 -4.894532,1.94532 -0.816406,1.88672 0.05469,4.07812 1.945313,4.89453 l 41.203126,17.76562 c 1.88672,0.8125 4.07812,-0.0547 4.89453,-1.94531 0.8125,-1.89062 -0.0586,-4.07812 -1.94531,-4.89453"
           id="path7" /><path
           style="fill:#000000;fill-opacity:1;fill-rule:evenodd;stroke:none"
           d="M 107.07422,178.89844 64.742188,151.12109 c -1.703125,-1.11718 -3.984375,-0.64453 -5.101563,1.0586 -1.117187,1.69922 -0.644531,3.98437 1.058594,5.09765 l 42.335941,27.78125 c 1.69922,1.11719 3.98437,0.64063 5.10156,-1.05859 1.11328,-1.69922 0.64062,-3.98438 -1.0625,-5.10156"
           id="path8" /><path
           style="fill:#000000;fill-opacity:1;fill-rule:nonzero;stroke:none"
           d="m 151.25781,79.808594 c -5.8789,-0.582031 -11.91015,-1 -17.15625,-1.21875 -8.78906,-0.371094 -15.38281,-0.300781 -15.40234,-0.300781 -0.0117,0 -6.76563,-0.07031 -15.76953,0.300781 -5.378909,0.21875 -11.55469,0.636719 -17.578127,1.21875 C 63.484375,81.910156 53.0625,85.609375 53.0625,85.609375 l 3.601563,27.238285 c 0,0 0.574218,2.45312 2.015625,4.21875 1.496093,1.83593 3.863281,2.98437 3.863281,2.98437 L 90.382813,133.25 c 0,0 1.746093,1.31641 4.847656,0.85156 2.132812,-0.32031 3.914062,-2.65234 3.914062,-2.65234 l 15.718749,-22.80078 c 0,0 0.875,-1.25 1.85156,-1.83203 0.9375,-0.55469 1.96875,-0.44922 1.98438,-0.44922 h 0.004 c 0.0156,0 1.02734,-0.10547 1.9375,0.44922 0.95312,0.58203 1.80859,1.83203 1.80859,1.83203 l 15.34765,22.80078 c 0,0 1.73438,2.33203 3.81641,2.65234 3.03125,0.46485 4.73438,-0.85156 4.73438,-0.85156 l 27.17578,-13.19922 c 0,0 2.30859,-1.14844 3.76953,-2.98437 1.41015,-1.76563 1.96875,-4.21875 1.96875,-4.21875 l 3.51562,-27.238285 c 0,0 -10.17187,-3.699219 -31.51953,-5.800781"
           id="path9" /></g></g></g></svg>
