<?xml version="1.0" encoding="UTF-8" standalone="no"?>
<!-- Created with Inkscape (http://www.inkscape.org/) -->

<svg
   width="547.95508"
   height="271.91898"
   viewBox="0 0 144.97978 71.945229"
   version="1.1"
   id="svg1"
   inkscape:version="1.4.2 (ebf0e940d0, 2025-05-08)"
   sodipodi:docname="lobby_card_blank.svg"
   xml:space="preserve"
   xmlns:inkscape="http://www.inkscape.org/namespaces/inkscape"
   xmlns:sodipodi="http://sodipodi.sourceforge.net/DTD/sodipodi-0.dtd"
   xmlns:xlink="http://www.w3.org/1999/xlink"
   xmlns="http://www.w3.org/2000/svg"
   xmlns:svg="http://www.w3.org/2000/svg"><sodipodi:namedview
     id="namedview1"
     pagecolor="#808080"
     bordercolor="#d82222"
     borderopacity="1"
     inkscape:showpageshadow="0"
     inkscape:pageopacity="0"
     inkscape:pagecheckerboard="0"
     inkscape:deskcolor="#505050"
     inkscape:document-units="px"
     inkscape:zoom="1.1536593"
     inkscape:cx="400.46486"
     inkscape:cy="110.5179"
     inkscape:window-width="1900"
     inkscape:window-height="995"
     inkscape:window-x="10"
     inkscape:window-y="75"
     inkscape:window-maximized="1"
     inkscape:current-layer="layer1"
     showgrid="false" /><defs
     id="defs1"><clipPath
       id="clip1"><path
         d="M 0,0 H 235.48828 V 235.48828 H 0 Z m 0,0"
         id="path1" /></clipPath><linearGradient
       id="linearGradient10"
       inkscape:collect="always"><stop
         style="stop-color:#713eff;stop-opacity:1"
         offset="0"
         id="stop11" /><stop
         style="stop-color:#7b4cfc;stop-opacity:1;"
         offset="1"
         id="stop10" /></linearGradient><linearGradient
       id="linearGradient8"
       inkscape:collect="always"><stop
         style="stop-color:#8ac0ca;stop-opacity:1;"
         offset="0.20330663"
         id="stop8" /><stop
         style="stop-color:#7b4cfc;stop-opacity:1;"
         offset="1"
         id="stop9" /></linearGradient><rect
       x="775.22852"
       y="761.52496"
       width="1399.7181"
       height="146.82358"
       id="rect10575" /><rect
       x="420.13736"
       y="420.13736"
       width="338.37149"
       height="62.629169"
       id="rect4585" /><rect
       x="55.670376"
       y="410.569"
       width="370.55591"
       height="108.7312"
       id="rect4579" /><rect
       x="55.670376"
       y="422.74689"
       width="357.50818"
       height="108.7312"
       id="rect4573" /><rect
       x="-77.86058"
       y="414.32953"
       width="2235.7109"
       height="253.04689"
       id="rect2691" /><rect
       x="-102.8872"
       y="367.05704"
       width="1774.109"
       height="280.85425"
       id="rect2685" /><rect
       x="-50.05323"
       y="367.05704"
       width="1865.8732"
       height="222.4588"
       id="rect2669" /><rect
       x="-86.202789"
       y="931.54626"
       width="1938.1722"
       height="405.98734"
       id="rect1933" /><rect
       x="114.2079"
       y="476.33051"
       width="1498.6305"
       height="130.92125"
       id="rect9068" /><rect
       x="-80.781197"
       y="509.75723"
       width="1721.4752"
       height="158.77684"
       id="rect9062" /><rect
       x="-25.070026"
       y="50.140053"
       width="1498.6305"
       height="158.77684"
       id="rect9056" /><rect
       x="16.446295"
       y="30.151539"
       width="1795.3871"
       height="301.51538"
       id="rect360" /><rect
       x="55.491112"
       y="24.481373"
       width="3140.144"
       height="450.45724"
       id="rect300" /><rect
       x="84.868759"
       y="97.925491"
       width="905.81073"
       height="293.77646"
       id="rect294" /><rect
       x="420.13736"
       y="420.13736"
       width="431.78244"
       height="101.5504"
       id="rect4585-7" /><rect
       x="420.13736"
       y="420.13736"
       width="431.78244"
       height="101.5504"
       id="rect4585-7-9" /><rect
       x="420.13736"
       y="420.13736"
       width="431.78244"
       height="101.5504"
       id="rect4585-7-9-2" /><rect
       x="55.670376"
       y="410.569"
       width="370.55591"
       height="108.7312"
       id="rect4579-9" /><rect
       x="420.13736"
       y="420.13736"
       width="338.37149"
       height="62.629169"
       id="rect4585-73" /><rect
       x="420.13736"
       y="420.13736"
       width="431.78244"
       height="101.5504"
       id="rect4585-7-6" /><rect
       x="420.13736"
       y="420.13736"
       width="431.78244"
       height="101.5504"
       id="rect4585-7-9-1" /><rect
       x="420.13736"
       y="420.13736"
       width="431.78244"
       height="101.5504"
       id="rect4585-7-9-2-2" /><linearGradient
       inkscape:collect="always"
       xlink:href="#linearGradient8"
       id="linearGradient9"
       x1="268.95236"
       y1="36.860687"
       x2="283.2207"
       y2="56.76144"
       gradientUnits="userSpaceOnUse"
       gradientTransform="matrix(2.6404531,0,0,2.6404531,-953.13372,-12.324232)" /><linearGradient
       inkscape:collect="always"
       xlink:href="#linearGradient10"
       id="linearGradient11"
       x1="261.06799"
       y1="39.910393"
       x2="273.60187"
       y2="39.051617"
       gradientUnits="userSpaceOnUse"
       gradientTransform="matrix(1.5102189,2.6157758,-2.6157758,1.5102189,-501.98578,-620.28755)" /></defs><g
     inkscape:label="Layer 1"
     inkscape:groupmode="layer"
     id="layer1"
     transform="translate(-92.8687,-62.970832)"><path
       id="use43-6-5"
       style="fill:#ffffff;stroke:#ee111a;stroke-width:0;stroke-linecap:square;stroke-miterlimit:4.6;paint-order:markers fill stroke"
       d="m 92.8687,62.970832 v 14.933455 14.933456 14.932937 27.14538 H 237.84848 V 107.77068 92.837743 77.904287 67.886811 h -6.99139 l -5.52782,-4.915979 z"
       sodipodi:nodetypes="ccccccccccccc" /><rect
       style="fill:#f6f6f6;fill-opacity:1;stroke:#ee111a;stroke-width:0;stroke-linecap:square;stroke-miterlimit:4.6;paint-order:markers fill stroke"
       id="rect418-2"
       width="133.51324"
       height="47.351952"
       x="95.514534"
       y="85.032463" /><g
       id="g12"
       transform="matrix(0.63285358,0,0,0.63285358,260.93767,21.985952)"
       style="opacity:0.05"><circle
         style="opacity:0.6;fill:#646464;stroke:#646464;stroke-width:0;paint-order:markers fill stroke"
         id="path2"
         cx="-209.72014"
         cy="121.82538"
         r="45.735451" /><circle
         style="fill:#ffffff;fill-opacity:1;stroke:#646464;stroke-width:0;paint-order:markers fill stroke"
         id="path6"
         cx="-209.72014"
         cy="121.82538"
         r="46.228245" /><path
         id="path4"
         style="fill:#646464;fill-opacity:1;stroke:#646464;stroke-width:0;paint-order:markers fill stroke"
         d="m -209.72006,71.825478 a 50,50 0 0 0 -50.00005,50.000052 50,50 0 0 0 50.00005,50.00005 50,50 0 0 0 50.00005,-50.00005 50,50 0 0 0 -50.00005,-50.000052 z m 0,5.179012 a 44.820786,44.820786 0 0 1 44.82052,44.82104 44.820786,44.820786 0 0 1 -44.82052,44.82052 44.820786,44.820786 0 0 1 -44.82104,-44.82052 44.820786,44.820786 0 0 1 44.82104,-44.82104 z" /><path
         id="path5"
         style="fill:url(#linearGradient9);fill-opacity:1;stroke:#646464;stroke-width:0;paint-order:markers fill stroke"
         inkscape:transform-center-x="8.9662242"
         inkscape:transform-center-y="-1.8730714e-06"
         d="m -209.74333,84.20095 a 37.626103,37.626103 0 0 0 -32.49413,18.865 l 32.49413,18.76061 z" /><path
         id="path5-9"
         style="fill:url(#linearGradient11);fill-opacity:1;stroke:#646464;stroke-width:0;paint-order:markers fill stroke"
         inkscape:transform-center-x="-10.2565"
         inkscape:transform-center-y="-6.2269832e-05"
         d="m -209.69732,121.82449 -1e-5,37.6256 a 37.626103,37.626103 0 0 0 32.49408,-18.86509 z" /></g><path
       id="barcode_bar1"
       style="fill:#f6f6f6;fill-opacity:1;stroke-width:0.364325"
       d="m 231.57704,132.38454 h 3.78328 v -0.49846 h -3.78328 z m 0,-0.99689 h 3.78328 v -0.49844 h -3.78328 z m 0,-1.99376 h 3.78328 V 128.397 h -3.78328 z m 0,-1.49533 h 3.78328 v -0.49845 h -3.78328 z m 0,-1.99377 h 3.78328 v -0.99687 h -3.78328 z m 0,-1.49533 h 3.78328 v -0.49843 h -3.78328 z m 0,-1.99376 h 3.78328 v -0.99689 h -3.78328 z m 0,-1.49532 h 3.78328 v -0.49844 h -3.78328 z m 0,-1.99376 h 3.78328 v -0.99689 h -3.78328 z m 0,-1.49533 h 3.78328 v -0.49845 h -3.78328 z m 0,-1.99378 h 3.78328 v -0.99687 h -3.78328 z m 0,-1.49532 h 3.78328 v -0.49844 h -3.78328 z m 0,-1.99376 h 3.78328 v -0.99689 h -3.78328 z m 0,-1.49532 h 3.78328 v -0.49845 h -3.78328 z m 0,-0.9969 h 3.78328 v -0.49843 h -3.78328 z m 0,-0.99687 h 3.78328 v -0.49845 h -3.78328 z m 0,-0.99689 h 3.78328 v -1.49532 h -3.78328 z m 0,-2.49221 h 3.78328 v -0.49844 h -3.78328 z m 0,-0.99687 h 3.78328 v -1.49533 h -3.78328 z m 0,-2.49222 h 3.78328 v -0.49843 h -3.78328 z m 0,-0.99689 h 3.78328 v -1.495321 h -3.78328 z m 0,-2.492191 h 3.78328 v -0.498455 h -3.78328 z m 0,-0.99689 h 3.78328 v -1.495323 h -3.78328 z m 0,-2.492213 h 3.78328 v -0.498435 h -3.78328 z m 0,-0.99687 h 3.78328 v -1.495325 h -3.78328 z m 0,-2.492214 h 3.78328 v -0.498435 h -3.78328 z m 0,-0.996889 h 3.78328 v -1.495325 h -3.78328 z m 0,-2.492195 h 3.78328 v -0.498454 h -3.78328 z m 0,-0.996889 h 3.78328 v -0.498436 h -3.78328 z m 0,-0.99689 h 3.78328 v -0.498435 h -3.78328 z" /></g></svg>
