<?xml version="1.0" encoding="UTF-8" standalone="no"?>
<!-- Created with Inkscape (http://www.inkscape.org/) -->

<svg
   width="90"
   height="30"
   viewBox="0 0 23.8125 7.9375"
   version="1.1"
   id="svg1"
   inkscape:version="1.4.2 (ebf0e940d0, 2025-05-08)"
   sodipodi:docname="status_ornament_adhoc.svg"
   xmlns:inkscape="http://www.inkscape.org/namespaces/inkscape"
   xmlns:sodipodi="http://sodipodi.sourceforge.net/DTD/sodipodi-0.dtd"
   xmlns="http://www.w3.org/2000/svg"
   xmlns:svg="http://www.w3.org/2000/svg">
  <sodipodi:namedview
     id="namedview1"
     pagecolor="#ffffff"
     bordercolor="#d82222"
     borderopacity="1"
     inkscape:showpageshadow="0"
     inkscape:pageopacity="0"
     inkscape:pagecheckerboard="0"
     inkscape:deskcolor="#505050"
     inkscape:document-units="px"
     inkscape:zoom="5.3147669"
     inkscape:cx="49.578844"
     inkscape:cy="25.306849"
     inkscape:window-width="1900"
     inkscape:window-height="995"
     inkscape:window-x="10"
     inkscape:window-y="75"
     inkscape:window-maximized="1"
     inkscape:current-layer="layer1" />
  <defs
     id="defs1" />
  <g
     inkscape:label="Layer 1"
     inkscape:groupmode="layer"
     id="layer1"
     transform="translate(-89.429165,-163.5125)">
    <g
       id="g3"
       transform="matrix(0.23915298,0,0,0.23915298,25.999937,140.38271)"
       style="fill:#713eff;stroke-width:4.18142">
      <path
         style="font-size:28.5355px;line-height:63%;font-family:Bitsumishi;-inkscape-font-specification:Bitsumishi;text-align:end;letter-spacing:0px;text-anchor:end;fill:#713eff;stroke-width:6.63801;stroke-linecap:square;paint-order:markers fill stroke"
         d="m 287.43492,111.6697 h -3.42426 v -4.67982 h -9.01721 v -3.42426 h 9.01721 v -2.05456 q 0,-1.11288 -0.74192,-1.11288 h -9.70207 q -0.71339,0 -0.71339,1.11288 v 10.15864 h -3.42426 v -10.15864 q 0,-1.854805 1.14142,-3.195973 1.16996,-1.341169 2.99623,-1.341169 h 9.70207 q 1.85481,0 2.99623,1.341169 1.16995,1.341168 1.16995,3.195973 z m 17.52079,-4.65129 q 0,1.99749 -1.39824,3.33866 -1.3697,1.31263 -3.36718,1.31263 h -11.3286 v -9.27404 h 3.42426 v 5.84978 h 7.90434 q 1.31263,0 1.31263,-1.22703 v -5.39321 q 0,-1.22702 -1.31263,-1.22702 h -11.3286 v -3.424262 h 11.3286 q 1.99748,0 3.36718,1.341169 1.39824,1.312633 1.39824,3.310113 z m 17.09278,4.65129 h -3.4528 v -5.65003 h -8.78893 v 5.65003 H 306.3825 V 96.973918 h 3.42426 v 5.621492 h 8.78893 v -5.621492 h 3.4528 z m 19.63245,-4.65129 q 0,1.99749 -1.39824,3.33866 -1.39824,1.31263 -3.39573,1.31263 h -8.61772 q -1.99748,0 -3.39572,-1.31263 -1.39824,-1.34117 -1.39824,-3.33866 v -5.39321 q 0,-1.99748 1.39824,-3.310113 1.39824,-1.341169 3.39572,-1.341169 h 8.61772 q 1.99749,0 3.39573,1.341169 1.39824,1.312633 1.39824,3.310113 z m -3.42426,0 v -5.39321 q 0,-1.22702 -1.36971,-1.22702 h -8.61772 q -1.3697,0 -1.3697,1.22702 v 5.39321 q 0,1.22703 1.3697,1.22703 h 8.61772 q 1.36971,0 1.36971,-1.22703 z m 21.00212,4.65129 h -11.35713 q -1.99749,0 -3.39573,-1.31263 -1.39824,-1.34117 -1.39824,-3.33866 v -5.39321 q 0,-1.99748 1.39824,-3.310113 1.39824,-1.341169 3.39573,-1.341169 h 11.35713 v 3.424262 h -11.35713 q -1.36971,0 -1.36971,1.22702 v 5.39321 q 0,1.22703 1.36971,1.22703 h 11.35713 z m 5.53586,0 h -4.10911 v -3.42426 h 4.10911 z"
         id="path2" />
      <path
         style="font-size:28.5355px;line-height:63%;font-family:Bitsumishi;-inkscape-font-specification:Bitsumishi;text-align:end;letter-spacing:0px;text-anchor:end;fill:#713eff;stroke-width:6.63801;stroke-linecap:square;paint-order:markers fill stroke"
         d="m 308.65152,125.10992 q 0,1.85481 -1.11288,3.16744 -1.19849,1.36971 -3.02477,1.36971 h -12.66976 v -3.42426 h 12.66976 q 0.71339,0 0.71339,-1.11289 0,-1.11288 -0.71339,-1.11288 h -9.21696 q -1.82628,0 -3.02477,-1.36971 -1.14142,-1.28409 -1.14142,-3.1389 0,-1.85481 1.16996,-3.19598 1.16995,-1.34117 2.99623,-1.34117 h 12.66976 v 3.42426 h -12.66976 q -0.71339,0 -0.71339,1.11289 0,1.08435 0.71339,1.08435 h 9.21696 q 1.82628,0 3.02477,1.3697 1.11288,1.31264 1.11288,3.16744 z m 18.0915,-6.73438 h -6.62024 v 11.27153 h -3.42426 v -11.27153 h -6.62024 v -3.42426 h 16.66474 z m 19.23294,11.27153 h -3.42426 v -4.67983 h -9.01721 v -3.42425 h 9.01721 v -2.05456 q 0,-1.11289 -0.74192,-1.11289 h -9.70207 q -0.71339,0 -0.71339,1.11289 v 10.15864 h -3.42426 v -10.15864 q 0,-1.85481 1.14142,-3.19598 1.16996,-1.34117 2.99623,-1.34117 h 9.70207 q 1.85481,0 2.99623,1.34117 1.16995,1.34117 1.16995,3.19598 z m 18.09151,-11.27153 h -6.62024 v 11.27153 h -3.42426 v -11.27153 h -6.62024 v -3.42426 h 16.66474 z"
         id="path3" />
      <path
         id="path40"
         style="fill:#713eff;fill-opacity:1;stroke-width:6.63797;stroke-linecap:square;paint-order:markers fill stroke"
         d="m 277.15723,115.95118 c -3.01274,-7e-5 -5.67163,1.96891 -6.5503,4.85068 -0.30021,-0.0626 -0.60612,-0.0941 -0.91279,-0.094 -2.46853,-1e-5 -4.46964,2.0011 -4.46964,4.46961 0,2.4685 2.00111,4.46962 4.46964,4.46961 1.24335,-10e-6 13.49327,-3e-5 14.72528,0 2.94403,5e-5 5.33076,-2.38666 5.33076,-5.3308 -8e-5,-2.94405 -2.38677,-5.33065 -5.33076,-5.33061 -0.4888,-2e-5 -0.97517,0.0672 -1.44553,0.19964 -1.24942,-2.01105 -3.44903,-3.23404 -5.81666,-3.23406 z m -2.41908,5.1043 c 0.5773,0 1.04205,0.46488 1.04205,1.04224 v 1.28812 c 0,0.57735 -0.46475,1.04204 -1.04205,1.04204 -0.5774,0 -1.04223,-0.46469 -1.04223,-1.04204 v -1.28812 c 0,-0.57736 0.46483,-1.04224 1.04223,-1.04224 z m 5.0272,0 c 0.5773,0 1.04225,0.46488 1.04225,1.04224 v 1.28812 c 0,0.57735 -0.46495,1.04204 -1.04225,1.04204 -0.57736,0 -1.04211,-0.46469 -1.04211,-1.04204 v -1.28812 c 0,-0.57736 0.46475,-1.04224 1.04211,-1.04224 z" />
    </g>
  </g>
</svg>
